<?xml version="1.0" encoding="UTF-8"?>
<svg id="Layer_2" data-name="Layer 2" xmlns="http://www.w3.org/2000/svg" viewBox="0 0 414.23 290.04">
  <defs>
    <style>
      .cls-1 {
        fill: #fff;
      }

      .cls-2 {
        fill: #192a43;
        opacity: .2;
      }

      .cls-3 {
        fill: none;
        stroke: #133f26;
        stroke-linecap: round;
        stroke-linejoin: round;
        stroke-width: 7px;
      }
    </style>
  </defs>
  <g id="Layer_1-2" data-name="Layer 1">
    <g>
      <g>
        <path class="cls-1" d="M369.23,32.22c-6.91-2.35-18.52-6.17-32.25-11.17-16.98-6.17-32.72-8.02-43.76-4.3l-.36-1.05c21.48-17.02,42.46-14.86,51.51-3.66,9.57,11.84,24.86,20.18,24.86,20.18Z"/>
        <path class="cls-1" d="M69.09,184.47c-24.43,2.55-50.18,5.58-59.88,6.65-6.16-42.71-22.4-81.62,12.32-108.28l60.67,1.8,42.55,1.88,44.6,1.97,.34,.22c-1.06,1.62-2.09,3.3-3.08,5.09-5.78,10.4-22.25,25.46-32.16,32.18-8.6,5.81-51.53,24.29-65.35,58.48Z"/>
        <path class="cls-1" d="M69.09,184.47c13.82-34.19,56.75-52.67,65.35-58.48,9.92-6.72,26.38-21.78,32.16-32.18,1-1.79,2.02-3.47,3.08-5.09,2.81-4.3,5.89-8.09,9.23-11.94,2.75-3.15,5.66-6.33,8.77-9.83,8.33-9.41,12.45-16.14,19.15-16.65,6.69-.52,16.1,7.82,12.26,19.79-.4,1.25-1.01,2.93-1.82,5-3.43,8.72-10.42,24.49-20.24,45.57-5.14,11.04-8.31,24.44-13.6,33.21-3.9,6.46-5.78,18.12-6.04,19.8l.27,.04c5.04-.71,35.63-4.79,54.01-7.62l-.54,.47s-5,15.66-5.41,23.18c-.4,7.51-1.98,11.67-6.01,13.92-4.04,2.24-23.2,15.67-25.4,17.09s-65.33,26.66-65.33,26.66c0,0-32.79,28.46-35.68,39.13-43.73,5.6-63.48-14.47-85.76-46.85,21.96-10.51,41.89-25.22,57.46-38.27,.52-6.03,1.95-11.68,4.1-16.95Z"/>
        <path class="cls-2" d="M206.29,50.84c-1.53,.11-2.94,.56-4.28,1.28,5.22,2.75,9.66,9.63,6.82,18.5-.4,1.25-1.01,2.93-1.82,5-3.43,8.72-10.42,24.49-20.24,45.57-5.14,11.04-8.31,24.44-13.6,33.21-.94,1.55-1.93,3.53-2.91,5.66-.48,4.34-.73,8.93,2.23,12.31,1.21,1.38,2.78,2.34,4.49,3.09,.7-4.07,2.69-15.71,5.91-21.06,5.29-8.78,8.46-22.18,13.6-33.21,9.82-21.08,16.82-36.85,20.24-45.57,.8-2.07,1.42-3.74,1.82-5,3.84-11.96-5.57-20.3-12.26-19.79Z"/>
        <path class="cls-2" d="M231.6,165.48l-.54,.48s-5.01,15.66-5.41,23.17c-.4,7.51-1.98,11.67-6.01,13.92-1.41,.78-4.63,2.9-8.34,5.41,2.42-7.23,4.41-15.4,4.62-19.33,.33-6.32,3.91-18.38,5.05-22.07,3.78-.55,7.39-1.08,10.62-1.58Z"/>
        <path class="cls-1" d="M129.26,85.25l-.05,1.26-39.05-1.88v-.09c-.48-3.34-1.4-14.15,7.07-15l31.12,4.63,.38,.08c-.85,5.32,.54,10.99,.54,10.99Z"/>
        <path class="cls-1" d="M178.25,76.14l.66,.63c-3.07,3.85-5.89,7.64-8.47,11.94l-.31-.22-40.93-1.97,.05-1.26s-1.39-5.67-.54-10.99c.67-4.17,2.72-8.13,7.91-8.97l29.31,1.58c1.21,.07,2.39,.4,3.48,1,2.82,1.54,8.13,4.85,8.83,8.27Z"/>
        <path class="cls-1" d="M396.03,102.34l-.02,.65s7.17,3.25,5.33,12.25c0,0-2.8,12.48-15.14,15.7l-5.87-.16-.06,2.08-.65,12.12c-.45,8.26-8.24,14.8-17.96,14.92h-.43l-6.77,.06v1.2s-18.98,15.23-24.88,17.36c-8.13,2.95-64.57-7.06-80.31-16.21-.83,0-4.36,.5-9.42,1.28-18.39,2.82-57.16,9.42-62.21,10.13l-.27-.04c.26-1.68,2.14-13.34,6.04-19.8,5.29-8.78,8.46-22.18,13.6-33.21,9.82-21.08,16.82-36.85,20.24-45.57l.14,.06,1.37-.21c2.8-.45,5.45-1.6,7.69-3.34,11.74-9.16,33.86-26.39,48.86-42.99,5.04-5.57,10.7-9.31,17.07-11.46,13.38-4.52,29.91-1.96,50.49,5.52,16.65,6.06,29.45,10.5,37.83,13.34,3.45,1.17,6.15,2.07,8.04,2.7,2.37,.78,4.63,1.89,6.63,3.38,2.76,2.05,5.49,5.32,4.84,13.8-.76,9.62-3.28,11.65-4.3,12.07l1.69,.14s14.44,4.51,13,17.01c-1.45,12.5-10.55,16.43-14.07,17.26,0,0-.18,0-.54-.03Z"/>
        <path class="cls-2" d="M411.04,85.24c-1.45,12.5-10.55,16.43-14.07,17.26,0,0-.18,0-.54-.03l-.02,.65s7.17,3.25,5.33,12.25c0,0-2.8,12.48-15.14,15.7l-5.87-.16-.06,2.08-.65,12.12c-.45,8.26-8.24,14.8-17.96,14.92h-.43l-6.77,.06v1.2s-18.98,15.23-24.88,17.36c-2.32,.84-8.56,.63-16.66-.32,5.99-2.36,24.8-18.26,24.8-18.26v-1.26s6.76-.07,6.76-.07h.43c9.72-.12,17.51-7.03,17.96-15.74l.23-4.42c-10.78-.7-31.92-2.17-32.74-2.31-1.08-.18-3.78-4.51-2.16-6.67,1.17-1.55,22.72,.16,35.29,1.18l.03-.56,.06-2.18,5.87,.17c9.05-1.94,13.92-6.17,16.59-9.99,2.22-3.19,.07-7.6-3.81-7.94-17.78-1.58-47.65-3.5-53.31-3.74-8.46-.36-8.64-7.39-8.64-7.39l62.73,3.03c-1.65-2.44-3.77-1.91-3.77-1.91l2.43,1.76c.35,.02,2.03-.68,2.03-.68,2.72-.68,13.77-6.73,13.78-15.61,0-4.75-3.81-8.63-8.54-9.06-10.45-.96-25.54-2.32-32.28-2.76-10.81-.72-22.16-.36-27.2-10.45,0,0,37.35,2.68,53.81,3.82l-9.67-1.66c1.01-.44,14.05-4.33,12.42-15.32-1.04-7.1-3.68-12.07-5.77-14.34,0,0,0,0,0,0,3.67,1.24,6.52,2.2,8.5,2.85,2.37,.78,4.63,1.89,6.63,3.38,2.76,2.05,5.49,5.32,4.84,13.8-.76,9.62-3.13,11.26-4.14,11.68l1.54,.54s14.44,4.51,13,17.01Z"/>
      </g>
      <g>
        <path class="cls-3" d="M330.7,62.46l63.1,5.32c3.94,.33,7.76,1.7,10.87,4.14,3.43,2.69,6.68,6.94,5.96,13.19-1.44,12.5-10.54,16.43-14.07,17.26,0,0-72.07-3.53-75.17-3.36"/>
        <path class="cls-3" d="M396.01,102.99s7.17,3.25,5.33,12.25c0,0-2.8,12.49-15.14,15.7l-57.3-1.56"/>
        <path class="cls-3" d="M380.27,132.86l-.65,12.12c-.44,8.25-8.24,14.79-17.95,14.92-.14,0-.29,0-.43,0l-29.57,.24"/>
        <line class="cls-3" x1="21.53" y1="82.84" x2="169.34" y2="88.49"/>
        <path class="cls-3" d="M395.44,67.7s3.85,.31,4.8-11.81c.66-8.49-2.09-11.76-4.84-13.81-2-1.49-4.26-2.59-6.63-3.37-6.52-2.15-22.38-7.49-45.87-16.04-30.36-11.05-51.91-11.37-67.56,5.93s-37.13,33.82-48.86,42.98c-2.24,1.75-4.89,2.9-7.69,3.34l-1.37,.22"/>
        <path class="cls-3" d="M372.39,33.21s-18.05-8.38-28.32-21.07c-9.71-12.01-30.44-12.68-53.49,5.58"/>
        <path class="cls-3" d="M65.68,185.1c-24.43,2.55-46.77,4.95-56.48,6.02"/>
        <path class="cls-3" d="M249.28,162.29c-3.87,.03-65.2,10.5-71.62,11.41"/>
        <path class="cls-3" d="M354.48,161.15s-18.99,15.23-24.89,17.36c-8.13,2.94-64.57-7.07-80.31-16.22,0,0-5.21-2.89-8.59-7.27"/>
        <path class="cls-3" d="M7.53,239.69c21.96-10.52,41.89-25.22,57.46-38.27,3.86-45.15,59.52-68.73,69.44-75.44,9.93-6.71,26.38-21.77,32.16-32.18,5.78-10.41,12.75-17.45,21.08-26.85,8.33-9.41,12.46-16.14,19.15-16.65,6.69-.51,16.1,7.82,12.27,19.79-2.1,6.55-9.92,24.5-22.06,50.57-5.14,11.04-8.31,24.44-13.6,33.22-4.21,6.98-6.07,20.02-6.07,20.02"/>
        <path class="cls-3" d="M231.85,165.82s-6.26,16.76-6.67,24.28-3.41,12.13-7.44,14.38-22.41,15.17-24.61,16.6c-2.2,1.43-64.17,26.33-64.17,26.33,0,0-32.78,28.46-35.67,39.13"/>
        <path class="cls-3" d="M129.11,85.48s-4.36-18.01,7.46-19.98l29.33,1.44c1.22,.06,2.4,.39,3.48,.98,2.82,1.53,8.11,4.81,8.8,8.22"/>
        <path class="cls-3" d="M89.97,84.97c-.47-3.33-1.33-14.13,7.14-15.02l31.13,4.48"/>
      </g>
    </g>
  </g>
</svg>