<?xml version="1.0" encoding="UTF-8"?>
<svg id="Layer_2" data-name="Layer 2" xmlns="http://www.w3.org/2000/svg" viewBox="0 0 324.32 306.67">
  <defs>
    <style>
      .cls-1, .cls-2 {
        fill: #fff;
      }

      .cls-3, .cls-4, .cls-5 {
        fill: #192a43;
      }

      .cls-6 {
        fill: #567458;
      }

      .cls-4 {
        opacity: .2;
      }

      .cls-7, .cls-2 {
        opacity: .35;
      }

      .cls-8 {
        fill: none;
        stroke: #192a43;
        stroke-linecap: round;
        stroke-linejoin: round;
        stroke-width: 7px;
      }

      .cls-5 {
        opacity: .66;
      }
    </style>
  </defs>
  <g id="Layer_1-2" data-name="Layer 1">
    <g>
      <g>
        <g>
          <g>
            <path class="cls-1" d="M289.8,8.61v14.34h-34.36V8.66c0-.89,.45-1.74,1.24-2.19,6.23-3.56,25.1-4.33,31.91-.04,.75,.48,1.21,1.29,1.21,2.18Z"/>
            <path class="cls-1" d="M320.82,285.57v12.06c0,1.63-1.34,2.95-2.99,2.93-14.33-.15-75.86-.76-90.35-.24-1.67,.06-3.06-1.27-3.06-2.93v-11.82h96.4Z"/>
            <path class="cls-1" d="M289.8,22.95v18.11c0,7.08,1.4,14.09,4.13,20.63l23.5,43.52c1.55,3.63,2.51,7.47,2.85,11.39l-.4,.03h-94.28l-.64-.05c.34-3.91,1.29-7.75,2.85-11.37l23.5-43.52c2.72-6.54,4.13-13.55,4.13-20.63V22.95h34.36Z"/>
            <path class="cls-1" d="M320.82,270.17v15.4h-96.4v-15.4c0-2.34,.36-4.66,1.06-6.89l7.04-22.38c1.29-4.11,1.58-8.46,.85-12.7l-7.96-47c-.23-1.35-.39-2.7-.47-4.06l.66-.04h94.28l.42,.03c-.08,1.36-.24,2.72-.47,4.07l-7.96,47c-.73,4.24-.44,8.59,.85,12.7l7.04,22.38c.7,2.23,1.06,4.55,1.06,6.89Z"/>
            <path class="cls-6" d="M320.42,119.78v54.35c0,1-.04,2-.12,3l-.42-.03h-94.28l-.66,.04c-.09-1-.12-2.01-.12-3.01v-54.35c0-1.07,.05-2.14,.14-3.2l.64,.05h94.28l.4-.03c.09,1.05,.14,2.11,.14,3.18Z"/>
          </g>
          <g class="cls-7">
            <path class="cls-5" d="M289.24,8.62v14.34h-12.8V8.62c0-.89-.46-1.7-1.21-2.18-2.08-1.32-5.3-2.15-8.93-2.58,7.83-.86,17.31-.2,21.73,2.58,.75,.48,1.21,1.29,1.21,2.18Z"/>
            <path class="cls-1" d="M320.26,285.58v12.06c0,1.63-1.34,2.95-2.99,2.93-2.6-.03-6.76-.07-11.91-.12,1.21-.36,2.1-1.48,2.1-2.81v-12.06h12.8Z"/>
            <path class="cls-5" d="M319.72,116.61l-.4,.03h-12.8l.4-.03c-.34-3.92-1.3-7.76-2.85-11.39l-23.5-43.52c-2.73-6.54-4.13-13.55-4.13-20.63V22.96h12.8v18.11c0,7.08,1.4,14.09,4.13,20.63l23.5,43.52c1.55,3.63,2.51,7.47,2.85,11.39Z"/>
            <path class="cls-5" d="M320.26,270.18v15.4h-12.8v-15.4c0-2.34-.36-4.66-1.06-6.89l-7.04-22.38c-1.29-4.11-1.58-8.46-.85-12.7l7.96-47c.23-1.35,.39-2.71,.47-4.07l-.42-.03h12.8l.42,.03c-.08,1.36-.24,2.72-.47,4.07l-7.96,47c-.73,4.24-.44,8.59,.85,12.7l7.04,22.38c.7,2.23,1.06,4.55,1.06,6.89Z"/>
            <path class="cls-1" d="M319.86,119.79v54.35c0,1-.04,2-.12,3l-.42-.03h-12.38c.08-.99,.12-1.98,.12-2.97v-54.35c0-1.06-.05-2.11-.14-3.15h12.4l.4-.03c.09,1.05,.14,2.11,.14,3.18Z"/>
          </g>
          <g class="cls-7">
            <polygon class="cls-1" points="306.92 116.64 306.52 116.64 306.92 116.61 306.92 116.64"/>
            <polygon class="cls-1" points="306.94 177.11 306.94 177.14 306.52 177.11 306.94 177.11"/>
          </g>
          <g>
            <path class="cls-8" d="M289.8,22.95V8.61c0-.89-.46-1.7-1.21-2.18-6.81-4.29-25.68-3.52-31.91,.04-.79,.45-1.24,1.3-1.24,2.19V41.06c0,7.08-1.41,14.09-4.13,20.63l-23.5,43.52c-1.56,3.62-2.51,7.46-2.85,11.37-.09,1.06-.14,2.13-.14,3.2v54.35c0,1,.03,2.01,.12,3.01,.08,1.36,.24,2.71,.47,4.06l7.96,47c.73,4.24,.44,8.59-.85,12.7l-7.04,22.38c-.7,2.23-1.06,4.55-1.06,6.89v27.22c0,1.66,1.39,2.99,3.06,2.93,14.49-.52,76.02,.09,90.35,.24,1.65,.02,2.99-1.3,2.99-2.93v-27.46c0-2.34-.36-4.66-1.06-6.89l-7.04-22.38c-1.29-4.11-1.58-8.46-.85-12.7l7.96-47c.23-1.35,.39-2.71,.47-4.07,.08-1,.12-2,.12-3v-54.35c0-1.07-.05-2.13-.14-3.18-.34-3.92-1.3-7.76-2.85-11.39l-23.5-43.52c-2.73-6.54-4.13-13.55-4.13-20.63V22.95Z"/>
            <polyline class="cls-8" points="320.37 285.57 224.42 285.57 224.37 285.57"/>
            <line class="cls-8" x1="319.88" y1="177.1" x2="225.6" y2="177.1"/>
            <line class="cls-8" x1="319.88" y1="116.63" x2="225.6" y2="116.63"/>
            <line class="cls-8" x1="255.98" y1="22.95" x2="289.61" y2="22.95"/>
            <line class="cls-8" x1="283.25" y1="33.78" x2="289.75" y2="33.78"/>
            <line class="cls-8" x1="255.73" y1="33.78" x2="274.22" y2="33.78"/>
          </g>
        </g>
        <g>
          <g>
            <path class="cls-6" d="M135.65,126.98c26.19-3.46,26.08,20.65,25.58,27.22h-.24c-31.74-1.74-25.34-27.22-25.34-27.22Z"/>
            <path class="cls-1" d="M251.01,251.86l.33,35.1c.02,1.86-1.41,3.41-3.27,3.54l-175.52,12.66c-.61,.04-1.13-.44-1.13-1.05v-37.47h.39l179.03-12.79h.17Z"/>
            <path class="cls-6" d="M251.14,262.07l-.13-10.21h-.17l-179.03,12.79h-.39v10.78h.39l178.53-12.75c.24-.25,.5-.46,.8-.6Z"/>
            <path class="cls-3" d="M182.42,170.85c.87,2.4,1.34,4.98,1.34,7.68,0,12.54-10.16,22.7-22.7,22.7-7.91,0-14.88-4.05-18.94-10.2-2.37-3.58-3.75-7.88-3.75-12.5,0-12.53,10.16-22.7,22.69-22.7,9.84,0,18.22,6.27,21.36,15.02Z"/>
            <path class="cls-2" d="M177.8,195.17c-1.08,.86-2.16,1.62-3.25,2.3,4.55-7.73,5.03-15.3,2.74-21.63-4.54-12.65-20.04-20.12-35.07-10.93,.54-.85,1.13-1.7,1.78-2.55,15.88-12.09,33.12-4.5,37.95,8.96,2.51,6.93,1.69,15.36-4.15,23.85Z"/>
            <path class="cls-1" d="M199.98,162.06c51.21,4.09,50.68,51.57,50.68,51.57l-179.24,12.8,70.7-35.4c4.06,6.15,11.03,10.2,18.94,10.2,12.54,0,22.7-10.16,22.7-22.7,0-2.7-.47-5.28-1.34-7.68l17.56-8.79Z"/>
            <polygon class="cls-1" points="250.66 213.63 251.01 251.86 250.84 251.86 71.81 264.65 71.42 264.65 71.42 226.43 250.66 213.63"/>
            <path class="cls-4" d="M248.07,289.85l-9.88,.71-.36-38.04v-.39l13.01-.93h.17l.33,35.1c.02,1.86-1.41,3.41-3.27,3.54Z"/>
            <path class="cls-4" d="M250.66,212.97l-13.19,.94c-.07-4.23-1.91-42.27-42.37-50.07l4.88-2.44c51.21,4.09,50.68,51.57,50.68,51.57Z"/>
            <path class="cls-4" d="M251.01,251.2h-.17l-13.01,.93-.35-37.84s0-.13-.01-.38l13.19-.94,.35,38.23Z"/>
          </g>
          <g>
            <path class="cls-8" d="M182.42,170.85l17.56-8.79c51.21,4.09,50.68,51.57,50.68,51.57l-179.24,12.8,70.7-35.4"/>
            <path class="cls-8" d="M71.42,226.43v75.69c0,.61,.52,1.09,1.13,1.05l175.52-12.66c1.85-.13,3.28-1.69,3.27-3.54l-.33-35.1-.35-38.23"/>
            <line class="cls-8" x1="71.81" y1="264.65" x2="250.84" y2="251.86"/>
            <path class="cls-8" d="M182.42,170.85c.87,2.4,1.34,4.98,1.34,7.68,0,12.54-10.16,22.7-22.7,22.7-7.91,0-14.88-4.05-18.94-10.2-2.37-3.58-3.75-7.88-3.75-12.5,0-12.53,10.16-22.7,22.69-22.7,9.84,0,18.22,6.27,21.36,15.02Z"/>
            <path class="cls-8" d="M180.6,123.65l-19.54,32.18s.09-.6,.17-1.63c.5-6.57,.61-30.68-25.58-27.22,0,0-6.4,25.48,25.34,27.21"/>
            <line class="cls-8" x1="135.97" y1="207.22" x2="145.3" y2="207.05"/>
            <line class="cls-8" x1="200.07" y1="197.09" x2="193.76" y2="203.4"/>
            <line class="cls-8" x1="206.03" y1="174.77" x2="200.25" y2="181.09"/>
            <line class="cls-8" x1="224.94" y1="194" x2="231.81" y2="200.87"/>
          </g>
        </g>
      </g>
      <g>
        <g>
          <path class="cls-3" d="M49.35,179.39c.92,11.89-.09,23.75-2.33,35.61-2.18,1.34-3.99-.86-5.42-6.3-1.42-5.43-5.89-6.3-12.69-5.99-6.8,.31-8.74-2.21-10.73-10.43-1.98-8.22-11.38-2.41-14.07-6.17-2.69-3.77,4.3-6.08,4.3-6.08l26.47-10.22,.69-.53c1.37,1.56,2.88,3.02,4.54,4.34,2.63,2.1,5.71,3.92,9.25,5.15l-.02,.62Z"/>
          <path class="cls-1" d="M62.15,179.92l.03,.34c-4.82,.42-9.07-.2-12.81-1.5-3.54-1.23-6.62-3.04-9.25-5.15-1.67-1.33-3.18-2.78-4.54-4.34-8.29-9.53-10.89-23.07-6.86-35.38,1.55-4.78,3.71-9.53,6.15-14.07l.4,.22,26.89,59.88Z"/>
          <path class="cls-6" d="M83.17,169.89l.29,.37c-10.26,8.02-16.97,9.36-16.97,9.36-1.48,.31-2.92,.52-4.3,.65l-.03-.34-26.89-59.88-.4-.22c4.54-8.42,10.06-16.1,14.57-21.79l.12,.09,33.61,71.77Z"/>
          <path class="cls-1" d="M65.56,81.39l33.49,73.64c-5.73,6.72-11.02,11.63-15.6,15.22l-.29-.37L49.56,98.12l-.12-.09c4.87-6.16,8.57-10.02,8.57-10.02,2.47-2.73,4.94-4.99,7.4-6.84l.16,.21Z"/>
          <path class="cls-6" d="M86.71,74.65l27.89,58.13c-1.62,3.08-3.58,6.31-5.91,9.67-3.31,4.77-6.53,8.94-9.63,12.58l-33.49-73.64-.16-.21c7.55-5.68,14.91-7.52,21.32-7.5v.97Z"/>
          <path class="cls-3" d="M148.3,70.97c2.69,3.77-4.3,6.08-4.3,6.08l-26.47,10.22-2.85,.22c-3.53-4.73-7.1-7.02-7.1-7.02,0,0-1.66-1.28-4.53-2.74l.02-.04c-.91-11.89,.1-23.76,2.33-35.61,2.2-1.35,4,.85,5.42,6.29,1.42,5.43,5.89,6.31,12.69,6,6.8-.32,8.76,2.19,10.73,10.42,1.98,8.24,11.38,2.42,14.07,6.18Z"/>
          <path class="cls-1" d="M86.72,73.68c6.85,0,12.61,2.17,16.33,4.06,2.88,1.45,4.53,2.74,4.53,2.74,0,0,3.57,2.3,7.1,7.02,5.94,7.97,11.72,22.87-.08,45.29l-27.89-58.13v-.97Z"/>
          <path class="cls-4" d="M34,145.39c-2.72,8.31-2.42,17.17,.61,24.99-7.75-9.47-10.09-22.59-6.19-34.57,1.55-4.78,3.71-9.53,6.15-14.07l.4,.21,4.65,10.35c-2.23,4.23-4.19,8.66-5.62,13.08Z"/>
          <path class="cls-4" d="M54.09,110.33c-4.4,5.6-9.62,12.96-13.94,20.99-.18,.33-.35,.65-.52,.98l-4.65-10.35-.4-.21c4.54-8.42,10.06-16.09,14.56-21.8l.13,.09,4.82,10.3Z"/>
          <path class="cls-4" d="M69.83,93.33c-2.17,1.72-4.36,3.76-6.55,6.18,0,0-3.69,3.86-8.56,10.02-.21,.26-.42,.53-.63,.81l-4.82-10.3-.13-.09c4.88-6.16,8.57-10.02,8.57-10.02,2.47-2.73,4.94-4.98,7.4-6.83l.16,.21,4.56,10.02Z"/>
          <path class="cls-4" d="M90.56,85.2c-6.06,.25-12.89,2.21-19.88,7.48-.28,.21-.57,.43-.85,.66l-4.56-10.02-.16-.21c7.55-5.69,14.91-7.52,21.32-7.5l-.02,.97,4.14,8.64Z"/>
          <path class="cls-4" d="M118.94,97.7c-3.16-3.85-6.07-5.73-6.07-5.73,0,0-1.67-1.29-4.54-2.73-3.72-1.89-9.48-4.05-16.33-4.06-.48,0-.96,0-1.44,.03l-4.14-8.64,.02-.97c6.85,0,12.6,2.17,16.33,4.06,2.87,1.44,4.53,2.73,4.53,2.73,0,0,3.57,2.3,7.1,7.03,1.66,2.22,3.3,4.98,4.55,8.29Z"/>
        </g>
        <g>
          <path class="cls-8" d="M114.6,132.78c-1.62,3.08-3.58,6.31-5.91,9.67-3.31,4.77-6.53,8.94-9.63,12.58-5.73,6.72-11.02,11.63-15.6,15.22-10.26,8.02-16.97,9.36-16.97,9.36-1.48,.31-2.92,.52-4.3,.65-4.82,.42-9.07-.2-12.81-1.5-3.54-1.23-6.62-3.04-9.25-5.15-1.67-1.33-3.18-2.78-4.54-4.34-8.29-9.53-10.89-23.07-6.86-35.38,1.55-4.78,3.71-9.53,6.15-14.07,4.54-8.42,10.06-16.1,14.57-21.79,4.87-6.16,8.57-10.02,8.57-10.02,2.47-2.73,4.94-4.99,7.4-6.84,7.55-5.68,14.91-7.52,21.32-7.5,6.85,0,12.61,2.17,16.33,4.06,2.88,1.45,4.53,2.74,4.53,2.74,0,0,3.57,2.3,7.1,7.02,5.94,7.97,11.72,22.87-.08,45.29Z"/>
          <path class="cls-8" d="M34.89,169.81l-26.47,10.22s-7,2.32-4.3,6.08c2.69,3.77,12.09-2.05,14.07,6.17,1.98,8.22,3.93,10.74,10.73,10.43,6.8-.31,11.26,.55,12.69,5.99,1.42,5.43,3.23,7.64,5.42,6.3,2.24-11.86,3.25-23.73,2.33-35.61"/>
          <path class="cls-8" d="M117.53,87.27l26.47-10.22s7-2.32,4.3-6.08-12.09,2.05-14.07-6.18c-1.97-8.22-3.93-10.74-10.73-10.42-6.8,.31-11.26-.57-12.69-6-1.42-5.43-3.22-7.64-5.42-6.29-2.23,11.85-3.24,23.73-2.33,35.61"/>
        </g>
      </g>
    </g>
  </g>
</svg>