<?xml version="1.0" encoding="UTF-8"?>
<svg id="Layer_2" data-name="Layer 2" xmlns="http://www.w3.org/2000/svg" viewBox="0 0 247.04 294.56">
  <defs>
    <style>
      .cls-1, .cls-2 {
        fill: #fff;
      }

      .cls-3, .cls-4 {
        fill: #192a43;
      }

      .cls-5 {
        fill: #567458;
      }

      .cls-4 {
        opacity: .2;
      }

      .cls-6 {
        fill: none;
        stroke: #192a43;
        stroke-linecap: round;
        stroke-linejoin: round;
        stroke-width: 7px;
      }

      .cls-2 {
        opacity: .35;
      }
    </style>
  </defs>
  <g id="Layer_1-2" data-name="Layer 1">
    <g>
      <g>
        <path class="cls-5" d="M125.23,79.94c.16-2,.29-4.07,.38-6.22h.33C155.33-17.92,243.54,6.43,243.54,6.43c-13.72,92.6-116.58,73.83-118.31,73.51Z"/>
        <path class="cls-2" d="M244.69,7.58c-13.72,92.6-116.58,73.83-118.31,73.51,0-.03,.01-.07,.01-.1,29.9,1.29,91.73-4.81,102.16-75.13,0,0-1.88-.52-5.19-1.12,12.72,.48,21.33,2.85,21.33,2.85Z"/>
        <path class="cls-3" d="M125.23,79.94c-1.21,15.28-4.2,26.23-4.2,26.23-3.87,.19-7.94,.2-12.2-.06v-.04c14.6-58.8-18.07-80.03-18.07-80.03,2.02-12.68,19.6-13.35,19.6-13.35,13.51,18.01,16.03,41.92,15.24,61.05-.09,2.14-.21,4.22-.38,6.22Z"/>
        <path class="cls-1" d="M225.78,155.26s3.1,89.86-60.76,128.47c-9.46,5.73-20.53,8.4-31.48,6.92-6.66-.9-13.67-3.31-18.82-8.76h-.12c-5.16,5.45-12.17,7.86-18.82,8.76-10.94,1.48-22.02-1.19-31.47-6.92C.43,245.12,3.52,155.26,3.52,155.26c.98-56.87,46.1-60.65,59.57-60.51,2.29,.02,4.54,.48,6.63,1.42,13.99,6.35,27.24,9.19,39.12,9.93,4.26,.27,8.33,.26,12.2,.06,18.68-.98,32.67-6.63,38.76-9.54,2.73-1.31,5.7-1.96,8.72-1.91,14.99,.22,56.33,5.82,57.27,60.55Z"/>
        <path class="cls-4" d="M164.73,283.93c-9.46,5.73-20.53,8.4-31.48,6.92-6.66-.9-13.67-3.31-18.82-8.76h-.12c-5.16,5.45-12.17,7.86-18.82,8.76-10.94,1.48-22.02-1.19-31.47-6.92-17.93-10.84-30.58-25.72-39.5-41.52,7.7,9.82,17.25,18.77,29.12,25.95,9.45,5.73,27.73,12.52,38.67,11.04,5.05-.68,11.8-5.55,16.7-8.53,2.87-1.75,6.44-1.86,9.35-.18,3.7,2.15,10.22,4.94,13.91,5.44,10.95,1.48,14.84-1.51,24.48-6.94,68.6-38.62,58.45-127.91,58.45-127.91-.2-11.82-7.34-27.95-12.71-35.58,13.55,10.45,22.63,28.08,23,49.74,0,0,3.1,89.86-60.76,128.47Z"/>
      </g>
      <g>
        <path class="cls-6" d="M108.83,106.11c-11.88-.75-25.13-3.58-39.12-9.93-2.08-.94-4.34-1.4-6.63-1.42-13.46-.14-58.59,3.63-59.57,60.51,0,0-3.09,89.86,60.77,128.47,9.45,5.73,20.53,8.4,31.47,6.92,6.66-.9,13.67-3.31,18.82-8.76h.12c5.16,5.45,12.17,7.86,18.82,8.76,10.95,1.48,22.02-1.19,31.48-6.92,63.86-38.62,60.76-128.47,60.76-128.47-.94-54.73-42.28-60.32-57.27-60.55-3.02-.05-5.99,.6-8.72,1.91-6.09,2.92-20.08,8.56-38.76,9.54-3.87,.19-7.94,.2-12.2-.06Z"/>
        <path class="cls-6" d="M121.03,106.17s2.98-10.94,4.2-26.23c.16-2,.29-4.07,.38-6.22,.79-19.13-1.74-43.04-15.24-61.05,0,0-17.58,.67-19.6,13.35,0,0,32.67,21.23,18.07,80.03"/>
        <path class="cls-6" d="M125.21,79.93s.01,0,.02,.01c1.73,.32,104.59,19.09,118.31-73.51,0,0-88.2-24.36-117.6,67.3"/>
        <path class="cls-6" d="M194.15,43.04s-22.72,30.32-68.07,34.16"/>
        <path class="cls-6" d="M60.21,116.64s-40.2,7.89-35.78,55.24"/>
      </g>
    </g>
  </g>
</svg>