<?xml version="1.0" encoding="UTF-8"?>
<svg id="Layer_2" data-name="Layer 2" xmlns="http://www.w3.org/2000/svg" viewBox="0 0 256.52 310.94">
  <defs>
    <style>
      .cls-1, .cls-2 {
        fill: #fff;
      }

      .cls-3 {
        fill: #133f26;
      }

      .cls-4 {
        fill: #567458;
      }

      .cls-5 {
        opacity: .2;
      }

      .cls-6 {
        fill: none;
        stroke: #133f26;
        stroke-linecap: round;
        stroke-linejoin: round;
        stroke-width: 7px;
      }

      .cls-2 {
        opacity: .35;
      }
    </style>
  </defs>
  <g id="Layer_1-2" data-name="Layer 1">
    <g>
      <ellipse class="cls-4" cx="113.39" cy="112.42" rx="77.23" ry="77.55"/>
      <path class="cls-2" d="M190.35,111.38c0,26.66-13.4,50.19-33.81,64.14,14.01-14.04,24.56-34.96,24.56-56.42,0-42.82-34.94-76.94-77.59-76.94-16.08,0-32.53,5.84-44.89,14.28,13.97-13.97,33.23-22.61,54.5-22.61,42.66,0,77.22,34.72,77.22,77.55Z"/>
      <g>
        <g>
          <path class="cls-1" d="M251.09,147.69c2.96,3.46,2.46,8.68-1.11,11.5l-18.55,14.73c-.88,.69-1.4,1.75-1.4,2.88v58.47c0,4.84-3.92,8.76-8.76,8.76h-35.28c-5.17,0-9.35,4.19-9.35,9.35l.17,54.72s-84.71,12.18-124.23-13.82l1.75-10.1c4.5-25.9,.48-52.71-12.13-75.77-.43-.79-.86-1.57-1.31-2.34l-22.81-37.74c-8.72-15.15-14.12-34.59-14.56-52.06,0-.26,0-.53,0-.79C2.63,54.83,51.12,4.34,111.77,3.51c59.2-.82,108.02,41.34,108.91,90.16,.21,11.48-.36,16.41,2.29,21.18l28.12,32.84Zm-60.65-35.75c0-42.7-34.6-77.31-77.3-77.31S35.83,69.25,35.83,111.95s34.61,77.3,77.31,77.3,77.3-34.6,77.3-77.3Z"/>
          <g class="cls-5">
            <path class="cls-3" d="M180.35,244.38c-4.63,.55-12.87,1.59-12.87,10.49l.15,54.41c4.97-.52,7.87-.93,7.87-.93l.97-58.68c0-.89,3.64-4.48,3.88-5.29Zm41.91-63.49c-.88,.69-1.4,1.75-1.4,2.88v58.47c0,.7-.08,1.38-.23,2.03,4.52-.34,8.08-4.12,8.08-8.73v-58.47c0-.55,.12-1.09,.36-1.58l-6.81,5.4Zm27.51-32.94l-28.12-32.84c-2.64-4.77-2.08-9.7-2.29-21.18C218.47,45.11,169.64,2.96,110.45,3.77c-28.35,.39-54.05,11.63-73.28,29.68,18.13-14.1,40.77-22.64,65.43-22.98,59.2-.82,108.02,41.34,108.91,90.16,.21,11.48-.36,16.41,2.29,21.18l28.12,32.84c2.41,2.82,2.52,6.81,.55,9.71l6.19-4.91c3.56-2.82,4.07-8.04,1.11-11.5Z"/>
          </g>
          <path class="cls-6" d="M52.58,294.33l1.76-10.16c4.5-25.9,.48-52.7-12.13-75.77-.43-.79-.87-1.57-1.31-2.34l-22.81-37.74c-8.72-15.15-14.12-34.59-14.56-52.06,0-.26,0-.52-.01-.79C2.63,54.83,51.13,4.35,111.77,3.51s108.03,41.34,108.92,90.16c.21,11.48-.36,16.41,2.29,21.18l28.12,32.84c2.96,3.46,2.46,8.68-1.11,11.5l-18.55,14.73c-.88,.69-1.4,1.75-1.4,2.88v58.47c0,4.84-3.92,8.76-8.76,8.76h-35.28c-5.17,0-9.35,4.19-9.35,9.35l.17,53.66"/>
          <circle class="cls-6" cx="113.14" cy="111.94" r="77.31"/>
        </g>
        <g>
          <g>
            <path class="cls-1" d="M157.17,82.5c6.47,6.76,8.82,16.44,6.57,25.52-1.68,6.74-5.68,19.39-17.23,30.44-11.25,10.76-22.62,20.23-33.32,28.27-10.7-8.04-22.2-17.51-33.45-28.27-11.54-11.06-15.55-23.71-17.23-30.44-2.25-9.08,.11-18.76,6.57-25.52,.2-.21,.4-.41,.6-.61,7.99-7.91,18.19-10.27,28.7-6.27,4.85,1.85,8.54,4.52,11.01,6.73,2.47,2.22,3.73,3.97,3.73,3.97,0,0,5.03-7,14.74-10.7,10.51-4,20.71-1.64,28.71,6.27,.2,.19,.4,.4,.6,.61Z"/>
            <path class="cls-2" d="M156.41,83.54c-.2-.21-.4-.41-.6-.61-8-7.91-19.62-8.59-30.14-4.59-3.16,1.2-5.83,2.76-7.98,4.31,.89-.44,1.82-.84,2.81-1.22,10.51-4,20.71-1.64,28.71,6.27,.2,.19,.4,.4,.6,.61,6.47,6.76,7.98,15.55,5.72,24.63-1.68,6.74-5.68,19.39-17.23,30.44-9.65,9.23-18.54,18.4-27.86,25.63,.61,.37,.38,.29,.57,.43,10.7-8.04,22.06-17.51,33.32-28.27,11.55-11.06,17.13-25.04,18.81-31.78,2.26-9.08-.26-19.11-6.72-25.86Zm-49.2,1.53c-2.47-2.21-6.16-4.88-11.01-6.73-9.12-3.46-18-2.15-25.41,3.42,6.22-2.83,13.16-3.02,20.24-.33,4.85,1.85,8.54,4.52,11.01,6.73,1.48,1.33,3.27,2.92,4.46,3.98,.76,.67,1.89,.66,2.63-.03,.63-.58,1.46-1.36,2.45-2.32-.62-.71-3.18-3.66-4.37-4.72Z"/>
            <polygon class="cls-3" points="134.93 112.03 134.93 127.25 120.82 127.25 120.82 141.35 105.6 141.35 105.6 127.25 91.5 127.25 91.5 112.03 105.6 112.03 105.6 97.93 120.82 97.93 120.82 112.03 134.93 112.03"/>
          </g>
          <path class="cls-6" d="M113.19,166.73c10.7-8.03,22.06-17.51,33.32-28.27,11.55-11.05,15.55-23.71,17.23-30.45,2.25-9.07-.1-18.76-6.57-25.52-.2-.21-.4-.41-.6-.61-7.99-7.91-18.2-10.27-28.71-6.27-9.71,3.69-14.74,10.7-14.74,10.7h0s-5.03-7-14.74-10.7c-10.51-4-20.71-1.64-28.71,6.27-.2,.2-.4,.4-.6,.61-6.46,6.76-8.82,16.44-6.57,25.52,1.67,6.74,5.68,19.39,17.23,30.45,11.25,10.76,22.75,20.23,33.45,28.27Z"/>
        </g>
      </g>
      <path class="cls-6" d="M228.44,209.09c-5.37,1.46-9.85,.44-13.77-2.12"/>
    </g>
  </g>
</svg>