<?xml version="1.0" encoding="UTF-8"?>
<svg id="Ebene_2" data-name="Ebene 2" xmlns="http://www.w3.org/2000/svg" viewBox="0 0 980 980">
  <defs>
    <style>
      .cls-1 {
        fill: #214228;
      }

      .cls-2 {
        fill: #1d1d1b;
      }
    </style>
  </defs>
  <g id="Ebene_1-2" data-name="Ebene 1">
    <g>
      <g>
        <g>
          <polygon class="cls-1" points="402.16 487.38 393.35 513.74 411.09 513.74 402.16 487.38"/>
          <path class="cls-1" d="m490,760.65c149.24,0,270.65-121.41,270.65-270.65s-121.41-270.65-270.65-270.65-270.65,121.41-270.65,270.65,121.41,270.65,270.65,270.65Zm-81.03-90.4l-25.6-13.46-25.6,13.46,4.89-28.51-20.71-20.19,28.62-4.16,12.8-25.94,12.8,25.94,28.62,4.16-20.71,20.19,4.89,28.51Zm106.63,0l-25.6-13.46-25.6,13.46,4.89-28.51-20.71-20.19,28.62-4.16,12.8-25.94,12.8,25.94,28.62,4.16-20.71,20.19,4.89,28.51Zm-36.01-151.28c3.35,3.76,7.73,5.64,13.13,5.64,3.35,0,6.34-.79,8.97-2.36,2.63-1.57,4.67-3.86,6.1-6.87h19.28c-2.05,7.79-6.12,13.93-12.2,18.41-6.09,4.48-13.4,6.72-21.95,6.72-6.97,0-13.21-1.56-18.71-4.67-5.5-3.11-9.79-7.44-12.87-12.97-3.08-5.54-4.62-11.86-4.62-18.97s1.54-13.45,4.62-19.02c3.08-5.57,7.37-9.91,12.87-13.02,5.5-3.11,11.74-4.67,18.71-4.67,8.55,0,15.86,2.26,21.95,6.77,6.08,4.51,10.15,10.67,12.2,18.46h-19.28c-1.43-3.01-3.47-5.3-6.1-6.87-2.63-1.57-5.62-2.36-8.97-2.36-5.4,0-9.78,1.88-13.13,5.64-3.35,3.76-5.02,8.79-5.02,15.08s1.67,11.32,5.02,15.08Zm163.06-50.97h28.41c5.74,0,10.6.99,14.56,2.97,3.96,1.98,6.94,4.72,8.92,8.2,1.98,3.49,2.97,7.49,2.97,12,0,4.17-.96,7.98-2.87,11.43-1.91,3.45-4.86,6.24-8.82,8.36-3.97,2.12-8.89,3.18-14.77,3.18h-10.87v25.84h-17.54v-71.99Zm-20.42,202.25l-25.6-13.46-25.6,13.46,4.89-28.51-20.71-20.19,28.62-4.16,12.8-25.94,12.8,25.94,28.62,4.16-20.71,20.19,4.89,28.51Zm-3.68-177.84h-19.28c-1.43-3.01-3.47-5.3-6.1-6.87-2.63-1.57-5.62-2.36-8.97-2.36-5.4,0-9.78,1.88-13.13,5.64-3.35,3.76-5.02,8.79-5.02,15.08s1.67,11.32,5.02,15.08c3.35,3.76,7.73,5.64,13.13,5.64,3.35,0,6.34-.79,8.97-2.36,2.63-1.57,4.67-3.86,6.1-6.87h19.28c-2.05,7.79-6.12,13.93-12.2,18.41-6.09,4.48-13.4,6.72-21.95,6.72-6.97,0-13.21-1.56-18.71-4.67-5.5-3.11-9.79-7.44-12.87-12.97-3.08-5.54-4.62-11.86-4.62-18.97s1.54-13.45,4.62-19.02c3.08-5.57,7.37-9.91,12.87-13.02,5.5-3.11,11.74-4.67,18.71-4.67,8.55,0,15.86,2.26,21.95,6.77,6.08,4.51,10.15,10.67,12.2,18.46Zm-205.08-157.07c7.8,5.88,16.43,13.16,25.22,22.07,9.82,9.96,17.64,19.71,23.79,28.38,9.44-19.82,24.09-45.07,46.72-70.51,14.24-16.01,28.55-28.63,41.28-38.41,34.4,3.44,48.73,16.05,48.73,16.05-69.94,28.66-138.16,145.61-138.16,145.61-7.92-14.22-20.57-33.14-40.13-51.59-14.31-13.5-28.45-23.09-40.13-29.81,10.89-7.26,21.78-14.52,32.68-21.78Zm-21.35,132.66h20.3l26.05,71.99h-18.56l-4.31-12.72h-26.87l-4.31,12.72h-18.36l26.05-71.99Zm-92.09,0v28.2h27.28v-28.2h17.54v71.99h-17.54v-29.64h-27.28v29.64h-17.54v-71.99h17.54Z"/>
          <path class="cls-1" d="m677.21,497.84c1.64-1.57,2.46-3.79,2.46-6.67s-.82-5.09-2.46-6.67c-1.64-1.57-4.14-2.36-7.49-2.36h-9.54v18.05h9.54c3.35,0,5.84-.78,7.49-2.36Z"/>
        </g>
        <path class="cls-1" d="m490,980C219.81,980,0,760.19,0,490S219.81,0,490,0s490,219.81,490,490-219.81,490-490,490Zm0-945.61c-251.22,0-455.6,204.39-455.6,455.61s204.38,455.61,455.6,455.61,455.61-204.38,455.61-455.61S741.22,34.39,490,34.39Z"/>
      </g>
      <g>
        <g>
          <path class="cls-2" d="m817.56,716.5l-52.26-31.59,5.18-8.57,22.85,13.81,14.87-24.59-22.86-13.82,5.18-8.57,52.26,31.59-5.18,8.57-22.41-13.55-14.87,24.59,22.41,13.55-5.18,8.57Z"/>
          <path class="cls-2" d="m743.44,730.18l16.89-19.2-6.47-11.54,6.9-7.85,31.48,56.81-7.66,8.71-60.37-23.96,6.97-7.92,12.26,4.94Zm7.99,3.29l27.87,11.29-14.69-26.27-13.18,14.98Z"/>
          <path class="cls-2" d="m715.9,751.12l-21.9,18.05-5.53-6.71,31.06-25.59,4.97,6.03,6.49,52.37,21.84-17.99,5.53,6.71-31.06,25.59-4.98-6.03-6.42-52.43Z"/>
          <path class="cls-2" d="m655.22,797.57l22.08-12.89-2.5-12.99,9.03-5.26,11.93,63.84-10.01,5.85-49.73-41.78,9.11-5.32,10.09,8.57Zm6.55,5.63l22.88,19.51-5.66-29.56-17.23,10.05Z"/>
          <path class="cls-2" d="m598.78,808.44l21.76,17.92,7.16-2.69-8.6-22.86,9.38-3.53,21.48,57.17-19.74,7.41c-4.38,1.65-8.39,2.27-12.01,1.89-3.62-.4-6.66-1.6-9.14-3.6-2.48-2.02-4.31-4.61-5.51-7.79-1.4-3.73-1.59-7.52-.57-11.38,1.03-3.85,3.58-7.17,7.66-9.96l-23.05-18.37,11.19-4.2Zm31.72,22.71l-10.36,3.9c-3.51,1.32-5.83,3.19-6.95,5.62-1.12,2.42-1.13,5.11-.01,8.07,1.11,2.96,2.86,4.95,5.24,5.96,2.38,1.01,5.36.85,8.92-.49l10.36-3.9-7.2-19.16Z"/>
          <path class="cls-2" d="m552.18,878.98c-5.27-1.52-9.66-4.31-13.17-8.37-3.5-4.07-5.84-9.15-7.02-15.24-1.18-6.09-.89-11.64.85-16.63,1.75-4.99,4.79-9.14,9.14-12.46,4.34-3.32,9.7-5.59,16.08-6.82l19.58-3.8,11.6,59.96-19.59,3.79c-6.38,1.24-12.21,1.09-17.49-.42Zm-7.59-42.7c-3,4.52-3.84,10.23-2.5,17.13,1.34,6.96,4.27,12.03,8.76,15.22s10.25,4.1,17.26,2.74l9.75-1.89-8.5-43.91-9.75,1.89c-7.02,1.36-12.02,4.29-15.03,8.81Z"/>
          <path class="cls-2" d="m457.59,837.63l25.52,1.44,5.09-12.21,10.44.59-25.3,59.82-11.58-.66-18.38-62.29,10.52.6,3.69,12.71Zm2.34,8.32l8.31,28.9,11.61-27.76-19.91-1.13Z"/>
          <path class="cls-2" d="m386.72,811.09l9.74,2.36,18.56,51.41,10.74-44.32,9.73,2.37-14.4,59.43-9.74-2.36-18.57-51.33-10.71,44.23-9.74-2.36,14.4-59.44Z"/>
          <path class="cls-2" d="m337.1,803.78l23.38,10.36,9.07-9.63,9.56,4.24-44.77,47.05-10.6-4.69,4.77-64.78,9.64,4.27-1.04,13.19Zm-.74,8.61l-2.41,29.98,20.65-21.9-18.23-8.08Z"/>
          <path class="cls-2" d="m308.82,782.95l-17.48-11,4.31-6.84,25.95,16.33-32.52,51.68-8.48-5.34,28.21-44.84Z"/>
          <path class="cls-2" d="m215.66,778.75l40.45-16.94,14.19-17,7.69,6.42-14.18,17-9.36,42.89-8.57-7.15,8.33-32.07-30.06,13.94-8.5-7.09Z"/>
          <path class="cls-2" d="m243.14,721.12c1.09,3.42,1.26,6.69.52,9.84-.74,3.15-2.43,5.89-5.07,8.21l-7.08-8.05c1.82-1.91,2.77-4.13,2.82-6.64.06-2.5-1.01-5.01-3.21-7.52-2.28-2.6-4.69-4.07-7.22-4.42s-4.79.35-6.77,2.08c-1.54,1.36-2.4,2.91-2.57,4.66-.17,1.75.06,3.53.71,5.34.66,1.8,1.72,4.17,3.19,7.08,1.84,3.69,3.18,6.83,4,9.41.83,2.59.97,5.29.41,8.12-.56,2.82-2.26,5.5-5.12,8.01-2.64,2.32-5.53,3.69-8.67,4.11-3.14.42-6.28-.1-9.42-1.55-3.15-1.44-6.09-3.73-8.83-6.86-3.91-4.44-6-9.06-6.27-13.85-.27-4.79,1.4-9.04,5-12.75l7.31,8.31c-1.56,1.6-2.29,3.65-2.21,6.15.09,2.5,1.18,4.93,3.27,7.31,1.89,2.15,3.99,3.43,6.29,3.83s4.48-.31,6.55-2.13c1.41-1.24,2.18-2.68,2.34-4.33.14-1.66-.1-3.37-.73-5.15s-1.65-4.09-3.04-6.92c-1.83-3.77-3.17-6.97-4.02-9.63-.85-2.65-.99-5.41-.44-8.28.57-2.87,2.29-5.58,5.2-8.13,2.34-2.05,5.09-3.35,8.25-3.92,3.17-.57,6.43-.2,9.8,1.09,3.36,1.3,6.47,3.57,9.33,6.83,2.71,3.08,4.61,6.32,5.69,9.74Z"/>
          <path class="cls-2" d="m161.06,713.3l50.09-34.93,5.73,8.21-50.09,34.93-5.73-8.21Z"/>
          <path class="cls-2" d="m198.22,660.97c.31,3.57-.25,6.8-1.68,9.71s-3.69,5.19-6.77,6.87l-5.11-9.42c2.21-1.46,3.62-3.41,4.23-5.84.62-2.43.12-5.12-1.46-8.05-1.65-3.04-3.67-5-6.06-5.91s-4.74-.72-7.06.53c-1.8.97-2.98,2.3-3.54,3.97-.56,1.67-.72,3.45-.49,5.36.24,1.91.74,4.44,1.53,7.62.97,4,1.58,7.36,1.81,10.06.24,2.71-.23,5.37-1.4,8-1.17,2.63-3.43,4.86-6.78,6.67-3.09,1.68-6.21,2.37-9.37,2.09-3.16-.29-6.1-1.49-8.85-3.6-2.74-2.11-5.11-5-7.09-8.65-2.82-5.2-3.83-10.16-3.03-14.89.8-4.74,3.37-8.51,7.7-11.33l5.28,9.74c-1.87,1.21-3.04,3.05-3.51,5.5-.47,2.45.05,5.07,1.56,7.85,1.37,2.53,3.13,4.24,5.28,5.13,2.15.91,4.44.7,6.86-.61,1.65-.9,2.73-2.13,3.24-3.71.51-1.57.65-3.3.43-5.18-.22-1.88-.69-4.36-1.43-7.43-.95-4.08-1.54-7.5-1.78-10.28-.24-2.77.24-5.49,1.42-8.17,1.19-2.67,3.47-4.93,6.87-6.77,2.73-1.48,5.71-2.14,8.92-2,3.21.16,6.31,1.24,9.31,3.25,2.99,2.01,5.52,4.92,7.58,8.72,1.96,3.61,3.09,7.19,3.39,10.76Z"/>
          <path class="cls-2" d="m144.54,575.4c-.61,1.92-1.64,3.57-3.09,4.96s-3.21,2.32-5.26,2.8c-3.14.72-6.05.25-8.71-1.41-2.67-1.67-4.36-4.05-5.08-7.13-.74-3.19-.27-6.13,1.39-8.8s4.07-4.37,7.21-5.09c3.14-.73,6.03-.25,8.67,1.42,2.64,1.67,4.33,4.11,5.07,7.3.48,2.06.41,4.04-.2,5.95Z"/>
          <path class="cls-2" d="m105.78,490.93c-4.54-3.09-7.99-7.11-10.34-12.05-2.34-4.94-3.32-10.25-2.94-15.91.43-6.5,2.41-12.15,5.93-17,3.52-4.85,8.28-8.21,14.28-10.1l-.8,12.01c-3.32,1.36-5.86,3.4-7.63,6.1-1.76,2.7-2.77,5.89-3.01,9.57-.27,4.03.39,7.69,2,10.96s4.04,5.92,7.31,7.93c3.27,2.01,7.16,3.16,11.66,3.46,4.5.3,8.5-.33,12.01-1.89,3.51-1.55,6.29-3.85,8.34-6.88,2.05-3.03,3.21-6.57,3.48-10.6.24-3.69-.33-6.98-1.72-9.89-1.39-2.91-3.64-5.25-6.75-7.05l.8-12.01c5.69,2.67,9.95,6.64,12.77,11.9,2.82,5.27,4.01,11.15,3.58,17.64-.38,5.72-2.06,10.87-5.04,15.42-2.98,4.56-6.92,8.07-11.84,10.53-4.91,2.46-10.36,3.49-16.32,3.09-5.96-.4-11.22-2.14-15.77-5.24Z"/>
          <path class="cls-2" d="m166.07,398.12l-27.11,7.7-1.86,7.42,23.69,5.94-2.43,9.72-59.23-14.85,5.12-20.46c1.14-4.54,2.9-8.19,5.28-10.95,2.38-2.75,5.11-4.57,8.17-5.47,3.06-.89,6.24-.93,9.53-.1,3.87.97,7.09,2.97,9.68,6.01,2.6,3.04,3.87,7.03,3.84,11.97l28.21-8.51-2.9,11.59Zm-36.72,13.17l2.69-10.74c.91-3.64.69-6.61-.66-8.91-1.36-2.3-3.57-3.84-6.64-4.6-3.07-.77-5.7-.47-7.89.92-2.19,1.38-3.75,3.93-4.67,7.62l-2.69,10.74,19.86,4.98Z"/>
          <path class="cls-2" d="m119.67,345.21l57.14,21.53-3.53,9.37-57.14-21.53,3.53-9.38Z"/>
          <path class="cls-2" d="m144.37,292.31l7.3,3.67-7.3,14.53,47.26,23.76-4.5,8.94-47.26-23.76-7.34,14.6-7.3-3.67,19.14-38.07Z"/>
          <path class="cls-2" d="m158.49,270.37l51.35,33.04-5.42,8.42-51.36-33.04,5.42-8.43Z"/>
          <path class="cls-2" d="m180.81,261.87c-1.82-5.19-2.2-10.47-1.14-15.84s3.42-10.21,7.1-14.54c4.2-4.96,9.16-8.33,14.88-10.14,5.71-1.79,11.54-1.67,17.49.38l-7.79,9.17c-3.48-.88-6.73-.75-9.76.36-3.03,1.12-5.73,3.09-8.12,5.9-2.62,3.08-4.26,6.42-4.92,10-.66,3.59-.27,7.16,1.16,10.72,1.43,3.56,3.87,6.8,7.31,9.72,3.45,2.92,7.03,4.8,10.78,5.64,3.74.83,7.35.65,10.8-.57,3.45-1.22,6.49-3.37,9.1-6.45,2.39-2.81,3.89-5.81,4.5-8.97.61-3.17.21-6.4-1.23-9.68l7.79-9.18c2.99,5.53,4.05,11.25,3.18,17.16-.86,5.91-3.4,11.35-7.61,16.3-3.71,4.38-8.12,7.51-13.22,9.41-5.1,1.89-10.36,2.36-15.78,1.42-5.42-.95-10.4-3.36-14.96-7.22-4.56-3.87-7.74-8.39-9.56-13.58Z"/>
          <path class="cls-2" d="m280.53,210.35l-19.88,16.08,4.43,12.46-8.13,6.57-21.44-61.3,9.02-7.29,55.46,33.79-8.2,6.64-11.26-6.94Zm-7.32-4.59l-25.57-15.82,10.05,28.37,15.51-12.54Z"/>
          <path class="cls-2" d="m312,194.73l17.78-10.5,4.11,6.96-26.4,15.59-31.05-52.58,8.62-5.1,26.94,45.62Z"/>
          <path class="cls-2" d="m347.67,132.69c1.27-5.35,3.8-10,7.58-13.95s8.39-6.75,13.82-8.42c6.22-1.9,12.22-2.07,17.99-.51,5.78,1.57,10.62,4.82,14.52,9.75l-11.51,3.53c-2.46-2.62-5.26-4.27-8.41-4.95-3.15-.69-6.49-.49-10.02.58-3.87,1.19-7.04,3.11-9.54,5.77-2.49,2.66-4.09,5.88-4.8,9.66-.71,3.77-.41,7.81.91,12.12,1.32,4.31,3.33,7.83,6.04,10.56,2.7,2.73,5.83,4.5,9.4,5.35,3.57.84,7.28.66,11.15-.52,3.53-1.08,6.4-2.79,8.63-5.12,2.23-2.33,3.62-5.28,4.19-8.82l11.51-3.53c-.47,6.27-2.66,11.66-6.58,16.17-3.92,4.51-8.98,7.71-15.2,9.62-5.48,1.68-10.89,1.95-16.2.78-5.32-1.15-10-3.6-14.05-7.32-4.05-3.72-6.95-8.44-8.7-14.15-1.75-5.72-1.99-11.25-.72-16.6Z"/>
          <path class="cls-2" d="m435.81,153.92c-5.04-2.1-9.23-5.36-12.54-9.78-3.31-4.43-5.31-9.61-5.99-15.54-.69-5.94.09-11.42,2.3-16.45,2.22-5.04,5.55-9.14,9.99-12.34,4.44-3.19,9.48-5.12,15.12-5.77,5.71-.66,11.08.06,16.13,2.17,5.05,2.1,9.21,5.35,12.49,9.74s5.26,9.56,5.95,15.5c.69,5.93-.07,11.43-2.26,16.49-2.19,5.06-5.5,9.18-9.93,12.38-4.44,3.2-9.51,5.12-15.21,5.78-5.64.65-10.99-.07-16.04-2.17Zm25.46-10.46c2.93-2.2,5.09-5.1,6.47-8.7,1.38-3.61,1.81-7.66,1.3-12.14-.52-4.48-1.86-8.31-4.02-11.48-2.17-3.17-4.92-5.48-8.27-6.91-3.35-1.44-7.03-1.94-11.05-1.47-4.01.47-7.49,1.78-10.42,3.95-2.93,2.17-5.09,5.04-6.48,8.62-1.39,3.58-1.82,7.61-1.31,12.09.52,4.48,1.86,8.32,4.03,11.52,2.16,3.2,4.93,5.53,8.28,7,3.36,1.47,7.04,1.97,11.06,1.51,4.02-.47,7.49-1.79,10.42-3.99Z"/>
          <path class="cls-2" d="m540.9,156.22l-9.98-.77-26.53-47.79-3.52,45.46-9.99-.77,4.73-60.97,9.99.77,26.53,47.71,3.52-45.38,9.99.78-4.73,60.97Z"/>
          <path class="cls-2" d="m605.41,108.79l-1.95,7.94-15.78-3.88-12.65,51.36-9.73-2.4,12.65-51.36-15.87-3.91,1.95-7.93,41.38,10.18Z"/>
          <path class="cls-2" d="m628.63,183.06l-3.62-27.95-7.06-2.93-9.37,22.56-9.25-3.84,23.42-56.4,19.47,8.08c4.33,1.79,7.68,4.07,10.06,6.84,2.37,2.76,3.77,5.72,4.21,8.89.43,3.16,0,6.31-1.31,9.44-1.53,3.69-3.98,6.58-7.37,8.69s-7.52,2.8-12.4,2.03l4.26,29.16-11.04-4.58Zm-7.61-38.26l10.23,4.25c3.46,1.43,6.43,1.65,8.91.65,2.48-1,4.32-2.96,5.54-5.88,1.21-2.92,1.3-5.57.25-7.94s-3.33-4.28-6.84-5.75l-10.23-4.24-7.85,18.91Z"/>
          <path class="cls-2" d="m661,195.7c-2.57-4.83-3.73-10-3.49-15.52.24-5.52,1.99-10.79,5.22-15.81s7.3-8.78,12.21-11.26c4.9-2.49,10.09-3.56,15.55-3.21,5.46.34,10.57,2.06,15.35,5.13,4.83,3.11,8.53,7.07,11.09,11.9,2.58,4.83,3.73,9.98,3.48,15.46-.25,5.48-2,10.73-5.23,15.76-3.23,5.03-7.3,8.8-12.2,11.32-4.9,2.52-10.09,3.61-15.54,3.27-5.46-.35-10.6-2.07-15.43-5.18-4.77-3.08-8.45-7.02-11.02-11.85Zm26.31,8.06c3.66.16,7.17-.71,10.53-2.63,3.35-1.91,6.25-4.76,8.69-8.56s3.83-7.6,4.17-11.43c.33-3.82-.34-7.35-2.01-10.59-1.68-3.24-4.21-5.95-7.61-8.14-3.4-2.19-6.92-3.38-10.56-3.57-3.64-.18-7.14.67-10.47,2.56-3.34,1.9-6.24,4.73-8.68,8.52-2.44,3.79-3.84,7.62-4.19,11.46-.36,3.85.3,7.4,1.96,10.67,1.66,3.26,4.19,5.99,7.59,8.18,3.4,2.19,6.92,3.36,10.58,3.52Z"/>
          <path class="cls-2" d="m717.44,230.9l15.41,13.74-5.38,6.03-22.89-20.41,40.64-45.58,7.48,6.66-35.26,39.54Z"/>
          <path class="cls-2" d="m799.61,284.94c-3.09.47-6.28-.07-9.59-1.62-3.31-1.55-6.48-4.34-9.49-8.38l-6.62-8.87-19.86,14.82-5.99-8.03,48.94-36.52,12.61,16.9c2.81,3.76,4.53,7.42,5.19,10.98.65,3.57.36,6.83-.89,9.76-1.24,2.94-3.22,5.43-5.95,7.45-2.49,1.86-5.28,3.03-8.35,3.5Zm-5.36-9.6c2.5.47,5.03-.24,7.56-2.14,5.36-3.99,5.77-9.02,1.25-15.07l-6.62-8.87-15.98,11.93,6.62,8.87c2.27,3.05,4.66,4.81,7.17,5.28Z"/>
          <path class="cls-2" d="m786.65,323.08c.24-5.47,1.87-10.51,4.89-15.14,3.02-4.63,7.2-8.28,12.54-10.96,5.34-2.68,10.75-3.83,16.25-3.48,5.48.36,10.49,2.08,15.01,5.15,4.52,3.07,8.06,7.15,10.6,12.23,2.57,5.13,3.74,10.42,3.49,15.89-.24,5.46-1.86,10.48-4.87,15.07-3.01,4.59-7.18,8.22-12.52,10.9-5.34,2.68-10.76,3.86-16.26,3.54-5.5-.32-10.51-2.02-15.04-5.09-4.52-3.08-8.07-7.18-10.64-12.31-2.55-5.08-3.7-10.35-3.45-15.81Zm18.55,20.33c3.07,2,6.54,3.03,10.39,3.09,3.87.07,7.81-.92,11.85-2.94,4.03-2.02,7.16-4.59,9.4-7.71,2.24-3.12,3.45-6.5,3.66-10.15.21-3.64-.6-7.27-2.41-10.88-1.81-3.61-4.24-6.43-7.28-8.44-3.04-2.02-6.48-3.06-10.32-3.13-3.84-.07-7.78.9-11.8,2.92-4.03,2.02-7.18,4.6-9.44,7.73-2.26,3.13-3.51,6.53-3.74,10.18-.23,3.65.56,7.28,2.37,10.9,1.81,3.62,4.26,6.42,7.32,8.42Z"/>
          <path class="cls-2" d="m867.48,364.96l-57.73,19.89-3.26-9.47,57.73-19.9,3.26,9.47Z"/>
          <path class="cls-2" d="m824.56,445.42l-2.06-9.81,38.4-38.89-44.62,9.4-2.06-9.8,59.84-12.61,2.06,9.8-38.32,38.87,44.53-9.39,2.07,9.8-59.84,12.61Z"/>
          <path class="cls-2" d="m888.21,493.99l-8.16.36-.71-16.24-52.84,2.29-.44-10,52.84-2.3-.71-16.33,8.16-.36,1.85,42.57Z"/>
          <path class="cls-2" d="m838.35,563.2c1.39-1.46,3.03-2.5,4.95-3.11,1.91-.61,3.9-.68,5.95-.22,3.14.72,5.55,2.41,7.23,5.08,1.67,2.67,2.15,5.54,1.45,8.62-.73,3.19-2.43,5.63-5.1,7.3-2.67,1.67-5.57,2.15-8.71,1.44-3.14-.72-5.53-2.41-7.18-5.07-1.65-2.66-2.1-5.59-1.37-8.79.47-2.05,1.4-3.81,2.78-5.26Z"/>
        </g>
        <g>
          <path class="cls-2" d="m817.56,716.5l-52.26-31.59,5.18-8.57,22.85,13.81,14.87-24.59-22.86-13.82,5.18-8.57,52.26,31.59-5.18,8.57-22.41-13.55-14.87,24.59,22.41,13.55-5.18,8.57Z"/>
          <path class="cls-2" d="m743.44,730.18l16.89-19.2-6.47-11.54,6.9-7.85,31.48,56.81-7.66,8.71-60.37-23.96,6.97-7.92,12.26,4.94Zm7.99,3.29l27.87,11.29-14.69-26.27-13.18,14.98Z"/>
          <path class="cls-2" d="m715.9,751.12l-21.9,18.05-5.53-6.71,31.06-25.59,4.97,6.03,6.49,52.37,21.84-17.99,5.53,6.71-31.06,25.59-4.98-6.03-6.42-52.43Z"/>
          <path class="cls-2" d="m655.22,797.57l22.08-12.89-2.5-12.99,9.03-5.26,11.93,63.84-10.01,5.85-49.73-41.78,9.11-5.32,10.09,8.57Zm6.55,5.63l22.88,19.51-5.66-29.56-17.23,10.05Z"/>
          <path class="cls-2" d="m598.78,808.44l21.76,17.92,7.16-2.69-8.6-22.86,9.38-3.53,21.48,57.17-19.74,7.41c-4.38,1.65-8.39,2.27-12.01,1.89-3.62-.4-6.66-1.6-9.14-3.6-2.48-2.02-4.31-4.61-5.51-7.79-1.4-3.73-1.59-7.52-.57-11.38,1.03-3.85,3.58-7.17,7.66-9.96l-23.05-18.37,11.19-4.2Zm31.72,22.71l-10.36,3.9c-3.51,1.32-5.83,3.19-6.95,5.62-1.12,2.42-1.13,5.11-.01,8.07,1.11,2.96,2.86,4.95,5.24,5.96,2.38,1.01,5.36.85,8.92-.49l10.36-3.9-7.2-19.16Z"/>
          <path class="cls-2" d="m552.18,878.98c-5.27-1.52-9.66-4.31-13.17-8.37-3.5-4.07-5.84-9.15-7.02-15.24-1.18-6.09-.89-11.64.85-16.63,1.75-4.99,4.79-9.14,9.14-12.46,4.34-3.32,9.7-5.59,16.08-6.82l19.58-3.8,11.6,59.96-19.59,3.79c-6.38,1.24-12.21,1.09-17.49-.42Zm-7.59-42.7c-3,4.52-3.84,10.23-2.5,17.13,1.34,6.96,4.27,12.03,8.76,15.22s10.25,4.1,17.26,2.74l9.75-1.89-8.5-43.91-9.75,1.89c-7.02,1.36-12.02,4.29-15.03,8.81Z"/>
          <path class="cls-2" d="m457.59,837.63l25.52,1.44,5.09-12.21,10.44.59-25.3,59.82-11.58-.66-18.38-62.29,10.52.6,3.69,12.71Zm2.34,8.32l8.31,28.9,11.61-27.76-19.91-1.13Z"/>
          <path class="cls-2" d="m386.72,811.09l9.74,2.36,18.56,51.41,10.74-44.32,9.73,2.37-14.4,59.43-9.74-2.36-18.57-51.33-10.71,44.23-9.74-2.36,14.4-59.44Z"/>
          <path class="cls-2" d="m337.1,803.78l23.38,10.36,9.07-9.63,9.56,4.24-44.77,47.05-10.6-4.69,4.77-64.78,9.64,4.27-1.04,13.19Zm-.74,8.61l-2.41,29.98,20.65-21.9-18.23-8.08Z"/>
          <path class="cls-2" d="m308.82,782.95l-17.48-11,4.31-6.84,25.95,16.33-32.52,51.68-8.48-5.34,28.21-44.84Z"/>
          <path class="cls-2" d="m215.66,778.75l40.45-16.94,14.19-17,7.69,6.42-14.18,17-9.36,42.89-8.57-7.15,8.33-32.07-30.06,13.94-8.5-7.09Z"/>
          <path class="cls-2" d="m243.14,721.12c1.09,3.42,1.26,6.69.52,9.84-.74,3.15-2.43,5.89-5.07,8.21l-7.08-8.05c1.82-1.91,2.77-4.13,2.82-6.64.06-2.5-1.01-5.01-3.21-7.52-2.28-2.6-4.69-4.07-7.22-4.42s-4.79.35-6.77,2.08c-1.54,1.36-2.4,2.91-2.57,4.66-.17,1.75.06,3.53.71,5.34.66,1.8,1.72,4.17,3.19,7.08,1.84,3.69,3.18,6.83,4,9.41.83,2.59.97,5.29.41,8.12-.56,2.82-2.26,5.5-5.12,8.01-2.64,2.32-5.53,3.69-8.67,4.11-3.14.42-6.28-.1-9.42-1.55-3.15-1.44-6.09-3.73-8.83-6.86-3.91-4.44-6-9.06-6.27-13.85-.27-4.79,1.4-9.04,5-12.75l7.31,8.31c-1.56,1.6-2.29,3.65-2.21,6.15.09,2.5,1.18,4.93,3.27,7.31,1.89,2.15,3.99,3.43,6.29,3.83s4.48-.31,6.55-2.13c1.41-1.24,2.18-2.68,2.34-4.33.14-1.66-.1-3.37-.73-5.15s-1.65-4.09-3.04-6.92c-1.83-3.77-3.17-6.97-4.02-9.63-.85-2.65-.99-5.41-.44-8.28.57-2.87,2.29-5.58,5.2-8.13,2.34-2.05,5.09-3.35,8.25-3.92,3.17-.57,6.43-.2,9.8,1.09,3.36,1.3,6.47,3.57,9.33,6.83,2.71,3.08,4.61,6.32,5.69,9.74Z"/>
          <path class="cls-2" d="m161.06,713.3l50.09-34.93,5.73,8.21-50.09,34.93-5.73-8.21Z"/>
          <path class="cls-2" d="m198.22,660.97c.31,3.57-.25,6.8-1.68,9.71s-3.69,5.19-6.77,6.87l-5.11-9.42c2.21-1.46,3.62-3.41,4.23-5.84.62-2.43.12-5.12-1.46-8.05-1.65-3.04-3.67-5-6.06-5.91s-4.74-.72-7.06.53c-1.8.97-2.98,2.3-3.54,3.97-.56,1.67-.72,3.45-.49,5.36.24,1.91.74,4.44,1.53,7.62.97,4,1.58,7.36,1.81,10.06.24,2.71-.23,5.37-1.4,8-1.17,2.63-3.43,4.86-6.78,6.67-3.09,1.68-6.21,2.37-9.37,2.09-3.16-.29-6.1-1.49-8.85-3.6-2.74-2.11-5.11-5-7.09-8.65-2.82-5.2-3.83-10.16-3.03-14.89.8-4.74,3.37-8.51,7.7-11.33l5.28,9.74c-1.87,1.21-3.04,3.05-3.51,5.5-.47,2.45.05,5.07,1.56,7.85,1.37,2.53,3.13,4.24,5.28,5.13,2.15.91,4.44.7,6.86-.61,1.65-.9,2.73-2.13,3.24-3.71.51-1.57.65-3.3.43-5.18-.22-1.88-.69-4.36-1.43-7.43-.95-4.08-1.54-7.5-1.78-10.28-.24-2.77.24-5.49,1.42-8.17,1.19-2.67,3.47-4.93,6.87-6.77,2.73-1.48,5.71-2.14,8.92-2,3.21.16,6.31,1.24,9.31,3.25,2.99,2.01,5.52,4.92,7.58,8.72,1.96,3.61,3.09,7.19,3.39,10.76Z"/>
          <path class="cls-2" d="m144.54,575.4c-.61,1.92-1.64,3.57-3.09,4.96s-3.21,2.32-5.26,2.8c-3.14.72-6.05.25-8.71-1.41-2.67-1.67-4.36-4.05-5.08-7.13-.74-3.19-.27-6.13,1.39-8.8s4.07-4.37,7.21-5.09c3.14-.73,6.03-.25,8.67,1.42,2.64,1.67,4.33,4.11,5.07,7.3.48,2.06.41,4.04-.2,5.95Z"/>
          <path class="cls-2" d="m105.78,490.93c-4.54-3.09-7.99-7.11-10.34-12.05-2.34-4.94-3.32-10.25-2.94-15.91.43-6.5,2.41-12.15,5.93-17,3.52-4.85,8.28-8.21,14.28-10.1l-.8,12.01c-3.32,1.36-5.86,3.4-7.63,6.1-1.76,2.7-2.77,5.89-3.01,9.57-.27,4.03.39,7.69,2,10.96s4.04,5.92,7.31,7.93c3.27,2.01,7.16,3.16,11.66,3.46,4.5.3,8.5-.33,12.01-1.89,3.51-1.55,6.29-3.85,8.34-6.88,2.05-3.03,3.21-6.57,3.48-10.6.24-3.69-.33-6.98-1.72-9.89-1.39-2.91-3.64-5.25-6.75-7.05l.8-12.01c5.69,2.67,9.95,6.64,12.77,11.9,2.82,5.27,4.01,11.15,3.58,17.64-.38,5.72-2.06,10.87-5.04,15.42-2.98,4.56-6.92,8.07-11.84,10.53-4.91,2.46-10.36,3.49-16.32,3.09-5.96-.4-11.22-2.14-15.77-5.24Z"/>
          <path class="cls-2" d="m166.07,398.12l-27.11,7.7-1.86,7.42,23.69,5.94-2.43,9.72-59.23-14.85,5.12-20.46c1.14-4.54,2.9-8.19,5.28-10.95,2.38-2.75,5.11-4.57,8.17-5.47,3.06-.89,6.24-.93,9.53-.1,3.87.97,7.09,2.97,9.68,6.01,2.6,3.04,3.87,7.03,3.84,11.97l28.21-8.51-2.9,11.59Zm-36.72,13.17l2.69-10.74c.91-3.64.69-6.61-.66-8.91-1.36-2.3-3.57-3.84-6.64-4.6-3.07-.77-5.7-.47-7.89.92-2.19,1.38-3.75,3.93-4.67,7.62l-2.69,10.74,19.86,4.98Z"/>
          <path class="cls-2" d="m119.67,345.21l57.14,21.53-3.53,9.37-57.14-21.53,3.53-9.38Z"/>
          <path class="cls-2" d="m144.37,292.31l7.3,3.67-7.3,14.53,47.26,23.76-4.5,8.94-47.26-23.76-7.34,14.6-7.3-3.67,19.14-38.07Z"/>
          <path class="cls-2" d="m158.49,270.37l51.35,33.04-5.42,8.42-51.36-33.04,5.42-8.43Z"/>
          <path class="cls-2" d="m180.81,261.87c-1.82-5.19-2.2-10.47-1.14-15.84s3.42-10.21,7.1-14.54c4.2-4.96,9.16-8.33,14.88-10.14,5.71-1.79,11.54-1.67,17.49.38l-7.79,9.17c-3.48-.88-6.73-.75-9.76.36-3.03,1.12-5.73,3.09-8.12,5.9-2.62,3.08-4.26,6.42-4.92,10-.66,3.59-.27,7.16,1.16,10.72,1.43,3.56,3.87,6.8,7.31,9.72,3.45,2.92,7.03,4.8,10.78,5.64,3.74.83,7.35.65,10.8-.57,3.45-1.22,6.49-3.37,9.1-6.45,2.39-2.81,3.89-5.81,4.5-8.97.61-3.17.21-6.4-1.23-9.68l7.79-9.18c2.99,5.53,4.05,11.25,3.18,17.16-.86,5.91-3.4,11.35-7.61,16.3-3.71,4.38-8.12,7.51-13.22,9.41-5.1,1.89-10.36,2.36-15.78,1.42-5.42-.95-10.4-3.36-14.96-7.22-4.56-3.87-7.74-8.39-9.56-13.58Z"/>
          <path class="cls-2" d="m280.53,210.35l-19.88,16.08,4.43,12.46-8.13,6.57-21.44-61.3,9.02-7.29,55.46,33.79-8.2,6.64-11.26-6.94Zm-7.32-4.59l-25.57-15.82,10.05,28.37,15.51-12.54Z"/>
          <path class="cls-2" d="m312,194.73l17.78-10.5,4.11,6.96-26.4,15.59-31.05-52.58,8.62-5.1,26.94,45.62Z"/>
          <path class="cls-2" d="m347.67,132.69c1.27-5.35,3.8-10,7.58-13.95s8.39-6.75,13.82-8.42c6.22-1.9,12.22-2.07,17.99-.51,5.78,1.57,10.62,4.82,14.52,9.75l-11.51,3.53c-2.46-2.62-5.26-4.27-8.41-4.95-3.15-.69-6.49-.49-10.02.58-3.87,1.19-7.04,3.11-9.54,5.77-2.49,2.66-4.09,5.88-4.8,9.66-.71,3.77-.41,7.81.91,12.12,1.32,4.31,3.33,7.83,6.04,10.56,2.7,2.73,5.83,4.5,9.4,5.35,3.57.84,7.28.66,11.15-.52,3.53-1.08,6.4-2.79,8.63-5.12,2.23-2.33,3.62-5.28,4.19-8.82l11.51-3.53c-.47,6.27-2.66,11.66-6.58,16.17-3.92,4.51-8.98,7.71-15.2,9.62-5.48,1.68-10.89,1.95-16.2.78-5.32-1.15-10-3.6-14.05-7.32-4.05-3.72-6.95-8.44-8.7-14.15-1.75-5.72-1.99-11.25-.72-16.6Z"/>
          <path class="cls-2" d="m435.81,153.92c-5.04-2.1-9.23-5.36-12.54-9.78-3.31-4.43-5.31-9.61-5.99-15.54-.69-5.94.09-11.42,2.3-16.45,2.22-5.04,5.55-9.14,9.99-12.34,4.44-3.19,9.48-5.12,15.12-5.77,5.71-.66,11.08.06,16.13,2.17,5.05,2.1,9.21,5.35,12.49,9.74s5.26,9.56,5.95,15.5c.69,5.93-.07,11.43-2.26,16.49-2.19,5.06-5.5,9.18-9.93,12.38-4.44,3.2-9.51,5.12-15.21,5.78-5.64.65-10.99-.07-16.04-2.17Zm25.46-10.46c2.93-2.2,5.09-5.1,6.47-8.7,1.38-3.61,1.81-7.66,1.3-12.14-.52-4.48-1.86-8.31-4.02-11.48-2.17-3.17-4.92-5.48-8.27-6.91-3.35-1.44-7.03-1.94-11.05-1.47-4.01.47-7.49,1.78-10.42,3.95-2.93,2.17-5.09,5.04-6.48,8.62-1.39,3.58-1.82,7.61-1.31,12.09.52,4.48,1.86,8.32,4.03,11.52,2.16,3.2,4.93,5.53,8.28,7,3.36,1.47,7.04,1.97,11.06,1.51,4.02-.47,7.49-1.79,10.42-3.99Z"/>
          <path class="cls-2" d="m540.9,156.22l-9.98-.77-26.53-47.79-3.52,45.46-9.99-.77,4.73-60.97,9.99.77,26.53,47.71,3.52-45.38,9.99.78-4.73,60.97Z"/>
          <path class="cls-2" d="m605.41,108.79l-1.95,7.94-15.78-3.88-12.65,51.36-9.73-2.4,12.65-51.36-15.87-3.91,1.95-7.93,41.38,10.18Z"/>
          <path class="cls-2" d="m628.63,183.06l-3.62-27.95-7.06-2.93-9.37,22.56-9.25-3.84,23.42-56.4,19.47,8.08c4.33,1.79,7.68,4.07,10.06,6.84,2.37,2.76,3.77,5.72,4.21,8.89.43,3.16,0,6.31-1.31,9.44-1.53,3.69-3.98,6.58-7.37,8.69s-7.52,2.8-12.4,2.03l4.26,29.16-11.04-4.58Zm-7.61-38.26l10.23,4.25c3.46,1.43,6.43,1.65,8.91.65,2.48-1,4.32-2.96,5.54-5.88,1.21-2.92,1.3-5.57.25-7.94s-3.33-4.28-6.84-5.75l-10.23-4.24-7.85,18.91Z"/>
          <path class="cls-2" d="m661,195.7c-2.57-4.83-3.73-10-3.49-15.52.24-5.52,1.99-10.79,5.22-15.81s7.3-8.78,12.21-11.26c4.9-2.49,10.09-3.56,15.55-3.21,5.46.34,10.57,2.06,15.35,5.13,4.83,3.11,8.53,7.07,11.09,11.9,2.58,4.83,3.73,9.98,3.48,15.46-.25,5.48-2,10.73-5.23,15.76-3.23,5.03-7.3,8.8-12.2,11.32-4.9,2.52-10.09,3.61-15.54,3.27-5.46-.35-10.6-2.07-15.43-5.18-4.77-3.08-8.45-7.02-11.02-11.85Zm26.31,8.06c3.66.16,7.17-.71,10.53-2.63,3.35-1.91,6.25-4.76,8.69-8.56s3.83-7.6,4.17-11.43c.33-3.82-.34-7.35-2.01-10.59-1.68-3.24-4.21-5.95-7.61-8.14-3.4-2.19-6.92-3.38-10.56-3.57-3.64-.18-7.14.67-10.47,2.56-3.34,1.9-6.24,4.73-8.68,8.52-2.44,3.79-3.84,7.62-4.19,11.46-.36,3.85.3,7.4,1.96,10.67,1.66,3.26,4.19,5.99,7.59,8.18,3.4,2.19,6.92,3.36,10.58,3.52Z"/>
          <path class="cls-2" d="m717.44,230.9l15.41,13.74-5.38,6.03-22.89-20.41,40.64-45.58,7.48,6.66-35.26,39.54Z"/>
          <path class="cls-2" d="m799.61,284.94c-3.09.47-6.28-.07-9.59-1.62-3.31-1.55-6.48-4.34-9.49-8.38l-6.62-8.87-19.86,14.82-5.99-8.03,48.94-36.52,12.61,16.9c2.81,3.76,4.53,7.42,5.19,10.98.65,3.57.36,6.83-.89,9.76-1.24,2.94-3.22,5.43-5.95,7.45-2.49,1.86-5.28,3.03-8.35,3.5Zm-5.36-9.6c2.5.47,5.03-.24,7.56-2.14,5.36-3.99,5.77-9.02,1.25-15.07l-6.62-8.87-15.98,11.93,6.62,8.87c2.27,3.05,4.66,4.81,7.17,5.28Z"/>
          <path class="cls-2" d="m786.65,323.08c.24-5.47,1.87-10.51,4.89-15.14,3.02-4.63,7.2-8.28,12.54-10.96,5.34-2.68,10.75-3.83,16.25-3.48,5.48.36,10.49,2.08,15.01,5.15,4.52,3.07,8.06,7.15,10.6,12.23,2.57,5.13,3.74,10.42,3.49,15.89-.24,5.46-1.86,10.48-4.87,15.07-3.01,4.59-7.18,8.22-12.52,10.9-5.34,2.68-10.76,3.86-16.26,3.54-5.5-.32-10.51-2.02-15.04-5.09-4.52-3.08-8.07-7.18-10.64-12.31-2.55-5.08-3.7-10.35-3.45-15.81Zm18.55,20.33c3.07,2,6.54,3.03,10.39,3.09,3.87.07,7.81-.92,11.85-2.94,4.03-2.02,7.16-4.59,9.4-7.71,2.24-3.12,3.45-6.5,3.66-10.15.21-3.64-.6-7.27-2.41-10.88-1.81-3.61-4.24-6.43-7.28-8.44-3.04-2.02-6.48-3.06-10.32-3.13-3.84-.07-7.78.9-11.8,2.92-4.03,2.02-7.18,4.6-9.44,7.73-2.26,3.13-3.51,6.53-3.74,10.18-.23,3.65.56,7.28,2.37,10.9,1.81,3.62,4.26,6.42,7.32,8.42Z"/>
          <path class="cls-2" d="m867.48,364.96l-57.73,19.89-3.26-9.47,57.73-19.9,3.26,9.47Z"/>
          <path class="cls-2" d="m824.56,445.42l-2.06-9.81,38.4-38.89-44.62,9.4-2.06-9.8,59.84-12.61,2.06,9.8-38.32,38.87,44.53-9.39,2.07,9.8-59.84,12.61Z"/>
          <path class="cls-2" d="m888.21,493.99l-8.16.36-.71-16.24-52.84,2.29-.44-10,52.84-2.3-.71-16.33,8.16-.36,1.85,42.57Z"/>
          <path class="cls-2" d="m838.35,563.2c1.39-1.46,3.03-2.5,4.95-3.11,1.91-.61,3.9-.68,5.95-.22,3.14.72,5.55,2.41,7.23,5.08,1.67,2.67,2.15,5.54,1.45,8.62-.73,3.19-2.43,5.63-5.1,7.3-2.67,1.67-5.57,2.15-8.71,1.44-3.14-.72-5.53-2.41-7.18-5.07-1.65-2.66-2.1-5.59-1.37-8.79.47-2.05,1.4-3.81,2.78-5.26Z"/>
        </g>
      </g>
    </g>
  </g>
</svg>