<?xml version="1.0" encoding="UTF-8"?>
<svg id="Ebene_2" data-name="Ebene 2" xmlns="http://www.w3.org/2000/svg" viewBox="0 0 980 980">
  <defs>
    <style>
      .cls-1 {
        fill: #214228;
      }

      .cls-2 {
        fill: #1d1d1b;
      }
    </style>
  </defs>
  <g id="Ebene_1-2" data-name="Ebene 1">
    <g>
      <g>
        <g>
          <path class="cls-1" d="m664.76,467.88v-48.54c0-6.12-2.01-9.19-6.03-9.19h-5.17v66.92h5.17c4.02,0,6.03-3.07,6.03-9.19Z"/>
          <path class="cls-1" d="m490,760.65c149.24,0,270.65-121.41,270.65-270.65s-121.41-270.65-270.65-270.65-270.65,121.41-270.65,270.65,121.41,270.65,270.65,270.65Zm128.24-385.53h43.37c9.95,0,18.76,3.21,26.42,9.62,7.66,6.42,11.49,16.23,11.49,29.44v58.59c0,13.21-3.83,23.02-11.49,29.44-7.66,6.42-16.47,9.62-26.42,9.62h-8.04v93.06h-35.32v-229.77Zm-150.21,0h55.14l12.92,107.7,13.79-107.7h52.85v229.77h-35.33v-155.09l-23.26,155.09h-23.26l-20.97-155.09v155.09h-31.88v-229.77Zm-96.5,39.35c0-11.68,3.92-21.64,11.78-29.87,7.85-8.23,17.52-12.35,29.01-12.35s21.15,4.12,29.01,12.35c7.85,8.23,11.78,18.19,11.78,29.87v49.98h-33.89v-49.11c0-1.91-.67-3.54-2.01-4.89-1.34-1.34-2.97-2.01-4.88-2.01s-3.54.67-4.89,2.01c-1.34,1.34-2.01,2.97-2.01,4.89v152.22c0,1.92.67,3.55,2.01,4.89,1.34,1.34,2.97,2.01,4.89,2.01s3.54-.67,4.88-2.01c1.34-1.34,2.01-2.97,2.01-4.89v-44.51h-6.89v-30.44h42.22v112.3h-20.68l-2.87-4.59c-6.13,4.98-13.69,7.47-22.69,7.47-11.3,0-20.25-3.78-26.85-11.34-6.6-7.56-9.91-17.85-9.91-30.88v-151.07Zm-79.55,29.44c7.65-7.76,16.95-11.63,27.86-11.63s19.96,3.88,27.72,11.63c7.76,7.75,11.63,17.09,11.63,28v25.56h-32.45v-29.29c0-1.91-.67-3.54-2.01-4.89-1.34-1.34-2.97-2.01-4.89-2.01-2.11,0-3.78.67-5.02,2.01-1.25,1.34-1.87,2.97-1.87,4.89v103.97c0,1.91.62,3.54,1.87,4.88,1.24,1.34,2.92,2.01,5.02,2.01,1.91,0,3.54-.67,4.89-2.01,1.34-1.34,2.01-2.97,2.01-4.88v-29.3h32.45v25.56c0,10.92-3.88,20.2-11.63,27.86-7.76,7.66-16.99,11.49-27.72,11.49s-20.2-3.82-27.86-11.49c-7.66-7.65-11.49-16.94-11.49-27.86v-96.5c0-10.91,3.83-20.25,11.49-28Z"/>
        </g>
        <path class="cls-1" d="m490,980C219.81,980,0,760.19,0,490S219.81,0,490,0s490,219.81,490,490-219.81,490-490,490Zm0-945.61c-251.22,0-455.61,204.38-455.61,455.61s204.38,455.61,455.61,455.61,455.61-204.38,455.61-455.61S741.22,34.39,490,34.39Z"/>
      </g>
      <g>
        <g>
          <path class="cls-2" d="m353.51,848.97c-4.52,3.14-9.5,4.92-14.95,5.34-5.45.42-10.76-.56-15.92-2.94-5.91-2.73-10.48-6.6-13.76-11.62-3.26-5.02-4.7-10.67-4.32-16.95l10.93,5.05c.09,3.58,1.07,6.69,2.97,9.3,1.89,2.61,4.51,4.69,7.86,6.24,3.67,1.69,7.32,2.38,10.95,2.05,3.63-.32,6.97-1.66,10.02-4,3.04-2.33,5.51-5.55,7.4-9.64,1.89-4.09,2.74-8.06,2.53-11.89-.2-3.84-1.35-7.25-3.45-10.25-2.1-3-4.99-5.35-8.66-7.04-3.35-1.55-6.64-2.19-9.85-1.93-3.21.25-6.21,1.52-9,3.78l-10.93-5.04c4.53-4.36,9.76-6.92,15.68-7.67,5.93-.74,11.84.24,17.74,2.96,5.22,2.4,9.42,5.82,12.61,10.22,3.19,4.41,5.06,9.35,5.59,14.82.54,5.47-.44,10.92-2.94,16.35-2.5,5.43-6.01,9.71-10.53,12.85Z"/>
          <path class="cls-2" d="m270.61,821.74l22.56-31.71c2.68-3.78,3.71-7.32,3.09-10.64-.62-3.32-2.7-6.23-6.23-8.74-3.58-2.55-7.04-3.57-10.38-3.07-3.34.49-6.35,2.63-9.03,6.41l-22.56,31.71-8.16-5.81,22.46-31.57c2.88-4.06,6.21-6.86,9.98-8.43,3.77-1.56,7.62-1.98,11.57-1.26,3.95.72,7.71,2.35,11.29,4.89,3.58,2.55,6.34,5.57,8.3,9.03,1.95,3.47,2.78,7.23,2.5,11.27-.29,4.04-1.87,8.09-4.76,12.14l-22.46,31.58-8.17-5.81Z"/>
          <path class="cls-2" d="m243.92,719.71l-7.41,27.19,5.39,5.42,17.32-17.22,7.06,7.1-43.31,43.05-14.87-14.96c-3.31-3.33-5.52-6.71-6.65-10.18-1.13-3.46-1.29-6.73-.48-9.82.83-3.09,2.44-5.83,4.85-8.21,2.83-2.81,6.2-4.53,10.14-5.19,3.94-.65,8.02.32,12.23,2.89l7.29-28.56,8.43,8.48Zm-7.7,38.25l-7.8-7.85c-2.64-2.66-5.3-4.01-7.97-4.04-2.67-.03-5.13,1.07-7.37,3.3-2.25,2.23-3.33,4.64-3.29,7.23.06,2.59,1.43,5.24,4.11,7.94l7.81,7.85,14.52-14.43Z"/>
          <path class="cls-2" d="m210.18,677.06l-11.73,25.62,4.44,6.22,19.89-14.18,5.82,8.15-49.72,35.46-12.24-17.17c-2.72-3.82-4.36-7.52-4.91-11.12-.56-3.6-.17-6.85,1.13-9.76,1.31-2.91,3.34-5.35,6.1-7.33,3.24-2.31,6.86-3.47,10.85-3.47,3.99,0,7.85,1.61,11.6,4.84l11.83-27,6.94,9.73Zm-13.8,36.5l-6.43-9.02c-2.18-3.05-4.58-4.81-7.21-5.27-2.63-.46-5.24.23-7.81,2.07-2.57,1.83-4.05,4.03-4.41,6.6-.36,2.56.56,5.4,2.76,8.5l6.43,9.01,16.66-11.89Z"/>
          <path class="cls-2" d="m146.16,672.82l15.97-8.14-9.58-18.78,7.27-3.71,9.59,18.79,16.66-8.51-10.78-21.13,7.28-3.71,15.34,30.05-54.48,27.79-15.33-30.05,7.28-3.71,10.78,21.12Z"/>
          <path class="cls-2" d="m162.14,569.6l3.09,9.52-34.06,42.75,43.37-14.08,3.09,9.52-58.17,18.89-3.09-9.52,33.98-42.72-43.29,14.06-3.1-9.53,58.17-18.89Z"/>
          <path class="cls-2" d="m93.66,527.72l8.08-1.22,2.41,16.08,52.31-7.84,1.49,9.9-52.31,7.85,2.42,16.16-8.08,1.21-6.32-42.14Z"/>
          <path class="cls-2" d="m113.18,438.46c-3.18,1.3-5.67,3.27-7.48,5.93-1.8,2.65-2.88,5.82-3.22,9.5-.37,4.03.2,7.7,1.72,11.01,1.52,3.32,3.86,6.02,7.02,8.1,3.16,2.09,6.92,3.33,11.3,3.74,4.37.4,8.32-.12,11.84-1.6,3.52-1.47,6.33-3.69,8.43-6.67,2.1-2.98,3.34-6.49,3.71-10.51.5-5.42-.61-9.97-3.33-13.63-2.72-3.66-6.64-6.11-11.76-7.35l-2.12,22.84-7.96-.74,3.1-33.51,7.79.72c4.66,1.08,8.86,3.16,12.57,6.24,3.72,3.08,6.55,6.9,8.52,11.46,1.96,4.56,2.7,9.51,2.2,14.81-.53,5.71-2.34,10.82-5.43,15.29-3.09,4.48-7.13,7.89-12.11,10.23-4.98,2.33-10.45,3.22-16.39,2.67-5.95-.56-11.16-2.43-15.63-5.64-4.47-3.21-7.81-7.31-10.02-12.31s-3.06-10.33-2.54-15.99c.6-6.47,2.73-12.08,6.37-16.84,3.65-4.75,8.49-7.99,14.53-9.73l-1.11,11.99Z"/>
          <path class="cls-2" d="m159.9,407.82c-3.92,3.81-8.57,6.37-13.93,7.67-5.37,1.3-10.92,1.09-16.64-.62-5.73-1.71-10.47-4.58-14.21-8.6-3.75-4.02-6.22-8.7-7.41-14.04-1.19-5.34-.97-10.73.66-16.17,1.64-5.5,4.42-10.16,8.34-13.97,3.93-3.81,8.55-6.36,13.88-7.64,5.34-1.28,10.86-1.06,16.59.65,5.73,1.71,10.48,4.56,14.27,8.57,3.79,4,6.27,8.68,7.46,14.01,1.19,5.34.96,10.76-.68,16.26-1.63,5.45-4.4,10.07-8.32,13.88Zm.43-27.52c-.86-3.56-2.68-6.68-5.46-9.38-2.77-2.7-6.32-4.69-10.64-5.97-4.32-1.29-8.36-1.57-12.13-.83s-6.97,2.37-9.62,4.88c-2.64,2.52-4.54,5.71-5.7,9.58-1.16,3.87-1.31,7.59-.48,11.13.83,3.55,2.62,6.67,5.37,9.35,2.74,2.69,6.28,4.67,10.6,5.97,4.32,1.29,8.38,1.57,12.17.83,3.8-.73,7.03-2.35,9.71-4.85,2.67-2.51,4.59-5.7,5.74-9.57,1.16-3.87,1.3-7.59.44-11.15Z"/>
          <path class="cls-2" d="m182.77,343.89c-4.59,2.96-9.65,4.55-15.18,4.77-5.52.21-10.92-1.08-16.19-3.89-5.28-2.81-9.36-6.55-12.24-11.24-2.88-4.69-4.38-9.76-4.49-15.23s1.17-10.71,3.83-15.73c2.7-5.06,6.34-9.08,10.94-12.05,4.6-2.96,9.64-4.54,15.12-4.74,5.48-.2,10.86,1.1,16.14,3.91,5.27,2.8,9.37,6.55,12.29,11.21,2.92,4.68,4.43,9.75,4.54,15.21.12,5.47-1.18,10.74-3.88,15.81-2.67,5.02-6.31,9.01-10.9,11.97Zm5.85-26.9c-.14-3.65-1.31-7.08-3.49-10.27-2.18-3.19-5.27-5.84-9.25-7.96s-7.89-3.19-11.73-3.21c-3.83-.01-7.3.95-10.39,2.88-3.09,1.94-5.58,4.7-7.48,8.26-1.9,3.57-2.79,7.18-2.67,10.82.12,3.64,1.26,7.05,3.42,10.23,2.16,3.17,5.23,5.82,9.21,7.94,3.98,2.11,7.9,3.19,11.77,3.22,3.86.03,7.35-.92,10.47-2.84,3.11-1.93,5.62-4.68,7.52-8.24,1.9-3.57,2.77-7.18,2.63-10.84Z"/>
          <path class="cls-2" d="m191.63,232.55c5.01-2.25,10.16-2.94,15.46-2.08,5.3.85,10.36,3.23,15.2,7.13,4.83,3.9,8.18,8.32,10.06,13.27,1.88,4.94,2.23,10.09,1.05,15.41-1.18,5.34-3.81,10.53-7.9,15.59l-12.53,15.52-47.51-38.36,12.53-15.52c4.08-5.06,8.63-8.71,13.64-10.95Zm33.32,27.75c-.61-5.39-3.66-10.29-9.12-14.71-5.51-4.45-11.02-6.45-16.51-5.99-5.49.46-10.48,3.47-14.97,9.03l-6.24,7.73,34.8,28.1,6.23-7.73c4.49-5.56,6.43-11.03,5.81-16.43Z"/>
          <path class="cls-2" d="m285.5,147.5l35.4,49.76-8.16,5.81-24.25-34.08,9.06,44.88-5.66,4.02-39.49-23.23,24.24,34.08-8.16,5.8-35.4-49.75,8.81-6.27,45.23,26.59-10.36-51.4,8.73-6.21Z"/>
          <path class="cls-2" d="m360.01,165.86l-23.37,10.36,1.04,13.19-9.55,4.24-4.8-64.77,10.6-4.7,44.79,47.03-9.64,4.28-9.07-9.63Zm-5.88-6.33l-20.59-21.92,2.36,30.01,18.23-8.09Z"/>
          <path class="cls-2" d="m435.56,156.84l-9.74,2.36-40.03-37.23,10.74,44.32-9.74,2.36-14.4-59.43,9.73-2.36,40.01,37.14-10.72-44.24,9.74-2.35,14.4,59.43Z"/>
          <path class="cls-2" d="m453.74,93.7l2.2,38.87c.26,4.62,1.67,8.03,4.23,10.23,2.56,2.2,6,3.18,10.33,2.93,4.39-.24,7.73-1.6,10.02-4.08,2.3-2.48,3.32-6.02,3.05-10.65l-2.2-38.86,10-.57,2.19,38.69c.28,4.97-.57,9.24-2.53,12.81-1.97,3.57-4.72,6.31-8.25,8.21-3.53,1.9-7.49,2.97-11.87,3.22-4.39.25-8.43-.37-12.12-1.87-3.69-1.49-6.69-3.9-8.99-7.24-2.3-3.33-3.59-7.48-3.87-12.45l-2.19-38.68,10-.57Z"/>
          <path class="cls-2" d="m548.77,96.17l-.81,8.14-25.79-2.56-1.78,17.92,20.11,1.99-.8,8.14-20.11-1.99-2.63,26.58-9.97-.99,6.02-60.77,35.76,3.54Z"/>
          <path class="cls-2" d="m589.85,155.27l-24.75-6.42-7.38,10.97-10.12-2.62,36.53-53.71,11.22,2.91,5.83,64.69-10.21-2.65-1.12-13.17Zm-.67-8.62l-2.5-29.96-16.81,24.96,19.31,5.01Z"/>
          <path class="cls-2" d="m629.63,132.01c4.54-3.1,9.53-4.85,14.99-5.22,5.45-.37,10.75.65,15.89,3.07,5.88,2.78,10.43,6.69,13.66,11.73,3.21,5.05,4.62,10.71,4.18,16.98l-10.89-5.13c-.05-3.59-1.02-6.7-2.89-9.32-1.87-2.63-4.47-4.73-7.81-6.31-3.66-1.72-7.3-2.44-10.94-2.14-3.63.29-6.98,1.6-10.04,3.91-3.07,2.31-5.56,5.51-7.49,9.59-1.92,4.08-2.8,8.04-2.63,11.87.16,3.84,1.29,7.26,3.36,10.28,2.07,3.01,4.94,5.39,8.59,7.12,3.34,1.57,6.62,2.24,9.83,2.01,3.22-.23,6.23-1.47,9.04-3.71l10.89,5.13c-4.57,4.33-9.82,6.84-15.75,7.54-5.93.7-11.84-.33-17.72-3.1-5.2-2.45-9.37-5.89-12.52-10.32-3.16-4.43-4.98-9.39-5.48-14.87-.49-5.47.54-10.92,3.08-16.32,2.55-5.41,6.09-9.66,10.63-12.77Z"/>
          <path class="cls-2" d="m735.78,176.55l-4.68,6.7-13.32-9.32-30.33,43.34-8.21-5.74,30.33-43.33-13.39-9.38,4.69-6.69,34.9,24.43Z"/>
          <path class="cls-2" d="m757.72,195.49l-27.15,27.88c-3.23,3.32-4.79,6.66-4.69,10.03.11,3.37,1.71,6.57,4.82,9.6,3.15,3.07,6.41,4.61,9.79,4.63,3.37.01,6.67-1.63,9.91-4.95l27.15-27.89,7.18,7-27.04,27.75c-3.47,3.57-7.19,5.83-11.16,6.79-3.96.97-7.84.79-11.63-.53s-7.26-3.51-10.4-6.58c-3.15-3.06-5.41-6.46-6.81-10.19s-1.65-7.57-.74-11.52c.9-3.95,3.09-7.7,6.56-11.27l27.03-27.76,7.17,6.99Z"/>
          <path class="cls-2" d="m768.32,300.28l11.5-25.74-4.5-6.18-19.75,14.36-5.89-8.1,49.39-35.9,12.4,17.05c2.76,3.79,4.42,7.49,5.01,11.08.59,3.59.24,6.85-1.04,9.77-1.28,2.92-3.3,5.38-6.04,7.38-3.22,2.34-6.83,3.53-10.82,3.57-3.99.04-7.87-1.54-11.64-4.73l-11.59,27.1-7.02-9.67Zm13.46-36.62l6.51,8.96c2.2,3.03,4.63,4.77,7.26,5.2,2.64.44,5.24-.27,7.79-2.13,2.56-1.86,4.01-4.07,4.36-6.64.34-2.57-.6-5.39-2.85-8.47l-6.51-8.95-16.56,12.03Z"/>
          <path class="cls-2" d="m838.81,298.91l-53.21,29.96-4.91-8.73,53.21-29.96,4.91,8.73Z"/>
          <path class="cls-2" d="m811.23,386.27l-3.78-9.28,30.83-45.13-42.22,17.23-3.78-9.28,56.62-23.1,3.79,9.27-30.76,45.1,42.14-17.19,3.78,9.27-56.62,23.11Z"/>
          <path class="cls-2" d="m866.17,432.42c2.67-2.14,4.5-4.75,5.47-7.81.97-3.06,1.1-6.4.38-10.02-.79-3.96-2.39-7.32-4.79-10.06-2.39-2.75-5.4-4.67-9.03-5.77-3.62-1.1-7.59-1.22-11.9-.36-4.31.86-7.94,2.5-10.9,4.9-2.96,2.41-5.01,5.35-6.18,8.8-1.17,3.46-1.35,7.17-.56,11.13,1.07,5.35,3.43,9.39,7.08,12.13,3.65,2.74,8.1,3.96,13.36,3.69l-4.48-22.49,7.85-1.56,6.57,33-7.67,1.53c-4.78.29-9.39-.5-13.82-2.39-4.44-1.9-8.25-4.75-11.43-8.57-3.18-3.82-5.29-8.34-6.33-13.56-1.13-5.63-.84-11.04.85-16.21,1.68-5.18,4.58-9.59,8.69-13.25,4.11-3.66,9.09-6.07,14.95-7.23,5.86-1.17,11.39-.85,16.58.95,5.2,1.79,9.57,4.78,13.12,8.94,3.54,4.16,5.87,9.02,6.99,14.6,1.27,6.38.83,12.36-1.31,17.96-2.14,5.59-5.86,10.08-11.16,13.46l-2.35-11.8Z"/>
          <path class="cls-2" d="m859.31,528.5c-2.68-1.59-4.8-4.05-6.37-7.34-1.57-3.31-2.23-7.48-1.99-12.5l.54-11.06-24.75-1.2.48-10,61,2.96-1.02,21.06c-.23,4.68-1.23,8.6-2.99,11.78s-4.06,5.49-6.89,6.97-5.94,2.13-9.33,1.97c-3.1-.15-5.99-1.02-8.68-2.62Zm1.98-10.81c1.63,1.95,4.03,3,7.19,3.16,6.67.32,10.19-3.29,10.55-10.84l.54-11.06-19.92-.96-.54,11.06c-.18,3.8.54,6.68,2.18,8.64Z"/>
          <path class="cls-2" d="m817.44,568.63l26.78-8.78,1.56-7.49-23.91-4.98,2.04-9.81,59.78,12.46-4.3,20.64c-.96,4.59-2.57,8.31-4.84,11.16-2.27,2.84-4.91,4.77-7.94,5.79s-6.19,1.18-9.52.48c-3.9-.82-7.2-2.69-9.91-5.61s-4.16-6.87-4.32-11.8l-27.85,9.63,2.44-11.7Zm36.17-14.64l-2.26,10.84c-.77,3.67-.43,6.63,1.02,8.88,1.44,2.24,3.72,3.69,6.81,4.34,3.1.64,5.71.23,7.85-1.24,2.13-1.48,3.58-4.07,4.36-7.8l2.26-10.83-20.04-4.18Z"/>
          <path class="cls-2" d="m810.14,629.62l9.36-23.8-10-8.65,3.83-9.74,48.9,42.74-4.25,10.8-64.92-2.02,3.86-9.82,13.22.48Zm8.63.37l30.04,1.15-22.74-19.71-7.3,18.56Z"/>
          <path class="cls-2" d="m828.51,671.75c2.53,4.88,3.66,10.05,3.38,15.51-.29,5.46-1.94,10.59-4.97,15.4-3.46,5.51-7.89,9.55-13.29,12.15-5.4,2.59-11.19,3.29-17.37,2.1l6.41-10.19c3.57.38,6.78-.2,9.61-1.74,2.84-1.54,5.24-3.87,7.2-7,2.15-3.42,3.3-6.95,3.45-10.6.15-3.64-.74-7.13-2.67-10.45-1.92-3.32-4.79-6.19-8.61-8.58-3.82-2.4-7.64-3.75-11.47-4.05-3.82-.3-7.36.4-10.61,2.1-3.24,1.7-5.95,4.25-8.09,7.67-1.97,3.12-3.03,6.3-3.19,9.52-.16,3.22.71,6.36,2.59,9.41l-6.41,10.19c-3.74-5.05-5.6-10.56-5.59-16.54.02-5.97,1.76-11.71,5.22-17.22,3.06-4.86,6.98-8.58,11.76-11.19,4.78-2.6,9.92-3.81,15.42-3.64,5.5.17,10.77,1.85,15.83,5.02,5.06,3.18,8.86,7.21,11.39,12.1Z"/>
          <path class="cls-2" d="m771.36,771.82l-6.07-5.46,10.87-12.09-39.32-35.38,6.7-7.45,39.32,35.38,10.93-12.14,6.07,5.47-28.5,31.67Z"/>
          <path class="cls-2" d="m751.58,789.54l-40.72-45.51,7.47-6.67,40.71,45.51-7.46,6.67Z"/>
          <path class="cls-2" d="m727.4,792.1c.36,5.49-.69,10.68-3.15,15.56-2.46,4.89-6.04,8.92-10.74,12.11-5.38,3.65-11.07,5.58-17.05,5.77-5.99.2-11.57-1.49-16.75-5.05l9.97-6.76c3.11,1.78,6.28,2.54,9.5,2.27,3.21-.27,6.35-1.44,9.41-3.51,3.34-2.27,5.82-5.03,7.41-8.32,1.6-3.28,2.19-6.82,1.76-10.64-.43-3.81-1.9-7.58-4.43-11.31-2.53-3.74-5.48-6.51-8.87-8.32-3.38-1.81-6.9-2.59-10.56-2.34-3.66.24-7.15,1.5-10.5,3.77-3.06,2.07-5.3,4.55-6.75,7.44-1.44,2.88-1.91,6.1-1.41,9.66l-9.97,6.75c-1.4-6.13-.88-11.93,1.54-17.38,2.42-5.46,6.31-10.02,11.7-13.66,4.76-3.23,9.84-5.06,15.26-5.52s10.62.5,15.58,2.87c4.97,2.37,9.13,6.02,12.48,10.97,3.35,4.94,5.21,10.16,5.57,15.65Z"/>
          <path class="cls-2" d="m657.98,841.49l-7.26-16.39-19.28,8.55-3.31-7.47,19.27-8.56-7.58-17.1-21.69,9.62-3.31-7.47,30.84-13.68,24.79,55.9-30.84,13.68-3.31-7.47,21.68-9.62Z"/>
        </g>
        <g>
          <path class="cls-2" d="m353.51,848.97c-4.52,3.14-9.5,4.92-14.95,5.34-5.45.42-10.76-.56-15.92-2.94-5.91-2.73-10.48-6.6-13.76-11.62-3.26-5.02-4.7-10.67-4.32-16.95l10.93,5.05c.09,3.58,1.07,6.69,2.97,9.3,1.89,2.61,4.51,4.69,7.86,6.24,3.67,1.69,7.32,2.38,10.95,2.05,3.63-.32,6.97-1.66,10.02-4,3.04-2.33,5.51-5.55,7.4-9.64,1.89-4.09,2.74-8.06,2.53-11.89-.2-3.84-1.35-7.25-3.45-10.25-2.1-3-4.99-5.35-8.66-7.04-3.35-1.55-6.64-2.19-9.85-1.93-3.21.25-6.21,1.52-9,3.78l-10.93-5.04c4.53-4.36,9.76-6.92,15.68-7.67,5.93-.74,11.84.24,17.74,2.96,5.22,2.4,9.42,5.82,12.61,10.22,3.19,4.41,5.06,9.35,5.59,14.82.54,5.47-.44,10.92-2.94,16.35-2.5,5.43-6.01,9.71-10.53,12.85Z"/>
          <path class="cls-2" d="m270.61,821.74l22.56-31.71c2.68-3.78,3.71-7.32,3.09-10.64-.62-3.32-2.7-6.23-6.23-8.74-3.58-2.55-7.04-3.57-10.38-3.07-3.34.49-6.35,2.63-9.03,6.41l-22.56,31.71-8.16-5.81,22.46-31.57c2.88-4.06,6.21-6.86,9.98-8.43,3.77-1.56,7.62-1.98,11.57-1.26,3.95.72,7.71,2.35,11.29,4.89,3.58,2.55,6.34,5.57,8.3,9.03,1.95,3.47,2.78,7.23,2.5,11.27-.29,4.04-1.87,8.09-4.76,12.14l-22.46,31.58-8.17-5.81Z"/>
          <path class="cls-2" d="m243.92,719.71l-7.41,27.19,5.39,5.42,17.32-17.22,7.06,7.1-43.31,43.05-14.87-14.96c-3.31-3.33-5.52-6.71-6.65-10.18-1.13-3.46-1.29-6.73-.48-9.82.83-3.09,2.44-5.83,4.85-8.21,2.83-2.81,6.2-4.53,10.14-5.19,3.94-.65,8.02.32,12.23,2.89l7.29-28.56,8.43,8.48Zm-7.7,38.25l-7.8-7.85c-2.64-2.66-5.3-4.01-7.97-4.04-2.67-.03-5.13,1.07-7.37,3.3-2.25,2.23-3.33,4.64-3.29,7.23.06,2.59,1.43,5.24,4.11,7.94l7.81,7.85,14.52-14.43Z"/>
          <path class="cls-2" d="m210.18,677.06l-11.73,25.62,4.44,6.22,19.89-14.18,5.82,8.15-49.72,35.46-12.24-17.17c-2.72-3.82-4.36-7.52-4.91-11.12-.56-3.6-.17-6.85,1.13-9.76,1.31-2.91,3.34-5.35,6.1-7.33,3.24-2.31,6.86-3.47,10.85-3.47,3.99,0,7.85,1.61,11.6,4.84l11.83-27,6.94,9.73Zm-13.8,36.5l-6.43-9.02c-2.18-3.05-4.58-4.81-7.21-5.27-2.63-.46-5.24.23-7.81,2.07-2.57,1.83-4.05,4.03-4.41,6.6-.36,2.56.56,5.4,2.76,8.5l6.43,9.01,16.66-11.89Z"/>
          <path class="cls-2" d="m146.16,672.82l15.97-8.14-9.58-18.78,7.27-3.71,9.59,18.79,16.66-8.51-10.78-21.13,7.28-3.71,15.34,30.05-54.48,27.79-15.33-30.05,7.28-3.71,10.78,21.12Z"/>
          <path class="cls-2" d="m162.14,569.6l3.09,9.52-34.06,42.75,43.37-14.08,3.09,9.52-58.17,18.89-3.09-9.52,33.98-42.72-43.29,14.06-3.1-9.53,58.17-18.89Z"/>
          <path class="cls-2" d="m93.66,527.72l8.08-1.22,2.41,16.08,52.31-7.84,1.49,9.9-52.31,7.85,2.42,16.16-8.08,1.21-6.32-42.14Z"/>
          <path class="cls-2" d="m113.18,438.46c-3.18,1.3-5.67,3.27-7.48,5.93-1.8,2.65-2.88,5.82-3.22,9.5-.37,4.03.2,7.7,1.72,11.01,1.52,3.32,3.86,6.02,7.02,8.1,3.16,2.09,6.92,3.33,11.3,3.74,4.37.4,8.32-.12,11.84-1.6,3.52-1.47,6.33-3.69,8.43-6.67,2.1-2.98,3.34-6.49,3.71-10.51.5-5.42-.61-9.97-3.33-13.63-2.72-3.66-6.64-6.11-11.76-7.35l-2.12,22.84-7.96-.74,3.1-33.51,7.79.72c4.66,1.08,8.86,3.16,12.57,6.24,3.72,3.08,6.55,6.9,8.52,11.46,1.96,4.56,2.7,9.51,2.2,14.81-.53,5.71-2.34,10.82-5.43,15.29-3.09,4.48-7.13,7.89-12.11,10.23-4.98,2.33-10.45,3.22-16.39,2.67-5.95-.56-11.16-2.43-15.63-5.64-4.47-3.21-7.81-7.31-10.02-12.31s-3.06-10.33-2.54-15.99c.6-6.47,2.73-12.08,6.37-16.84,3.65-4.75,8.49-7.99,14.53-9.73l-1.11,11.99Z"/>
          <path class="cls-2" d="m159.9,407.82c-3.92,3.81-8.57,6.37-13.93,7.67-5.37,1.3-10.92,1.09-16.64-.62-5.73-1.71-10.47-4.58-14.21-8.6-3.75-4.02-6.22-8.7-7.41-14.04-1.19-5.34-.97-10.73.66-16.17,1.64-5.5,4.42-10.16,8.34-13.97,3.93-3.81,8.55-6.36,13.88-7.64,5.34-1.28,10.86-1.06,16.59.65,5.73,1.71,10.48,4.56,14.27,8.57,3.79,4,6.27,8.68,7.46,14.01,1.19,5.34.96,10.76-.68,16.26-1.63,5.45-4.4,10.07-8.32,13.88Zm.43-27.52c-.86-3.56-2.68-6.68-5.46-9.38-2.77-2.7-6.32-4.69-10.64-5.97-4.32-1.29-8.36-1.57-12.13-.83s-6.97,2.37-9.62,4.88c-2.64,2.52-4.54,5.71-5.7,9.58-1.16,3.87-1.31,7.59-.48,11.13.83,3.55,2.62,6.67,5.37,9.35,2.74,2.69,6.28,4.67,10.6,5.97,4.32,1.29,8.38,1.57,12.17.83,3.8-.73,7.03-2.35,9.71-4.85,2.67-2.51,4.59-5.7,5.74-9.57,1.16-3.87,1.3-7.59.44-11.15Z"/>
          <path class="cls-2" d="m182.77,343.89c-4.59,2.96-9.65,4.55-15.18,4.77-5.52.21-10.92-1.08-16.19-3.89-5.28-2.81-9.36-6.55-12.24-11.24-2.88-4.69-4.38-9.76-4.49-15.23s1.17-10.71,3.83-15.73c2.7-5.06,6.34-9.08,10.94-12.05,4.6-2.96,9.64-4.54,15.12-4.74,5.48-.2,10.86,1.1,16.14,3.91,5.27,2.8,9.37,6.55,12.29,11.21,2.92,4.68,4.43,9.75,4.54,15.21.12,5.47-1.18,10.74-3.88,15.81-2.67,5.02-6.31,9.01-10.9,11.97Zm5.85-26.9c-.14-3.65-1.31-7.08-3.49-10.27-2.18-3.19-5.27-5.84-9.25-7.96s-7.89-3.19-11.73-3.21c-3.83-.01-7.3.95-10.39,2.88-3.09,1.94-5.58,4.7-7.48,8.26-1.9,3.57-2.79,7.18-2.67,10.82.12,3.64,1.26,7.05,3.42,10.23,2.16,3.17,5.23,5.82,9.21,7.94,3.98,2.11,7.9,3.19,11.77,3.22,3.86.03,7.35-.92,10.47-2.84,3.11-1.93,5.62-4.68,7.52-8.24,1.9-3.57,2.77-7.18,2.63-10.84Z"/>
          <path class="cls-2" d="m191.63,232.55c5.01-2.25,10.16-2.94,15.46-2.08,5.3.85,10.36,3.23,15.2,7.13,4.83,3.9,8.18,8.32,10.06,13.27,1.88,4.94,2.23,10.09,1.05,15.41-1.18,5.34-3.81,10.53-7.9,15.59l-12.53,15.52-47.51-38.36,12.53-15.52c4.08-5.06,8.63-8.71,13.64-10.95Zm33.32,27.75c-.61-5.39-3.66-10.29-9.12-14.71-5.51-4.45-11.02-6.45-16.51-5.99-5.49.46-10.48,3.47-14.97,9.03l-6.24,7.73,34.8,28.1,6.23-7.73c4.49-5.56,6.43-11.03,5.81-16.43Z"/>
          <path class="cls-2" d="m285.5,147.5l35.4,49.76-8.16,5.81-24.25-34.08,9.06,44.88-5.66,4.02-39.49-23.23,24.24,34.08-8.16,5.8-35.4-49.75,8.81-6.27,45.23,26.59-10.36-51.4,8.73-6.21Z"/>
          <path class="cls-2" d="m360.01,165.86l-23.37,10.36,1.04,13.19-9.55,4.24-4.8-64.77,10.6-4.7,44.79,47.03-9.64,4.28-9.07-9.63Zm-5.88-6.33l-20.59-21.92,2.36,30.01,18.23-8.09Z"/>
          <path class="cls-2" d="m435.56,156.84l-9.74,2.36-40.03-37.23,10.74,44.32-9.74,2.36-14.4-59.43,9.73-2.36,40.01,37.14-10.72-44.24,9.74-2.35,14.4,59.43Z"/>
          <path class="cls-2" d="m453.74,93.7l2.2,38.87c.26,4.62,1.67,8.03,4.23,10.23,2.56,2.2,6,3.18,10.33,2.93,4.39-.24,7.73-1.6,10.02-4.08,2.3-2.48,3.32-6.02,3.05-10.65l-2.2-38.86,10-.57,2.19,38.69c.28,4.97-.57,9.24-2.53,12.81-1.97,3.57-4.72,6.31-8.25,8.21-3.53,1.9-7.49,2.97-11.87,3.22-4.39.25-8.43-.37-12.12-1.87-3.69-1.49-6.69-3.9-8.99-7.24-2.3-3.33-3.59-7.48-3.87-12.45l-2.19-38.68,10-.57Z"/>
          <path class="cls-2" d="m548.77,96.17l-.81,8.14-25.79-2.56-1.78,17.92,20.11,1.99-.8,8.14-20.11-1.99-2.63,26.58-9.97-.99,6.02-60.77,35.76,3.54Z"/>
          <path class="cls-2" d="m589.85,155.27l-24.75-6.42-7.38,10.97-10.12-2.62,36.53-53.71,11.22,2.91,5.83,64.69-10.21-2.65-1.12-13.17Zm-.67-8.62l-2.5-29.96-16.81,24.96,19.31,5.01Z"/>
          <path class="cls-2" d="m629.63,132.01c4.54-3.1,9.53-4.85,14.99-5.22,5.45-.37,10.75.65,15.89,3.07,5.88,2.78,10.43,6.69,13.66,11.73,3.21,5.05,4.62,10.71,4.18,16.98l-10.89-5.13c-.05-3.59-1.02-6.7-2.89-9.32-1.87-2.63-4.47-4.73-7.81-6.31-3.66-1.72-7.3-2.44-10.94-2.14-3.63.29-6.98,1.6-10.04,3.91-3.07,2.31-5.56,5.51-7.49,9.59-1.92,4.08-2.8,8.04-2.63,11.87.16,3.84,1.29,7.26,3.36,10.28,2.07,3.01,4.94,5.39,8.59,7.12,3.34,1.57,6.62,2.24,9.83,2.01,3.22-.23,6.23-1.47,9.04-3.71l10.89,5.13c-4.57,4.33-9.82,6.84-15.75,7.54-5.93.7-11.84-.33-17.72-3.1-5.2-2.45-9.37-5.89-12.52-10.32-3.16-4.43-4.98-9.39-5.48-14.87-.49-5.47.54-10.92,3.08-16.32,2.55-5.41,6.09-9.66,10.63-12.77Z"/>
          <path class="cls-2" d="m735.78,176.55l-4.68,6.7-13.32-9.32-30.33,43.34-8.21-5.74,30.33-43.33-13.39-9.38,4.69-6.69,34.9,24.43Z"/>
          <path class="cls-2" d="m757.72,195.49l-27.15,27.88c-3.23,3.32-4.79,6.66-4.69,10.03.11,3.37,1.71,6.57,4.82,9.6,3.15,3.07,6.41,4.61,9.79,4.63,3.37.01,6.67-1.63,9.91-4.95l27.15-27.89,7.18,7-27.04,27.75c-3.47,3.57-7.19,5.83-11.16,6.79-3.96.97-7.84.79-11.63-.53s-7.26-3.51-10.4-6.58c-3.15-3.06-5.41-6.46-6.81-10.19s-1.65-7.57-.74-11.52c.9-3.95,3.09-7.7,6.56-11.27l27.03-27.76,7.17,6.99Z"/>
          <path class="cls-2" d="m768.32,300.28l11.5-25.74-4.5-6.18-19.75,14.36-5.89-8.1,49.39-35.9,12.4,17.05c2.76,3.79,4.42,7.49,5.01,11.08.59,3.59.24,6.85-1.04,9.77-1.28,2.92-3.3,5.38-6.04,7.38-3.22,2.34-6.83,3.53-10.82,3.57-3.99.04-7.87-1.54-11.64-4.73l-11.59,27.1-7.02-9.67Zm13.46-36.62l6.51,8.96c2.2,3.03,4.63,4.77,7.26,5.2,2.64.44,5.24-.27,7.79-2.13,2.56-1.86,4.01-4.07,4.36-6.64.34-2.57-.6-5.39-2.85-8.47l-6.51-8.95-16.56,12.03Z"/>
          <path class="cls-2" d="m838.81,298.91l-53.21,29.96-4.91-8.73,53.21-29.96,4.91,8.73Z"/>
          <path class="cls-2" d="m811.23,386.27l-3.78-9.28,30.83-45.13-42.22,17.23-3.78-9.28,56.62-23.1,3.79,9.27-30.76,45.1,42.14-17.19,3.78,9.27-56.62,23.11Z"/>
          <path class="cls-2" d="m866.17,432.42c2.67-2.14,4.5-4.75,5.47-7.81.97-3.06,1.1-6.4.38-10.02-.79-3.96-2.39-7.32-4.79-10.06-2.39-2.75-5.4-4.67-9.03-5.77-3.62-1.1-7.59-1.22-11.9-.36-4.31.86-7.94,2.5-10.9,4.9-2.96,2.41-5.01,5.35-6.18,8.8-1.17,3.46-1.35,7.17-.56,11.13,1.07,5.35,3.43,9.39,7.08,12.13,3.65,2.74,8.1,3.96,13.36,3.69l-4.48-22.49,7.85-1.56,6.57,33-7.67,1.53c-4.78.29-9.39-.5-13.82-2.39-4.44-1.9-8.25-4.75-11.43-8.57-3.18-3.82-5.29-8.34-6.33-13.56-1.13-5.63-.84-11.04.85-16.21,1.68-5.18,4.58-9.59,8.69-13.25,4.11-3.66,9.09-6.07,14.95-7.23,5.86-1.17,11.39-.85,16.58.95,5.2,1.79,9.57,4.78,13.12,8.94,3.54,4.16,5.87,9.02,6.99,14.6,1.27,6.38.83,12.36-1.31,17.96-2.14,5.59-5.86,10.08-11.16,13.46l-2.35-11.8Z"/>
          <path class="cls-2" d="m859.31,528.5c-2.68-1.59-4.8-4.05-6.37-7.34-1.57-3.31-2.23-7.48-1.99-12.5l.54-11.06-24.75-1.2.48-10,61,2.96-1.02,21.06c-.23,4.68-1.23,8.6-2.99,11.78s-4.06,5.49-6.89,6.97-5.94,2.13-9.33,1.97c-3.1-.15-5.99-1.02-8.68-2.62Zm1.98-10.81c1.63,1.95,4.03,3,7.19,3.16,6.67.32,10.19-3.29,10.55-10.84l.54-11.06-19.92-.96-.54,11.06c-.18,3.8.54,6.68,2.18,8.64Z"/>
          <path class="cls-2" d="m817.44,568.63l26.78-8.78,1.56-7.49-23.91-4.98,2.04-9.81,59.78,12.46-4.3,20.64c-.96,4.59-2.57,8.31-4.84,11.16-2.27,2.84-4.91,4.77-7.94,5.79s-6.19,1.18-9.52.48c-3.9-.82-7.2-2.69-9.91-5.61s-4.16-6.87-4.32-11.8l-27.85,9.63,2.44-11.7Zm36.17-14.64l-2.26,10.84c-.77,3.67-.43,6.63,1.02,8.88,1.44,2.24,3.72,3.69,6.81,4.34,3.1.64,5.71.23,7.85-1.24,2.13-1.48,3.58-4.07,4.36-7.8l2.26-10.83-20.04-4.18Z"/>
          <path class="cls-2" d="m810.14,629.62l9.36-23.8-10-8.65,3.83-9.74,48.9,42.74-4.25,10.8-64.92-2.02,3.86-9.82,13.22.48Zm8.63.37l30.04,1.15-22.74-19.71-7.3,18.56Z"/>
          <path class="cls-2" d="m828.51,671.75c2.53,4.88,3.66,10.05,3.38,15.51-.29,5.46-1.94,10.59-4.97,15.4-3.46,5.51-7.89,9.55-13.29,12.15-5.4,2.59-11.19,3.29-17.37,2.1l6.41-10.19c3.57.38,6.78-.2,9.61-1.74,2.84-1.54,5.24-3.87,7.2-7,2.15-3.42,3.3-6.95,3.45-10.6.15-3.64-.74-7.13-2.67-10.45-1.92-3.32-4.79-6.19-8.61-8.58-3.82-2.4-7.64-3.75-11.47-4.05-3.82-.3-7.36.4-10.61,2.1-3.24,1.7-5.95,4.25-8.09,7.67-1.97,3.12-3.03,6.3-3.19,9.52-.16,3.22.71,6.36,2.59,9.41l-6.41,10.19c-3.74-5.05-5.6-10.56-5.59-16.54.02-5.97,1.76-11.71,5.22-17.22,3.06-4.86,6.98-8.58,11.76-11.19,4.78-2.6,9.92-3.81,15.42-3.64,5.5.17,10.77,1.85,15.83,5.02,5.06,3.18,8.86,7.21,11.39,12.1Z"/>
          <path class="cls-2" d="m771.36,771.82l-6.07-5.46,10.87-12.09-39.32-35.38,6.7-7.45,39.32,35.38,10.93-12.14,6.07,5.47-28.5,31.67Z"/>
          <path class="cls-2" d="m751.58,789.54l-40.72-45.51,7.47-6.67,40.71,45.51-7.46,6.67Z"/>
          <path class="cls-2" d="m727.4,792.1c.36,5.49-.69,10.68-3.15,15.56-2.46,4.89-6.04,8.92-10.74,12.11-5.38,3.65-11.07,5.58-17.05,5.77-5.99.2-11.57-1.49-16.75-5.05l9.97-6.76c3.11,1.78,6.28,2.54,9.5,2.27,3.21-.27,6.35-1.44,9.41-3.51,3.34-2.27,5.82-5.03,7.41-8.32,1.6-3.28,2.19-6.82,1.76-10.64-.43-3.81-1.9-7.58-4.43-11.31-2.53-3.74-5.48-6.51-8.87-8.32-3.38-1.81-6.9-2.59-10.56-2.34-3.66.24-7.15,1.5-10.5,3.77-3.06,2.07-5.3,4.55-6.75,7.44-1.44,2.88-1.91,6.1-1.41,9.66l-9.97,6.75c-1.4-6.13-.88-11.93,1.54-17.38,2.42-5.46,6.31-10.02,11.7-13.66,4.76-3.23,9.84-5.06,15.26-5.52s10.62.5,15.58,2.87c4.97,2.37,9.13,6.02,12.48,10.97,3.35,4.94,5.21,10.16,5.57,15.65Z"/>
          <path class="cls-2" d="m657.98,841.49l-7.26-16.39-19.28,8.55-3.31-7.47,19.27-8.56-7.58-17.1-21.69,9.62-3.31-7.47,30.84-13.68,24.79,55.9-30.84,13.68-3.31-7.47,21.68-9.62Z"/>
        </g>
      </g>
      <polygon class="cls-2" points="490 819.98 500.96 842.19 525.47 845.75 507.73 863.04 511.92 887.44 490 875.92 468.08 887.44 472.27 863.04 454.54 845.75 479.04 842.19 490 819.98"/>
    </g>
  </g>
</svg>