<?xml version="1.0" encoding="UTF-8"?>
<svg id="Ebene_2" data-name="Ebene 2" xmlns="http://www.w3.org/2000/svg" viewBox="0 0 980 980">
  <defs>
    <style>
      .cls-1 {
        fill: #214228;
      }

      .cls-2 {
        fill: #1d1d1b;
      }
    </style>
  </defs>
  <g id="Ebene_1-2" data-name="Ebene 1">
    <g>
      <g>
        <g>
          <path class="cls-1" d="m401.23,583.27c-9.23,1.63-16.25,10.52-15.7,19.87.51,8.62,6.85,12.67,14.73,9.4,7.13-2.96,11.58-9.6,11.66-17.4.08-7.58-4.74-12.94-10.69-11.88Z"/>
          <path class="cls-1" d="m603.37,583.15c-9.58,1.08-17.77,11.9-16.16,21.35,1.34,7.87,7.18,11.11,14.56,8.08,7.13-2.92,11.63-9.58,11.73-17.35.1-7.34-4.42-12.73-10.13-12.09Z"/>
          <path class="cls-1" d="m490.02,219.35c-97.24,0-182.69,51.54-230.4,128.73-25.55,41.27-40.29,89.87-40.29,141.9,0,149.22,121.41,270.64,270.69,270.64s270.64-121.41,270.64-270.64-121.41-270.64-270.64-270.64Zm208.14,283.31c-2.6,25.65-5.55,51.25-8.4,76.9-.79,7.22-1.43,14.45-2.7,21.57-1.47,8.3-7.27,12.82-15.62,12.87-8.75.05-17.44.15-26.19-.05-3.14-.05-4.62.88-6.09,3.83-8.99,17.34-23.29,26.83-42.99,27.17-16.61.29-31.25-10.37-37.1-26.73-1.23-3.34-2.75-4.27-6.14-4.27-36.36.1-72.67.15-109.03,0-3.39,0-4.96,1.03-6.44,4.08-11.65,23.68-40.14,33.81-61.62,22.06-10.32-5.65-16.56-14.59-19.95-26.04-13.91,0-27.81,0-41.67-.05-1.92,0-3.93.15-5.8-.25-7.71-1.62-12.87-9.24-11.99-17.44.84-7.22,7.42-13.12,14.94-13.27,5.01-.1,10.02.05,15.04-.05,9.43-.15,16.46-6.83,16.46-15.48s-7.03-15.38-16.46-15.48c-9.88-.1-19.75,0-29.58-.05-9.34-.05-16.02-6.63-15.92-15.72.05-8.75,6.73-15.23,15.92-15.23,40.54-.05,81.07,0,121.61-.05,8.21,0,14.15-3.78,16.46-10.27,3.73-10.42-3.73-20.59-15.43-20.69-20.34-.15-40.73,0-61.08-.05-7.03,0-12.78-4.32-14.89-10.91-2.01-6.29.1-13.51,5.9-17.05,2.95-1.82,6.88-2.85,10.37-2.9,35.03-.2,70.12-.1,105.15-.15,8.01,0,13.86-3.54,16.36-9.78,3.88-9.83-2.9-20.29-13.81-21.18-1.62-.1-3.24-.05-4.86-.05-50.07,0-100.14.05-150.21,0-8.06,0-14.79-5.5-15.92-12.78-1.23-7.91,3.34-15.43,11.01-17.64,1.97-.54,4.13-.54,6.19-.54,34.94-.05,69.82,0,104.71-.05,8.21,0,14.15-3.73,16.51-10.17,3.83-10.61-3.78-20.74-15.87-20.78-20.83-.1-41.67-.05-62.5-.05-4.52,0-9.04.05-13.56,0-8.99-.1-15.58-6.78-15.53-15.62,0-8.65,6.58-15.33,15.28-15.33,71.25-.05,142.49-.05,213.69,0,9.58,0,16.17,7.22,15.28,17.15-1.28,14.79-3.05,29.53-4.67,44.81h40.14c13.91,0,27.81.1,41.72,0,7.27-.05,12.38,3.19,15.28,9.73,11.4,25.6,23.09,51.05,33.71,76.99,2.21,5.45.93,12.63.29,18.97Z"/>
          <path class="cls-1" d="m609.17,506.73c22.1.03,44.2,0,66.3,0h5.28c.3-5.49,2.32-11.31.55-15.55-9.13-21.94-19.21-43.48-29.07-65.11-.54-1.17-2.08-2.69-3.17-2.69-13.04-.05-26.11-.3-39.11.45-7.82.45-13.33,6.37-14.2,13.75-1.93,16.39-3.87,32.78-5.3,49.21-1.13,12.91,5.74,19.91,18.71,19.93Z"/>
        </g>
        <path class="cls-1" d="m490,980C219.81,980,0,760.19,0,490S219.81,0,490,0s490,219.81,490,490-219.81,490-490,490Zm0-945.61c-251.22,0-455.61,204.38-455.61,455.61s204.38,455.61,455.61,455.61,455.61-204.38,455.61-455.61S741.22,34.39,490,34.39Z"/>
      </g>
      <g>
        <g>
          <path class="cls-1" d="m867.49,615.94l-7.87-2.19,6.96-24.98-17.36-4.83-5.42,19.47-7.87-2.2,5.43-19.47-25.74-7.17,2.69-9.65,58.83,16.39-9.65,34.63Z"/>
          <path class="cls-1" d="m802.2,646.3l10.58-23.28-9.54-9.16,4.33-9.52,46.63,45.23-4.8,10.56-64.73-5.38,4.36-9.6,13.18,1.16Zm8.61.83l29.95,2.7-21.7-20.86-8.25,18.17Z"/>
          <path class="cls-1" d="m776.21,670.12c3.02-1.92,6.15-2.92,9.39-3s6.31.86,9.22,2.83l-5.99,8.89c-2.32-1.29-4.7-1.63-7.14-1.05-2.44.58-4.59,2.26-6.46,5.02-1.93,2.87-2.74,5.57-2.44,8.11.3,2.53,1.55,4.54,3.73,6.01,1.7,1.15,3.42,1.58,5.16,1.31,1.74-.28,3.4-.96,4.98-2.05,1.58-1.09,3.59-2.72,6.05-4.88,3.1-2.72,5.8-4.8,8.09-6.26,2.29-1.46,4.88-2.28,7.75-2.46,2.88-.18,5.89.79,9.05,2.92,2.92,1.97,4.97,4.41,6.18,7.35,1.2,2.93,1.5,6.1.9,9.51-.6,3.41-2.06,6.84-4.39,10.29-3.31,4.91-7.25,8.09-11.81,9.58-4.57,1.48-9.1.95-13.61-1.59l6.19-9.18c1.94,1.09,4.11,1.29,6.5.57,2.39-.72,4.47-2.39,6.24-5.01,1.61-2.38,2.31-4.73,2.11-7.05-.2-2.33-1.44-4.26-3.73-5.8-1.55-1.05-3.15-1.44-4.78-1.16-1.64.27-3.24.94-4.8,2.01-1.57,1.07-3.54,2.62-5.92,4.69-3.18,2.73-5.95,4.84-8.3,6.33-2.35,1.49-4.98,2.33-7.9,2.52-2.92.19-5.98-.8-9.18-2.96-2.58-1.74-4.54-4.06-5.89-6.99-1.35-2.92-1.82-6.18-1.42-9.76.4-3.58,1.81-7.17,4.24-10.76,2.29-3.4,4.95-6.07,7.97-7.98Z"/>
          <path class="cls-1" d="m768.18,774.78l-6.02-5.54,11.01-11.96-38.92-35.82,6.79-7.37,38.92,35.82,11.07-12.02,6.01,5.54-28.86,31.35Z"/>
          <path class="cls-1" d="m659.92,781.06l10.48,2.09c.81-4.07,2.26-7.65,4.33-10.76,2.08-3.11,4.9-5.86,8.45-8.23,3.61-2.4,7.22-3.91,10.84-4.49s6.98-.21,10.06,1.15c3.09,1.35,5.67,3.59,7.75,6.71,2.34,3.51,3.44,7.3,3.28,11.39-.16,4.08-1.67,8.25-4.55,12.49,2.55.76,4.61,1.69,6.19,2.79,1.58,1.09,2.97,2.54,4.17,4.35,1.5,2.24,2.26,4.62,2.28,7.14.02,2.52-.69,5-2.15,7.47-1.47,2.45-3.61,4.62-6.43,6.51-2.87,1.91-5.69,3-8.44,3.26-2.75.25-5.27-.24-7.53-1.47-2.27-1.23-4.08-3.09-5.45-5.55l8.33-5.56c1.15,1.83,2.53,2.94,4.12,3.33,1.59.38,3.19.03,4.8-1.04,1.61-1.07,2.59-2.42,2.96-4.04.36-1.62.09-3.11-.82-4.47-.87-1.31-2.13-2.37-3.74-3.16-1.61-.78-4.06-1.56-7.32-2.34l-22.38-4.4.52,12.01-8.99,6-.94-15.65-.18-4.21-20.55-4.04,10.89-7.26Zm19.63,3.91l22.47,4.54c4.22-6.13,4.78-11.52,1.7-16.14-1.66-2.48-3.98-3.95-6.95-4.4-2.97-.44-5.92.31-8.85,2.26-4.58,3.06-7.37,7.63-8.37,13.73Z"/>
          <path class="cls-1" d="m610.19,869.52l-2.86-7.65,24.28-9.08-6.31-16.87-18.93,7.08-2.86-7.65,18.93-7.09-9.36-25.02,9.38-3.51,21.4,57.21-33.66,12.59Z"/>
          <path class="cls-1" d="m549.6,821.4l18.84,20.97,7.48-1.59-5.08-23.9,9.8-2.09,12.71,59.74-20.63,4.38c-4.58.98-8.64,1-12.16.07-3.52-.93-6.35-2.57-8.51-4.93-2.15-2.36-3.58-5.2-4.28-8.52-.83-3.9-.45-7.68,1.14-11.34,1.59-3.66,4.61-6.57,9.06-8.71l-20.05-21.61,11.69-2.49Zm27.98,27.2l-10.83,2.3c-3.66.78-6.24,2.28-7.71,4.52-1.47,2.23-1.88,4.89-1.22,7.99.65,3.09,2.09,5.32,4.29,6.67,2.21,1.36,5.17,1.65,8.89.85l10.83-2.3-4.26-20.03Z"/>
          <path class="cls-1" d="m520.18,878.42l-1.09-17.89-21.06,1.28-.49-8.15,21.05-1.28-1.13-18.68-23.68,1.44-.5-8.16,33.68-2.04,3.71,61.05-33.68,2.04-.5-8.16,23.68-1.44Z"/>
          <path class="cls-1" d="m467.7,878.93l1.32-17.88-21.03-1.56.6-8.15,21.03,1.55,1.39-18.66-23.66-1.76.6-8.15,33.65,2.49-4.52,61-33.65-2.5.6-8.15,23.67,1.76Z"/>
          <path class="cls-1" d="m404.59,817.29c2.74,2.3,4.64,4.99,5.69,8.05,1.05,3.06,1.08,6.28.09,9.65l-10.29-3.03c.52-2.6.14-4.97-1.15-7.12-1.29-2.15-3.54-3.7-6.74-4.64-3.31-.97-6.14-.94-8.46.12-2.33,1.06-3.87,2.85-4.61,5.38-.58,1.96-.48,3.74.32,5.32.79,1.57,1.94,2.95,3.45,4.13,1.52,1.18,3.68,2.61,6.48,4.29,3.52,2.14,6.33,4.08,8.41,5.83,2.08,1.74,3.64,3.96,4.68,6.65,1.04,2.69,1.02,5.86-.05,9.51-1,3.38-2.71,6.07-5.14,8.11-2.43,2.03-5.36,3.27-8.8,3.73-3.43.45-7.14.09-11.13-1.08-5.68-1.68-9.91-4.47-12.69-8.37-2.79-3.91-3.65-8.39-2.59-13.45l10.62,3.13c-.46,2.19.01,4.31,1.42,6.37,1.41,2.06,3.63,3.55,6.66,4.44,2.75.81,5.21.77,7.37-.12,2.15-.89,3.62-2.66,4.4-5.3.53-1.79.42-3.43-.34-4.91-.76-1.47-1.88-2.8-3.37-3.97-1.49-1.18-3.57-2.58-6.27-4.23-3.56-2.21-6.41-4.21-8.54-5.99-2.13-1.79-3.73-4.05-4.78-6.77-1.06-2.73-1.04-5.94.05-9.65.88-2.97,2.51-5.55,4.89-7.72,2.38-2.17,5.34-3.6,8.87-4.3,3.54-.7,7.38-.44,11.54.79,3.93,1.16,7.27,2.89,10.01,5.19Z"/>
          <path class="cls-1" d="m293.37,836.58l26.77-54.9,9,4.39-11.7,24.02,25.83,12.59,11.71-24.02,9.01,4.4-26.77,54.89-9-4.39,11.48-23.54-25.83-12.59-11.47,23.54-9.01-4.39Z"/>
          <path class="cls-1" d="m267.96,820.05l33.4-51.13,8.39,5.48-33.4,51.13-8.39-5.48Z"/>
          <path class="cls-1" d="m237.51,762.37c2.88-1.19,6.12-1.43,9.7-.71,3.58.72,7.32,2.69,11.2,5.9l8.53,7.05,15.79-19.1,7.72,6.38-38.91,47.07-16.26-13.44c-3.61-2.98-6.16-6.14-7.63-9.45-1.48-3.32-1.96-6.54-1.45-9.69.51-3.15,1.85-6.04,4.02-8.65,1.98-2.39,4.41-4.18,7.29-5.37Zm7.47,8.06c-2.55.14-4.82,1.43-6.84,3.86-4.25,5.15-3.47,10.13,2.35,14.95l8.53,7.05,12.71-15.37-8.53-7.05c-2.94-2.43-5.67-3.57-8.22-3.44Z"/>
          <path class="cls-1" d="m199.06,720.78c3.03-.73,6.26-.47,9.7.8,3.43,1.26,6.82,3.77,10.17,7.54l7.35,8.27,18.53-16.46,6.66,7.49-45.66,40.56-14.01-15.77c-3.11-3.5-5.14-7.01-6.1-10.5-.95-3.5-.94-6.77.05-9.8.99-3.04,2.75-5.68,5.29-7.93,2.32-2.06,5-3.46,8.03-4.2Zm6.15,9.11c-2.53-.25-4.99.67-7.35,2.77-4.99,4.44-4.98,9.48.04,15.13l7.35,8.28,14.91-13.25-7.35-8.28c-2.53-2.85-5.06-4.4-7.6-4.65Z"/>
          <path class="cls-1" d="m162.48,715.7l49.86-35.26,5.78,8.18-49.86,35.26-5.78-8.18Z"/>
          <path class="cls-1" d="m181,626.08l4.72,8.83-26.03,48.07,40.23-21.49,4.72,8.84-53.95,28.81-4.72-8.83,25.95-48.03-40.15,21.44-4.72-8.84,53.95-28.81Z"/>
          <path class="cls-1" d="m121.61,585.8c-2.44,2.41-3.99,5.19-4.65,8.33-.65,3.15-.44,6.48.65,10,1.19,3.86,3.12,7.03,5.79,9.52s5.86,4.09,9.58,4.81c3.72.72,7.68.44,11.88-.85,4.2-1.31,7.64-3.3,10.34-6,2.69-2.7,4.44-5.83,5.24-9.39.81-3.56.61-7.26-.59-11.13-1.61-5.2-4.37-8.98-8.28-11.33-3.91-2.35-8.47-3.12-13.68-2.31l6.76,21.91-7.64,2.36-9.92-32.16,7.47-2.31c4.72-.78,9.39-.46,14,.96,4.61,1.43,8.69,3.88,12.25,7.35,3.55,3.47,6.12,7.76,7.69,12.85,1.69,5.49,1.97,10.89.82,16.21-1.14,5.32-3.58,10.01-7.29,14.07-3.71,4.05-8.42,6.97-14.13,8.73-5.71,1.76-11.24,2.02-16.6.76-5.35-1.26-10.01-3.78-13.97-7.56-3.95-3.78-6.77-8.37-8.45-13.8-1.92-6.21-2.1-12.21-.54-18,1.56-5.78,4.8-10.63,9.72-14.54l3.55,11.5Z"/>
          <path class="cls-1" d="m133.9,496.91c-1.02,1.73-2.4,3.11-4.12,4.14-1.73,1.03-3.64,1.55-5.75,1.55-3.22,0-5.95-1.1-8.18-3.32-2.23-2.22-3.35-4.91-3.35-8.07,0-3.28,1.1-6.04,3.32-8.27,2.22-2.23,4.94-3.35,8.17-3.35,3.22,0,5.93,1.09,8.13,3.32,2.2,2.22,3.31,4.97,3.31,8.26,0,2.1-.51,4.03-1.52,5.76Z"/>
          <path class="cls-1" d="m110.76,368.39l7.9,2.1-6.67,25.05,17.41,4.63,5.2-19.53,7.9,2.1-5.2,19.53,25.81,6.87-2.58,9.68-59.01-15.71,9.24-34.73Z"/>
          <path class="cls-1" d="m175.69,337.29l-10.31,23.41,9.65,9.04-4.21,9.57-47.15-44.68,4.67-10.62,64.79,4.63-4.25,9.65-13.19-1.01Zm-8.61-.72l-29.98-2.35,21.94,20.6,8.04-18.25Z"/>
          <path class="cls-1" d="m201.44,313.09c-3,1.95-6.12,2.99-9.35,3.11-3.23.12-6.32-.79-9.25-2.72l5.89-8.96c2.33,1.25,4.72,1.58,7.15.97,2.44-.61,4.57-2.31,6.4-5.1,1.9-2.89,2.68-5.6,2.35-8.14-.33-2.53-1.6-4.52-3.8-5.97-1.71-1.13-3.44-1.54-5.18-1.25-1.73.3-3.39,1-4.96,2.1-1.57,1.11-3.57,2.76-5.99,4.95-3.07,2.74-5.74,4.86-8.01,6.35-2.28,1.48-4.85,2.33-7.72,2.55-2.88.21-5.9-.73-9.09-2.82-2.94-1.93-5.02-4.35-6.26-7.27-1.23-2.92-1.57-6.08-1.01-9.5.56-3.42,1.99-6.86,4.27-10.34,3.25-4.94,7.15-8.18,11.7-9.71,4.55-1.53,9.09-1.05,13.62,1.44l-6.09,9.25c-1.96-1.07-4.12-1.24-6.51-.5s-4.44,2.44-6.18,5.08c-1.58,2.4-2.26,4.76-2.03,7.08.23,2.32,1.49,4.24,3.79,5.75,1.57,1.03,3.17,1.4,4.8,1.1,1.63-.3,3.22-.98,4.77-2.07,1.55-1.08,3.51-2.67,5.87-4.76,3.15-2.76,5.89-4.91,8.22-6.43,2.33-1.51,4.95-2.38,7.87-2.61,2.92-.22,5.99.73,9.22,2.86,2.6,1.7,4.58,4.01,5.97,6.92,1.38,2.91,1.9,6.15,1.54,9.74-.36,3.58-1.73,7.19-4.11,10.81-2.25,3.43-4.88,6.12-7.88,8.07Z"/>
          <path class="cls-1" d="m208.21,208.38l6.08,5.46-10.87,12.09,39.34,35.37-6.7,7.45-39.34-35.37-10.92,12.15-6.08-5.46,28.5-31.69Z"/>
          <path class="cls-1" d="m316.38,200.87l-10.5-1.97c-.76,4.08-2.16,7.68-4.21,10.81-2.04,3.14-4.82,5.92-8.35,8.33-3.58,2.44-7.17,3.99-10.79,4.61-3.62.63-6.98.28-10.08-1.04-3.1-1.32-5.71-3.52-7.83-6.62-2.38-3.48-3.52-7.27-3.4-11.36.11-4.09,1.58-8.27,4.41-12.54-2.56-.73-4.64-1.64-6.23-2.71-1.59-1.08-2.99-2.51-4.22-4.3-1.52-2.23-2.31-4.6-2.37-7.12-.06-2.51.63-5.01,2.07-7.48s3.55-4.67,6.35-6.59c2.86-1.95,5.65-3.07,8.41-3.35,2.75-.29,5.27.18,7.55,1.38,2.28,1.2,4.12,3.03,5.52,5.49l-8.27,5.66c-1.17-1.82-2.56-2.91-4.16-3.27-1.6-.36-3.19,0-4.79,1.09-1.6,1.09-2.57,2.44-2.91,4.07-.35,1.62-.06,3.11.87,4.46.89,1.31,2.15,2.35,3.78,3.11,1.62.77,4.08,1.52,7.35,2.26l22.43,4.14-.66-12.01,8.92-6.11,1.12,15.63.22,4.22,20.59,3.8-10.81,7.39Zm-19.66-3.69l-22.53-4.28c-4.15,6.18-4.65,11.56-1.51,16.15,1.69,2.47,4.02,3.91,7,4.32,2.98.41,5.92-.38,8.82-2.37,4.54-3.1,7.28-7.71,8.22-13.82Z"/>
          <path class="cls-1" d="m365.06,111.84l2.95,7.62-24.17,9.37,6.51,16.8,18.85-7.31,2.95,7.62-18.85,7.3,9.65,24.91-9.34,3.62-22.07-56.95,33.51-12.99Z"/>
          <path class="cls-1" d="m426.28,159.23l-19.08-20.75-7.46,1.68,5.36,23.84-9.77,2.2-13.39-59.58,20.58-4.62c4.57-1.03,8.62-1.1,12.15-.21,3.53.89,6.39,2.5,8.56,4.83,2.18,2.33,3.63,5.16,4.38,8.47.87,3.89.54,7.67-1.01,11.35-1.55,3.68-4.53,6.62-8.96,8.81l20.3,21.38-11.66,2.62Zm-28.29-26.87l10.8-2.43c3.66-.82,6.21-2.36,7.66-4.61,1.45-2.24,1.82-4.91,1.13-8-.69-3.09-2.15-5.3-4.37-6.63-2.22-1.33-5.19-1.58-8.91-.75l-10.8,2.43,4.49,19.98Z"/>
          <path class="cls-1" d="m455.09,101.87l1.29,17.88,21.04-1.52.59,8.15-21.03,1.52,1.35,18.67,23.67-1.71.59,8.15-33.66,2.44-4.4-61.01,33.66-2.43.59,8.15-23.67,1.71Z"/>
          <path class="cls-1" d="m507.6,100.77l-1.12,17.89,21.05,1.32-.51,8.16-21.05-1.33-1.17,18.68,23.68,1.49-.51,8.16-33.68-2.12,3.84-61.04,33.68,2.12-.51,8.16-23.68-1.49Z"/>
          <path class="cls-1" d="m571.28,161.67c-2.77-2.27-4.7-4.94-5.78-7.98-1.09-3.04-1.15-6.26-.2-9.64l10.32,2.91c-.49,2.6-.08,4.97,1.24,7.11,1.31,2.14,3.57,3.66,6.79,4.56,3.33.94,6.15.87,8.46-.22,2.31-1.08,3.82-2.89,4.54-5.42.56-1.97.43-3.75-.37-5.31-.81-1.56-1.97-2.93-3.51-4.09-1.53-1.16-3.7-2.57-6.52-4.22-3.55-2.09-6.38-4-8.48-5.72-2.1-1.72-3.69-3.92-4.76-6.59-1.07-2.68-1.09-5.85-.05-9.51.95-3.39,2.63-6.11,5.04-8.17,2.41-2.06,5.32-3.33,8.75-3.83,3.43-.49,7.14-.17,11.15.96,5.69,1.61,9.96,4.35,12.79,8.22,2.84,3.88,3.75,8.35,2.74,13.42l-10.66-3.01c.44-2.19-.06-4.3-1.49-6.35-1.43-2.05-3.67-3.5-6.72-4.36-2.76-.77-5.22-.71-7.36.21-2.14.92-3.59,2.7-4.34,5.35-.51,1.8-.38,3.44.4,4.91.77,1.46,1.91,2.77,3.41,3.93,1.5,1.16,3.61,2.54,6.31,4.16,3.59,2.17,6.46,4.13,8.61,5.9,2.15,1.76,3.77,4,4.86,6.72,1.09,2.71,1.11,5.93.06,9.65-.84,2.99-2.44,5.58-4.8,7.78-2.36,2.2-5.3,3.67-8.82,4.4-3.53.74-7.38.52-11.55-.66-3.95-1.11-7.3-2.8-10.07-5.08Z"/>
          <path class="cls-1" d="m682.25,141.1l-26.12,55.2-9.05-4.28,11.43-24.15-25.98-12.29-11.43,24.15-9.05-4.28,26.12-55.21,9.06,4.28-11.2,23.67,25.97,12.29,11.2-23.67,9.05,4.28Z"/>
          <path class="cls-1" d="m707.94,157.38l-32.82,51.51-8.45-5.38,32.81-51.51,8.45,5.38Z"/>
          <path class="cls-1" d="m739.03,214.69c-2.87,1.23-6.1,1.5-9.69.82-3.59-.68-7.35-2.6-11.27-5.77l-8.61-6.96-15.57,19.28-7.79-6.29,38.37-47.52,16.41,13.25c3.64,2.94,6.23,6.06,7.74,9.36,1.51,3.29,2.04,6.52,1.56,9.67-.48,3.15-1.78,6.06-3.92,8.7-1.95,2.41-4.36,4.23-7.23,5.45Zm-7.57-7.97c2.55-.16,4.81-1.48,6.8-3.94,4.2-5.2,3.35-10.17-2.53-14.92l-8.62-6.96-12.53,15.52,8.61,6.96c2.96,2.39,5.72,3.51,8.26,3.33Z"/>
          <path class="cls-1" d="m777.89,255.75c-3.02.77-6.25.54-9.7-.68-3.45-1.22-6.86-3.69-10.25-7.42l-7.45-8.19-18.33,16.67-6.74-7.41,45.18-41.1,14.19,15.6c3.15,3.47,5.23,6.95,6.22,10.44,1,3.49,1.02,6.75.07,9.8-.95,3.05-2.69,5.71-5.2,8-2.3,2.08-4.96,3.51-7.98,4.28Zm-6.26-9.03c2.54.22,4.98-.73,7.32-2.86,4.94-4.49,4.87-9.53-.21-15.12l-7.45-8.2-14.76,13.42,7.45,8.19c2.56,2.82,5.11,4.34,7.65,4.56Z"/>
          <path class="cls-1" d="m814.57,260.46l-49.46,35.83-5.88-8.11,49.45-35.84,5.88,8.11Z"/>
          <path class="cls-1" d="m797.09,350.3l-4.82-8.78,25.48-48.37-39.98,21.95-4.82-8.79,53.62-29.42,4.82,8.78-25.4,48.32,39.9-21.9,4.82,8.78-53.61,29.43Z"/>
          <path class="cls-1" d="m856.93,389.87c2.42-2.43,3.93-5.23,4.55-8.39.62-3.15.36-6.48-.77-10-1.24-3.85-3.21-7-5.9-9.46s-5.91-4.02-9.64-4.7c-3.72-.68-7.68-.35-11.86,1-4.18,1.34-7.61,3.38-10.27,6.12-2.66,2.73-4.37,5.88-5.13,9.45-.76,3.57-.52,7.28.71,11.12,1.67,5.19,4.47,8.93,8.41,11.24,3.94,2.3,8.51,3.02,13.7,2.14l-7.02-21.84,7.61-2.44,10.3,32.04-7.44,2.39c-4.72.84-9.39.57-14.01-.8-4.63-1.37-8.74-3.78-12.33-7.2-3.6-3.43-6.21-7.68-7.84-12.76-1.76-5.47-2.09-10.87-1.01-16.2,1.08-5.33,3.46-10.05,7.12-14.15,3.67-4.1,8.34-7.07,14.03-8.89,5.69-1.83,11.22-2.14,16.59-.95,5.37,1.2,10.05,3.66,14.05,7.39,4,3.73,6.87,8.31,8.61,13.71,1.99,6.19,2.24,12.19.75,17.98-1.49,5.8-4.67,10.69-9.55,14.66l-3.69-11.46Z"/>
          <path class="cls-1" d="m845.68,478.87c1-1.74,2.36-3.14,4.07-4.19,1.71-1.05,3.62-1.59,5.73-1.62,3.22-.05,5.96,1.03,8.22,3.22s3.41,4.87,3.45,8.04c.04,3.27-1.03,6.04-3.22,8.3-2.2,2.26-4.91,3.41-8.13,3.45-3.22.05-5.95-1.03-8.17-3.22-2.22-2.19-3.36-4.93-3.41-8.21-.03-2.11.46-4.03,1.46-5.77Z"/>
        </g>
        <g>
          <path class="cls-2" d="m867.49,615.94l-7.87-2.19,6.96-24.98-17.36-4.83-5.42,19.47-7.87-2.2,5.43-19.47-25.74-7.17,2.69-9.65,58.83,16.39-9.65,34.63Z"/>
          <path class="cls-2" d="m802.2,646.3l10.58-23.28-9.54-9.16,4.33-9.52,46.63,45.23-4.8,10.56-64.73-5.38,4.36-9.6,13.18,1.16Zm8.61.83l29.95,2.7-21.7-20.86-8.25,18.17Z"/>
          <path class="cls-2" d="m776.21,670.12c3.02-1.92,6.15-2.92,9.39-3s6.31.86,9.22,2.83l-5.99,8.89c-2.32-1.29-4.7-1.63-7.14-1.05-2.44.58-4.59,2.26-6.46,5.02-1.93,2.87-2.74,5.57-2.44,8.11.3,2.53,1.55,4.54,3.73,6.01,1.7,1.15,3.42,1.58,5.16,1.31,1.74-.28,3.4-.96,4.98-2.05,1.58-1.09,3.59-2.72,6.05-4.88,3.1-2.72,5.8-4.8,8.09-6.26,2.29-1.46,4.88-2.28,7.75-2.46,2.88-.18,5.89.79,9.05,2.92,2.92,1.97,4.97,4.41,6.18,7.35,1.2,2.93,1.5,6.1.9,9.51-.6,3.41-2.06,6.84-4.39,10.29-3.31,4.91-7.25,8.09-11.81,9.58-4.57,1.48-9.1.95-13.61-1.59l6.19-9.18c1.94,1.09,4.11,1.29,6.5.57,2.39-.72,4.47-2.39,6.24-5.01,1.61-2.38,2.31-4.73,2.11-7.05-.2-2.33-1.44-4.26-3.73-5.8-1.55-1.05-3.15-1.44-4.78-1.16-1.64.27-3.24.94-4.8,2.01-1.57,1.07-3.54,2.62-5.92,4.69-3.18,2.73-5.95,4.84-8.3,6.33-2.35,1.49-4.98,2.33-7.9,2.52-2.92.19-5.98-.8-9.18-2.96-2.58-1.74-4.54-4.06-5.89-6.99-1.35-2.92-1.82-6.18-1.42-9.76.4-3.58,1.81-7.17,4.24-10.76,2.29-3.4,4.95-6.07,7.97-7.98Z"/>
          <path class="cls-2" d="m768.18,774.78l-6.02-5.54,11.01-11.96-38.92-35.82,6.79-7.37,38.92,35.82,11.07-12.02,6.01,5.54-28.86,31.35Z"/>
          <path class="cls-2" d="m659.92,781.06l10.48,2.09c.81-4.07,2.26-7.65,4.33-10.76,2.08-3.11,4.9-5.86,8.45-8.23,3.61-2.4,7.22-3.91,10.84-4.49s6.98-.21,10.06,1.15c3.09,1.35,5.67,3.59,7.75,6.71,2.34,3.51,3.44,7.3,3.28,11.39-.16,4.08-1.67,8.25-4.55,12.49,2.55.76,4.61,1.69,6.19,2.79,1.58,1.09,2.97,2.54,4.17,4.35,1.5,2.24,2.26,4.62,2.28,7.14.02,2.52-.69,5-2.15,7.47-1.47,2.45-3.61,4.62-6.43,6.51-2.87,1.91-5.69,3-8.44,3.26-2.75.25-5.27-.24-7.53-1.47-2.27-1.23-4.08-3.09-5.45-5.55l8.33-5.56c1.15,1.83,2.53,2.94,4.12,3.33,1.59.38,3.19.03,4.8-1.04,1.61-1.07,2.59-2.42,2.96-4.04.36-1.62.09-3.11-.82-4.47-.87-1.31-2.13-2.37-3.74-3.16-1.61-.78-4.06-1.56-7.32-2.34l-22.38-4.4.52,12.01-8.99,6-.94-15.65-.18-4.21-20.55-4.04,10.89-7.26Zm19.63,3.91l22.47,4.54c4.22-6.13,4.78-11.52,1.7-16.14-1.66-2.48-3.98-3.95-6.95-4.4-2.97-.44-5.92.31-8.85,2.26-4.58,3.06-7.37,7.63-8.37,13.73Z"/>
          <path class="cls-2" d="m610.19,869.52l-2.86-7.65,24.28-9.08-6.31-16.87-18.93,7.08-2.86-7.65,18.93-7.09-9.36-25.02,9.38-3.51,21.4,57.21-33.66,12.59Z"/>
          <path class="cls-2" d="m549.6,821.4l18.84,20.97,7.48-1.59-5.08-23.9,9.8-2.09,12.71,59.74-20.63,4.38c-4.58.98-8.64,1-12.16.07-3.52-.93-6.35-2.57-8.51-4.93-2.15-2.36-3.58-5.2-4.28-8.52-.83-3.9-.45-7.68,1.14-11.34,1.59-3.66,4.61-6.57,9.06-8.71l-20.05-21.61,11.69-2.49Zm27.98,27.2l-10.83,2.3c-3.66.78-6.24,2.28-7.71,4.52-1.47,2.23-1.88,4.89-1.22,7.99.65,3.09,2.09,5.32,4.29,6.67,2.21,1.36,5.17,1.65,8.89.85l10.83-2.3-4.26-20.03Z"/>
          <path class="cls-2" d="m520.18,878.42l-1.09-17.89-21.06,1.28-.49-8.15,21.05-1.28-1.13-18.68-23.68,1.44-.5-8.16,33.68-2.04,3.71,61.05-33.68,2.04-.5-8.16,23.68-1.44Z"/>
          <path class="cls-2" d="m467.7,878.93l1.32-17.88-21.03-1.56.6-8.15,21.03,1.55,1.39-18.66-23.66-1.76.6-8.15,33.65,2.49-4.52,61-33.65-2.5.6-8.15,23.67,1.76Z"/>
          <path class="cls-2" d="m404.59,817.29c2.74,2.3,4.64,4.99,5.69,8.05,1.05,3.06,1.08,6.28.09,9.65l-10.29-3.03c.52-2.6.14-4.97-1.15-7.12-1.29-2.15-3.54-3.7-6.74-4.64-3.31-.97-6.14-.94-8.46.12-2.33,1.06-3.87,2.85-4.61,5.38-.58,1.96-.48,3.74.32,5.32.79,1.57,1.94,2.95,3.45,4.13,1.52,1.18,3.68,2.61,6.48,4.29,3.52,2.14,6.33,4.08,8.41,5.83,2.08,1.74,3.64,3.96,4.68,6.65,1.04,2.69,1.02,5.86-.05,9.51-1,3.38-2.71,6.07-5.14,8.11-2.43,2.03-5.36,3.27-8.8,3.73-3.43.45-7.14.09-11.13-1.08-5.68-1.68-9.91-4.47-12.69-8.37-2.79-3.91-3.65-8.39-2.59-13.45l10.62,3.13c-.46,2.19.01,4.31,1.42,6.37,1.41,2.06,3.63,3.55,6.66,4.44,2.75.81,5.21.77,7.37-.12,2.15-.89,3.62-2.66,4.4-5.3.53-1.79.42-3.43-.34-4.91-.76-1.47-1.88-2.8-3.37-3.97-1.49-1.18-3.57-2.58-6.27-4.23-3.56-2.21-6.41-4.21-8.54-5.99-2.13-1.79-3.73-4.05-4.78-6.77-1.06-2.73-1.04-5.94.05-9.65.88-2.97,2.51-5.55,4.89-7.72,2.38-2.17,5.34-3.6,8.87-4.3,3.54-.7,7.38-.44,11.54.79,3.93,1.16,7.27,2.89,10.01,5.19Z"/>
          <path class="cls-2" d="m293.37,836.58l26.77-54.9,9,4.39-11.7,24.02,25.83,12.59,11.71-24.02,9.01,4.4-26.77,54.89-9-4.39,11.48-23.54-25.83-12.59-11.47,23.54-9.01-4.39Z"/>
          <path class="cls-2" d="m267.96,820.05l33.4-51.13,8.39,5.48-33.4,51.13-8.39-5.48Z"/>
          <path class="cls-2" d="m237.51,762.37c2.88-1.19,6.12-1.43,9.7-.71,3.58.72,7.32,2.69,11.2,5.9l8.53,7.05,15.79-19.1,7.72,6.38-38.91,47.07-16.26-13.44c-3.61-2.98-6.16-6.14-7.63-9.45-1.48-3.32-1.96-6.54-1.45-9.69.51-3.15,1.85-6.04,4.02-8.65,1.98-2.39,4.41-4.18,7.29-5.37Zm7.47,8.06c-2.55.14-4.82,1.43-6.84,3.86-4.25,5.15-3.47,10.13,2.35,14.95l8.53,7.05,12.71-15.37-8.53-7.05c-2.94-2.43-5.67-3.57-8.22-3.44Z"/>
          <path class="cls-2" d="m199.06,720.78c3.03-.73,6.26-.47,9.7.8,3.43,1.26,6.82,3.77,10.17,7.54l7.35,8.27,18.53-16.46,6.66,7.49-45.66,40.56-14.01-15.77c-3.11-3.5-5.14-7.01-6.1-10.5-.95-3.5-.94-6.77.05-9.8.99-3.04,2.75-5.68,5.29-7.93,2.32-2.06,5-3.46,8.03-4.2Zm6.15,9.11c-2.53-.25-4.99.67-7.35,2.77-4.99,4.44-4.98,9.48.04,15.13l7.35,8.28,14.91-13.25-7.35-8.28c-2.53-2.85-5.06-4.4-7.6-4.65Z"/>
          <path class="cls-2" d="m162.48,715.7l49.86-35.26,5.78,8.18-49.86,35.26-5.78-8.18Z"/>
          <path class="cls-2" d="m181,626.08l4.72,8.83-26.03,48.07,40.23-21.49,4.72,8.84-53.95,28.81-4.72-8.83,25.95-48.03-40.15,21.44-4.72-8.84,53.95-28.81Z"/>
          <path class="cls-2" d="m121.61,585.8c-2.44,2.41-3.99,5.19-4.65,8.33-.65,3.15-.44,6.48.65,10,1.19,3.86,3.12,7.03,5.79,9.52s5.86,4.09,9.58,4.81c3.72.72,7.68.44,11.88-.85,4.2-1.31,7.64-3.3,10.34-6,2.69-2.7,4.44-5.83,5.24-9.39.81-3.56.61-7.26-.59-11.13-1.61-5.2-4.37-8.98-8.28-11.33-3.91-2.35-8.47-3.12-13.68-2.31l6.76,21.91-7.64,2.36-9.92-32.16,7.47-2.31c4.72-.78,9.39-.46,14,.96,4.61,1.43,8.69,3.88,12.25,7.35,3.55,3.47,6.12,7.76,7.69,12.85,1.69,5.49,1.97,10.89.82,16.21-1.14,5.32-3.58,10.01-7.29,14.07-3.71,4.05-8.42,6.97-14.13,8.73-5.71,1.76-11.24,2.02-16.6.76-5.35-1.26-10.01-3.78-13.97-7.56-3.95-3.78-6.77-8.37-8.45-13.8-1.92-6.21-2.1-12.21-.54-18,1.56-5.78,4.8-10.63,9.72-14.54l3.55,11.5Z"/>
          <path class="cls-2" d="m133.9,496.91c-1.02,1.73-2.4,3.11-4.12,4.14-1.73,1.03-3.64,1.55-5.75,1.55-3.22,0-5.95-1.1-8.18-3.32-2.23-2.22-3.35-4.91-3.35-8.07,0-3.28,1.1-6.04,3.32-8.27,2.22-2.23,4.94-3.35,8.17-3.35,3.22,0,5.93,1.09,8.13,3.32,2.2,2.22,3.31,4.97,3.31,8.26,0,2.1-.51,4.03-1.52,5.76Z"/>
          <path class="cls-2" d="m110.76,368.39l7.9,2.1-6.67,25.05,17.41,4.63,5.2-19.53,7.9,2.1-5.2,19.53,25.81,6.87-2.58,9.68-59.01-15.71,9.24-34.73Z"/>
          <path class="cls-2" d="m175.69,337.29l-10.31,23.41,9.65,9.04-4.21,9.57-47.15-44.68,4.67-10.62,64.79,4.63-4.25,9.65-13.19-1.01Zm-8.61-.72l-29.98-2.35,21.94,20.6,8.04-18.25Z"/>
          <path class="cls-2" d="m201.44,313.09c-3,1.95-6.12,2.99-9.35,3.11-3.23.12-6.32-.79-9.25-2.72l5.89-8.96c2.33,1.25,4.72,1.58,7.15.97,2.44-.61,4.57-2.31,6.4-5.1,1.9-2.89,2.68-5.6,2.35-8.14-.33-2.53-1.6-4.52-3.8-5.97-1.71-1.13-3.44-1.54-5.18-1.25-1.73.3-3.39,1-4.96,2.1-1.57,1.11-3.57,2.76-5.99,4.95-3.07,2.74-5.74,4.86-8.01,6.35-2.28,1.48-4.85,2.33-7.72,2.55-2.88.21-5.9-.73-9.09-2.82-2.94-1.93-5.02-4.35-6.26-7.27-1.23-2.92-1.57-6.08-1.01-9.5.56-3.42,1.99-6.86,4.27-10.34,3.25-4.94,7.15-8.18,11.7-9.71,4.55-1.53,9.09-1.05,13.62,1.44l-6.09,9.25c-1.96-1.07-4.12-1.24-6.51-.5s-4.44,2.44-6.18,5.08c-1.58,2.4-2.26,4.76-2.03,7.08.23,2.32,1.49,4.24,3.79,5.75,1.57,1.03,3.17,1.4,4.8,1.1,1.63-.3,3.22-.98,4.77-2.07,1.55-1.08,3.51-2.67,5.87-4.76,3.15-2.76,5.89-4.91,8.22-6.43,2.33-1.51,4.95-2.38,7.87-2.61,2.92-.22,5.99.73,9.22,2.86,2.6,1.7,4.58,4.01,5.97,6.92,1.38,2.91,1.9,6.15,1.54,9.74-.36,3.58-1.73,7.19-4.11,10.81-2.25,3.43-4.88,6.12-7.88,8.07Z"/>
          <path class="cls-2" d="m208.21,208.38l6.08,5.46-10.87,12.09,39.34,35.37-6.7,7.45-39.34-35.37-10.92,12.15-6.08-5.46,28.5-31.69Z"/>
          <path class="cls-2" d="m316.38,200.87l-10.5-1.97c-.76,4.08-2.16,7.68-4.21,10.81-2.04,3.14-4.82,5.92-8.35,8.33-3.58,2.44-7.17,3.99-10.79,4.61-3.62.63-6.98.28-10.08-1.04-3.1-1.32-5.71-3.52-7.83-6.62-2.38-3.48-3.52-7.27-3.4-11.36.11-4.09,1.58-8.27,4.41-12.54-2.56-.73-4.64-1.64-6.23-2.71-1.59-1.08-2.99-2.51-4.22-4.3-1.52-2.23-2.31-4.6-2.37-7.12-.06-2.51.63-5.01,2.07-7.48s3.55-4.67,6.35-6.59c2.86-1.95,5.65-3.07,8.41-3.35,2.75-.29,5.27.18,7.55,1.38,2.28,1.2,4.12,3.03,5.52,5.49l-8.27,5.66c-1.17-1.82-2.56-2.91-4.16-3.27-1.6-.36-3.19,0-4.79,1.09-1.6,1.09-2.57,2.44-2.91,4.07-.35,1.62-.06,3.11.87,4.46.89,1.31,2.15,2.35,3.78,3.11,1.62.77,4.08,1.52,7.35,2.26l22.43,4.14-.66-12.01,8.92-6.11,1.12,15.63.22,4.22,20.59,3.8-10.81,7.39Zm-19.66-3.69l-22.53-4.28c-4.15,6.18-4.65,11.56-1.51,16.15,1.69,2.47,4.02,3.91,7,4.32,2.98.41,5.92-.38,8.82-2.37,4.54-3.1,7.28-7.71,8.22-13.82Z"/>
          <path class="cls-2" d="m365.06,111.84l2.95,7.62-24.17,9.37,6.51,16.8,18.85-7.31,2.95,7.62-18.85,7.3,9.65,24.91-9.34,3.62-22.07-56.95,33.51-12.99Z"/>
          <path class="cls-2" d="m426.28,159.23l-19.08-20.75-7.46,1.68,5.36,23.84-9.77,2.2-13.39-59.58,20.58-4.62c4.57-1.03,8.62-1.1,12.15-.21,3.53.89,6.39,2.5,8.56,4.83,2.18,2.33,3.63,5.16,4.38,8.47.87,3.89.54,7.67-1.01,11.35-1.55,3.68-4.53,6.62-8.96,8.81l20.3,21.38-11.66,2.62Zm-28.29-26.87l10.8-2.43c3.66-.82,6.21-2.36,7.66-4.61,1.45-2.24,1.82-4.91,1.13-8-.69-3.09-2.15-5.3-4.37-6.63-2.22-1.33-5.19-1.58-8.91-.75l-10.8,2.43,4.49,19.98Z"/>
          <path class="cls-2" d="m455.09,101.87l1.29,17.88,21.04-1.52.59,8.15-21.03,1.52,1.35,18.67,23.67-1.71.59,8.15-33.66,2.44-4.4-61.01,33.66-2.43.59,8.15-23.67,1.71Z"/>
          <path class="cls-2" d="m507.6,100.77l-1.12,17.89,21.05,1.32-.51,8.16-21.05-1.33-1.17,18.68,23.68,1.49-.51,8.16-33.68-2.12,3.84-61.04,33.68,2.12-.51,8.16-23.68-1.49Z"/>
          <path class="cls-2" d="m571.28,161.67c-2.77-2.27-4.7-4.94-5.78-7.98-1.09-3.04-1.15-6.26-.2-9.64l10.32,2.91c-.49,2.6-.08,4.97,1.24,7.11,1.31,2.14,3.57,3.66,6.79,4.56,3.33.94,6.15.87,8.46-.22,2.31-1.08,3.82-2.89,4.54-5.42.56-1.97.43-3.75-.37-5.31-.81-1.56-1.97-2.93-3.51-4.09-1.53-1.16-3.7-2.57-6.52-4.22-3.55-2.09-6.38-4-8.48-5.72-2.1-1.72-3.69-3.92-4.76-6.59-1.07-2.68-1.09-5.85-.05-9.51.95-3.39,2.63-6.11,5.04-8.17,2.41-2.06,5.32-3.33,8.75-3.83,3.43-.49,7.14-.17,11.15.96,5.69,1.61,9.96,4.35,12.79,8.22,2.84,3.88,3.75,8.35,2.74,13.42l-10.66-3.01c.44-2.19-.06-4.3-1.49-6.35-1.43-2.05-3.67-3.5-6.72-4.36-2.76-.77-5.22-.71-7.36.21-2.14.92-3.59,2.7-4.34,5.35-.51,1.8-.38,3.44.4,4.91.77,1.46,1.91,2.77,3.41,3.93,1.5,1.16,3.61,2.54,6.31,4.16,3.59,2.17,6.46,4.13,8.61,5.9,2.15,1.76,3.77,4,4.86,6.72,1.09,2.71,1.11,5.93.06,9.65-.84,2.99-2.44,5.58-4.8,7.78-2.36,2.2-5.3,3.67-8.82,4.4-3.53.74-7.38.52-11.55-.66-3.95-1.11-7.3-2.8-10.07-5.08Z"/>
          <path class="cls-2" d="m682.25,141.1l-26.12,55.2-9.05-4.28,11.43-24.15-25.98-12.29-11.43,24.15-9.05-4.28,26.12-55.21,9.06,4.28-11.2,23.67,25.97,12.29,11.2-23.67,9.05,4.28Z"/>
          <path class="cls-2" d="m707.94,157.38l-32.82,51.51-8.45-5.38,32.81-51.51,8.45,5.38Z"/>
          <path class="cls-2" d="m739.03,214.69c-2.87,1.23-6.1,1.5-9.69.82-3.59-.68-7.35-2.6-11.27-5.77l-8.61-6.96-15.57,19.28-7.79-6.29,38.37-47.52,16.41,13.25c3.64,2.94,6.23,6.06,7.74,9.36,1.51,3.29,2.04,6.52,1.56,9.67-.48,3.15-1.78,6.06-3.92,8.7-1.95,2.41-4.36,4.23-7.23,5.45Zm-7.57-7.97c2.55-.16,4.81-1.48,6.8-3.94,4.2-5.2,3.35-10.17-2.53-14.92l-8.62-6.96-12.53,15.52,8.61,6.96c2.96,2.39,5.72,3.51,8.26,3.33Z"/>
          <path class="cls-2" d="m777.89,255.75c-3.02.77-6.25.54-9.7-.68-3.45-1.22-6.86-3.69-10.25-7.42l-7.45-8.19-18.33,16.67-6.74-7.41,45.18-41.1,14.19,15.6c3.15,3.47,5.23,6.95,6.22,10.44,1,3.49,1.02,6.75.07,9.8-.95,3.05-2.69,5.71-5.2,8-2.3,2.08-4.96,3.51-7.98,4.28Zm-6.26-9.03c2.54.22,4.98-.73,7.32-2.86,4.94-4.49,4.87-9.53-.21-15.12l-7.45-8.2-14.76,13.42,7.45,8.19c2.56,2.82,5.11,4.34,7.65,4.56Z"/>
          <path class="cls-2" d="m814.57,260.46l-49.46,35.83-5.88-8.11,49.45-35.84,5.88,8.11Z"/>
          <path class="cls-2" d="m797.09,350.3l-4.82-8.78,25.48-48.37-39.98,21.95-4.82-8.79,53.62-29.42,4.82,8.78-25.4,48.32,39.9-21.9,4.82,8.78-53.61,29.43Z"/>
          <path class="cls-2" d="m856.93,389.87c2.42-2.43,3.93-5.23,4.55-8.39.62-3.15.36-6.48-.77-10-1.24-3.85-3.21-7-5.9-9.46s-5.91-4.02-9.64-4.7c-3.72-.68-7.68-.35-11.86,1-4.18,1.34-7.61,3.38-10.27,6.12-2.66,2.73-4.37,5.88-5.13,9.45-.76,3.57-.52,7.28.71,11.12,1.67,5.19,4.47,8.93,8.41,11.24,3.94,2.3,8.51,3.02,13.7,2.14l-7.02-21.84,7.61-2.44,10.3,32.04-7.44,2.39c-4.72.84-9.39.57-14.01-.8-4.63-1.37-8.74-3.78-12.33-7.2-3.6-3.43-6.21-7.68-7.84-12.76-1.76-5.47-2.09-10.87-1.01-16.2,1.08-5.33,3.46-10.05,7.12-14.15,3.67-4.1,8.34-7.07,14.03-8.89,5.69-1.83,11.22-2.14,16.59-.95,5.37,1.2,10.05,3.66,14.05,7.39,4,3.73,6.87,8.31,8.61,13.71,1.99,6.19,2.24,12.19.75,17.98-1.49,5.8-4.67,10.69-9.55,14.66l-3.69-11.46Z"/>
          <path class="cls-2" d="m845.68,478.87c1-1.74,2.36-3.14,4.07-4.19,1.71-1.05,3.62-1.59,5.73-1.62,3.22-.05,5.96,1.03,8.22,3.22s3.41,4.87,3.45,8.04c.04,3.27-1.03,6.04-3.22,8.3-2.2,2.26-4.91,3.41-8.13,3.45-3.22.05-5.95-1.03-8.17-3.22-2.22-2.19-3.36-4.93-3.41-8.21-.03-2.11.46-4.03,1.46-5.77Z"/>
        </g>
      </g>
    </g>
  </g>
</svg>