<?xml version="1.0" encoding="UTF-8"?>
<svg id="Ebene_2" data-name="Ebene 2" xmlns="http://www.w3.org/2000/svg" viewBox="0 0 980 980">
  <defs>
    <style>
      .cls-1 {
        fill: #e9f3ea;
      }

      .cls-2 {
        fill: #d8ecda;
      }

      .cls-3 {
        fill: #2d5334;
      }

      .cls-4 {
        fill: #5d8d66;
      }

      .cls-5 {
        fill: #3d6b45;
      }

      .cls-6 {
        fill: #214228;
      }

      .cls-7 {
        fill: #0d2713;
      }

      .cls-8 {
        fill: #1d1d1b;
      }

      .cls-9 {
        fill: #6aa275;
      }
    </style>
  </defs>
  <g id="Ebene_1-2" data-name="Ebene 1">
    <g>
      <g>
        <g>
          <path class="cls-6" d="m602.66,530.43c-.25-.68-.5-1.34-.75-2.01.25.67.5,1.33.75,2.01Z"/>
          <path class="cls-6" d="m614.45,566.49c.28.97.55,1.95.83,2.93-.28-.98-.55-1.96-.83-2.93Z"/>
          <path class="cls-6" d="m605.3,537.78c-.28-.8-.57-1.59-.85-2.39.28.8.57,1.59.85,2.39Z"/>
          <path class="cls-6" d="m592.7,505.64c-.29-.66-.58-1.34-.86-2,.29.66.58,1.34.86,2Z"/>
          <path class="cls-6" d="m584.16,487.09c-.19-.38-.37-.77-.56-1.15.19.38.37.77.56,1.15Z"/>
          <path class="cls-6" d="m587.47,494.03c-.46-.97-.91-1.95-1.37-2.91.46.96.91,1.94,1.37,2.91Z"/>
          <path class="cls-6" d="m581.02,480.75c-.06-.11-.11-.22-.17-.33.06.11.11.22.17.33Z"/>
          <path class="cls-6" d="m590.2,499.97c-.41-.9-.81-1.81-1.22-2.7.41.89.81,1.8,1.22,2.7Z"/>
          <path class="cls-6" d="m706.27,509.59c-15.58,7.07-30.87,15.1-46.03,24.15,15.16-9.04,30.46-17.07,46.03-24.15Z"/>
          <path class="cls-6" d="m616.76,574.79c.3,1.1.59,2.21.88,3.32-.29-1.11-.58-2.22-.88-3.32Z"/>
          <path class="cls-6" d="m618.99,583.35c.31,1.24.62,2.49.92,3.75-.31-1.25-.61-2.51-.92-3.75Z"/>
          <path class="cls-6" d="m612.08,558.47c.26.85.52,1.71.77,2.57-.26-.86-.51-1.72-.77-2.57Z"/>
          <path class="cls-6" d="m625.14,610.6c.63,3.16,1.25,6.36,1.84,9.6-.59-3.24-1.21-6.44-1.84-9.6Z"/>
          <path class="cls-6" d="m607.9,545.36c-.29-.88-.59-1.75-.89-2.63.3.87.59,1.74.89,2.63Z"/>
          <path class="cls-6" d="m621.14,592.17c.33,1.42.65,2.86.98,4.3-.33-1.44-.65-2.88-.98-4.3Z"/>
          <path class="cls-6" d="m623.19,601.25c.37,1.72.73,3.48,1.09,5.22-.36-1.75-.72-3.5-1.09-5.22Z"/>
          <path class="cls-6" d="m599.96,523.31c-.14-.35-.28-.69-.41-1.05.14.35.28.69.41,1.05Z"/>
          <path class="cls-6" d="m556.77,438.58c-.09-.15-.19-.29-.28-.44.09.15.19.29.28.44Z"/>
          <path class="cls-6" d="m490,219.36c-149.24,0-270.64,121.4-270.64,270.64s121.4,270.64,270.64,270.64,270.64-121.4,270.64-270.64-121.4-270.64-270.64-270.64Zm180.1,422.43c-7.22,8.4-16.71,14.54-27.34,17.66-7.61,2.25-15.81,4.29-24.55,5.98-28.03,5.42-52.32,5.41-70.22,4.06.64-12.68.92-30.55-.99-51.91-4.64.81-8.81,1.71-12.51,2.63-26.55,6.54-47.55,18.84-88.44,43.2-21.13,12.57-39.17,24.35-53.64,34.22-3.26,2.24-7.48,2.47-10.99.65-47.11-24.27-85.04-63.84-107.24-112.14-13.85-30.14-21.57-63.66-21.57-99.01,0-23.21,3.34-45.64,9.55-66.85,26.19-89.42,103.6-156.96,198.3-168.7,5.26-.65,10.16,2.74,11.36,7.9,3.31,14.27,8.01,31.34,14.73,50.14,2.91,8.15,5.91,15.8,9,23.05,18.24,3.45,38.76,5.98,61.21,6.65,38.9,1.17,72.44-3.6,98.64-9.53,6.42-1.45,13.14.77,17.34,5.84,17.12,20.61,30.8,44.18,40.19,69.8,9.34,25.48,14.44,52.99,14.44,81.7,0,4.59-.14,9.14-.39,13.67-3.05,53.73-23.96,102.66-56.9,140.97Z"/>
          <path class="cls-1" d="m585.67,490.19c-53.01-7.7-107.4-.59-153.76,31.46-50.35,34.48-102.28,53.33-157.73,64.5-13.85-30.14-21.57-63.66-21.57-99.01,0-23.21,3.34-45.64,9.55-66.85,51.04-2.94,90.95-40.8,136.96-60.82,32.84-14.76,69.24-15.73,104.3-9.42,16.95,35.19,35.56,60.69,53.07,88.09.08.15.18.3.27.44.54.86,1.08,1.7,1.62,2.56.06.1.12.18.18.27.04.05.06.1.08.14,1.44,2.27,2.85,4.54,4.27,6.85.1.17.19.32.3.49,1.46,2.39,2.91,4.81,4.35,7.26.81,1.37,1.62,2.77,2.44,4.2.26.45.52.93.79,1.39.56.98,1.12,1.97,1.69,2.99.31.56.62,1.12.93,1.69.54.96,1.07,1.93,1.61,2.91.32.58.63,1.15.94,1.75.57,1.05,1.14,2.12,1.71,3.2.27.52.55,1.03.82,1.57.79,1.5,1.57,3.02,2.36,4.58.06.11.12.21.18.32.86,1.7,1.72,3.44,2.58,5.2.19.38.37.76.56,1.14.5,1.03,1,2.06,1.51,3.1Z"/>
          <path class="cls-6" d="m563.21,448.88c-.1-.16-.2-.32-.3-.48.1.16.2.32.3.48Z"/>
          <path class="cls-6" d="m578.49,475.84c-.28-.53-.55-1.04-.83-1.57.28.52.55,1.04.83,1.57Z"/>
          <path class="cls-6" d="m609.53,550.33c.28.86.55,1.71.82,2.58-.1-.31-.19-.63-.29-.94,17.4-2.88,34.3-8.52,50.18-18.23-15.88,9.71-32.78,15.35-50.18,18.23-.18-.55-.36-1.08-.53-1.63Z"/>
          <path class="cls-6" d="m573.42,466.41c-.31-.57-.62-1.13-.94-1.69.31.56.62,1.12.94,1.69Z"/>
          <path class="cls-6" d="m575.96,471.07c-.31-.59-.63-1.16-.94-1.74.31.58.63,1.16.94,1.74Z"/>
          <path class="cls-6" d="m558.39,441.13c.09.14.18.28.26.42-.03-.05-.06-.1-.09-.14-.06-.09-.12-.18-.17-.27Z"/>
          <path class="cls-6" d="m570.79,461.73c-.26-.46-.53-.93-.79-1.39.26.46.53.92.79,1.39Z"/>
          <path class="cls-3" d="m726.99,500.81c-6.97,2.73-13.87,5.67-20.72,8.78-15.58,7.07-30.87,15.1-46.03,24.15-15.89,9.71-32.78,15.35-50.18,18.23.1.31.19.63.29.94.58,1.83,1.16,3.69,1.72,5.56.26.85.52,1.71.77,2.57.54,1.8,1.07,3.62,1.6,5.46.28.97.55,1.95.83,2.93.5,1.77.99,3.55,1.48,5.36.3,1.1.59,2.21.88,3.32.46,1.74.91,3.47,1.36,5.24.31,1.24.62,2.49.92,3.75.41,1.68.82,3.36,1.23,5.07.33,1.42.65,2.86.98,4.3.36,1.59.72,3.17,1.07,4.79.37,1.72.73,3.48,1.09,5.22.29,1.38.58,2.73.86,4.13.63,3.16,1.25,6.36,1.84,9.6-5.64,7.97-14.79,18.87-28.58,28.65-19.8,14.04-39.32,18.81-50.41,20.63,17.9,1.36,42.2,1.37,70.21-4.05,8.74-1.69,16.94-3.74,24.56-5.99,10.62-3.13,20.12-9.27,27.34-17.66,32.94-38.32,53.84-87.26,56.89-140.98h0s0,0,0,0Z"/>
          <path class="cls-2" d="m727.38,487.15c0,4.59-.14,9.14-.39,13.67-6.97,2.72-13.87,5.66-20.72,8.78-15.57,7.07-30.87,15.1-46.04,24.14-15.88,9.71-32.78,15.36-50.17,18.24-.04-.12-.07-.23-.12-.34-.14-.43-.27-.86-.42-1.28-.54-1.68-1.08-3.34-1.63-4.97-.3-.89-.59-1.76-.89-2.63-.56-1.67-1.13-3.32-1.7-4.95-.29-.81-.57-1.59-.86-2.39-.59-1.67-1.19-3.33-1.78-4.96-.25-.68-.51-1.33-.76-2.01-.64-1.71-1.28-3.44-1.94-5.12-.13-.36-.27-.69-.42-1.05-2.25-5.76-4.53-11.3-6.84-16.62-.3-.67-.58-1.34-.87-2.01-.55-1.24-1.09-2.44-1.64-3.66-.4-.89-.81-1.81-1.21-2.69-.5-1.11-1.01-2.18-1.51-3.25-.45-.98-.9-1.95-1.37-2.91-.14-.31-.29-.63-.43-.93-.51-1.05-1.01-2.07-1.51-3.1-.19-.38-.37-.76-.56-1.14-.86-1.76-1.72-3.5-2.58-5.2-.06-.11-.12-.21-.18-.32-.79-1.56-1.57-3.08-2.36-4.58-.27-.54-.55-1.05-.82-1.57-.57-1.08-1.14-2.15-1.71-3.2-.31-.59-.62-1.17-.94-1.75-.54-.99-1.07-1.95-1.61-2.91-.31-.57-.62-1.13-.93-1.69-.57-1.01-1.13-2.01-1.69-2.99-.26-.46-.52-.94-.79-1.39-.82-1.43-1.63-2.83-2.44-4.2-1.44-2.45-2.89-4.87-4.35-7.26-.11-.17-.2-.32-.3-.49-1.42-2.31-2.83-4.58-4.27-6.85-.02-.05-.05-.1-.08-.14,48.52,4.66,95.56-23.01,144.23-34.2,3.4-.71,6.78-1.28,10.15-1.76,9.34,25.48,14.44,52.99,14.44,81.7Z"/>
          <path class="cls-4" d="m712.94,405.45c-3.37.48-6.74,1.05-10.15,1.76-48.68,11.19-95.71,38.86-144.23,34.2-.06-.1-.12-.18-.18-.27-.54-.86-1.08-1.7-1.62-2.56-.1-.14-.19-.29-.27-.44-17.51-27.4-36.11-52.9-53.07-88.09-1.97-4.09-3.93-8.31-5.85-12.69-.04-.07-.06-.13-.1-.2-.64-1.48-1.3-2.96-1.93-4.47,18.24,3.45,38.76,5.98,61.21,6.65,38.9,1.17,72.44-3.6,98.64-9.53,6.42-1.45,13.14.77,17.34,5.84,17.12,20.61,30.8,44.18,40.19,69.8Z"/>
          <path class="cls-7" d="m626.98,620.21c-33.61-7.47-60.73-5.95-79.97-2.62,1.9,21.36,1.62,39.23.98,51.91,11.09-1.82,30.61-6.59,50.41-20.63,13.79-9.78,22.94-20.68,28.58-28.65Z"/>
          <path class="cls-5" d="m626.98,620.21c-33.6-7.47-60.73-5.96-79.97-2.63-4.64.81-8.81,1.71-12.51,2.63-26.55,6.54-47.55,18.84-88.44,43.2-21.13,12.57-39.17,24.35-53.64,34.22-3.26,2.24-7.48,2.47-10.99.65-47.11-24.27-85.04-63.84-107.24-112.14,55.46-11.17,107.38-30.01,157.73-64.5,46.36-32.06,100.75-39.16,153.76-31.46.14.3.29.62.43.93.46.96.92,1.94,1.37,2.91.5,1.07,1.01,2.14,1.51,3.25.4.88.81,1.8,1.21,2.69.55,1.23,1.09,2.43,1.64,3.66.29.67.57,1.34.87,2.01,2.31,5.32,4.59,10.86,6.84,16.62.14.36.29.69.42,1.05.65,1.68,1.3,3.4,1.94,5.12.25.68.51,1.33.76,2.01.59,1.63,1.19,3.3,1.78,4.96.29.8.57,1.58.86,2.39.57,1.63,1.14,3.28,1.7,4.95.3.87.59,1.74.89,2.63.55,1.63,1.09,3.3,1.63,4.97.14.43.27.86.42,1.28.13.43.27.86.4,1.28.58,1.84,1.17,3.69,1.72,5.57.26.84.52,1.7.79,2.57.54,1.8,1.07,3.62,1.59,5.45.27.98.56,1.96.83,2.94.5,1.77.99,3.56,1.48,5.36.3,1.09.58,2.21.88,3.32.45,1.74.9,3.47,1.36,5.23.31,1.24.62,2.5.92,3.75.42,1.69.83,3.37,1.23,5.08.33,1.42.65,2.85.99,4.29.36,1.59.71,3.18,1.07,4.78.37,1.72.73,3.49,1.09,5.23.29,1.37.58,2.72.86,4.12.63,3.16,1.25,6.36,1.83,9.61Z"/>
          <path class="cls-9" d="m503.43,350.05c-35.06-6.3-71.46-5.34-104.3,9.42-46.01,20.02-85.92,57.88-136.96,60.82,26.19-89.42,103.6-156.96,198.3-168.7,5.26-.65,10.16,2.74,11.36,7.9,3.31,14.27,8.01,31.34,14.73,50.14,2.91,8.15,5.91,15.8,9,23.05.63,1.51,1.28,3,1.93,4.47.04.07.06.13.1.2,1.93,4.38,3.88,8.6,5.85,12.69Z"/>
        </g>
        <path class="cls-6" d="m490,980C219.81,980,0,760.19,0,490S219.81,0,490,0s490,219.81,490,490-219.81,490-490,490Zm0-945.61c-251.22,0-455.6,204.38-455.6,455.61s204.38,455.61,455.6,455.61,455.61-204.38,455.61-455.61S741.22,34.39,490,34.39Z"/>
      </g>
      <g>
        <g>
          <path class="cls-8" d="m856.11,648.42l-57.84-19.58,3.21-9.49,39.62,13.42-33.64-31.06,2.23-6.57,45.62-4.32-39.62-13.41,3.21-9.49,57.84,19.59-3.46,10.24-52.24,4.94,38.51,35.59-3.45,10.14Z"/>
          <path class="cls-8" d="m786.04,675.49l12.74-22.17-8.63-10.02,5.21-9.06,42.13,49.44-5.78,10.06-63.93-11.49,5.25-9.15,13,2.4Zm8.49,1.63l29.56,5.53-19.62-22.83-9.94,17.29Z"/>
          <path class="cls-8" d="m784.26,752.36c-5.05,2.15-10.21,2.76-15.5,1.82-5.28-.94-10.3-3.4-15.07-7.38-4.77-3.98-8.05-8.46-9.85-13.44-1.8-4.98-2.06-10.12-.79-15.43,1.27-5.32,3.99-10.47,8.16-15.46l12.79-15.31,46.87,39.15-12.79,15.31c-4.17,4.99-8.77,8.57-13.82,10.72Zm-32.86-28.31c.53,5.4,3.49,10.35,8.88,14.87,5.44,4.54,10.91,6.63,16.41,6.26,5.5-.37,10.54-3.3,15.12-8.78l6.37-7.62-34.33-28.68-6.37,7.62c-4.58,5.48-6.61,10.93-6.08,16.33Z"/>
          <path class="cls-8" d="m752.38,778.19l-11.84-13.45-15.83,13.93-5.4-6.14,15.83-13.93-12.37-14.04-17.81,15.67-5.4-6.14,25.33-22.29,40.41,45.91-25.33,22.29-5.4-6.13,17.81-15.68Z"/>
          <path class="cls-8" d="m698.51,828.79l-32.91-51.45,8.44-5.4,32.91,51.45-8.44,5.4Z"/>
          <path class="cls-8" d="m611.46,805.11l9.04-4.3,46.81,28.23-19.59-41.18,9.04-4.3,26.28,55.23-9.05,4.3-46.77-28.15,19.55,41.1-9.05,4.3-26.28-55.23Z"/>
          <path class="cls-8" d="m532.81,825.06l9.81-2.01,38.67,38.64-9.14-44.68,9.82-2.01,12.26,59.92-9.81,2.01-38.65-38.55,9.12,44.59-9.82,2.01-12.26-59.92Z"/>
          <path class="cls-8" d="m515.13,879.06l-.85-17.9-21.06,1-.39-8.16,21.06-1-.89-18.69-23.7,1.13-.39-8.17,33.7-1.6,2.91,61.1-33.71,1.6-.39-8.16,23.7-1.13Z"/>
          <path class="cls-8" d="m434.82,884.6l.7-8.15,16.2,1.4,4.54-52.71,9.98.86-4.54,52.7,16.29,1.41-.71,8.14-42.46-3.66Z"/>
          <path class="cls-8" d="m371.08,870.46l14.61-59.3,9.73,2.4-6.39,25.94,27.9,6.87,6.39-25.94,9.73,2.39-14.61,59.3-9.73-2.39,6.26-25.43-27.9-6.87-6.26,25.43-9.73-2.4Z"/>
          <path class="cls-8" d="m346.61,852.54l6.85-16.57-19.49-8.07,3.13-7.54,19.49,8.06,7.15-17.29-21.92-9.07,3.12-7.55,31.18,12.91-23.38,56.51-31.18-12.9,3.13-7.55,21.92,9.08Z"/>
          <path class="cls-8" d="m309.02,774.33l-.35,28.18,6.58,3.9,12.45-21.02,8.62,5.1-31.12,52.55-18.15-10.75c-4.03-2.38-7.03-5.12-8.99-8.19-1.96-3.07-2.93-6.2-2.92-9.39.02-3.19.89-6.24,2.62-9.17,2.03-3.43,4.87-5.95,8.52-7.57,3.65-1.61,7.84-1.71,12.57-.26l-.11-29.48,10.29,6.09Zm2.15,38.96l-9.52-5.64c-3.23-1.91-6.13-2.54-8.73-1.9-2.59.65-4.7,2.33-6.31,5.05-1.61,2.72-2.07,5.33-1.36,7.82.7,2.5,2.69,4.71,5.97,6.65l9.52,5.64,10.43-17.62Z"/>
          <path class="cls-8" d="m278.68,762.68l-16.21-12.79,5-6.35,24.08,18.99-37.82,47.96-7.87-6.2,32.81-41.61Z"/>
          <path class="cls-8" d="m228.67,722.15l17.65,18.51,12.06-5.43,7.22,7.57-59.36,26.38-8-8.39,29.16-58.05,7.28,7.63-6,11.79Zm-3.97,7.68l-13.69,26.78,27.45-12.35-13.76-14.43Z"/>
          <path class="cls-8" d="m195.87,655.87l5.55,8.34-21.29,50.35,37.98-25.25,5.55,8.34-50.93,33.87-5.55-8.34,21.21-50.3-37.9,25.21-5.54-8.34,50.93-33.87Z"/>
          <path class="cls-8" d="m123.79,636.23c.32-5.48,2.08-10.37,5.28-14.68,3.2-4.31,7.65-7.71,13.34-10.19,5.69-2.49,11.16-3.43,16.42-2.82,5.25.61,9.98,2.67,14.16,6.18s7.58,8.24,10.19,14.2l7.99,18.28-55.96,24.47-7.99-18.28c-2.61-5.96-3.75-11.67-3.43-17.16Zm40-16.77c-5.07-1.94-10.83-1.51-17.26,1.31-6.49,2.84-10.81,6.8-12.93,11.89-2.13,5.09-1.76,10.9,1.11,17.45l3.98,9.1,40.98-17.92-3.98-9.1c-2.86-6.54-6.83-10.79-11.9-12.73Z"/>
          <path class="cls-8" d="m164.84,584.14c-.58,3.54-1.92,6.54-4.01,9-2.09,2.47-4.84,4.13-8.25,5l-2.65-10.39c2.5-.88,4.34-2.42,5.53-4.63,1.19-2.21,1.38-4.93.55-8.17-.85-3.34-2.33-5.75-4.42-7.22-2.09-1.46-4.42-1.87-6.97-1.22-1.98.51-3.46,1.51-4.41,2.98s-1.55,3.17-1.79,5.08c-.24,1.9-.37,4.49-.38,7.75-.04,4.13-.28,7.52-.71,10.21-.44,2.68-1.54,5.15-3.33,7.42-1.78,2.27-4.52,3.87-8.21,4.81-3.41.87-6.6.78-9.59-.27-2.99-1.06-5.55-2.94-7.7-5.66-2.14-2.72-3.72-6.09-4.75-10.12-1.46-5.74-1.22-10.8.71-15.2,1.93-4.39,5.35-7.42,10.24-9.09l2.73,10.73c-2.11.72-3.7,2.21-4.76,4.48-1.05,2.26-1.19,4.93-.41,7.99.71,2.78,2,4.88,3.86,6.27,1.87,1.4,4.14,1.76,6.8,1.08,1.82-.46,3.17-1.39,4.05-2.8.88-1.4,1.45-3.04,1.69-4.91.25-1.88.39-4.4.43-7.55.09-4.19.35-7.65.8-10.4.45-2.74,1.58-5.26,3.38-7.57,1.8-2.3,4.58-3.93,8.33-4.88,3.01-.77,6.05-.68,9.13.25,3.08.94,5.82,2.75,8.23,5.44,2.4,2.68,4.14,6.12,5.21,10.32,1.01,3.98,1.23,7.73.64,11.26Z"/>
          <path class="cls-8" d="m133.89,493.47c-1.04,1.71-2.43,3.08-4.16,4.09-1.74,1.01-3.66,1.5-5.77,1.49-3.22-.03-5.94-1.16-8.14-3.4-2.21-2.25-3.3-4.95-3.27-8.11.03-3.28,1.16-6.02,3.41-8.23,2.25-2.21,4.98-3.3,8.2-3.27,3.22.02,5.92,1.16,8.1,3.41s3.25,5.01,3.23,8.29c-.02,2.11-.55,4.02-1.59,5.74Z"/>
          <path class="cls-8" d="m119.37,342.42l58.37,17.96-2.95,9.58-39.98-12.31,34.5,30.11-2.04,6.64-45.48,5.58,39.98,12.3-2.95,9.58-58.37-17.97,3.18-10.33,52.08-6.41-39.49-34.5,3.15-10.24Z"/>
          <path class="cls-8" d="m188.61,313.46l-12.1,22.53,8.91,9.78-4.95,9.21-43.51-48.22,5.49-10.22,64.23,9.68-4.99,9.29-13.08-2.04Zm-8.53-1.39l-29.7-4.69,20.26,22.26,9.44-17.57Z"/>
          <path class="cls-8" d="m188.29,236.47c4.99-2.3,10.13-3.05,15.44-2.26,5.3.79,10.4,3.12,15.27,6.96,4.88,3.85,8.28,8.23,10.22,13.15,1.94,4.92,2.35,10.06,1.22,15.4-1.12,5.35-3.69,10.57-7.72,15.67l-12.35,15.67-47.95-37.82,12.35-15.66c4.03-5.11,8.53-8.81,13.51-11.11Zm33.64,27.37c-.68-5.38-3.77-10.26-9.3-14.61-5.56-4.39-11.09-6.32-16.57-5.8-5.49.52-10.44,3.59-14.87,9.21l-6.15,7.79,35.12,27.7,6.15-7.8c4.43-5.61,6.3-11.11,5.62-16.5Z"/>
          <path class="cls-8" d="m219.39,209.79l12.22,13.12,15.43-14.37,5.57,5.98-15.43,14.38,12.76,13.69,17.36-16.18,5.57,5.98-24.69,23-41.68-44.75,24.69-23,5.57,5.98-17.36,16.17Z"/>
          <path class="cls-8" d="m272.25,157.46l34.04,50.7-8.32,5.59-34.04-50.71,8.32-5.58Z"/>
          <path class="cls-8" d="m359.51,178.93l-8.92,4.56-47.59-26.91,20.74,40.62-8.92,4.56-27.82-54.47,8.92-4.56,47.55,26.84-20.7-40.54,8.92-4.56,27.81,54.47Z"/>
          <path class="cls-8" d="m437.5,156.78l-9.76,2.28-39.75-37.52,10.41,44.41-9.76,2.28-13.96-59.54,9.76-2.29,39.74,37.44-10.39-44.32,9.76-2.29,13.96,59.55Z"/>
          <path class="cls-8" d="m453.77,102.27l1.36,17.87,21.03-1.59.62,8.15-21.03,1.6,1.42,18.67,23.66-1.79.62,8.15-33.65,2.55-4.62-60.98,33.64-2.55.62,8.15-23.66,1.8Z"/>
          <path class="cls-8" d="m533.82,94.49l-.47,8.16-16.23-.94-3.06,52.81-10-.58,3.06-52.81-16.32-.95.47-8.16,42.55,2.47Z"/>
          <path class="cls-8" d="m597.96,106.84l-12.95,59.68-9.79-2.12,5.66-26.11-28.08-6.09-5.66,26.11-9.79-2.12,12.95-59.68,9.79,2.12-5.55,25.59,28.08,6.09,5.55-25.59,9.79,2.13Z"/>
          <path class="cls-8" d="m622.9,124.07l-6.39,16.75,19.7,7.51-2.91,7.64-19.71-7.52-6.67,17.49,22.17,8.45-2.91,7.63-31.53-12.02,21.79-57.15,31.53,12.02-2.91,7.64-22.17-8.45Z"/>
          <path class="cls-8" d="m662.73,201.22l-.44-28.19-6.68-3.71-11.86,21.36-8.76-4.86,29.64-53.4,18.44,10.24c4.1,2.27,7.17,4.92,9.22,7.93,2.04,3.02,3.1,6.12,3.18,9.3.07,3.2-.72,6.27-2.37,9.24-1.93,3.49-4.7,6.09-8.3,7.81-3.6,1.72-7.79,1.93-12.55.62l.93,29.46-10.45-5.8Zm-3.24-38.89l9.68,5.37c3.28,1.82,6.2,2.37,8.78,1.66,2.57-.71,4.63-2.45,6.17-5.22,1.53-2.77,1.91-5.39,1.14-7.86-.77-2.47-2.82-4.63-6.15-6.48l-9.68-5.37-9.94,17.9Z"/>
          <path class="cls-8" d="m693.31,211.95l16.57,12.32-4.82,6.49-24.61-18.3,36.44-49.01,8.04,5.98-31.62,42.52Z"/>
          <path class="cls-8" d="m744.52,251.13l-18.16-18-11.9,5.77-7.43-7.37,58.6-28.03,8.24,8.17-27.52,58.84-7.49-7.42,5.66-11.96Zm3.76-7.78l12.92-27.15-27.09,13.11,14.17,14.04Z"/>
          <path class="cls-8" d="m779.14,316.44l-5.78-8.19,19.88-50.92-37.26,26.3-5.78-8.19,49.97-35.26,5.77,8.18-19.81,50.87,37.19-26.24,5.78,8.19-49.97,35.26Z"/>
          <path class="cls-8" d="m851.74,334.08c-.17,5.49-1.79,10.43-4.87,14.82-3.08,4.4-7.43,7.91-13.04,10.56-5.62,2.65-11.06,3.74-16.33,3.27-5.27-.46-10.05-2.39-14.33-5.78-4.28-3.39-7.81-8.03-10.58-13.9l-8.5-18.05,55.25-26.03,8.5,18.05c2.77,5.88,4.07,11.57,3.91,17.05Zm-39.51,17.88c5.12,1.8,10.86,1.2,17.22-1.8,6.42-3.02,10.61-7.1,12.59-12.24s1.45-10.95-1.59-17.41l-4.23-8.98-40.46,19.05,4.23,8.98c3.05,6.47,7.13,10.59,12.25,12.4Z"/>
          <path class="cls-8" d="m812.15,387.25c.48-3.55,1.73-6.58,3.75-9.11,2.02-2.53,4.72-4.27,8.1-5.23l2.94,10.31c-2.47.94-4.27,2.54-5.4,4.78-1.13,2.25-1.23,4.97-.32,8.18.95,3.32,2.49,5.69,4.63,7.08,2.14,1.4,4.47,1.74,7.01,1.02,1.97-.56,3.41-1.6,4.32-3.11.91-1.51,1.46-3.22,1.65-5.13.19-1.91.24-4.5.16-7.76-.08-4.12.06-7.53.42-10.22.36-2.69,1.4-5.19,3.11-7.51s4.4-4,8.07-5.04c3.38-.96,6.58-.96,9.6,0,3.02.97,5.63,2.78,7.85,5.44s3.9,5.98,5.04,9.99c1.62,5.69,1.53,10.76-.28,15.2-1.81,4.45-5.14,7.57-9.98,9.38l-3.03-10.65c2.09-.78,3.64-2.32,4.63-4.61.99-2.3,1.05-4.96.19-8.01-.79-2.76-2.14-4.82-4.04-6.16-1.9-1.35-4.18-1.64-6.83-.88-1.8.51-3.13,1.48-3.97,2.91-.84,1.43-1.36,3.09-1.55,4.97-.2,1.88-.27,4.4-.22,7.56.03,4.19-.13,7.67-.5,10.42-.37,2.76-1.43,5.31-3.16,7.66-1.74,2.36-4.46,4.06-8.18,5.12-2.98.85-6.03.85-9.14,0-3.11-.84-5.9-2.58-8.38-5.19-2.48-2.62-4.32-6.01-5.51-10.17-1.12-3.95-1.44-7.69-.96-11.24Z"/>
          <path class="cls-8" d="m845.65,477.1c.99-1.75,2.34-3.15,4.05-4.21,1.71-1.06,3.61-1.61,5.72-1.65,3.22-.06,5.96.99,8.24,3.18,2.27,2.18,3.43,4.86,3.49,8.02.07,3.28-.99,6.05-3.18,8.32-2.18,2.27-4.88,3.44-8.1,3.5-3.22.07-5.95-1-8.19-3.18-2.24-2.19-3.39-4.91-3.46-8.2-.04-2.11.43-4.04,1.43-5.78Z"/>
        </g>
        <g>
          <path class="cls-8" d="m856.11,648.42l-57.84-19.58,3.21-9.49,39.62,13.42-33.64-31.06,2.23-6.57,45.62-4.32-39.62-13.41,3.21-9.49,57.84,19.59-3.46,10.24-52.24,4.94,38.51,35.59-3.45,10.14Z"/>
          <path class="cls-8" d="m786.04,675.49l12.74-22.17-8.63-10.02,5.21-9.06,42.13,49.44-5.78,10.06-63.93-11.49,5.25-9.15,13,2.4Zm8.49,1.63l29.56,5.53-19.62-22.83-9.94,17.29Z"/>
          <path class="cls-8" d="m784.26,752.36c-5.05,2.15-10.21,2.76-15.5,1.82-5.28-.94-10.3-3.4-15.07-7.38-4.77-3.98-8.05-8.46-9.85-13.44-1.8-4.98-2.06-10.12-.79-15.43,1.27-5.32,3.99-10.47,8.16-15.46l12.79-15.31,46.87,39.15-12.79,15.31c-4.17,4.99-8.77,8.57-13.82,10.72Zm-32.86-28.31c.53,5.4,3.49,10.35,8.88,14.87,5.44,4.54,10.91,6.63,16.41,6.26,5.5-.37,10.54-3.3,15.12-8.78l6.37-7.62-34.33-28.68-6.37,7.62c-4.58,5.48-6.61,10.93-6.08,16.33Z"/>
          <path class="cls-8" d="m752.38,778.19l-11.84-13.45-15.83,13.93-5.4-6.14,15.83-13.93-12.37-14.04-17.81,15.67-5.4-6.14,25.33-22.29,40.41,45.91-25.33,22.29-5.4-6.13,17.81-15.68Z"/>
          <path class="cls-8" d="m698.51,828.79l-32.91-51.45,8.44-5.4,32.91,51.45-8.44,5.4Z"/>
          <path class="cls-8" d="m611.46,805.11l9.04-4.3,46.81,28.23-19.59-41.18,9.04-4.3,26.28,55.23-9.05,4.3-46.77-28.15,19.55,41.1-9.05,4.3-26.28-55.23Z"/>
          <path class="cls-8" d="m532.81,825.06l9.81-2.01,38.67,38.64-9.14-44.68,9.82-2.01,12.26,59.92-9.81,2.01-38.65-38.55,9.12,44.59-9.82,2.01-12.26-59.92Z"/>
          <path class="cls-8" d="m515.13,879.06l-.85-17.9-21.06,1-.39-8.16,21.06-1-.89-18.69-23.7,1.13-.39-8.17,33.7-1.6,2.91,61.1-33.71,1.6-.39-8.16,23.7-1.13Z"/>
          <path class="cls-8" d="m434.82,884.6l.7-8.15,16.2,1.4,4.54-52.71,9.98.86-4.54,52.7,16.29,1.41-.71,8.14-42.46-3.66Z"/>
          <path class="cls-8" d="m371.08,870.46l14.61-59.3,9.73,2.4-6.39,25.94,27.9,6.87,6.39-25.94,9.73,2.39-14.61,59.3-9.73-2.39,6.26-25.43-27.9-6.87-6.26,25.43-9.73-2.4Z"/>
          <path class="cls-8" d="m346.61,852.54l6.85-16.57-19.49-8.07,3.13-7.54,19.49,8.06,7.15-17.29-21.92-9.07,3.12-7.55,31.18,12.91-23.38,56.51-31.18-12.9,3.13-7.55,21.92,9.08Z"/>
          <path class="cls-8" d="m309.02,774.33l-.35,28.18,6.58,3.9,12.45-21.02,8.62,5.1-31.12,52.55-18.15-10.75c-4.03-2.38-7.03-5.12-8.99-8.19-1.96-3.07-2.93-6.2-2.92-9.39.02-3.19.89-6.24,2.62-9.17,2.03-3.43,4.87-5.95,8.52-7.57,3.65-1.61,7.84-1.71,12.57-.26l-.11-29.48,10.29,6.09Zm2.15,38.96l-9.52-5.64c-3.23-1.91-6.13-2.54-8.73-1.9-2.59.65-4.7,2.33-6.31,5.05-1.61,2.72-2.07,5.33-1.36,7.82.7,2.5,2.69,4.71,5.97,6.65l9.52,5.64,10.43-17.62Z"/>
          <path class="cls-8" d="m278.68,762.68l-16.21-12.79,5-6.35,24.08,18.99-37.82,47.96-7.87-6.2,32.81-41.61Z"/>
          <path class="cls-8" d="m228.67,722.15l17.65,18.51,12.06-5.43,7.22,7.57-59.36,26.38-8-8.39,29.16-58.05,7.28,7.63-6,11.79Zm-3.97,7.68l-13.69,26.78,27.45-12.35-13.76-14.43Z"/>
          <path class="cls-8" d="m195.87,655.87l5.55,8.34-21.29,50.35,37.98-25.25,5.55,8.34-50.93,33.87-5.55-8.34,21.21-50.3-37.9,25.21-5.54-8.34,50.93-33.87Z"/>
          <path class="cls-8" d="m123.79,636.23c.32-5.48,2.08-10.37,5.28-14.68,3.2-4.31,7.65-7.71,13.34-10.19,5.69-2.49,11.16-3.43,16.42-2.82,5.25.61,9.98,2.67,14.16,6.18s7.58,8.24,10.19,14.2l7.99,18.28-55.96,24.47-7.99-18.28c-2.61-5.96-3.75-11.67-3.43-17.16Zm40-16.77c-5.07-1.94-10.83-1.51-17.26,1.31-6.49,2.84-10.81,6.8-12.93,11.89-2.13,5.09-1.76,10.9,1.11,17.45l3.98,9.1,40.98-17.92-3.98-9.1c-2.86-6.54-6.83-10.79-11.9-12.73Z"/>
          <path class="cls-8" d="m164.84,584.14c-.58,3.54-1.92,6.54-4.01,9-2.09,2.47-4.84,4.13-8.25,5l-2.65-10.39c2.5-.88,4.34-2.42,5.53-4.63,1.19-2.21,1.38-4.93.55-8.17-.85-3.34-2.33-5.75-4.42-7.22-2.09-1.46-4.42-1.87-6.97-1.22-1.98.51-3.46,1.51-4.41,2.98s-1.55,3.17-1.79,5.08c-.24,1.9-.37,4.49-.38,7.75-.04,4.13-.28,7.52-.71,10.21-.44,2.68-1.54,5.15-3.33,7.42-1.78,2.27-4.52,3.87-8.21,4.81-3.41.87-6.6.78-9.59-.27-2.99-1.06-5.55-2.94-7.7-5.66-2.14-2.72-3.72-6.09-4.75-10.12-1.46-5.74-1.22-10.8.71-15.2,1.93-4.39,5.35-7.42,10.24-9.09l2.73,10.73c-2.11.72-3.7,2.21-4.76,4.48-1.05,2.26-1.19,4.93-.41,7.99.71,2.78,2,4.88,3.86,6.27,1.87,1.4,4.14,1.76,6.8,1.08,1.82-.46,3.17-1.39,4.05-2.8.88-1.4,1.45-3.04,1.69-4.91.25-1.88.39-4.4.43-7.55.09-4.19.35-7.65.8-10.4.45-2.74,1.58-5.26,3.38-7.57,1.8-2.3,4.58-3.93,8.33-4.88,3.01-.77,6.05-.68,9.13.25,3.08.94,5.82,2.75,8.23,5.44,2.4,2.68,4.14,6.12,5.21,10.32,1.01,3.98,1.23,7.73.64,11.26Z"/>
          <path class="cls-8" d="m133.89,493.47c-1.04,1.71-2.43,3.08-4.16,4.09-1.74,1.01-3.66,1.5-5.77,1.49-3.22-.03-5.94-1.16-8.14-3.4-2.21-2.25-3.3-4.95-3.27-8.11.03-3.28,1.16-6.02,3.41-8.23,2.25-2.21,4.98-3.3,8.2-3.27,3.22.02,5.92,1.16,8.1,3.41s3.25,5.01,3.23,8.29c-.02,2.11-.55,4.02-1.59,5.74Z"/>
          <path class="cls-8" d="m119.37,342.42l58.37,17.96-2.95,9.58-39.98-12.31,34.5,30.11-2.04,6.64-45.48,5.58,39.98,12.3-2.95,9.58-58.37-17.97,3.18-10.33,52.08-6.41-39.49-34.5,3.15-10.24Z"/>
          <path class="cls-8" d="m188.61,313.46l-12.1,22.53,8.91,9.78-4.95,9.21-43.51-48.22,5.49-10.22,64.23,9.68-4.99,9.29-13.08-2.04Zm-8.53-1.39l-29.7-4.69,20.26,22.26,9.44-17.57Z"/>
          <path class="cls-8" d="m188.29,236.47c4.99-2.3,10.13-3.05,15.44-2.26,5.3.79,10.4,3.12,15.27,6.96,4.88,3.85,8.28,8.23,10.22,13.15,1.94,4.92,2.35,10.06,1.22,15.4-1.12,5.35-3.69,10.57-7.72,15.67l-12.35,15.67-47.95-37.82,12.35-15.66c4.03-5.11,8.53-8.81,13.51-11.11Zm33.64,27.37c-.68-5.38-3.77-10.26-9.3-14.61-5.56-4.39-11.09-6.32-16.57-5.8-5.49.52-10.44,3.59-14.87,9.21l-6.15,7.79,35.12,27.7,6.15-7.8c4.43-5.61,6.3-11.11,5.62-16.5Z"/>
          <path class="cls-8" d="m219.39,209.79l12.22,13.12,15.43-14.37,5.57,5.98-15.43,14.38,12.76,13.69,17.36-16.18,5.57,5.98-24.69,23-41.68-44.75,24.69-23,5.57,5.98-17.36,16.17Z"/>
          <path class="cls-8" d="m272.25,157.46l34.04,50.7-8.32,5.59-34.04-50.71,8.32-5.58Z"/>
          <path class="cls-8" d="m359.51,178.93l-8.92,4.56-47.59-26.91,20.74,40.62-8.92,4.56-27.82-54.47,8.92-4.56,47.55,26.84-20.7-40.54,8.92-4.56,27.81,54.47Z"/>
          <path class="cls-8" d="m437.5,156.78l-9.76,2.28-39.75-37.52,10.41,44.41-9.76,2.28-13.96-59.54,9.76-2.29,39.74,37.44-10.39-44.32,9.76-2.29,13.96,59.55Z"/>
          <path class="cls-8" d="m453.77,102.27l1.36,17.87,21.03-1.59.62,8.15-21.03,1.6,1.42,18.67,23.66-1.79.62,8.15-33.65,2.55-4.62-60.98,33.64-2.55.62,8.15-23.66,1.8Z"/>
          <path class="cls-8" d="m533.82,94.49l-.47,8.16-16.23-.94-3.06,52.81-10-.58,3.06-52.81-16.32-.95.47-8.16,42.55,2.47Z"/>
          <path class="cls-8" d="m597.96,106.84l-12.95,59.68-9.79-2.12,5.66-26.11-28.08-6.09-5.66,26.11-9.79-2.12,12.95-59.68,9.79,2.12-5.55,25.59,28.08,6.09,5.55-25.59,9.79,2.13Z"/>
          <path class="cls-8" d="m622.9,124.07l-6.39,16.75,19.7,7.51-2.91,7.64-19.71-7.52-6.67,17.49,22.17,8.45-2.91,7.63-31.53-12.02,21.79-57.15,31.53,12.02-2.91,7.64-22.17-8.45Z"/>
          <path class="cls-8" d="m662.73,201.22l-.44-28.19-6.68-3.71-11.86,21.36-8.76-4.86,29.64-53.4,18.44,10.24c4.1,2.27,7.17,4.92,9.22,7.93,2.04,3.02,3.1,6.12,3.18,9.3.07,3.2-.72,6.27-2.37,9.24-1.93,3.49-4.7,6.09-8.3,7.81-3.6,1.72-7.79,1.93-12.55.62l.93,29.46-10.45-5.8Zm-3.24-38.89l9.68,5.37c3.28,1.82,6.2,2.37,8.78,1.66,2.57-.71,4.63-2.45,6.17-5.22,1.53-2.77,1.91-5.39,1.14-7.86-.77-2.47-2.82-4.63-6.15-6.48l-9.68-5.37-9.94,17.9Z"/>
          <path class="cls-8" d="m693.31,211.95l16.57,12.32-4.82,6.49-24.61-18.3,36.44-49.01,8.04,5.98-31.62,42.52Z"/>
          <path class="cls-8" d="m744.52,251.13l-18.16-18-11.9,5.77-7.43-7.37,58.6-28.03,8.24,8.17-27.52,58.84-7.49-7.42,5.66-11.96Zm3.76-7.78l12.92-27.15-27.09,13.11,14.17,14.04Z"/>
          <path class="cls-8" d="m779.14,316.44l-5.78-8.19,19.88-50.92-37.26,26.3-5.78-8.19,49.97-35.26,5.77,8.18-19.81,50.87,37.19-26.24,5.78,8.19-49.97,35.26Z"/>
          <path class="cls-8" d="m851.74,334.08c-.17,5.49-1.79,10.43-4.87,14.82-3.08,4.4-7.43,7.91-13.04,10.56-5.62,2.65-11.06,3.74-16.33,3.27-5.27-.46-10.05-2.39-14.33-5.78-4.28-3.39-7.81-8.03-10.58-13.9l-8.5-18.05,55.25-26.03,8.5,18.05c2.77,5.88,4.07,11.57,3.91,17.05Zm-39.51,17.88c5.12,1.8,10.86,1.2,17.22-1.8,6.42-3.02,10.61-7.1,12.59-12.24s1.45-10.95-1.59-17.41l-4.23-8.98-40.46,19.05,4.23,8.98c3.05,6.47,7.13,10.59,12.25,12.4Z"/>
          <path class="cls-8" d="m812.15,387.25c.48-3.55,1.73-6.58,3.75-9.11,2.02-2.53,4.72-4.27,8.1-5.23l2.94,10.31c-2.47.94-4.27,2.54-5.4,4.78-1.13,2.25-1.23,4.97-.32,8.18.95,3.32,2.49,5.69,4.63,7.08,2.14,1.4,4.47,1.74,7.01,1.02,1.97-.56,3.41-1.6,4.32-3.11.91-1.51,1.46-3.22,1.65-5.13.19-1.91.24-4.5.16-7.76-.08-4.12.06-7.53.42-10.22.36-2.69,1.4-5.19,3.11-7.51s4.4-4,8.07-5.04c3.38-.96,6.58-.96,9.6,0,3.02.97,5.63,2.78,7.85,5.44s3.9,5.98,5.04,9.99c1.62,5.69,1.53,10.76-.28,15.2-1.81,4.45-5.14,7.57-9.98,9.38l-3.03-10.65c2.09-.78,3.64-2.32,4.63-4.61.99-2.3,1.05-4.96.19-8.01-.79-2.76-2.14-4.82-4.04-6.16-1.9-1.35-4.18-1.64-6.83-.88-1.8.51-3.13,1.48-3.97,2.91-.84,1.43-1.36,3.09-1.55,4.97-.2,1.88-.27,4.4-.22,7.56.03,4.19-.13,7.67-.5,10.42-.37,2.76-1.43,5.31-3.16,7.66-1.74,2.36-4.46,4.06-8.18,5.12-2.98.85-6.03.85-9.14,0-3.11-.84-5.9-2.58-8.38-5.19-2.48-2.62-4.32-6.01-5.51-10.17-1.12-3.95-1.44-7.69-.96-11.24Z"/>
          <path class="cls-8" d="m845.65,477.1c.99-1.75,2.34-3.15,4.05-4.21,1.71-1.06,3.61-1.61,5.72-1.65,3.22-.06,5.96.99,8.24,3.18,2.27,2.18,3.43,4.86,3.49,8.02.07,3.28-.99,6.05-3.18,8.32-2.18,2.27-4.88,3.44-8.1,3.5-3.22.07-5.95-1-8.19-3.18-2.24-2.19-3.39-4.91-3.46-8.2-.04-2.11.43-4.04,1.43-5.78Z"/>
        </g>
      </g>
    </g>
  </g>
</svg>