<?xml version="1.0" encoding="UTF-8"?>
<svg id="Layer_2" data-name="Layer 2" xmlns="http://www.w3.org/2000/svg" viewBox="0 0 278.7 320.39">
  <defs>
    <style>
      .cls-1, .cls-2 {
        fill: #fff;
      }

      .cls-3 {
        fill: #133f26;
      }

      .cls-4 {
        fill: #192a43;
      }

      .cls-5 {
        fill: #567458;
      }

      .cls-6 {
        opacity: .2;
      }

      .cls-7 {
        fill: none;
        stroke: #133f26;
        stroke-linecap: round;
        stroke-linejoin: round;
        stroke-width: 7px;
      }

      .cls-2 {
        opacity: .35;
      }
    </style>
  </defs>
  <g id="Layer_1-2" data-name="Layer 1">
    <g>
      <g>
        <path class="cls-1" d="M260.85,147.03c11.21,41.12,11.74,80.75-.41,118.59-39.74,4.2-63.33-7.08-70.58-11.3-1.63-.95-3.56-1.22-5.39-.77-106.94,26.18-152.61-31.96-160.23-37.24-7.7-5.33-8.29,.59-17.75-8.58-9.48-9.18,11.53-69.83,11.53-69.83L44.21,45.17c1.41-5,4.92-9.14,9.62-11.34L116.88,4.15c2.92-1.38,6.4-.51,8.34,2.05l19.44,25.67c3.73,5.43,3.16,11.89-.79,17.17-6.84,9.13-18.83,23.39-26.04,23.67-4.8,.18-14.89-11.29-14.89-11.29-2.63,5.73-10.79,7.13-16.1,7.4l.02,.53,3.85,94.54,.45,.2c2.51-4.62,6.17-8.53,10.8-11.09,6.36-3.52,13.93-5.39,20.3-6.37,11.02-1.69,22.35-.42,32.5,4.19,5.66,2.57,10.23,5.75,13.9,9.12l.16-.18s39.05-52.97,92.02-12.72Z"/>
        <g class="cls-6">
          <path class="cls-4" d="M101.6,18.18l-58.58,27.57,.03-.1c1.41-4.99,4.92-9.13,9.63-11.34L115.72,4.63c2.92-1.37,6.4-.51,8.34,2.05l19.44,25.67c3.73,5.43,3.17,11.89-.79,17.17-5.27,7.02-13.6,17.11-20.44,21.49,2.34-2.77,4.5-5.53,6.31-7.94,3.96-5.28,4.52-11.74,.8-17.17l-19.45-25.67c-1.94-2.56-5.42-3.42-8.33-2.05Z"/>
          <path class="cls-4" d="M153.62,151.3c5.54,2.52,10.05,5.63,13.68,8.92,16.85,11.38,14.16,25.22,14.16,25.22l-6.58-.53c-8.62-.7-13.26-8.14-19.55-14.07-4.48-4.22-9.35-8.47-12.33-9.83-10.15-4.6-24.98-2.04-36-.34-6.37,.98-20.27,15.1-26.62,18.63-4.64,2.55-4.32-.48-4.48-1.17l-.45-.2-1.51-108.85c4.47-.23,6.2,.14,12.25-.14l3.38,95.45,.46,.19c2.5-4.61,6.17-8.53,10.79-11.09,6.36-3.51,13.94-5.38,20.3-6.36,11.02-1.69,22.35-.42,32.51,4.19Z"/>
          <path class="cls-4" d="M261.04,147.51c4.69,17.18,7.5,34.11,8.31,50.75-.46-2.79-2.45-13.85-3.33-17.05-31.13-50.73-80.39-33.83-96.42-21.73,5.05-6.32,42.25-49.34,91.44-11.97Z"/>
        </g>
        <path class="cls-1" d="M168.26,159.48c-.39,.49-.58,.76-.58,.76l-.16,.18c-.07-.06-.14-.13-.21-.19,.32-.25,.63-.49,.96-.75Z"/>
        <g>
          <path class="cls-7" d="M81.55,68.81s16.87,1.33,20.86-7.4c0,0,10.09,11.48,14.89,11.29,7.2-.28,19.2-14.54,26.04-23.67,3.95-5.27,4.52-11.73,.79-17.16L124.68,6.2c-1.95-2.57-5.43-3.43-8.34-2.05l-63.05,29.67c-4.7,2.21-8.21,6.35-9.62,11.35l-26.18,92.73S-3.52,198.55,5.95,207.73c9.47,9.17,10.06,3.25,17.75,8.58,7.62,5.28,53.29,63.42,160.23,37.24,1.84-.45,3.77-.18,5.4,.77,7.24,4.22,30.84,15.5,70.58,11.3"/>
          <line class="cls-7" x1="86.33" y1="69.35" x2="90.19" y2="163.89"/>
          <path class="cls-7" d="M182.8,184.41s-4.13-22.49-28.56-33.59c-10.15-4.61-21.49-5.88-32.51-4.19-6.36,.98-13.94,2.84-20.3,6.36-5.69,3.15-9.93,8.35-12.34,14.39-1.41,3.55-4.08,8.78-8.28,11.5"/>
          <path class="cls-7" d="M168.3,159.75s39.06-52.96,92.02-12.72"/>
          <path class="cls-7" d="M58.78,206.95s9.71,14.31,28.69,23.23"/>
          <path class="cls-7" d="M233.48,207.63s8.68,13.41,27.22,13.02"/>
        </g>
        <g>
          <g>
            <path class="cls-3" d="M192.26,40.95l17.65,18.92s-8.82-.1-17.65-.19c-8.67-.1-17.34-.2-17.76-.2l17.76-18.52Z"/>
            <path class="cls-3" d="M257.55,11.58l17.65,18.91s-8.82-.19-17.65-.34c-8.65-.15-17.32-.25-17.74-.07l17.74-18.5Z"/>
          </g>
          <g>
            <path class="cls-7" d="M174.5,59.47l17.76-18.52,17.65,18.92s-8.82-.1-17.65-.19c-8.67-.1-17.34-.2-17.76-.2Z"/>
            <line class="cls-7" x1="192.26" y1="121.63" x2="192.26" y2="59.67"/>
            <path class="cls-7" d="M239.82,30.08l17.74-18.5,17.65,18.91s-8.82-.19-17.65-.34c-8.65-.15-17.32-.25-17.74-.07l-.02,.02"/>
            <line class="cls-7" x1="257.55" y1="107.62" x2="257.55" y2="30.15"/>
          </g>
        </g>
      </g>
      <g>
        <g>
          <path class="cls-5" d="M150.18,207.06c30.32,0,54.91,24.59,54.91,54.91s-24.59,54.92-54.91,54.92-54.91-24.59-54.91-54.92,24.58-54.91,54.91-54.91Zm28.47,61.78v-13.73h-21.6v-21.59h-13.72v21.59h-21.6v13.73h21.6v21.59h13.72v-21.59h21.6Z"/>
          <path class="cls-2" d="M141.08,207.62c-12.91,2.08-24.03,8.5-32.12,17.53,6.73-4.87,14.68-8.29,23.45-9.71,29.94-4.83,58.12,15.53,62.95,45.47,2.75,17.05-2.66,33.51-13.35,45.43,16.25-11.78,25.43-32.08,22.01-53.25-4.83-29.94-33.02-50.3-62.95-45.47Z"/>
          <polygon class="cls-1" points="178.65 255.11 178.65 268.84 157.04 268.84 157.04 290.44 143.32 290.44 143.32 268.84 121.72 268.84 121.72 255.11 143.32 255.11 143.32 233.51 157.04 233.51 157.04 255.11 178.65 255.11"/>
        </g>
        <path class="cls-7" d="M205.09,261.97c0,30.33-24.59,54.92-54.91,54.92s-54.91-24.59-54.91-54.92,24.58-54.91,54.91-54.91,54.91,24.59,54.91,54.91Z"/>
      </g>
    </g>
  </g>
</svg>