<?xml version="1.0" encoding="UTF-8"?>
<svg id="Layer_2" data-name="Layer 2" xmlns="http://www.w3.org/2000/svg" viewBox="0 0 573.23 513.73">
  <defs>
    <style>
      .cls-1 {
        stroke-dasharray: 0 0 11.3 22.6;
      }

      .cls-1, .cls-2, .cls-3, .cls-4, .cls-5, .cls-6, .cls-7, .cls-8, .cls-9 {
        fill: none;
        stroke-linecap: round;
        stroke-linejoin: round;
      }

      .cls-1, .cls-2, .cls-3, .cls-4, .cls-6 {
        stroke-width: 5px;
      }

      .cls-1, .cls-2, .cls-3, .cls-4, .cls-6, .cls-7 {
        stroke: #567458;
      }

      .cls-10 {
        fill: #fff;
      }

      .cls-11 {
        fill: #d1d9d2;
      }

      .cls-2 {
        stroke-dasharray: 0 0 10.45 20.9;
      }

      .cls-4 {
        stroke-dasharray: 0 0 12.23 24.45;
      }

      .cls-5, .cls-7 {
        stroke-width: 4px;
      }

      .cls-5, .cls-8 {
        stroke: #133f26;
      }

      .cls-6 {
        stroke-dasharray: 0 0 10.88 21.77;
      }

      .cls-8, .cls-9 {
        stroke-width: 8px;
      }

      .cls-9 {
        stroke: #d1d9d2;
      }
    </style>
  </defs>
  <g id="Layer_1-2" data-name="Layer 1">
    <g>
      <g>
        <g>
          <path class="cls-11" d="M507.13,448.22c7.6-4.78,15.26-9.61,21.67-15.9,3.28-3.22,6.35-7.17,6.54-11.77,.2-4.73-2.69-8.99-5.61-12.71-3.71-4.73-8.56-9.64-14.56-9.39-5.27,.21-9.42,4.34-13,8.21-4.04,4.34-8.08,8.68-12.11,13.03-5.55,5.96-11.09,11.92-16.63,17.88-13.64,14.66-27.53,29.7-35.58,48.02l.83,.37c13.22-6.53,26.52-12.9,39.38-20.12,6.44-3.61,12.75-7.43,19.03-11.32,3.36-2.08,6.71-4.19,10.06-6.3Z"/>
          <path class="cls-11" d="M439.95,410.68c-4.75,14.12-9.57,28.58-9.41,43.47h.68c6.96-8.48,14.04-16.88,20.54-25.71,3.26-4.43,6.37-8.95,9.44-13.51,1.64-2.44,3.26-4.9,4.89-7.35,3.7-5.56,7.41-11.19,9.82-17.42,1.24-3.19,2.11-6.81,.83-9.99-1.31-3.27-4.58-5.27-7.69-6.9l-.35-.18c-3.9-1.98-8.53-3.68-12.4-1.72-3.5,1.76-5.06,5.83-6.31,9.55-1.4,4.18-2.81,8.36-4.22,12.55-1.93,5.74-3.87,11.49-5.8,17.23Z"/>
        </g>
        <g>
          <path class="cls-8" d="M438.67,485.95c13.22-6.53,26.52-12.9,39.38-20.12,6.44-3.61,12.75-7.43,19.03-11.32,3.36-2.08,6.71-4.19,10.06-6.3,7.6-4.78,15.26-9.61,21.67-15.9,3.28-3.22,6.35-7.17,6.54-11.77,.2-4.73-2.69-8.99-5.61-12.71-3.71-4.73-8.56-9.64-14.56-9.39-5.27,.21-9.42,4.34-13,8.21-4.04,4.34-8.08,8.68-12.11,13.03-5.55,5.96-11.09,11.92-16.63,17.88-13.64,14.66-27.53,29.7-35.58,48.02l-.23,.53"/>
          <path class="cls-5" d="M524.32,433.32c-1.42-3.68-4.01-6.9-7.29-9.09"/>
          <path class="cls-5" d="M495.46,426.1c-1.8-2.14-3.6-4.28-5.41-6.42-.05-.07-.11-.13-.17-.2"/>
          <path class="cls-5" d="M497.9,455.41c-.28-.29-.57-.59-.83-.89-2.33-2.52-4.43-5.23-6.27-8.12"/>
          <path class="cls-5" d="M467.95,455.01c-1.42-1.71-2.83-3.43-4.25-5.14"/>
          <path class="cls-5" d="M461.5,473.54c-1.3-.94-2.59-1.88-3.88-2.82"/>
          <path class="cls-8" d="M431.22,454.15c6.96-8.48,14.04-16.88,20.54-25.7,3.26-4.43,6.37-8.95,9.44-13.51,1.64-2.44,3.26-4.9,4.89-7.35,3.7-5.56,7.41-11.19,9.82-17.42,1.24-3.19,2.11-6.81,.83-9.99-1.31-3.27-4.58-5.27-7.69-6.9l-.35-.18c-3.9-1.98-8.53-3.68-12.4-1.72-3.5,1.76-5.06,5.83-6.31,9.55-1.4,4.18-2.81,8.36-4.22,12.55-1.93,5.74-3.87,11.49-5.8,17.23-4.75,14.12-9.57,28.58-9.41,43.47,0,.14,0,.28,0,.43"/>
          <path class="cls-5" d="M473.19,392.21c-2.09-2.06-4.83-3.45-7.73-3.93"/>
          <path class="cls-5" d="M451.4,396.16c-1.88-.9-3.76-1.8-5.64-2.7-.06-.03-.11-.05-.17-.08"/>
          <path class="cls-5" d="M462.04,415.28c-.28-.11-.56-.22-.84-.35-2.35-.98-4.6-2.19-6.73-3.59"/>
          <path class="cls-5" d="M441.6,424.18c-1.49-.73-2.98-1.45-4.46-2.19"/>
          <path class="cls-5" d="M442.9,438.73c-1.17-.25-2.32-.48-3.49-.73"/>
          <path class="cls-8" d="M539.64,373.59c1.12,13.7-1.18,21.93-11.77,30.69"/>
          <path class="cls-8" d="M569.23,384.05c-2.91-1.23-6.33-.14-8.91,1.69-2.58,1.82-4.61,4.31-7.04,6.32-4.93,4.09-11.52,6.12-17.89,5.5"/>
          <path class="cls-8" d="M535.36,397.97c5.96-.42,11.98,.04,17.82,1.37,2.52,.58,5.23,1.48,6.62,3.67"/>
          <path class="cls-8" d="M560.07,414.71c-5.99-8.8-17.43-13.54-27.88-11.53"/>
          <path class="cls-8" d="M537.71,393.09c3.17-2.71,6.34-5.42,9.05-8.58,2.7-3.16,4.93-6.81,5.91-10.86"/>
          <path class="cls-8" d="M468.68,373.18s0-.06,.02-.09c1.46-6.99,3.31-14.58,8.95-18.95,4.6-3.57,10.96-4.34,15.33-8.19"/>
          <path class="cls-8" d="M480.7,350.57c2.13-6.11,4.25-12.21,6.38-18.33"/>
          <path class="cls-8" d="M475.92,353.58c.22-8.12-.29-16.26-1.5-24.29"/>
          <path class="cls-8" d="M474.05,354.67c.32-7.43-3.25-14.92-9.23-19.35"/>
          <path class="cls-8" d="M470.64,367.33c4.42-2.15,9.74-2.37,14.33-.62"/>
        </g>
      </g>
      <g>
        <g>
          <path class="cls-11" d="M356.58,421.44v73.23c0,8.32-5.92,15.06-13.23,15.06H204.9c-5.52,0-9.98-5.09-9.98-11.36v-76.93h161.66Z"/>
          <polygon class="cls-10" points="356.58 316.62 356.58 421.44 355.85 421.44 195.45 421.44 194.92 421.44 194.92 316.62 195.45 316.62 356.05 316.62 356.58 316.62"/>
          <polygon class="cls-11" points="356.58 243.77 356.58 316.62 356.05 316.62 195.45 316.62 194.92 316.62 194.92 243.77 356.58 243.77"/>
          <path class="cls-10" d="M356.58,227.5c3.94,0,7.15,3.64,7.15,8.13,0,2.24-.8,4.28-2.1,5.75-1.3,1.47-3.08,2.39-5.05,2.39H194.92c-3.94,0-7.15-3.64-7.15-8.13,0-2.24,.8-4.28,2.1-5.76,1.3-1.47,3.08-2.38,5.05-2.38h161.66Z"/>
          <path class="cls-10" d="M360.81,185.2v35.58c0,3.7-2.64,6.71-5.89,6.71H196.58c-3.25,0-5.89-3.01-5.89-6.71v-35.58c0-3.7,2.64-6.71,5.89-6.71h158.34c3.25,0,5.89,3.01,5.89,6.71Z"/>
        </g>
        <g>
          <path class="cls-8" d="M196.58,227.5c-3.25,0-5.89-3.01-5.89-6.71v-35.58c0-3.7,2.64-6.71,5.89-6.71h158.34c3.25,0,5.89,3.01,5.89,6.71v35.58c0,3.7-2.64,6.71-5.89,6.71"/>
          <path class="cls-8" d="M356.58,243.77H194.92c-3.94,0-7.15-3.64-7.15-8.13,0-2.24,.8-4.28,2.1-5.76,1.3-1.47,3.08-2.38,5.05-2.38h161.66c3.94,0,7.15,3.64,7.15,8.13,0,2.24-.8,4.28-2.1,5.75-1.3,1.47-3.08,2.39-5.05,2.39Z"/>
          <path class="cls-8" d="M194.92,243.77v254.6c0,6.27,4.47,11.36,9.98,11.36h138.45c7.31,0,13.23-6.74,13.23-15.06V243.77"/>
          <line class="cls-8" x1="356.05" y1="316.62" x2="195.45" y2="316.62"/>
          <line class="cls-8" x1="355.85" y1="421.44" x2="195.45" y2="421.44"/>
        </g>
      </g>
      <g>
        <path class="cls-3" d="M519.9,256.48c.5,1.93,.98,3.87,1.44,5.82"/>
        <path class="cls-6" d="M525.4,283.67c1.85,12.56,2.81,25.43,2.81,38.54,0,5.28-.16,10.53-.46,15.73"/>
        <path class="cls-3" d="M526.88,348.8c-.2,1.99-.42,3.98-.67,5.96"/>
      </g>
      <g>
        <path class="cls-3" d="M369.3,94.93c1.85,.77,3.69,1.55,5.51,2.37"/>
        <path class="cls-4" d="M396.59,108.4c17.63,10.19,33.89,22.67,48.42,37.05"/>
        <path class="cls-3" d="M453.49,154.28c1.35,1.48,2.68,2.97,3.99,4.48"/>
      </g>
      <g>
        <path class="cls-3" d="M114.69,144.02c1.45-1.38,2.91-2.75,4.39-4.09"/>
        <path class="cls-1" d="M136.47,125.52c15.04-11.31,31.4-20.82,48.77-28.23"/>
        <path class="cls-3" d="M195.75,93.11c1.87-.69,3.76-1.36,5.66-2"/>
      </g>
      <g>
        <path class="cls-3" d="M36.84,363.15c-.43-1.97-.81-3.93-1.16-5.89"/>
        <path class="cls-2" d="M33.4,336.5c-.89-19.74,1.79-37.66,5.11-51.84"/>
        <path class="cls-3" d="M41.12,274.55c.58-2.04,1.15-3.96,1.71-5.75"/>
      </g>
      <g>
        <g>
          <path class="cls-10" d="M65.92,419.55l.05-.51-2.48-.24-.33,.32c-.37-.38-.76-.75-1.16-1.1-6.17-5.42-15.33-7.31-23.1-4.57-8.52,3-14.87,11.4-15.41,20.41-.56,9.02,4.71,18.13,12.8,22.15,2.83,1.4,6.43,2.81,6.82,5.95,1.23-2.1,3.95-2.89,6.37-2.69,2.43,.21,4.71,1.18,7.06,1.82,7.56,2.03,16.14,.18,21.94-5.07,5.81-5.25,8.51-13.81,6.45-21.35-1.91-6.97-11.85-14.39-18.99-15.14Z"/>
          <path class="cls-11" d="M63.49,418.81l2.48,.24c7.31,.68,14.83,1,21.54-1.85,2.66-1.13,5.21-2.84,6.59-5.39,1.37-2.54,1.26-6.03-.84-8.02,7.33,1.29,15.09,2.36,22.06-.24,2.4-.9,4.69-2.27,6.25-4.31,1.55-2.04,2.27-4.82,1.43-7.24-.84-2.42-3.43-4.25-5.95-3.8,7.31-1.57,13.96-5.99,18.22-12.13,1.03-1.47,1.94-3.09,2.22-4.86,.27-1.78-.17-3.75-1.52-4.94-1.33-1.19-3.28-1.43-5.05-1.22-5.15,.59-9.37,4.25-13.21,7.73,1.52-2.39,3.1-4.89,3.37-7.71,.27-2.83-1.25-6.04-4.01-6.69-1.96-.48-4.05,.46-5.48,1.89-1.44,1.43-2.33,3.3-3.21,5.12l-1.18-.13c-.38,3.19-2.72,5.97-5.51,7.63-2.46,1.47-5.26,2.22-8.08,2.82,1.18,.07,2.36,.69,3.07,1.66,1.08,1.46,1.18,3.51,.54,5.22-.64,1.71-1.9,3.12-3.35,4.25-2.85,2.23-6.45,3.47-10.07,3.48,2.08,.14,3.66,2.16,3.93,4.23s-.49,4.12-1.42,5.98c-4.5,8.96-13.69,15.38-23.64,16.55l-.45,.24c.04,.1,.1,.19,.15,.28l-.39,.44c.4,.35,.79,.72,1.16,1.1l.33-.32Z"/>
          <path class="cls-11" d="M77.57,371.33c-1.04-.96-2.12-1.9-3.41-2.49-1.47-.67-3.28-.83-4.67,0-1.81,1.07-2.38,3.39-2.61,5.47-.65,5.78,.08,11.72,2.11,17.18l-.31,.95c-1.2-.9-2.46-1.77-3.89-2.24-1.62-.54-3.55-.48-4.91,.57-1.53,1.19-1.97,3.29-2.15,5.21-.69,7.34,.9,14.88,4.51,21.33l.45-.24c9.96-1.16,19.15-7.59,23.64-16.55,.93-1.86,1.69-3.92,1.42-5.98s-1.85-4.09-3.93-4.23c3.62,0,7.22-1.25,10.07-3.48,1.44-1.13,2.71-2.54,3.35-4.25,.64-1.71,.54-3.76-.54-5.22-.72-.97-1.89-1.59-3.07-1.66-.6,.13-1.18,.25-1.78,.37,.55-.3,1.17-.41,1.78-.37,2.81-.6,5.61-1.36,8.08-2.82,2.79-1.66,5.13-4.43,5.51-7.63,.03-.21,.05-.43,.05-.65,.11-3.3-2.5-6.68-5.73-6.83,3.5-.11,6.88-2.3,8.36-5.48,.79-1.7,.95-3.98-.49-5.18-.96-.79-2.35-.84-3.53-.45-.44,.15-.85,.34-1.25,.58l-2.49-.6c.9-3.5,.95-7.21,.13-10.73-.43-1.86-1.36-3.9-3.21-4.37-1.71-.43-3.4,.71-4.65,1.95-3.97,3.95-6.13,9.64-5.79,15.23l-.38,.2c-.74-1.38-1.52-2.77-2.7-3.79-1.25-1.1-3.05-1.71-4.6-1.12-1.43,.55-2.32,1.95-2.94,3.36-1.59,3.61-1.94,7.68-1.63,11.62s1.28,7.79,2.24,11.63l-1.04,.7Z"/>
        </g>
        <g>
          <path class="cls-8" d="M102.12,346.64c.9-3.5,.95-7.21,.13-10.73-.43-1.86-1.36-3.9-3.21-4.37-1.71-.43-3.4,.71-4.65,1.95-3.97,3.95-6.13,9.64-5.79,15.23"/>
          <path class="cls-8" d="M88.37,349.18c-.04-.08-.09-.17-.14-.25-.74-1.38-1.52-2.77-2.7-3.79-1.25-1.1-3.05-1.71-4.6-1.12-1.43,.55-2.32,1.95-2.94,3.36-1.59,3.61-1.94,7.68-1.63,11.62s1.28,7.79,2.24,11.63"/>
          <path class="cls-8" d="M78.02,371.74c-.15-.13-.29-.28-.45-.41-1.04-.96-2.12-1.9-3.41-2.49-1.47-.67-3.28-.83-4.67,0-1.81,1.07-2.38,3.39-2.61,5.47-.65,5.78,.08,11.72,2.11,17.18"/>
          <path class="cls-8" d="M69.19,392.82c-.18-.13-.34-.26-.52-.39-1.2-.9-2.46-1.77-3.89-2.24-1.62-.54-3.55-.48-4.91,.57-1.53,1.19-1.97,3.29-2.15,5.21-.69,7.34,.9,14.88,4.51,21.33,.04,.1,.1,.19,.15,.28"/>
          <path class="cls-8" d="M93.62,375.7c1.18,.07,2.36,.69,3.07,1.66,1.08,1.46,1.18,3.51,.54,5.22-.64,1.71-1.9,3.12-3.35,4.25-2.85,2.23-6.45,3.47-10.07,3.48,2.08,.14,3.66,2.16,3.93,4.23s-.49,4.12-1.42,5.98c-4.5,8.96-13.69,15.38-23.64,16.55"/>
          <path class="cls-8" d="M93.62,375.7c-.6,.13-1.18,.25-1.78,.37,.55-.3,1.17-.41,1.78-.37Z"/>
          <path class="cls-8" d="M101,357.77c.18,0,.35-.01,.52,0,3.23,.15,5.83,3.52,5.73,6.83,0,.22-.02,.44-.05,.65-.38,3.19-2.72,5.97-5.51,7.63-2.46,1.47-5.26,2.22-8.08,2.82"/>
          <path class="cls-8" d="M102.72,348.58c.61-.47,1.23-.95,1.89-1.34,.4-.24,.81-.43,1.25-.58,1.18-.39,2.57-.34,3.53,.45,1.44,1.2,1.28,3.49,.49,5.18-1.49,3.18-4.86,5.37-8.36,5.48"/>
          <path class="cls-8" d="M108.38,365.38c.88-1.82,1.77-3.69,3.21-5.12,1.43-1.43,3.52-2.37,5.48-1.89,2.76,.66,4.27,3.86,4.01,6.69-.27,2.82-1.84,5.33-3.37,7.71,3.84-3.48,8.06-7.14,13.21-7.73,1.77-.2,3.72,.03,5.05,1.22,1.35,1.19,1.79,3.16,1.52,4.94-.28,1.77-1.19,3.39-2.22,4.86-4.26,6.13-10.91,10.55-18.22,12.13,2.52-.44,5.11,1.38,5.95,3.8,.84,2.42,.12,5.2-1.43,7.24-1.56,2.03-3.85,3.41-6.25,4.31-6.97,2.6-14.73,1.53-22.06,.24,2.1,1.99,2.21,5.48,.84,8.02-1.38,2.55-3.93,4.26-6.59,5.39-6.71,2.85-14.23,2.53-21.54,1.85l-2.48-.24"/>
          <path class="cls-8" d="M63.71,419.7c-.18-.19-.36-.39-.55-.57-.37-.38-.76-.75-1.16-1.1-6.17-5.42-15.33-7.31-23.1-4.57-8.52,3-14.87,11.4-15.41,20.41-.56,9.02,4.71,18.13,12.8,22.15,2.83,1.4,6.43,2.81,6.82,5.95,1.23-2.1,3.95-2.89,6.37-2.69,2.43,.21,4.71,1.18,7.06,1.82,7.56,2.03,16.14,.18,21.94-5.07,5.81-5.25,8.51-13.81,6.45-21.35-1.91-6.97-11.85-14.39-18.99-15.14-.6-.06-1.18-.09-1.74-.05"/>
          <path class="cls-8" d="M43.63,462.11c-.45,2.22-1.03,4.63-2.83,6.02-1.59,1.21-3.84,1.36-5.31,2.71-2.17,1.99-1.67,5.48-2.65,8.25-1.09,3.12-4.37,5.32-7.66,5.16"/>
        </g>
      </g>
      <g>
        <path class="cls-7" d="M89.69,248.64c-2.39-2.33-5.28-4.23-8.5-5.1s-6.81-.67-9.74,.94c-2.93,1.61-5.1,4.7-5.24,8.03"/>
        <g>
          <g>
            <g>
              <path class="cls-10" d="M57.39,159.92l.88-.13c3.76-5.56,9.24-7.9,14.85-9.84,.17-.05,.33-.12,.5-.17l.9,.11c8.53,1.33,16.31,5.99,22.38,12.11,6.07,6.13,10.55,13.67,14.17,21.5,3.8,8.26,6.74,17.03,7.44,26.09,.69,9.07-.98,18.48-5.8,26.18-4.74,7.6-12.3,13.17-20.6,16.53-7.54,3.05-15.96,4.39-23.88,2.55-7.34-1.7-13.87-6.05-19.14-11.43-7.46-7.64-12.52-17.36-15.82-27.51-2.99-9.21-4.59-18.99-3.53-28.6,1.07-9.63,4.97-19.1,11.84-25.93l.37-.56,.4-.04c4.61-.41,10.17-1.04,14.86-.88h0c.06,0,.11,0,.18,.01Z"/>
              <path class="cls-11" d="M73.12,149.95c-5.61,1.93-11.09,4.28-14.85,9.84l-.88,.13c-.07,0-.12,0-.18,0h0s.05-1.18,.05-1.18c-.55-1.09-1.07-2.18-1.55-3.27-.5-9.17,2.76-18.53,8.93-25.35,1.45-1.61,3.06-3.07,4.79-4.36,6.31-4.73,14.23-7.33,22.13-7.08-10.53,6.04-17.86,17.35-19.09,29.43l.65,1.86Z"/>
              <path class="cls-11" d="M55.71,155.46c.48,1.09,1,2.18,1.55,3.27l-.05,1.17c-4.7-.16-10.25,.47-14.86,.88v-.1c-5.57-3.64-11.96-6.84-18.51-7.99-6.54-1.13-13.21-1.38-19.84-1.62,6.59-5.86,15.33-9.26,24.15-9.4,.72-.01,1.43,0,2.16,.03,8.1,.35,16.06,3.41,22.29,8.6l.94-.33c.63,1.84,1.36,3.66,2.18,5.48Z"/>
              <path class="cls-11" d="M44.95,99.5l.53,.14c-.47,1.81-.83,3.65-1.09,5.5-.87,6.1-.66,12.35,.58,18.39-2.99-7.12-7.52-13.58-13.14-18.89l2.42-.89c.06-8.13-.42-16.25-1.47-24.3,3.91,6.76,7.97,13.46,12.17,20.05Z"/>
              <path class="cls-11" d="M47.71,132.67l-1.11,.43c-4.65-3.97-10.12-6.93-15.96-8.76l.38-1.2c-2.34-10.92-7.77-21.15-15.51-29.2,6.03,2.54,11.56,6.2,16.3,10.69,5.62,5.3,10.16,11.77,13.14,18.89,.65,3.13,1.56,6.2,2.75,9.15Z"/>
              <path class="cls-11" d="M44.96,123.52c-1.24-6.04-1.45-12.28-.58-18.39,.26-1.85,.62-3.69,1.09-5.5,1.83-7.26,5.18-14.12,9.79-20.02-1.4,9.17-.13,18.74,3.6,27.24l1.43,1.11c-3.84,4.52-6.66,9.94-8.19,15.66-1.06,4.03-1.49,8-1.37,11.91l-1.38,.14c-.88-.9-1.81-1.77-2.76-2.58l1.11-.43c-1.19-2.96-2.1-6.02-2.75-9.15Z"/>
              <path class="cls-11" d="M53.53,149.98l-.94,.33c-6.22-5.19-14.19-8.25-22.29-8.6l.03-1.08c-6.25-7.99-15.77-12.59-24.95-16.92,8.25-2.25,17.1-1.92,25.25,.63,5.84,1.83,11.31,4.79,15.96,8.76,.95,.81,1.88,1.68,2.76,2.58l1.38-.14c.16,4.89,1.15,9.7,2.79,14.44Z"/>
              <path class="cls-11" d="M76.69,96.98c-5.76,7.67-8.77,17.36-8.38,26.94l1.12,1.83c-1.73,1.29-3.34,2.75-4.79,4.36-6.17,6.82-9.43,16.17-8.93,25.35-.82-1.82-1.55-3.64-2.18-5.48-1.64-4.74-2.63-9.54-2.79-14.44-.12-3.91,.3-7.88,1.37-11.91,1.52-5.72,4.35-11.14,8.19-15.66,4.34-5.12,9.96-9.07,16.39-10.99Z"/>
            </g>
            <g>
              <path class="cls-8" d="M58.27,159.79c3.76-5.56,9.24-7.9,14.85-9.84,.17-.05,.33-.12,.5-.17"/>
              <path class="cls-8" d="M74.52,149.89c8.53,1.33,16.31,5.99,22.38,12.11,6.07,6.13,10.55,13.67,14.17,21.5,3.8,8.26,6.74,17.03,7.44,26.09,.69,9.07-.98,18.48-5.8,26.18-4.74,7.6-12.3,13.17-20.6,16.53-7.54,3.05-15.96,4.39-23.88,2.55-7.34-1.7-13.87-6.05-19.14-11.43-7.46-7.64-12.52-17.36-15.82-27.51-2.99-9.21-4.59-18.99-3.53-28.6,1.07-9.63,4.97-19.1,11.84-25.93"/>
              <path class="cls-8" d="M41.94,160.83l.4-.04c4.61-.41,10.17-1.04,14.86-.88h0c.06,0,.11,0,.18,.01,.26,0,.51,.02,.76,.03"/>
              <path class="cls-8" d="M55.95,158.05c-.12-.85-.19-1.72-.24-2.59-.5-9.17,2.76-18.53,8.93-25.35,1.45-1.61,3.06-3.07,4.79-4.36,6.31-4.73,14.23-7.33,22.13-7.08-10.53,6.04-17.86,17.35-19.09,29.43"/>
              <path class="cls-8" d="M57.26,158.74c-.55-1.09-1.07-2.18-1.55-3.27-.82-1.82-1.55-3.64-2.18-5.48-1.64-4.74-2.63-9.54-2.79-14.44-.12-3.91,.3-7.88,1.37-11.91,1.52-5.72,4.35-11.14,8.19-15.66,4.34-5.12,9.96-9.07,16.39-10.99-5.76,7.67-8.77,17.36-8.38,26.94"/>
              <path class="cls-8" d="M49.36,135.68c-.88-.9-1.81-1.77-2.76-2.58-4.65-3.97-10.12-6.93-15.96-8.76-8.15-2.55-17-2.88-25.25-.63,9.18,4.33,18.7,8.94,24.95,16.92"/>
              <path class="cls-8" d="M52.6,150.31c-6.22-5.19-14.19-8.25-22.29-8.6-.73-.04-1.44-.05-2.16-.03-8.82,.14-17.56,3.54-24.15,9.4,6.63,.24,13.29,.49,19.84,1.62,6.55,1.14,12.93,4.35,18.5,7.99"/>
              <path class="cls-8" d="M47.71,132.67c-1.19-2.96-2.1-6.02-2.75-9.15-1.24-6.04-1.45-12.28-.58-18.39,.26-1.85,.62-3.69,1.09-5.5,1.83-7.26,5.18-14.12,9.79-20.02-1.4,9.17-.13,18.74,3.6,27.24"/>
              <path class="cls-8" d="M46.83,128.66c-.53-1.74-1.15-3.46-1.87-5.14-2.99-7.12-7.52-13.58-13.14-18.89-4.74-4.49-10.27-8.15-16.3-10.69,7.74,8.05,13.17,18.28,15.51,29.2"/>
              <path class="cls-8" d="M44.95,99.5c-4.2-6.59-8.26-13.29-12.17-20.05,1.04,8.05,1.53,16.17,1.47,24.3"/>
            </g>
          </g>
          <path class="cls-5" d="M112.42,235.84c-3.35-2.15-7.32-3.94-11.23-3.15-3.83,.77-6.83,3.93-8.44,7.49-1.61,3.56-2.06,7.52-2.49,11.4"/>
          <path class="cls-5" d="M115.81,217.91c-3.62-2.31-8.73-.49-11.42,2.87-2.69,3.36-3.55,7.78-4.26,12.02-2.74-1.74-5.23-3.88-8.14-5.33s-6.42-2.15-9.39-.84c-3,1.33-4.84,4.41-5.99,7.48-1.15,3.07-1.84,6.36-3.52,9.18-2.27-2.44-4.65-4.85-7.55-6.49-2.9-1.64-6.41-2.47-9.61-1.55-3.21,.91-5.93,3.83-5.98,7.16"/>
          <path class="cls-5" d="M114.18,202.91c-.92,1.23-1.83,2.45-2.75,3.68-2.06,2.76-3.25,6.16-3.34,9.61-3.76-4.95-10.98-6.91-16.73-4.53-5.74,2.37-9.48,8.86-8.65,15.02-2.71-2.01-5.45-4.04-8.59-5.28-3.14-1.24-6.76-1.62-9.85-.28-2.71,1.17-4.76,3.55-6.11,6.18s-2.07,5.53-2.79,8.39c-2.58-1.62-5.17-3.24-7.75-4.86-1.28-.8-2.63-1.63-4.14-1.68-1.51-.06-3.17,.98-3.23,2.48"/>
          <path class="cls-5" d="M113.16,197.25c-3.39-4.07-9.99-4.97-14.35-1.96-4.75,3.27-6.06,9.59-6.99,15.28-2.41-2-4.86-4.01-7.67-5.4-2.81-1.39-6.05-2.13-9.11-1.45-3.52,.79-6.44,3.39-8.31,6.48-1.87,3.09-2.82,6.64-3.57,10.17-2.4-5.65-9.18-9.03-15.13-7.53s-10.34,7.67-9.8,13.78"/>
          <path class="cls-5" d="M108.76,179.19c-4.53,3.37-7.63,8.6-8.43,14.19-3.82-4.84-10.91-6.8-16.67-4.59-5.76,2.2-9.73,8.39-9.34,14.55-3.55-3.36-7.59-6.93-12.48-6.94-3.8-.01-7.35,2.26-9.64,5.29-2.29,3.03-3.49,6.75-4.29,10.46-2.46-2.17-5.03-4.39-8.16-5.36-3.13-.97-7.01-.35-8.89,2.34"/>
          <path class="cls-5" d="M102.61,173.19c-3.95-3.35-10.39-2.35-14.13,1.24-3.74,3.59-5.14,9.05-5.1,14.23-3.24-5.66-10.6-8.59-16.85-6.72-6.25,1.88-10.77,8.38-10.35,14.89-4.13-3.48-9.43-5.97-14.79-5.38s-10.47,5-10.54,10.4"/>
          <path class="cls-5" d="M95.72,161.7c-2.79,2.75-4.57,6.51-4.93,10.41-2.79-2.92-5.86-5.99-9.83-6.72-4.13-.76-8.43,1.31-11.16,4.51s-4.08,7.35-4.77,11.5c-2.27-1.96-4.58-3.95-7.26-5.3-2.68-1.36-5.82-2.04-8.72-1.26-3.43,.92-6.07,3.78-7.59,6.99-1.52,3.21-2.09,6.77-2.63,10.27-.97-1.66-1.99-3.39-3.63-4.4-1.63-1.01-4.05-1.03-5.24,.48"/>
          <path class="cls-5" d="M79.12,154.03l-.66-.54c-3.11,3.54-4.75,8.35-4.44,13.05-2.42-4.33-7.39-7.12-12.35-6.92"/>
          <path class="cls-5" d="M52.65,161.69c-2.93,3.71-4.62,8.37-4.76,13.09-1.12-1.7-2.27-3.44-3.87-4.71s-3.74-2.02-5.7-1.47"/>
        </g>
        <path class="cls-5" d="M90.79,250.43c-3.2-.25-6.05-1.99-8.9-3.46-2.85-1.47-6.09-2.73-9.2-1.95-3.47,.87-5.86,4.09-7.24,7.39"/>
      </g>
      <g>
        <g>
          <path class="cls-10" d="M441.56,207.56l-6.5,6.32,.93,.95c12.42,13.2,36.08,19.13,53.64,14.69,17.56-4.44,30.02-15.14,38.46-31.18,5.33-10.12,7.03-19.09,6.48-30.52-.55-11.43-6.98-26.32-14.6-34.87l-.89-.91-7.56,7.36,.98,1c10.36,13.5,15.28,31.27,9.97,47.44-5.3,16.18-17.98,27.54-34.32,32.29-16.35,4.75-32.78-1.08-45.93-11.9l-.65-.67Z"/>
          <path class="cls-10" d="M435.06,213.88l-10.65,10.37c18.4,16.87,47.55,25.95,71.63,19.35,24.08-6.6,44.17-26.17,51.4-50.06,7.23-23.89-.53-53.81-16.92-72.65l-11.45,11.15,.89,.91c7.62,8.55,14.05,23.44,14.6,34.87,.55,11.43-1.15,20.4-6.48,30.52-8.44,16.04-20.9,26.74-38.46,31.18-17.56,4.43-41.22-1.49-53.64-14.69l-.93-.95Z"/>
          <path class="cls-11" d="M511.51,139.4l-69.95,68.16,.65,.67c13.15,10.82,29.58,16.64,45.93,11.9,16.34-4.75,29.02-16.11,34.32-32.29,5.31-16.17,.39-33.94-9.97-47.44l-.98-1Z"/>
        </g>
        <g>
          <path class="cls-8" d="M435.06,213.88l-10.65,10.37c18.4,16.87,47.55,25.95,71.63,19.35,24.08-6.6,44.17-26.17,51.4-50.06,7.23-23.89-.53-53.81-16.92-72.65l-11.45,11.15-7.56,7.36-69.95,68.16-6.5,6.32Z"/>
          <path class="cls-8" d="M519.97,132.95c7.62,8.55,14.05,23.44,14.6,34.87,.55,11.43-1.15,20.4-6.48,30.52-8.44,16.04-20.9,26.74-38.46,31.18-17.56,4.43-41.22-1.49-53.64-14.69"/>
          <path class="cls-5" d="M458.97,206.44c-.26,.43-.52,.86-.77,1.31"/>
          <path class="cls-5" d="M477.23,208.03c-.4,.61-.78,1.21-1.18,1.81"/>
          <path class="cls-5" d="M476.37,188.43c-.43,.56-.87,1.12-1.31,1.68"/>
          <path class="cls-5" d="M494.35,171.23c-.4,.43-.79,.86-1.18,1.3"/>
          <path class="cls-5" d="M510.75,171.7c-.28,.64-.86,1.15-1.55,1.32"/>
          <path class="cls-5" d="M511.47,189.47l-1.19,1.16"/>
          <path class="cls-5" d="M497.28,207.31c-.35,.29-.69,.6-1.04,.9"/>
          <path class="cls-5" d="M494.05,190.33c-.27,.56-.53,1.12-.79,1.68"/>
          <path class="cls-5" d="M513.53,154.89c-.43,.34-.87,.68-1.32,1.03"/>
          <path class="cls-5" d="M512.49,140.4c10.36,13.5,15.28,31.27,9.97,47.44-5.3,16.18-17.98,27.54-34.32,32.29-16.35,4.75-32.78-1.08-45.93-11.9"/>
        </g>
      </g>
      <g>
        <g>
          <path class="cls-11" d="M295.03,26.39l.21,.09c-1.15,2.42-1.43,5.15-2.02,7.76-.65,2.89-1.9,5.93-4.58,7.46-1.61,.93-3.54,1.18-5.35,1.7-1.81,.53-3.67,1.49-4.32,3.16l-.7,.07c-.09-.53-.24-1.05-.46-1.56-1.48-3.45-6.57-4.95-9.87-2.91-2.22,1.38-3.57,3.99-6.11,4.73-2.35,.68-4.88-.53-6.65-2.14-1.77-1.61-3.09-3.63-4.95-5.16s-4.55-2.5-6.77-1.51c-2.82,1.27-3.3,4.81-3.15,7.75,.13,2.34,.3,4.96-.77,6.96l-.3-.14c-5.25-3.1-8.35-9.32-7.14-15.05,1.2-5.73,6.82-10.47,13.02-10.61,2.66-.07,5.26,.63,7.89,.94,2.64,.3,5.52,.15,7.62-1.37,3.52-2.56,3.29-7.5,4-11.65,.57-3.41,2.13-6.83,5.02-8.98,2.88-2.14,7.26-2.68,10.24-.67,2.88,1.96,3.77,5.58,4.09,8.9s.3,6.84,2.08,9.73c1.79,2.88,6.23,4.64,8.94,2.5Z"/>
          <path class="cls-11" d="M340.8,46.36l-2.08,.8c-.9-.16-1.87-.14-2.76,.03-2.17,.42-4.08,1.58-5.93,2.72-2.16,1.32-3.43,3.48-7.23,3.84l-.34-.37c-1.78-2.46-4.99-3.93-8.14-3.73s-6.13,2.07-7.54,4.73c-.91,1.74-1.19,3.72-1.99,5.5s-2.41,3.51-4.46,3.54c-1.68,.03-3.27-1.09-4.94-.85-2.33,.33-3.34,2.95-3.62,5.15-.26,2.03-.45,4.38-2.02,5.71,.86-3.43-.48-7.27-3.35-9.53-2.45-1.92-5.92-2.82-7.55-5.39-2.17-3.46,.1-7.96-.56-11.87l.7-.07c.65-1.67,2.51-2.63,4.32-3.16,1.81-.52,3.74-.78,5.35-1.7,2.68-1.53,3.93-4.57,4.58-7.46,.59-2.61,.87-5.34,2.02-7.76,.13-.26,.26-.51,.4-.77,2.16-3.75,6.94-6,11.43-5.38,4.49,.62,8.37,4.07,9.3,8.25,.57,2.56,.16,5.39,1.56,7.64,1.55,2.49,4.83,3.48,7.87,3.71s6.16-.11,9.11,.61c2.96,.72,5.84,2.93,5.87,5.81Z"/>
          <path class="cls-10" d="M289.75,73.43c1.57-1.32,1.76-3.67,2.02-5.71,.29-2.2,1.3-4.82,3.62-5.15,1.66-.24,3.26,.88,4.94,.85,2.06-.03,3.67-1.75,4.46-3.54s1.07-3.77,1.99-5.5c1.41-2.66,4.39-4.53,7.54-4.73s6.36,1.26,8.14,3.73l.34,.37c3.79-.36,5.07-2.52,7.23-3.84,1.85-1.14,3.76-2.3,5.93-2.72,.89-.17,1.86-.19,2.76-.03,1.28,.23,2.46,.8,3.23,1.78,3.08,3.89-2.39,9.79-.03,14.1,1.91,3.51,8.12,4.08,8.83,7.97,.78,4.32-6.19,6.65-6.82,11-.3,2.07,.94,4.01,1.83,5.93,.89,1.9,1.38,4.37-.13,5.9-1.55,1.58-4.5,1.37-5.98,3.02-2.6,2.89,1.96,7.62,.05,10.96-1.94,3.4-8.65,2.15-10.17,5.73-1.08,2.54,1.52,5.57,.28,8.04-1.48,2.95-6.68,2.12-8.77,4.72-2.2,2.76,.75,6.87-.55,10.09-1.04,2.55-4.38,3.54-7.27,3.4-2.89-.14-5.72-1.08-8.61-.99-4.98,.16-7.82-.15-12.2,2.1-4.02,2.08-9.34,3.35-13.08,1.11-.32-.19-.64-.41-.93-.66-3.18-2.63-3.3-7.14-3.76-11.1-.68-5.83-4-8.09-7.05-13.2-1.36-2.3-2.98-4.56-3.38-7.16-.39-2.6,.93-5.69,3.63-6.34,1.32-.31,2.79-.02,4.02-.56,2.25-.99,2.29-3.96,1.86-6.27-.43-2.3-.8-5.13,1.17-6.56,1.82-1.33,4.69-.59,6.54-1.89,3.87-2.71-1.17-9.91,2.64-12.69,1.48-1.09,3.69-.86,5.25-1.85,.14-.09,.29-.19,.41-.3Z"/>
          <path class="cls-10" d="M263.07,103.01c.16,.72,.31,1.45,.47,2.17-.04-.41-.05-.82-.05-1.22-.13-.32-.28-.64-.42-.95Zm23.32-39.11c2.87,2.26,4.21,6.1,3.35,9.53-.13,.11-.27,.21-.41,.3-1.57,.99-3.77,.76-5.25,1.85-3.81,2.78,1.23,9.99-2.64,12.69-1.85,1.3-4.71,.56-6.54,1.89-1.97,1.42-1.6,4.26-1.17,6.56,.43,2.31,.38,5.28-1.86,6.27-1.23,.55-2.69,.25-4.02,.56-2.7,.65-4.03,3.73-3.63,6.34,.4,2.6,2.02,4.86,3.38,7.16,3.05,5.12,6.37,7.37,7.05,13.2,.46,3.96,.58,8.47,3.76,11.1,.3,.24,.61,.46,.93,.66l-.14,.22c-4.68-2.67-9.47-6.29-13.89-7.03-4.79-.81-8.96,1.22-13.46-.51-4.49-1.74-10.65-4.67-9.44-9.1,.57-2.07,2.16-4.26,1.04-6.11s-4.2-1.83-5.46-3.59c-2-2.81,2.41-6.68,.91-9.75-1.04-2.14-4.33-2.51-5.62-4.53-1.87-2.94,1.79-6.63,.99-9.99-.81-3.39-5.78-4.96-6.11-8.42-.35-3.71,4.85-5.9,5.58-9.56,.54-2.63-1.38-5.07-2.98-7.27-1.6-2.22-3.01-5.15-1.54-7.44,1.85-2.88,6.68-2.4,9.25-4.75,.45-.41,.8-.88,1.07-1.38,1.07-2,.89-4.62,.77-6.96-.15-2.93,.33-6.47,3.15-7.75,2.22-.99,4.92-.02,6.77,1.51s3.18,3.55,4.95,5.16c1.76,1.61,4.29,2.82,6.65,2.14,2.54-.74,3.89-3.35,6.11-4.73,3.29-2.04,8.39-.54,9.87,2.91,.21,.51,.37,1.03,.46,1.56,.66,3.91-1.61,8.41,.56,11.87,1.63,2.58,5.1,3.47,7.55,5.39Z"/>
        </g>
        <g>
          <path class="cls-8" d="M322.46,53.38c-1.78-2.46-4.99-3.93-8.14-3.73s-6.13,2.07-7.54,4.73c-.91,1.74-1.19,3.72-1.99,5.5s-2.41,3.51-4.46,3.54c-1.68,.03-3.27-1.09-4.94-.85-2.33,.33-3.34,2.95-3.62,5.15-.26,2.03-.45,4.38-2.02,5.71-.13,.11-.27,.21-.41,.3-1.57,.99-3.77,.76-5.25,1.85-3.81,2.78,1.23,9.99-2.64,12.69-1.85,1.3-4.71,.56-6.54,1.89-1.97,1.42-1.6,4.26-1.17,6.56,.43,2.31,.38,5.28-1.86,6.27-1.23,.55-2.69,.25-4.02,.56-2.7,.65-4.03,3.73-3.63,6.34,.4,2.6,2.02,4.86,3.38,7.16,3.05,5.12,6.37,7.37,7.05,13.2,.46,3.96,.58,8.47,3.76,11.1,.3,.24,.61,.46,.93,.66,3.74,2.23,9.06,.97,13.08-1.11,4.37-2.26,7.21-1.94,12.2-2.1,2.89-.09,5.72,.84,8.61,.99,2.89,.14,6.23-.85,7.27-3.4,1.31-3.22-1.65-7.33,.55-10.09,2.08-2.6,7.29-1.77,8.77-4.72,1.24-2.47-1.36-5.5-.28-8.04,1.52-3.58,8.23-2.33,10.17-5.73,1.91-3.34-2.66-8.07-.05-10.96,1.48-1.64,4.44-1.43,5.98-3.02,1.5-1.53,1.02-4,.13-5.9-.89-1.91-2.13-3.86-1.83-5.93,.63-4.35,7.59-6.68,6.82-11-.71-3.89-6.91-4.47-8.83-7.97-2.36-4.32,3.1-10.21,.03-14.1-.77-.98-1.95-1.55-3.23-1.78-.9-.16-1.87-.14-2.76,.03-2.17,.42-4.08,1.58-5.93,2.72-2.16,1.32-3.43,3.48-7.23,3.84"/>
          <path class="cls-5" d="M327.71,64.45c-2.87,5.26-5.78,10.5-8.71,15.73-2.64,4.66-5.3,9.31-7.98,13.94-3.39,5.85-6.83,11.67-10.32,17.46-6.7,11.13-12.19,18.73-19.24,29.68"/>
          <path class="cls-5" d="M305.41,73.01c5.73,7.27,6.97,14.31,4.19,22.97,.43-.65,.9-1.27,1.41-1.86,5.52-6.46,13.49-7.77,21.93-5.28"/>
          <path class="cls-5" d="M317.74,63.74c3.35,4.43,3.29,11.22,1.26,16.44-.13,.35-.28,.68-.43,1.01,3.69-4.27,10.39-7.85,16.24-8.09"/>
          <path class="cls-5" d="M295.06,86.26c4.2,2.68,5.91,6.76,6.46,11.52,.54,4.75-.38,9.53-1.3,14.24,.15-.15,.31-.3,.47-.43,6.42-5.89,14.88-8.99,23.66-7.29"/>
          <path class="cls-8" d="M289.64,73.84c.04-.13,.08-.28,.11-.41,.86-3.43-.48-7.27-3.35-9.53-2.45-1.92-5.92-2.82-7.55-5.39-2.17-3.46,.1-7.96-.56-11.87-.09-.53-.24-1.05-.46-1.56-1.48-3.45-6.57-4.95-9.87-2.91-2.22,1.38-3.57,3.99-6.11,4.73-2.35,.68-4.88-.53-6.65-2.14-1.77-1.61-3.09-3.63-4.95-5.16s-4.55-2.5-6.77-1.51c-2.82,1.27-3.3,4.81-3.15,7.75,.13,2.34,.3,4.96-.77,6.96-.28,.51-.63,.97-1.07,1.38-2.57,2.34-7.4,1.86-9.25,4.75-1.47,2.29-.06,5.23,1.54,7.44,1.6,2.21,3.52,4.64,2.98,7.27-.73,3.66-5.93,5.85-5.58,9.56,.33,3.46,5.3,5.03,6.11,8.42,.8,3.35-2.86,7.05-.99,9.99,1.29,2.02,4.58,2.39,5.62,4.53,1.49,3.08-2.92,6.95-.91,9.75,1.26,1.76,4.33,1.74,5.46,3.59s-.47,4.05-1.04,6.11c-1.22,4.43,4.95,7.37,9.44,9.1,4.5,1.74,8.67-.3,13.46,.51,4.42,.74,9.21,4.36,13.89,7.03,.38,.22,3.56,.67,3.94,.88"/>
          <path class="cls-8" d="M340.8,46.36c-.03-2.87-2.91-5.08-5.87-5.81-2.95-.72-6.07-.38-9.11-.61s-6.32-1.22-7.87-3.71c-1.4-2.26-.98-5.08-1.56-7.64-.93-4.18-4.81-7.64-9.3-8.25-4.49-.62-9.27,1.63-11.43,5.38-.14,.25-.28,.51-.4,.77-1.15,2.42-1.43,5.15-2.02,7.76-.65,2.89-1.9,5.93-4.58,7.46-1.61,.93-3.54,1.18-5.35,1.7-1.81,.53-3.67,1.49-4.32,3.16"/>
          <path class="cls-8" d="M295.03,26.39c-2.72,2.13-7.16,.38-8.94-2.5-1.78-2.88-1.77-6.41-2.08-9.73s-1.21-6.95-4.09-8.9c-2.98-2.01-7.36-1.48-10.24,.67-2.89,2.15-4.45,5.56-5.02,8.98-.71,4.15-.47,9.09-4,11.65-2.1,1.53-4.98,1.68-7.62,1.37-2.63-.3-5.23-1-7.89-.94-6.2,.14-11.83,4.88-13.02,10.61-1.21,5.73,1.89,11.95,7.14,15.05"/>
          <path class="cls-5" d="M241.61,75.51c6.72,1.1,12.27,5.84,15.66,11.41,3,4.94,4.54,10.5,5.81,16.08,.16,.72,.31,1.45,.47,2.17-.04-.41-.05-.82-.05-1.22-.18-8.51,.93-16.78,7.99-22.12"/>
          <path class="cls-5" d="M263.99,105.27c-.14-.45-.3-.89-.49-1.31-.13-.32-.28-.64-.42-.95-1.48-3.02-3.8-5.66-6.69-7.56-3.6-2.36-8.04-3.55-12.42-3.31"/>
          <path class="cls-5" d="M254.6,70.94c-1.52-5.25-3.2-10.45-5.04-15.6"/>
          <path class="cls-5" d="M270.26,67.67c-9.75,5.12-12.7,13.39-10.63,23.73-1.4-6.87-3.07-13.69-5.03-20.44"/>
          <path class="cls-5" d="M242.34,63c5.98,1.31,12.35,6.53,13.47,12.21-.04-.49-1.21-3.77-1.21-4.25v-.02c0-5.62,2.49-9.43,6.33-13.74"/>
        </g>
        <path class="cls-5" d="M283.51,107.84c6.31,5.34,8.4,14.47,5.62,22.02,5.71-6.35,14.98-10.17,23.81-9.89"/>
      </g>
      <g>
        <line class="cls-9" x1="215.24" y1="192.01" x2="215.24" y2="214.1"/>
        <line class="cls-9" x1="235.44" y1="192.01" x2="235.44" y2="214.1"/>
        <line class="cls-9" x1="255.64" y1="192.01" x2="255.64" y2="214.1"/>
        <line class="cls-9" x1="275.84" y1="192.01" x2="275.84" y2="214.1"/>
        <line class="cls-9" x1="296.04" y1="192.01" x2="296.04" y2="214.1"/>
        <line class="cls-9" x1="316.23" y1="192.01" x2="316.23" y2="214.1"/>
        <line class="cls-9" x1="336.43" y1="192.01" x2="336.43" y2="214.1"/>
      </g>
    </g>
  </g>
</svg>