<?xml version="1.0" encoding="UTF-8"?>
<svg id="Layer_2" data-name="Layer 2" xmlns="http://www.w3.org/2000/svg" viewBox="0 0 572.22 509.23">
  <defs>
    <style>
      .cls-1 {
        fill: #fff;
      }

      .cls-2 {
        fill: #d1d9d2;
      }

      .cls-3 {
        stroke-width: 5px;
      }

      .cls-3, .cls-4, .cls-5, .cls-6 {
        fill: none;
        stroke: #133f26;
        stroke-linecap: round;
        stroke-linejoin: round;
      }

      .cls-4 {
        stroke-width: 2px;
      }

      .cls-5 {
        stroke-width: 8px;
      }

      .cls-6 {
        stroke-width: 3px;
      }
    </style>
  </defs>
  <g id="Layer_1-2" data-name="Layer 1">
    <g>
      <g>
        <line class="cls-5" x1="568.22" y1="505.23" x2="4" y2="505.23"/>
        <polyline class="cls-5" points="568.22 504.89 285.5 4 5.03 502.82"/>
        <line class="cls-5" x1="57.92" y1="409.83" x2="513.82" y2="409.83"/>
        <line class="cls-5" x1="114.2" y1="308.38" x2="456.41" y2="308.38"/>
        <line class="cls-5" x1="172.93" y1="207.86" x2="398.06" y2="207.86"/>
        <line class="cls-5" x1="225.64" y1="116" x2="346.11" y2="116"/>
      </g>
      <g>
        <g>
          <path class="cls-2" d="M362.96,434.71c4.25,.44,7.38,.45,11.16,2.29,4.82,2.35,8.87,6.6,9.56,11.68,.68,5.08-3.21,11.81-8.55,12.68l-.33,.25c.68,8.79,1.03,17.59,1.03,26.4-4.73-.54-9.86-.7-14.59-.12h-1.12c0-9.59-.38-19.19-1.13-28.77l-.06-.28c5.83-.96,10.52-8.31,9.77-13.86-.52-3.89-2.85-7.34-6.01-9.93l.27-.34Z"/>
          <path class="cls-2" d="M340.94,428.35c5.38,.42,12.53,1.52,17.31,3.85,1.58,.77,3.09,1.73,4.44,2.85,3.16,2.59,5.49,6.04,6.01,9.93,.75,5.55-3.94,12.9-9.77,13.86l.06,.28c.75,9.58,1.13,19.18,1.13,28.78v.1c-5.18-.59-11.23-.02-16.96,.29h-.28c-.06-11.94-.12-23.88-.18-35.82l1.6-1.28c4.15-1.67,6.45-6.29,5.96-10.53s-3.37-8.01-7.02-10.51c-.8-.54-1.61-1.07-2.44-1.57l.14-.23Z"/>
        </g>
        <g>
          <path class="cls-3" d="M289.64,488.66c10.73-1.18,35.61-.2,52.49-.23"/>
          <path class="cls-3" d="M289.92,454.05c1.52,12.48,.88,21.83-.34,34.28l-.03,.36"/>
          <path class="cls-3" d="M344.3,451.19c4.15-1.67,6.45-6.29,5.96-10.53s-3.37-8.01-7.02-10.51c-.8-.54-1.61-1.07-2.44-1.57-2.98-1.83-6.19-3.34-9.63-4.1-7.6-1.69-17.64-1.83-25.28-.32-7.64,1.52-16.06,4.89-20.87,10.7-1.74,2.11-2.76,4.6-3.02,7.25-.26,2.66,4.09,9.6,6.5,10.99"/>
          <path class="cls-3" d="M342.88,488.29c-.06-11.94-.12-23.88-.18-35.82"/>
          <path class="cls-3" d="M340.94,428.35c5.38,.42,12.53,1.52,17.31,3.85,1.58,.77,3.09,1.73,4.44,2.85,3.16,2.59,5.49,6.04,6.01,9.93,.75,5.55-3.94,12.9-9.77,13.86h0"/>
          <path class="cls-3" d="M358.99,459.12c.75,9.58,1.13,19.18,1.13,28.78v.1c-5.18-.59-11.23-.02-16.96,.29"/>
          <path class="cls-3" d="M362.96,434.71c4.25,.44,7.38,.45,11.16,2.29,4.82,2.35,8.87,6.6,9.56,11.68,.68,5.08-3.21,11.81-8.55,12.68"/>
          <path class="cls-3" d="M374.8,461.61c.68,8.79,1.03,17.59,1.03,26.4-4.73-.54-9.86-.7-14.59-.12"/>
          <path class="cls-6" d="M301.46,439.38h-.16"/>
          <path class="cls-6" d="M302.1,448.56h.16"/>
          <path class="cls-6" d="M305.49,455.59c-.05,.05-.11,.1-.16,.15"/>
          <path class="cls-6" d="M310.51,442.29h-.16"/>
          <path class="cls-6" d="M313.74,434.19h-.16"/>
          <path class="cls-6" d="M313.09,450.09c-.06,.05-.11,.1-.16,.15"/>
          <path class="cls-6" d="M321.17,448.26v.15"/>
          <path class="cls-6" d="M321.82,438.94h-.16"/>
          <path class="cls-6" d="M328.45,435.58h-.32"/>
          <path class="cls-6" d="M334.43,440.47v.15"/>
          <path class="cls-6" d="M329.41,445.51v.31"/>
          <path class="cls-6" d="M333.89,463.55l-.05,15.69c.03,.51-.36,.96-.88,.99-5.11,.28-10.22,.48-15.33,.6"/>
        </g>
      </g>
      <g>
        <g>
          <path class="cls-3" d="M124.04,470.48c1.71-6.01,5.99-11.73,12.88-13.62,13.15-3.62,23.18,10.65,23.66,17.62,.32,4.69,.92,13.31-14.86,14.82-23.01,2.2-42.85,1.34-73.15,.94-5.21-.07-10.83-1.15-14.45-4.31-3.43-3-4.14-7.68-2.53-11.54,1.6-3.86,4.85-8,8.98-10.21,4.13-2.21,10.73-3.08,13.42-.3"/>
          <path class="cls-3" d="M132.51,455.75c-3.34-4.77-9.8-6.82-15.51-5.65-5.7,1.17-10.57,5.19-13.63,10.15-2.57,4.16-3.96,8.94-4.63,13.8"/>
          <path class="cls-3" d="M105.8,454.9c-6.81-2.99-15.18-2.09-21.2,2.28-5.1,3.7-8.35,9.77-8.79,16.03"/>
        </g>
        <path class="cls-6" d="M119.18,419.6c-1.64-.12-2.85,1.76-2.69,3.41,.15,1.64,1.2,3.04,2.14,4.39,.94,1.35,1.85,2.9,1.68,4.54-.16,1.54-1.24,2.8-2.12,4.07s-1.62,2.89-1.04,4.32"/>
        <path class="cls-6" d="M96.82,431.69c1.59,.37,2.39,.77,3.05,1.98s.45,3.36-.15,4.6c-.62,1.3-2.18,1.98-2.71,3.32-.42,1.07,0,2.42,.97,3.04"/>
        <path class="cls-6" d="M136.91,429.77c-1.54,1.51-3.02,3.58-2.42,5.65,.3,1.02,1.05,1.83,1.65,2.71s1.06,2,.66,2.99c-.27,.67-.87,1.14-1.26,1.75s-.45,1.57,.18,1.92"/>
      </g>
      <g>
        <path class="cls-4" d="M491.4,453.26c-3.1,2.11-5.56,5.16-6.97,8.63"/>
        <path class="cls-4" d="M426.54,470.19c-2.42,2.67-4.13,5.96-4.94,9.47"/>
        <path class="cls-4" d="M473.32,429.29c-2.71,2.03-4.98,4.63-6.62,7.58"/>
        <g>
          <g>
            <path class="cls-3" d="M492.98,430.76c-3.57-2.86-8.25-4.06-12.82-4.14s-9.1,.86-13.55,1.89c-10.78,2.5-21.43,5.55-31.89,9.14-7.81,2.68-15.56,5.67-22.67,9.87-2.36,1.39-4.68,2.95-6.37,5.11s-3.26,6.7-1.03,9.2"/>
            <path class="cls-3" d="M404.47,461.77c19.77-4.59,39.34-10.02,58.64-16.26,10.22-3.31,20.59-6.96,28.98-13.67"/>
            <path class="cls-3" d="M515.19,455.15c-1.23-2.08-3.5-3.37-5.86-3.92-2.35-.55-4.8-.44-7.21-.29-27.98,1.73-55.7,8.46-81.13,20.27-3.97,1.84-7.98,3.88-10.91,7.12-2.94,3.24-5.2,7.66-3.72,11.78"/>
            <path class="cls-3" d="M406.31,490.24c31.89-5.83,63.96-11.71,94.36-22.96,5.84-2.16,12.21-5.11,14.38-10.95"/>
          </g>
          <path class="cls-4" d="M473.67,456.45c-2.4,2.43-4.34,5.33-5.66,8.49"/>
          <path class="cls-4" d="M456.49,460.64c-3.06,2.5-5.29,6-6.28,9.83"/>
          <path class="cls-4" d="M442.62,463.77c-3.42,3.29-6.09,7.35-7.77,11.79"/>
          <path class="cls-4" d="M432.19,439.03c-2.27,2.28-3.97,5.11-4.91,8.19"/>
          <path class="cls-4" d="M444.27,435.85c-2.27,2.33-3.98,5.22-4.92,8.33"/>
          <path class="cls-4" d="M459.19,432.22c-2.21,2.56-4.17,5.33-5.86,8.25"/>
          <path class="cls-4" d="M418.35,446.56c-1.31,1.92-2.28,4.08-2.85,6.33"/>
        </g>
      </g>
      <g>
        <g>
          <path class="cls-1" d="M168.04,352.34c2.89,5.01,3.39,11.15,2.28,16.82-1.11,5.68-3.71,10.95-6.71,15.9-1.86,3.06-3.94,6.09-6.87,8.14-2.94,2.06-6.89,2.97-10.15,1.51-2.2-.98-4.03-1.97-6.43-2.09-2.85-.15-5.09,1.37-7.79,2.29-2.93,.99-6.25,0-8.7-1.89-2.44-1.89-4.17-4.55-5.71-7.24-3.33-5.79-6.08-12.06-6.76-18.7-.68-6.65,.95-13.75,5.47-18.67,4.51-4.93,12.95-7.06,19-4.22,0,0,2.69,1.81,6.77,1.73,.5,0,1-.05,1.54-.12,.23-.03,.45-.07,.68-.1,3.08-.57,6.07-1.74,9.21-1.83,5.78-.18,11.28,3.47,14.17,8.48Z"/>
          <path class="cls-2" d="M143.95,345.5l.04,.29c-.53,.08-1.04,.12-1.54,.12l-.02-.54c-1.75-4.4-.95-9.61,1.69-13.54,2.64-3.92,6.96-6.58,11.58-7.59,1.47,4.28,1.12,9.17-.98,13.19-2.09,4.02-6.43,6.82-10.77,8.08Z"/>
        </g>
        <g>
          <path class="cls-3" d="M143.98,345.79c.23-.03,.45-.07,.68-.1,3.08-.57,6.07-1.74,9.21-1.83,5.78-.18,11.28,3.47,14.17,8.48,2.89,5.01,3.39,11.15,2.28,16.82-1.11,5.68-3.71,10.95-6.71,15.9-1.86,3.06-3.94,6.09-6.87,8.14-2.94,2.06-6.89,2.97-10.15,1.51-2.2-.98-4.03-1.97-6.43-2.09-2.85-.15-5.09,1.37-7.79,2.29-2.93,.99-6.25,0-8.7-1.89-2.44-1.89-4.17-4.55-5.71-7.24-3.33-5.79-6.08-12.06-6.76-18.7-.68-6.65,.95-13.75,5.47-18.67,4.51-4.93,12.95-7.06,19-4.22,0,0,2.69,1.81,6.77,1.73,.5,0,1-.05,1.54-.12Z"/>
          <path class="cls-6" d="M131.74,351.67c-3.33-.49-6.87,.84-9.06,3.4-2.19,2.55-2.95,6.26-1.94,9.47"/>
          <path class="cls-3" d="M142.42,345.36c-1.75-4.4-.95-9.61,1.69-13.54,2.64-3.92,6.96-6.58,11.58-7.59,1.47,4.28,1.12,9.17-.98,13.19-2.09,4.02-6.43,6.82-10.77,8.08"/>
          <path class="cls-3" d="M129.84,323.86c4.02,1.27,7.17,4.57,9,8.36,1.82,3.79,2.46,8.05,2.66,12.27"/>
        </g>
      </g>
      <g>
        <g>
          <path class="cls-1" d="M319.73,369.13l-4.78,2.67,.39,.7c5.18,9.65,18.05,16.81,28.99,16.98,10.94,.16,19.89-4.13,27.32-12.16,4.69-5.07,7.09-10.04,8.56-16.79,1.47-6.75,.05-16.45-3.05-22.63l-.38-.67-5.57,3.11,.41,.74c3.93,9.5,4.02,20.64-1.62,29.24-5.63,8.61-14.8,13.25-25.08,13.46-10.28,.21-18.96-5.76-24.93-14.14l-.28-.49Z"/>
          <path class="cls-1" d="M314.95,371.8l-7.84,4.38c8.09,12.72,23.67,22.59,38.75,22.51,15.08-.08,29.87-8.34,37.83-21.15,7.96-12.81,8.12-31.47,1.51-45.03l-8.42,4.71,.38,.67c3.11,6.18,4.52,15.88,3.05,22.63-1.47,6.75-3.87,11.72-8.56,16.79-7.43,8.03-16.38,12.32-27.32,12.16-10.94-.17-23.81-7.33-28.99-16.98l-.39-.7Z"/>
          <path class="cls-2" d="M374.91,338.65l-58.81,32.9,.32,.56c6.82,9.56,16.73,16.38,28.48,16.15,11.74-.24,22.22-5.54,28.65-15.37,6.43-9.82,6.33-22.55,1.84-33.4l-.47-.84Z"/>
        </g>
        <g>
          <path class="cls-3" d="M314.95,371.8l-7.84,4.38c8.09,12.72,23.67,22.59,38.75,22.51,15.08-.08,29.87-8.34,37.83-21.15,7.96-12.81,8.12-31.47,1.51-45.03l-8.42,4.71-5.57,3.11-51.49,28.8-4.78,2.67Z"/>
          <path class="cls-3" d="M377.16,337.89c3.11,6.18,4.52,15.88,3.05,22.63-1.47,6.75-3.87,11.72-8.56,16.79-7.43,8.03-16.38,12.32-27.32,12.16-10.94-.17-23.81-7.33-28.99-16.98"/>
          <path class="cls-3" d="M330.06,371.21c-.22,.21-.44,.42-.66,.64"/>
          <path class="cls-3" d="M340.46,374.99c-.33,.29-.65,.58-.97,.87"/>
          <path class="cls-3" d="M343.03,363.43c-.34,.26-.69,.52-1.03,.78"/>
          <path class="cls-3" d="M356.22,356.21c-.3,.19-.6,.38-.89,.57"/>
          <path class="cls-3" d="M365.71,359.06c-.26,.33-.68,.54-1.11,.53"/>
          <path class="cls-3" d="M363.34,369.53l-.87,.49"/>
          <path class="cls-3" d="M352.27,377.72c-.25,.12-.5,.24-.75,.36"/>
          <path class="cls-3" d="M353.05,367.31c-.24,.29-.49,.57-.73,.86"/>
          <path class="cls-3" d="M369.96,349.68c-.31,.13-.62,.26-.93,.4"/>
        </g>
      </g>
      <g>
        <g>
          <path class="cls-2" d="M219.23,367.83c2.03-2.5,5.05-4.22,8.27-4.48h.08c4.95-.37,9.96,2.73,11.85,7.32s.49,10.32-3.29,13.54-9.65,3.67-13.89,1.07c-4.23-2.59-6.48-8.04-5.33-12.86,.41-1.68,1.22-3.25,2.31-4.58Z"/>
          <path class="cls-2" d="M196.5,372.29c4.95-.37,9.97,2.73,11.85,7.32,1.89,4.59,.5,10.32-3.29,13.54-3.78,3.22-9.65,3.67-13.89,1.07-4.22-2.59-6.48-8.04-5.32-12.87,.99-4.17,4.47-7.6,8.58-8.71,.66-.17,1.32-.29,2-.35h.07Z"/>
        </g>
        <g>
          <path class="cls-3" d="M227.58,363.35c4.95-.37,9.96,2.73,11.85,7.32s.49,10.32-3.29,13.54-9.65,3.67-13.89,1.07c-4.23-2.59-6.48-8.04-5.33-12.86,.41-1.68,1.22-3.25,2.31-4.58,2.03-2.5,5.05-4.22,8.27-4.48"/>
          <path class="cls-3" d="M196.5,372.29c4.95-.37,9.97,2.73,11.85,7.32,1.89,4.59,.5,10.32-3.29,13.54-3.78,3.22-9.65,3.67-13.89,1.07-4.22-2.59-6.48-8.04-5.32-12.87,.99-4.17,4.47-7.6,8.58-8.71,.66-.17,1.32-.29,2-.35"/>
          <path class="cls-3" d="M197.38,379.38c-1.35-2.07-2.35-4.35-2.95-6.74-.83-3.24-.95-6.66-.31-9.93,1.12-5.71,4.57-10.91,9.36-14.18"/>
          <path class="cls-3" d="M224.83,370.69c-1.98-.8-3.85-1.74-5.6-2.85-3.84-2.41-7.14-5.61-10.02-9.79-10.81-15.73-7-24-4.67-31.07"/>
        </g>
      </g>
      <g>
        <path class="cls-2" d="M441.08,341.55c4.11,3.77,7.34,8.39,10.54,12.96,1.41,2.01,2.82,4.02,4.22,6.05,2.61,3.77,5.17,7.57,7.61,11.47,4.85,7.72,9.2,15.75,13.63,23.73l-.7,.39c-11.92-4.88-38.92-25.8-42.74-29.01-2.81-2.37-5.64-4.74-8.45-7.13-2.51-2.1-5.2-4.55-5.5-7.82-.34-3.72,3.35-8.03,6.17-10.48,2.22-1.92,4.77-3.85,7.71-3.86,2.86-.03,5.41,1.75,7.51,3.7Z"/>
        <g>
          <path class="cls-3" d="M477.13,395.85l-.05-.1c-4.44-7.98-8.79-16.01-13.63-23.73-2.44-3.89-5-7.69-7.61-11.47-1.39-2.03-2.81-4.04-4.22-6.05-3.2-4.57-6.43-9.19-10.54-12.96-2.1-1.94-4.65-3.73-7.51-3.7-2.94,.01-5.5,1.94-7.71,3.86-2.82,2.45-6.51,6.76-6.17,10.48,.29,3.26,2.99,5.72,5.5,7.82,2.81,2.38,5.64,4.76,8.45,7.13,3.81,3.22,30.82,24.14,42.74,29.01,.19,.08,.38,.15,.56,.22,.11,.05,.22,.09,.33,.13"/>
          <path class="cls-3" d="M441.84,344.3c-2.24,1-4.16,2.7-5.41,4.79"/>
          <path class="cls-3" d="M437.46,363.58c-1.13,1.06-2.26,2.1-3.39,3.15"/>
          <path class="cls-3" d="M455.83,360.56c-1.49,1.52-3.11,2.91-4.85,4.14"/>
          <path class="cls-3" d="M457.02,378.62c-1.01,.93-2.05,1.86-3.06,2.79"/>
          <path class="cls-3" d="M468.72,382.06c-.54,.83-1.09,1.07-1.64,1.9"/>
          <path class="cls-3" d="M404.27,343.46c3.3-11.77,13.67-6.78,19.43-.47"/>
          <path class="cls-3" d="M409.88,317.93c-.68,1.85,.1,3.94,1.32,5.49,1.21,1.54,2.82,2.72,4.15,4.17,2.69,2.94,4.14,6.96,3.95,10.94"/>
          <path class="cls-3" d="M419.56,338.53c-.44-3.69-.34-7.44,.31-11.11,.29-1.58,1.97-5,3.97-6.29"/>
          <path class="cls-3" d="M432.12,327.91c-7.79-.5-10.36,7.57-8.8,13.99"/>
          <path class="cls-3" d="M416.46,337.21c-1.78-1.88-3.56-3.77-5.61-5.35-2.04-1.58-4.38-2.85-6.92-3.34"/>
        </g>
      </g>
      <g>
        <path class="cls-2" d="M278.42,243.66c6.76-4.7,13.51-9.42,20.27-14.12l.14,.1c13.74,1.73,25.46,11.62,29.76,24.79l.06,.72c-23.93,2.11-47.84,4.23-71.77,6.33,4.12-3.29,8.02-6.87,11.64-10.69l.48,.08c1.63,1.69,4.14,2.48,6.44,2.03s4.33-2.13,5.2-4.3c.38-.96,.55-2.04,.18-3s-1.37-1.7-2.38-1.54l-.02-.38Z"/>
        <g>
          <path class="cls-3" d="M298.69,229.55c-6.76,4.7-13.51,9.42-20.27,14.12"/>
          <path class="cls-3" d="M278.44,244.05c1.01-.17,2.02,.58,2.38,1.54s.2,2.04-.18,3c-.87,2.17-2.9,3.85-5.2,4.3s-4.81-.34-6.44-2.03"/>
          <path class="cls-3" d="M268.52,250.79c-3.63,3.83-7.52,7.41-11.64,10.69,23.93-2.1,47.84-4.22,71.77-6.33,.08,0,.16,0,.23-.02"/>
          <path class="cls-3" d="M328.58,254.43c-4.3-13.16-16.02-23.06-29.76-24.79"/>
          <path class="cls-3" d="M256.38,261.64c-.15,3.86-.59,7.7-1.32,11.49,1.56-1.2,4.08-.63,5.22,.99,1.13,1.62,.95,3.94-.18,5.56-1.13,1.63-3.05,2.58-5.01,2.85"/>
          <path class="cls-3" d="M255.06,282.89c-.12,2.35-.24,4.7-.37,7.05,24.3-3.01,48.67-5.6,73.13-6.52,1.01-9.39,1.45-18.85,1.31-28.29v-.04"/>
          <path class="cls-3" d="M309.74,266.17c-.1-.03-.2-.07-.3-.1,.49-.03,.9,.54,.74,1s-.85,.63-1.21,.3c-.37-.33-.25-1.02,.19-1.23"/>
          <path class="cls-3" d="M294.98,276.37c-.36-.16-.84,.06-.95,.44-.11,.37,.2,.83,.59,.83,.4,0,.74-.43,.6-.81-.13-.37-.7-.5-.97-.19"/>
          <path class="cls-3" d="M275.02,270.54c.36-.3,1-.09,1.1,.37s-.37,.93-.83,.82-.65-.76-.35-1.11"/>
          <path class="cls-3" d="M293.42,249.7c.12,.34,.51,.57,.86,.49,.24-.41-.03-1.02-.5-1.11-.46-.1-.95,.37-.89,.83"/>
          <path class="cls-3" d="M306.04,241.6c-.33,.17-.65,.38-.83,.71-.17,.32-.12,.78,.18,.98,.36,.23,.91-.1,.88-.52-.03-.42-.63-.67-.94-.39"/>
        </g>
      </g>
      <g>
        <path class="cls-2" d="M400.13,243.18v45.72l-16.12,6.12,.11-47.08h.29c5.25-1.34,10.44-2.93,15.53-4.76h.19Z"/>
        <g>
          <path class="cls-3" d="M359.19,230.22c-2.83,4.7-5.95,9.23-9.36,13.57v48.17l34.19,3.06,16.12-6.12v-47.24l-8.47-8.92-.77-.8c.23-2.78,.46-5.57,.69-8.35-10.89-.9-21.88-.83-32.77,.17,.11,2.06,.23,4.12,.35,6.19"/>
          <path class="cls-3" d="M391.08,233.29c-2.32,3.86-4.63,7.71-6.95,11.57v3.07s-.11,47.08-.11,47.08"/>
          <path class="cls-3" d="M384.41,247.93c5.25-1.34,10.44-2.93,15.53-4.76"/>
          <path class="cls-3" d="M365.91,230.65c4.71-.26,9.43-.24,14.14,.05"/>
          <path class="cls-4" d="M360.78,257.47c.13-3.13,.15-6.26,.04-9.39l-2.89,4.22-2.51-4.7-.03,9.32"/>
          <path class="cls-4" d="M364.62,248.03c.11,3.05,.13,6.1,.06,9.15"/>
          <path class="cls-4" d="M368.49,248.19c-.11,3.06-.07,6.14,.13,9.21,0,.09,.02,.18,.08,.25,.08,.09,.21,.1,.33,.09,.87-.04,1.74-.08,2.62-.11"/>
          <path class="cls-4" d="M374.45,248.41c-.12,3.1-.18,6.2-.19,9.3"/>
          <path class="cls-4" d="M378.05,248.57c-1.23,1.54-2.38,3.15-3.44,4.81,1.45,1.23,2.94,2.52,3.8,4.23"/>
        </g>
      </g>
      <g>
        <path class="cls-2" d="M236.47,258.15c.51-.37,.95-.88,1.21-1.46l.18,.09c-1.66,20.3-11.26,29.99-11.26,29.99-24.73,10.06-47.96,1.2-47.96,1.2-7.29-8.03-12.18-19.82-12.52-30.69,.53,1.32,2.21,1.88,3.66,2.19,2.04,.43,4.1,.77,6.16,1.05,9.83,1.34,19.87,1.18,29.82,1,9.1-.15,18.27-.32,27.2-2.1,1.23-.24,2.49-.53,3.51-1.27Z"/>
        <g>
          <path class="cls-3" d="M185.8,248.76c-2.32-.21-4.71,.46-6.58,1.85-.4,.3-.81,.68-1.19,1.14-1.38,1.67-2.41,4.34-1.91,7.52"/>
          <path class="cls-3" d="M209.25,249.12c-4.41,1.69-6.46,2.52-11.16,2.95-2.78,.26-6.6-.1-9-1.52-.66-.39-1.27-.89-1.8-1.46-1.39-1.5-2.19-3.52-1.83-5.51,.45-2.47,2.51-4.32,4.62-5.69,2.11-1.36,4.46-2.48,6.1-4.38,2.09-2.41,2.75-5.96,1.68-8.95,1.78-.81,3.95-.08,5.4,1.23,1.45,1.32,2.35,3.11,3.3,4.82s2.02,3.44,3.68,4.48c2.2,1.4,5.35,1.57,6.64,3.83,1.04,1.83,.35,4.29,1.45,6.07,1.25,2.01,4.06,2.17,6.18,3.22,1.34,.67,2.39,1.79,3.07,3.11,1.1,2.12,1.25,4.77,.11,6.89"/>
          <path class="cls-3" d="M177.73,251.48c-3.1-.38-6.32,.21-9.09,1.66-1.47,.77-2.99,2.19-2.62,3.81,.03,.12,.06,.23,.1,.33,.53,1.32,2.21,1.88,3.66,2.19,2.04,.43,4.1,.77,6.16,1.05,9.83,1.34,19.87,1.18,29.82,1,9.1-.15,18.27-.32,27.2-2.1,1.23-.24,2.49-.53,3.51-1.27,.51-.37,.95-.88,1.21-1.46,.27-.56,.37-1.18,.22-1.78-.25-1.04-1.16-1.78-2.08-2.33-2.58-1.54-4.51-1.43-7.92-1.43"/>
          <path class="cls-3" d="M166.11,256.88c0,.13,.01,.27,.01,.4,.34,10.87,5.23,22.66,12.52,30.69,0,0,23.23,8.86,47.96-1.2,0,0,9.6-9.69,11.26-29.99"/>
        </g>
      </g>
      <g>
        <path class="cls-2" d="M355.72,151.22c1.35,4.52,1.09,11.18-1.95,14.85-.3,.35-.61,.68-.96,.97-3.14,2.67-7.7,3.21-11.7,2.23-4.01-.97-7.57-3.28-10.83-5.8-3.44-2.65-6.68-5.63-9.2-9.16-1.92-2.69-3.28-5.76-4.02-8.97-.8-3.51-.75-6.39-.25-8.71,.19-.88,.47-1.71,.85-2.48,2.15-4.46,7.15-7.04,12.24-6.1,2.3,.42,5.51,1.72,7.56,2.83,4.34,2.36,6.56,3.85,9.91,7.48,3.49,3.8,6.88,7.92,8.35,12.86Zm-12.45,1.18c.65-1.09,.44-2.48,.02-3.68-.73-2.09-2.1-4.03-4.08-5.02-1.97-.99-4.58-.85-6.19,.67,0,0-2.64,3.33,3.72,7.85,1.01,.72,2.06,1.49,3.3,1.62s2.59-.37,3.23-1.44Z"/>
        <g>
          <path class="cls-3" d="M353.77,166.07c-.3,.35-.61,.68-.96,.97-3.14,2.67-7.7,3.21-11.7,2.23-4.01-.97-7.57-3.28-10.83-5.8-3.44-2.65-6.68-5.63-9.2-9.16-1.92-2.69-3.28-5.76-4.02-8.97-.8-3.51-.75-6.39-.25-8.71,.19-.88,.47-1.71,.85-2.48,2.15-4.46,7.15-7.04,12.24-6.1,2.3,.42,5.51,1.72,7.56,2.83,4.34,2.36,6.56,3.85,9.91,7.48,3.49,3.8,6.88,7.92,8.35,12.86,1.35,4.52,1.09,11.18-1.95,14.85Z"/>
          <path class="cls-3" d="M317.42,134.04c-3.33,2.71-6.3,9.95-7.23,14.14s-1.36,8.54-3,12.5c-1.14,2.75-2.86,5.36-3.03,8.33-.13,2.43,.82,4.8,2.15,6.86,.18,.28,.36,.55,.55,.82,1.09,1.52,2.46,2.95,4.02,4.02,1.77,1.21,3.79,1.94,5.92,1.81,3.37-.21,6.21-2.52,9.38-3.7,4.05-1.51,8.54-1.15,12.77-2.02,6.16-1.27,11.7-5.27,14.84-10.71"/>
          <path class="cls-3" d="M336.74,152.22c1.01,.72,2.06,1.49,3.3,1.62s2.59-.37,3.23-1.44c.65-1.09,.44-2.48,.02-3.68-.73-2.09-2.1-4.03-4.08-5.02-1.97-.99-4.58-.85-6.19,.67,0,0-2.64,3.33,3.72,7.85Z"/>
          <path class="cls-3" d="M299.45,181.33c-1.58-1.39-4.1-1.58-5.88-.45-1.78,1.14-2.67,3.5-2.07,5.53,.59,2.02,2.62,3.53,4.73,3.53-.84,1.2-.74,2.92,.08,4.13,.82,1.22,2.26,1.94,3.72,2.09,2.14,.21,4.41-.84,5.45-2.72,1.05-1.89,.67-4.5-.99-5.87"/>
          <path class="cls-3" d="M304.38,187.42c2.25-1.96,4.35-4.1,6.27-6.39"/>
          <path class="cls-3" d="M300.04,182.06s.06-.07,.09-.1c1.7-1.81,3.39-3.62,5.09-5.44"/>
        </g>
      </g>
      <g>
        <g>
          <path class="cls-1" d="M290.12,140.72c.24,3.49-1.14,7.18-3.23,9.64-3.01,3.52-7.69,5.35-12.32,5.51-4.62,.16-9.19-1.21-13.35-3.23-3.36-1.64-6.57-3.72-10.21-4.55-8.81-2-17.64,3.77-26.67,3.47-1.42-.05-2.93-.29-3.99-1.24-.59-.53-.96-1.2-1.15-1.94-.41-1.59-.02-3.49,.67-5.06,3.17-7.22,10.66-11.59,18.14-14.12,11.29-3.81,23.62-4.5,35.27-1.98,6.05,1.32,12.36,3.83,15.6,9.11l-.02,.09c.77,1.32,1.17,2.79,1.26,4.3Zm-12.32,1.76c.44-.97,.21-2.2-.54-2.96-.49-.49-1.18-.75-1.87-.76v-.02c-.37-.26-.91-.14-1.25,.16-.33,.3-.51,.73-.66,1.16-.2,.56-.37,1.15-.38,1.75s.16,1.22,.57,1.65,1,.64,1.59,.65c1.07,.01,2.11-.65,2.54-1.63Z"/>
          <path class="cls-2" d="M220.35,150.32c1.06,.95,2.57,1.19,3.99,1.24,9.03,.3,17.86-5.47,26.67-3.47,3.64,.83,6.85,2.91,10.21,4.55,4.16,2.02,8.73,3.39,13.35,3.23,4.63-.16,9.31-1.99,12.32-5.51,2.09-2.46,3.47-6.15,3.23-9.64h.13s2.06,15.7,2.06,15.7c-.01,2.88-2.59,5.06-5.13,6.42-7.09,3.81-15.75,4.58-23.41,2.07-4.28-1.4-8.25-3.78-12.67-4.67-8.44-1.71-16.88,2.19-25.36,3.73-1.38,.25-2.98,.38-4.03-.56-.85-.75-1.07-1.97-1.24-3.1-.59-3.95-1.18-7.91-1.78-11.86l.51-.07c.19,.74,.56,1.41,1.15,1.94Z"/>
        </g>
        <g>
          <path class="cls-3" d="M288.88,136.33c-3.24-5.28-9.55-7.79-15.6-9.11-11.65-2.52-23.98-1.83-35.27,1.98-7.48,2.53-14.97,6.9-18.14,14.12-.69,1.57-1.08,3.47-.67,5.06,.19,.74,.56,1.41,1.15,1.94,1.06,.95,2.57,1.19,3.99,1.24,9.03,.3,17.86-5.47,26.67-3.47,3.64,.83,6.85,2.91,10.21,4.55,4.16,2.02,8.73,3.39,13.35,3.23,4.63-.16,9.31-1.99,12.32-5.51,2.09-2.46,3.47-6.15,3.23-9.64-.09-1.51-.49-2.98-1.26-4.3"/>
          <path class="cls-3" d="M218.69,148.45c.6,3.95,1.19,7.91,1.78,11.86,.17,1.13,.39,2.35,1.24,3.1,1.05,.94,2.65,.81,4.03,.56,8.48-1.54,16.92-5.44,25.36-3.73,4.42,.89,8.39,3.27,12.67,4.67,7.66,2.51,16.32,1.74,23.41-2.07,2.54-1.36,5.12-3.54,5.13-6.42l-2.06-15.71"/>
          <path class="cls-6" d="M275.39,138.74c-.37-.26-.91-.14-1.25,.16-.33,.3-.51,.73-.66,1.16-.2,.56-.37,1.15-.38,1.75s.16,1.22,.57,1.65,1,.64,1.59,.65c1.07,.01,2.11-.65,2.54-1.63,.44-.97,.21-2.2-.54-2.96-.49-.49-1.18-.75-1.87-.76-.37,0-.74,.08-1.08,.24"/>
          <path class="cls-6" d="M265.06,133.45c-2.17,2.94-4.2,5.98-6.07,9.11"/>
          <path class="cls-6" d="M248.73,133.95c-1.89,2.31-3.71,4.68-5.46,7.1"/>
        </g>
      </g>
      <g>
        <path class="cls-3" d="M217.5,189c13.41,8.2,30.63,9.6,45.33,4.04,2.96-1.12,5.93-2.61,7.79-5.18s2.22-6.43,.08-8.76c-1.9-2.05-5.12-2.32-7.81-1.58s-5.09,2.28-7.65,3.4c-6.84,3.01-14.9,2.89-21.82,.07-2.86-1.17-5.57-2.78-8.58-3.47s-6.56-.26-8.56,2.1c-2.15,2.53-1.4,7.45,1.33,9.33"/>
        <path class="cls-3" d="M273.51,182.57c1.05,.28,2.11,.56,3.16,.84,.45,.12,1.02,.2,1.31-.17,.17-.22,.17-.53,.16-.81-.07-1.54-.13-3.08-.2-4.62-.01-.34-.03-.69-.16-1s-.41-.59-.75-.63c-.43-.04-.8,.29-1.1,.6-.86,.89-1.73,1.79-2.59,2.68"/>
        <path class="cls-3" d="M214.57,181.75c-1.02-.06-1.99-.6-2.58-1.43-.23-.33-.42-.72-.77-.92-.63-.36-1.4,.07-1.98,.5-.89,.67-1.73,1.4-2.51,2.18-.53,.53-1.07,1.19-.96,1.93,.09,.62,.62,1.07,1.11,1.46,.87,.69,1.73,1.38,2.6,2.07,.15,.12,.3,.24,.49,.26,.27,.03,.51-.17,.64-.41s.16-.51,.21-.77c.3-1.41,1.36-2.64,2.72-3.13"/>
      </g>
      <g>
        <path class="cls-2" d="M288.09,55.77c13.99,9.78,20.7,18.48,33.61,29.64-24.07-2.66-41.16-3.99-65.23-6.65,.34-1.66,1.12-5.46,5.64-9.92,1.54,.88,3.9,.41,4.7-1.25,.4-.81,.33-1.76-.03-2.58,1.45-1.01,3.1-2.02,5-3.04,1.41,1.52,4.41,1.16,5.34-.74,.29-.59,.33-1.26,.2-1.89,1.84-.79,3.85-1.56,6.03-2.32,1.54,.84,3.84,.34,4.63-1.28l.11,.02Z"/>
        <g>
          <path class="cls-3" d="M284.63,51.1c-2.21,.29-3.51,3.31-2.21,5.11,.25,.34,.57,.62,.94,.81,1.54,.84,3.84,.34,4.63-1.28,.04-.08,.07-.17,.1-.25,.74-1.99-1.01-4.51-3.15-4.43"/>
          <path class="cls-3" d="M263.46,62.94c-2.21,.29-3.52,3.31-2.21,5.13,.24,.32,.53,.57,.86,.77,1.54,.88,3.9,.41,4.7-1.25,.4-.81,.33-1.76-.03-2.58-.52-1.2-1.68-2.15-3.01-2.1"/>
          <path class="cls-3" d="M273.77,56.58c-2.22,.29-3.52,3.32-2.21,5.13,.07,.09,.15,.19,.22,.27,1.41,1.52,4.41,1.16,5.34-.74,.29-.59,.33-1.26,.2-1.89-.32-1.51-1.68-2.85-3.25-2.79"/>
          <path class="cls-3" d="M288.21,55.46s-.09,.03-.14,.04c-1.66,.5-3.24,1.01-4.73,1.53-2.18,.76-4.19,1.53-6.03,2.32-2.05,.87-3.89,1.75-5.54,2.63-1.9,1.02-3.56,2.03-5,3.04-1.89,1.3-3.42,2.59-4.67,3.83-4.52,4.46-5.3,8.25-5.64,9.92,24.08,2.66,41.17,3.99,65.23,6.65-12.91-11.15-19.62-19.86-33.61-29.64"/>
          <path class="cls-3" d="M256.32,79.18c1.83,6.35,2.72,8.88,3.23,11.96,.38,2.4,.54,5.15,.73,10.28,22.26,2.16,36.55,1.91,58.89,1.21,1.21-.03,2.52-.11,3.41-.93,1.23-1.11,1.11-3.05,.89-4.7s-.37-2.73-.49-3.47c-.46-2.89-.35-.61-1.2-7.06"/>
          <path class="cls-4" d="M322.31,93.63c-22.24-.46-38.68-.86-60.84-2.84"/>
          <path class="cls-4" d="M284.53,68.85s-.16-.03-.01-.02"/>
          <path class="cls-4" d="M284.48,68.85h.06"/>
          <path class="cls-4" d="M288.08,64.87c.21,.02-.17-.04,.04-.02"/>
          <path class="cls-4" d="M282.68,74.41h.05"/>
          <path class="cls-4" d="M282.76,74.43s-.06-.02-.07-.02h-.01"/>
          <path class="cls-4" d="M282.7,74.43h.06"/>
          <path class="cls-4" d="M275.61,72.21c.06,.01,.07,0,.04-.01h-.06"/>
          <path class="cls-4" d="M293.41,69.29c.21,.02-.17-.04,.04-.02"/>
          <path class="cls-4" d="M298.19,74.61c.21,.03-.16-.04,.04-.01"/>
          <path class="cls-4" d="M289.61,74.19c.2,.03-.17-.04,.03-.01"/>
        </g>
      </g>
    </g>
    <g>
      <g>
        <path class="cls-3" d="M312.86,330.5c1.97-1.08,4.56-.92,6.38,.4s2.78,3.73,2.37,5.94-2.18,4.11-4.36,4.68"/>
        <path class="cls-3" d="M313.53,330.43c-8.21-7.36-19.71-10.9-30.64-9.44-10.93,1.46-21.09,7.89-27.09,17.15-2.38,3.67-4.15,8-3.56,12.33"/>
        <path class="cls-3" d="M252.69,351.55c-1.72-.67-3.81-.1-5.04,1.28s-1.58,3.45-.97,5.19,2.11,3.12,3.86,3.69c1.75,.57,3.73,.37,5.38-.45"/>
        <path class="cls-3" d="M255.41,361.77c7.33,6.99,18.06,9.88,28.1,8.58,10.04-1.3,19.91-6.2,27.11-13.32,2.05-2.02,3.4-4.54,4.66-7.13,1.26-2.59,1.81-5.6,1.07-8.38"/>
      </g>
      <path class="cls-3" d="M273.92,333.79v-.14"/>
      <path class="cls-3" d="M265.41,342.71c-.05-.08-.19-.03-.19,.06s.16,.12,.19,.04"/>
      <path class="cls-3" d="M273.92,345.65v.14"/>
    </g>
    <g>
      <path class="cls-3" d="M245.84,481.22c3.06,3.05,6.12,6.1,9.18,9.15"/>
      <g>
        <path class="cls-3" d="M245.07,480.02c-.8-4.04-4.26-7.23-8.2-8.43s-8.24-.63-12.11,.79c-3.86,1.42-7.15,5.82-10.61,8.04,2.82,5.47,8.34,7.17,14.48,7.71,6.13,.54,12.46-2.24,16.2-7.13"/>
        <path class="cls-3" d="M245.21,480.42c4.58-3.44,6.2-9.85,5.13-15.47-1.08-5.63-2.15-10.28-5.97-14.55-6.11,4.75-12.06,12.23-11.85,19.96"/>
        <path class="cls-3" d="M232.7,464.7c-1.68-3.69-5.82-6.67-9.39-7.38s-7.16,.17-10.31,1.79-5.93,3.94-8.68,6.25c3.1,5.26,8.2,9.08,13.6,10.19"/>
        <path class="cls-3" d="M219.7,456.22c-1.22-3.32-.7-7.08,.68-10.34,1.38-3.26,3.54-6.11,5.69-8.92,6.31,2.66,11.58,10.11,12.28,16.92"/>
        <path class="cls-3" d="M221.87,442.87c-.69-4.78-5.63-9.26-9.69-11.86-3.94,4.45-5.17,8.84-6.22,14.69"/>
        <path class="cls-3" d="M218,452.31c-1.83-3.41-5.11-4.93-8.14-6.04-1.89-.69-3.79-.28-5.49,.43-3.89,1.63-6.1,2.71-9.25,5.8,3.04,4.88,7.33,8.61,11.86,10.28"/>
        <path class="cls-3" d="M208.04,436.47c-1.76-2.15-3.2-2.15-5.92-2.71s-5.52-.5-8.3-.43c-.44,5.18,1.11,10.5,4.25,14.63"/>
        <path class="cls-6" d="M197.78,470.54c5.4,5.52,9.88,8.85,17.32,10.92"/>
        <path class="cls-6" d="M185.84,454.9c4.98,5.38,12.68,10.99,19.75,12.91"/>
        <path class="cls-6" d="M194.96,453.2c-4.33-1.89-7.45-4.6-11.02-7.7"/>
        <path class="cls-6" d="M181.8,420.59c3.74,4.36,7.49,8.73,11.23,13.09"/>
        <path class="cls-6" d="M213.59,430.92c-1.53-3.33-3.69-5.63-6.31-8.19"/>
        <path class="cls-6" d="M226.62,437.26c-2.19-5.74-5.25-11.13-9.06-15.95"/>
        <path class="cls-6" d="M245.31,451.06c-1.43-6.44-4.97-11.02-9.51-15.81"/>
      </g>
    </g>
  </g>
</svg>