<?xml version="1.0" encoding="utf-8"?>
<!-- Generator: Adobe Illustrator 27.0.0, SVG Export Plug-In . SVG Version: 6.00 Build 0)  -->
<svg version="1.1" id="Layer_1" xmlns="http://www.w3.org/2000/svg" xmlns:xlink="http://www.w3.org/1999/xlink" x="0px" y="0px"
	 viewBox="0 0 24 24" style="enable-background:new 0 0 24 24;" xml:space="preserve">
<style type="text/css">
	.st0{fill:#133F26;}
</style>
<path class="st0" d="M5.2,19.3c0.4,0.4,0.9,0.8,1.4,1.1l-0.9,1.8c-0.7-0.5-1.4-1-2-1.6L5.2,19.3z M7.5,23.1c0.8,0.3,1.6,0.6,2.5,0.7
	l0.1-2c-0.6-0.1-1.2-0.3-1.7-0.5C8.4,21.3,7.5,23.1,7.5,23.1z M10,18h4V6h-4V18z M2.4,19.1l1.5-1.4c-0.3-0.5-0.7-1-0.9-1.6l-1.9,0.7
	C1.4,17.7,1.9,18.4,2.4,19.1z M2.3,14.3C2.1,13.6,2,12.8,2,12C2,6.5,6.5,2,12,2s10,4.5,10,10c0,1.9-0.6,3.7-1.5,5.2L18.3,15l-1.4,7
	l7-1.4l-2-2c1.3-1.9,2-4.2,2-6.7c0-6.6-5.4-12-12-12S0,5.4,0,12c0,1,0.1,2.1,0.4,3C0.4,15,2.3,14.3,2.3,14.3z M14.4,23.7l-0.4-2
	c-0.6,0.1-1.2,0.2-1.9,0.2L12,24C12.8,24,13.6,23.9,14.4,23.7z"/>
</svg>
