<?xml version="1.0" encoding="UTF-8"?>
<svg id="Layer_2" data-name="Layer 2" xmlns="http://www.w3.org/2000/svg" viewBox="0 0 482.36 407.89">
  <defs>
    <style>
      .cls-1 {
        fill: #fff;
      }

      .cls-2 {
        fill: #d1d9d2;
      }

      .cls-3, .cls-4 {
        stroke-width: 8px;
      }

      .cls-3, .cls-4, .cls-5 {
        fill: none;
        stroke-linecap: round;
        stroke-linejoin: round;
      }

      .cls-3, .cls-5 {
        stroke: #133f26;
      }

      .cls-4 {
        stroke: #d1d9d2;
      }

      .cls-5 {
        stroke-width: 6px;
      }
    </style>
  </defs>
  <g id="Layer_1-2" data-name="Layer 1">
    <g>
      <g>
        <path class="cls-1" d="M110.14,347.46c4.03-4.04,10.58-4.04,14.61,0,2.02,2.02,3.03,4.67,3.03,7.31s-1.01,5.29-3.03,7.31l-7.65,7.65-.42-.42-14.06-13.22-.55-.55,8.07-8.08Z"/>
        <path class="cls-1" d="M110.14,139.1c4.03-4.04,10.58-4.04,14.61,0,2.02,2.01,3.03,4.66,3.03,7.31s-1.01,5.28-3.03,7.3l-7.65,7.66-.42-.42-14.06-13.22-.56-.56,8.08-8.07Z"/>
        <path class="cls-1" d="M94.66,377.56c4.03,4.03,10.58,4.03,14.61,0l7.83-7.83,7.65-7.65c2.02-2.02,3.03-4.67,3.03-7.31s-1.01-5.29-3.03-7.31c-4.03-4.04-10.58-4.04-14.61,0l-8.07,8.08-7.41,7.4c-4.04,4.03-4.04,10.58,0,14.62Zm0-52.09c4.03,4.03,10.58,4.03,14.61,0l7.83-7.83,7.65-7.65c2.02-2.02,3.03-4.67,3.03-7.31s-1.01-5.29-3.03-7.31c-4.03-4.04-10.58-4.04-14.61,0l-8.07,8.08-7.41,7.4c-4.04,4.03-4.04,10.58,0,14.62Zm0-52.1c4.03,4.04,10.58,4.04,14.61,0l7.83-7.82,7.65-7.65c2.02-2.02,3.03-4.67,3.03-7.31s-1.01-5.3-3.03-7.31c-4.03-4.04-10.58-4.04-14.61,0l-8.07,8.08-7.41,7.4c-4.04,4.03-4.04,10.58,0,14.61Zm0-52.09c4.03,4.04,10.58,4.04,14.61,0l7.83-7.82,7.65-7.66c2.02-2.01,3.03-4.66,3.03-7.31s-1.01-5.28-3.03-7.3c-4.03-4.04-10.58-4.04-14.61,0l-8.07,8.08-7.41,7.4c-4.04,4.03-4.04,10.58,0,14.61Zm0-52.09c4.03,4.04,10.58,4.04,14.61,0l7.83-7.82,7.65-7.66c2.02-2.02,3.03-4.66,3.03-7.3s-1.01-5.3-3.03-7.31c-4.03-4.04-10.58-4.04-14.61,0l-8.08,8.07-7.4,7.4c-4.04,4.04-4.04,10.59,0,14.62Zm-20.3-50.69h60.93c5.61,0,10.16,4.54,10.16,10.16V393.73c0,5.61-4.55,10.16-10.16,10.16h-60.93V118.5"/>
        <path class="cls-1" d="M110.14,191.19c4.03-4.04,10.58-4.04,14.61,0,2.02,2.02,3.03,4.66,3.03,7.3s-1.01,5.3-3.03,7.31l-7.65,7.66-.42-.42-14.06-13.22-.55-.55,8.07-8.08Z"/>
        <path class="cls-1" d="M110.14,243.28c4.03-4.04,10.58-4.04,14.61,0,2.02,2.01,3.03,4.66,3.03,7.31s-1.01,5.29-3.03,7.31l-7.65,7.65-.42-.42-14.06-13.22-.55-.55,8.07-8.08Z"/>
        <path class="cls-1" d="M110.14,295.37c4.03-4.04,10.58-4.04,14.61,0,2.02,2.02,3.03,4.66,3.03,7.31s-1.01,5.29-3.03,7.31l-7.65,7.65-.42-.42-14.06-13.22-.55-.55,8.07-8.08Z"/>
        <path class="cls-2" d="M109.27,169.19c-4.03,4.04-10.58,4.04-14.61,0-4.04-4.03-4.04-10.58,0-14.62l7.4-7.4,.56,.56,14.06,13.22,.42,.42-7.83,7.82Z"/>
        <path class="cls-2" d="M109.27,221.28c-4.03,4.04-10.58,4.04-14.61,0-4.04-4.03-4.04-10.58,0-14.61l7.41-7.4,.55,.55,14.06,13.22,.42,.42-7.83,7.82Z"/>
        <path class="cls-2" d="M109.27,273.37c-4.03,4.04-10.58,4.04-14.61,0-4.04-4.03-4.04-10.58,0-14.61l7.41-7.4,.55,.55,14.06,13.22,.42,.42-7.83,7.82Z"/>
        <path class="cls-2" d="M109.27,325.47c-4.03,4.03-10.58,4.03-14.61,0s-4.04-10.59,0-14.62l7.41-7.4,.55,.55,14.06,13.22,.42,.42-7.83,7.83Z"/>
        <path class="cls-2" d="M109.27,377.56c-4.03,4.03-10.58,4.03-14.61,0s-4.04-10.59,0-14.62l7.41-7.4,.55,.55,14.06,13.22,.42,.42-7.83,7.83Z"/>
        <path class="cls-1" d="M39.61,139.1c4.04-4.04,10.58-4.04,14.62,0,2.02,2.01,3.03,4.66,3.03,7.31s-1.01,5.28-3.03,7.3l-7.65,7.66-.42-.42-14.06-13.22-.56-.56,8.07-8.07Z"/>
        <path class="cls-1" d="M39.61,191.19c4.04-4.04,10.58-4.04,14.62,0,2.02,2.02,3.03,4.66,3.03,7.3s-1.01,5.3-3.03,7.31l-7.65,7.66-.42-.42-14.06-13.22-.56-.56,8.07-8.07Z"/>
        <path class="cls-1" d="M39.61,243.28c4.04-4.04,10.58-4.04,14.62,0,2.02,2.01,3.03,4.66,3.03,7.31s-1.01,5.29-3.03,7.31l-7.65,7.65-.42-.42-14.06-13.22-.56-.56,8.07-8.07Z"/>
        <path class="cls-1" d="M39.61,295.37c4.04-4.04,10.58-4.04,14.62,0,2.02,2.02,3.03,4.66,3.03,7.31s-1.01,5.29-3.03,7.31l-7.65,7.65-.42-.42-14.06-13.22-.56-.56,8.07-8.07Z"/>
        <path class="cls-1" d="M39.61,347.46c4.04-4.04,10.58-4.04,14.62,0,2.02,2.02,3.03,4.67,3.03,7.31s-1.01,5.29-3.03,7.31l-7.65,7.65-.42-.42-14.06-13.22-.56-.56,8.07-8.07Z"/>
        <path class="cls-2" d="M38.75,169.19c-4.04,4.04-10.58,4.04-14.62,0s-4.03-10.58,0-14.62l7.41-7.4,.56,.56,14.06,13.22,.42,.42-7.83,7.82Z"/>
        <path class="cls-2" d="M38.75,221.28c-4.04,4.04-10.58,4.04-14.62,0s-4.03-10.58,0-14.61l7.41-7.41,.56,.56,14.06,13.22,.42,.42-7.83,7.82Z"/>
        <path class="cls-2" d="M38.75,273.37c-4.04,4.04-10.58,4.04-14.62,0s-4.03-10.58,0-14.61l7.41-7.41,.56,.56,14.06,13.22,.42,.42-7.83,7.82Z"/>
        <path class="cls-2" d="M38.75,325.47c-4.04,4.03-10.58,4.03-14.62,0-4.03-4.04-4.03-10.59,0-14.62l7.41-7.41,.56,.56,14.06,13.22,.42,.42-7.83,7.83Z"/>
        <path class="cls-2" d="M38.75,377.56c-4.04,4.03-10.58,4.03-14.62,0-4.03-4.04-4.03-10.59,0-14.62l7.41-7.41,.56,.56,14.06,13.22,.42,.42-7.83,7.83Z"/>
        <path class="cls-1" d="M24.13,377.56c4.04,4.03,10.58,4.03,14.62,0l7.83-7.83,7.65-7.65c2.02-2.02,3.03-4.67,3.03-7.31s-1.01-5.29-3.03-7.31c-4.04-4.04-10.58-4.04-14.62,0l-8.07,8.07-7.41,7.41c-4.03,4.03-4.03,10.58,0,14.62Zm0-52.09c4.04,4.03,10.58,4.03,14.62,0l7.83-7.83,7.65-7.65c2.02-2.02,3.03-4.67,3.03-7.31s-1.01-5.29-3.03-7.31c-4.04-4.04-10.58-4.04-14.62,0l-8.07,8.07-7.41,7.41c-4.03,4.03-4.03,10.58,0,14.62Zm0-52.1c4.04,4.04,10.58,4.04,14.62,0l7.83-7.82,7.65-7.65c2.02-2.02,3.03-4.67,3.03-7.31s-1.01-5.3-3.03-7.31c-4.04-4.04-10.58-4.04-14.62,0l-8.07,8.07-7.41,7.41c-4.03,4.03-4.03,10.58,0,14.61Zm0-52.09c4.04,4.04,10.58,4.04,14.62,0l7.83-7.82,7.65-7.66c2.02-2.01,3.03-4.66,3.03-7.31s-1.01-5.28-3.03-7.3c-4.04-4.04-10.58-4.04-14.62,0l-8.07,8.07-7.41,7.41c-4.03,4.03-4.03,10.58,0,14.61Zm0-52.09c4.04,4.04,10.58,4.04,14.62,0l7.83-7.82,7.65-7.66c2.02-2.02,3.03-4.66,3.03-7.3s-1.01-5.3-3.03-7.31c-4.04-4.04-10.58-4.04-14.62,0l-8.07,8.07-7.41,7.4c-4.03,4.04-4.03,10.59,0,14.62Zm50.23-50.69V403.89H14.16c-5.61,0-10.16-4.55-10.16-10.16V128.66c0-5.62,4.55-10.16,10.16-10.16h60.2Z"/>
      </g>
      <g>
        <path class="cls-3" d="M74.36,403.89H14.16c-5.61,0-10.16-4.55-10.16-10.16V128.66c0-5.62,4.55-10.16,10.16-10.16h60.2"/>
        <line class="cls-4" x1="74.36" y1="118.5" x2="74.36" y2="403.89"/>
        <path class="cls-3" d="M68.24,403.89h67.05c5.61,0,10.16-4.55,10.16-10.16V128.66c0-5.62-4.55-10.16-10.16-10.16H66.74"/>
        <path class="cls-3" d="M46.58,161.37l-7.83,7.82c-4.04,4.04-10.58,4.04-14.62,0s-4.03-10.58,0-14.62l7.41-7.4,8.07-8.07c4.04-4.04,10.58-4.04,14.62,0,2.02,2.01,3.03,4.66,3.03,7.31s-1.01,5.28-3.03,7.3l-7.65,7.66Z"/>
        <line class="cls-3" x1="32.1" y1="147.73" x2="46.16" y2="160.95"/>
        <path class="cls-3" d="M46.58,213.46l-7.83,7.82c-4.04,4.04-10.58,4.04-14.62,0s-4.03-10.58,0-14.61l7.41-7.41,8.07-8.07c4.04-4.04,10.58-4.04,14.62,0,2.02,2.02,3.03,4.66,3.03,7.3s-1.01,5.3-3.03,7.31l-7.65,7.66Z"/>
        <line class="cls-3" x1="32.1" y1="199.82" x2="46.16" y2="213.04"/>
        <path class="cls-3" d="M46.58,265.55l-7.83,7.82c-4.04,4.04-10.58,4.04-14.62,0s-4.03-10.58,0-14.61l7.41-7.41,8.07-8.07c4.04-4.04,10.58-4.04,14.62,0,2.02,2.01,3.03,4.66,3.03,7.31s-1.01,5.29-3.03,7.31l-7.65,7.65Z"/>
        <line class="cls-3" x1="32.1" y1="251.91" x2="46.16" y2="265.13"/>
        <path class="cls-3" d="M46.58,317.64l-7.83,7.83c-4.04,4.03-10.58,4.03-14.62,0-4.03-4.04-4.03-10.59,0-14.62l7.41-7.41,8.07-8.07c4.04-4.04,10.58-4.04,14.62,0,2.02,2.02,3.03,4.66,3.03,7.31s-1.01,5.29-3.03,7.31l-7.65,7.65Z"/>
        <line class="cls-3" x1="32.1" y1="304" x2="46.16" y2="317.22"/>
        <path class="cls-3" d="M46.58,369.73l-7.83,7.83c-4.04,4.03-10.58,4.03-14.62,0-4.03-4.04-4.03-10.59,0-14.62l7.41-7.41,8.07-8.07c4.04-4.04,10.58-4.04,14.62,0,2.02,2.02,3.03,4.67,3.03,7.31s-1.01,5.29-3.03,7.31l-7.65,7.65Z"/>
        <line class="cls-3" x1="32.1" y1="356.09" x2="46.16" y2="369.31"/>
        <path class="cls-3" d="M117.1,161.37l-7.83,7.82c-4.03,4.04-10.58,4.04-14.61,0-4.04-4.03-4.04-10.58,0-14.62l7.4-7.4,8.08-8.07c4.03-4.04,10.58-4.04,14.61,0,2.02,2.01,3.03,4.66,3.03,7.31s-1.01,5.28-3.03,7.3l-7.65,7.66Z"/>
        <line class="cls-3" x1="102.62" y1="147.73" x2="116.68" y2="160.95"/>
        <path class="cls-3" d="M117.1,213.46l-7.83,7.82c-4.03,4.04-10.58,4.04-14.61,0-4.04-4.03-4.04-10.58,0-14.61l7.41-7.4,8.07-8.08c4.03-4.04,10.58-4.04,14.61,0,2.02,2.02,3.03,4.66,3.03,7.3s-1.01,5.3-3.03,7.31l-7.65,7.66Z"/>
        <line class="cls-3" x1="102.62" y1="199.82" x2="116.68" y2="213.04"/>
        <path class="cls-3" d="M117.1,265.55l-7.83,7.82c-4.03,4.04-10.58,4.04-14.61,0-4.04-4.03-4.04-10.58,0-14.61l7.41-7.4,8.07-8.08c4.03-4.04,10.58-4.04,14.61,0,2.02,2.01,3.03,4.66,3.03,7.31s-1.01,5.29-3.03,7.31l-7.65,7.65Z"/>
        <line class="cls-3" x1="102.62" y1="251.91" x2="116.68" y2="265.13"/>
        <path class="cls-3" d="M117.1,317.64l-7.83,7.83c-4.03,4.03-10.58,4.03-14.61,0s-4.04-10.59,0-14.62l7.41-7.4,8.07-8.08c4.03-4.04,10.58-4.04,14.61,0,2.02,2.02,3.03,4.66,3.03,7.31s-1.01,5.29-3.03,7.31l-7.65,7.65Z"/>
        <line class="cls-3" x1="102.62" y1="304" x2="116.68" y2="317.22"/>
        <path class="cls-3" d="M117.1,369.73l-7.83,7.83c-4.03,4.03-10.58,4.03-14.61,0s-4.04-10.59,0-14.62l7.41-7.4,8.07-8.08c4.03-4.04,10.58-4.04,14.61,0,2.02,2.02,3.03,4.67,3.03,7.31s-1.01,5.29-3.03,7.31l-7.65,7.65Z"/>
        <line class="cls-3" x1="102.62" y1="356.09" x2="116.68" y2="369.31"/>
      </g>
    </g>
    <g>
      <g>
        <path class="cls-2" d="M267.22,297.3v88.41c0,10.04-5.9,18.18-13.17,18.18H116.17c-5.49,0-9.94-6.15-9.94-13.72v-92.87h160.99Z"/>
        <polygon class="cls-1" points="267.22 170.75 267.22 297.3 266.5 297.3 106.76 297.3 106.23 297.3 106.23 170.75 106.76 170.75 266.69 170.75 267.22 170.75"/>
        <polygon class="cls-2" points="267.22 82.8 267.22 170.75 266.69 170.75 106.76 170.75 106.23 170.75 106.23 82.8 267.22 82.8"/>
        <path class="cls-1" d="M267.22,63.16c3.93,0,7.12,4.39,7.12,9.82,0,2.71-.8,5.17-2.09,6.94-1.29,1.78-3.07,2.88-5.03,2.88H106.23c-3.93,0-7.12-4.4-7.12-9.82,0-2.71,.8-5.17,2.09-6.95,1.29-1.77,3.07-2.87,5.03-2.87h160.99Z"/>
        <path class="cls-1" d="M271.44,12.1V55.06c0,4.47-2.63,8.1-5.87,8.1H107.88c-3.24,0-5.87-3.63-5.87-8.1V12.1c0-4.47,2.63-8.1,5.87-8.1h157.69c3.24,0,5.87,3.63,5.87,8.1Z"/>
      </g>
      <g>
        <path class="cls-3" d="M107.88,63.16c-3.24,0-5.87-3.63-5.87-8.1V12.1c0-4.47,2.63-8.1,5.87-8.1h157.69c3.24,0,5.87,3.63,5.87,8.1V55.06c0,4.47-2.63,8.1-5.87,8.1"/>
        <path class="cls-3" d="M267.22,82.8H106.23c-3.93,0-7.12-4.4-7.12-9.82,0-2.71,.8-5.17,2.09-6.95,1.29-1.77,3.07-2.87,5.03-2.87h160.99c3.93,0,7.12,4.39,7.12,9.82,0,2.71-.8,5.17-2.09,6.94-1.29,1.78-3.07,2.88-5.03,2.88Z"/>
        <path class="cls-3" d="M106.23,82.8V390.17c0,7.57,4.45,13.72,9.94,13.72H254.05c7.28,0,13.17-8.14,13.17-18.18V82.8"/>
        <line class="cls-4" x1="120.54" y1="23.11" x2="120.54" y2="45.2"/>
        <line class="cls-4" x1="137.2" y1="23.11" x2="137.2" y2="45.2"/>
        <line class="cls-4" x1="153.86" y1="23.11" x2="153.86" y2="45.2"/>
        <line class="cls-4" x1="170.53" y1="23.11" x2="170.53" y2="45.2"/>
        <line class="cls-4" x1="187.19" y1="23.11" x2="187.19" y2="45.2"/>
        <line class="cls-4" x1="203.85" y1="23.11" x2="203.85" y2="45.2"/>
        <line class="cls-4" x1="220.51" y1="23.11" x2="220.51" y2="45.2"/>
        <line class="cls-4" x1="237.18" y1="23.11" x2="237.18" y2="45.2"/>
        <line class="cls-4" x1="253.84" y1="23.11" x2="253.84" y2="45.2"/>
        <line class="cls-3" x1="266.69" y1="170.75" x2="106.76" y2="170.75"/>
        <line class="cls-3" x1="266.5" y1="297.3" x2="106.76" y2="297.3"/>
      </g>
    </g>
    <g>
      <g>
        <path class="cls-2" d="M351,352.34c9.23,0,16.72,7.49,16.72,16.73s-7.49,16.72-16.72,16.72-16.73-7.48-16.73-16.72,7.49-16.73,16.73-16.73Z"/>
        <path class="cls-2" d="M240.45,352.34c9.24,0,16.73,7.49,16.73,16.73s-7.49,16.72-16.73,16.72-16.73-7.48-16.73-16.72,7.49-16.73,16.73-16.73Z"/>
        <path class="cls-2" d="M351,298.7c9.23,0,16.72,7.49,16.72,16.73s-7.49,16.73-16.72,16.73-16.73-7.49-16.73-16.73,7.49-16.73,16.73-16.73Z"/>
        <path class="cls-2" d="M295.72,352.34c9.24,0,16.73,7.49,16.73,16.73s-7.49,16.72-16.73,16.72-16.72-7.48-16.72-16.72,7.49-16.73,16.72-16.73Z"/>
        <circle class="cls-2" cx="240.45" cy="315.43" r="16.73"/>
        <path class="cls-2" d="M295.72,298.7c9.24,0,16.73,7.49,16.73,16.73s-7.49,16.73-16.73,16.73-16.72-7.49-16.72-16.73,7.49-16.73,16.72-16.73Z"/>
        <path class="cls-1" d="M393.09,290.22v104.06c0,5.31-4.3,9.61-9.61,9.61H207.96c-5.3,0-9.6-4.3-9.6-9.61v-104.06c0-5.31,4.3-9.61,9.6-9.61h175.52c5.31,0,9.61,4.3,9.61,9.61Zm-25.37,25.21c0-9.24-7.49-16.73-16.72-16.73s-16.73,7.49-16.73,16.73,7.49,16.73,16.73,16.73,16.72-7.49,16.72-16.73Zm0,53.64c0-9.24-7.49-16.73-16.72-16.73s-16.73,7.49-16.73,16.73,7.49,16.72,16.73,16.72,16.72-7.48,16.72-16.72Zm-55.27-53.64c0-9.24-7.49-16.73-16.73-16.73s-16.72,7.49-16.72,16.73,7.49,16.73,16.72,16.73,16.73-7.49,16.73-16.73Zm0,53.64c0-9.24-7.49-16.73-16.73-16.73s-16.72,7.49-16.72,16.73,7.49,16.72,16.72,16.72,16.73-7.48,16.73-16.72Zm-55.27-53.64c0-9.24-7.49-16.73-16.73-16.73s-16.73,7.49-16.73,16.73,7.49,16.73,16.73,16.73,16.73-7.49,16.73-16.73Zm0,53.64c0-9.24-7.49-16.73-16.73-16.73s-16.73,7.49-16.73,16.73,7.49,16.72,16.73,16.72,16.73-7.48,16.73-16.72Z"/>
      </g>
      <g>
        <path class="cls-3" d="M383.48,403.89H207.96c-5.3,0-9.6-4.3-9.6-9.61v-104.06c0-5.31,4.3-9.61,9.6-9.61h175.52c5.31,0,9.61,4.3,9.61,9.61v104.06c0,5.31-4.3,9.61-9.61,9.61Z"/>
        <circle class="cls-3" cx="240.45" cy="315.43" r="16.73"/>
        <path class="cls-3" d="M312.45,315.43c0,9.24-7.49,16.73-16.73,16.73s-16.72-7.49-16.72-16.73,7.49-16.73,16.72-16.73,16.73,7.49,16.73,16.73Z"/>
        <path class="cls-3" d="M367.72,315.43c0,9.24-7.49,16.73-16.72,16.73s-16.73-7.49-16.73-16.73,7.49-16.73,16.73-16.73,16.72,7.49,16.72,16.73Z"/>
        <path class="cls-3" d="M257.18,369.07c0,9.24-7.49,16.72-16.73,16.72s-16.73-7.48-16.73-16.72,7.49-16.73,16.73-16.73,16.73,7.49,16.73,16.73Z"/>
        <path class="cls-3" d="M312.45,369.07c0,9.24-7.49,16.72-16.73,16.72s-16.72-7.48-16.72-16.72,7.49-16.73,16.72-16.73,16.73,7.49,16.73,16.73Z"/>
        <path class="cls-3" d="M367.72,369.07c0,9.24-7.49,16.72-16.72,16.72s-16.73-7.48-16.73-16.72,7.49-16.73,16.73-16.73,16.72,7.49,16.72,16.73Z"/>
      </g>
    </g>
    <g>
      <polygon class="cls-3" points="347.34 161.18 311.93 178.62 311.93 216.08 347.85 234.3 384.54 219.42 384.54 180.16 347.34 161.18"/>
      <polygon class="cls-3" points="419.95 162.71 384.54 180.16 384.54 217.62 420.46 235.84 457.15 220.96 457.15 181.7 419.95 162.71"/>
      <line class="cls-5" x1="325.02" y1="187" x2="325.02" y2="211.12"/>
      <line class="cls-5" x1="349.01" y1="175.93" x2="370" y2="186.66"/>
      <line class="cls-5" x1="370.43" y1="211.59" x2="350.67" y2="219.8"/>
      <line class="cls-3" x1="311.93" y1="178.62" x2="291.41" y2="160.41"/>
      <line class="cls-3" x1="457.83" y1="181.53" x2="478.36" y2="163.31"/>
      <line class="cls-3" x1="347.34" y1="161.18" x2="347.34" y2="141.42"/>
      <line class="cls-3" x1="419.35" y1="161.18" x2="419.35" y2="141.42"/>
      <line class="cls-3" x1="420.25" y1="256.36" x2="420.25" y2="236.61"/>
      <line class="cls-3" x1="347.85" y1="234.3" x2="347.85" y2="256.62"/>
      <line class="cls-3" x1="311.93" y1="216.08" x2="293.46" y2="233.01"/>
    </g>
  </g>
</svg>