<?xml version="1.0" encoding="UTF-8"?>
<svg id="Layer_2" data-name="Layer 2" xmlns="http://www.w3.org/2000/svg" viewBox="0 0 348.41 311.09">
  <defs>
    <style>
      .cls-1, .cls-2 {
        fill: #fff;
      }

      .cls-3, .cls-4 {
        fill: #192a43;
      }

      .cls-5 {
        fill: #567458;
      }

      .cls-4 {
        opacity: .2;
      }

      .cls-6, .cls-2 {
        opacity: .35;
      }

      .cls-7 {
        fill: none;
        stroke: #192a43;
        stroke-linecap: round;
        stroke-linejoin: round;
        stroke-width: 7px;
      }
    </style>
  </defs>
  <g id="Layer_1-2" data-name="Layer 1">
    <g>
      <g>
        <g>
          <path class="cls-3" d="M119.23,76.13c63.92,0,115.73,51.82,115.73,115.73s-51.81,115.73-115.73,115.73S3.5,255.78,3.5,191.86,55.32,76.13,119.23,76.13Zm97.87,115.73c0-54.05-43.82-97.86-97.87-97.86S21.37,137.81,21.37,191.86s43.82,97.86,97.86,97.86,97.87-43.81,97.87-97.86Z"/>
          <path class="cls-2" d="M115.36,76.82c-21.95,0-42.49,6.11-59.98,16.73,15.72-7.99,33.52-12.5,52.36-12.5,63.92,0,115.73,51.82,115.73,115.73,0,41.98-22.35,78.74-55.81,99.04,37.64-19.1,63.43-58.17,63.43-103.27,0-63.91-51.81-115.73-115.73-115.73Z"/>
          <path class="cls-1" d="M126.79,189.6c.75,1.69,.6,3.64-.39,5.19l-20.33,31.81c-1.05,1.65-2.83,2.54-4.64,2.54-1.01,0-2.04-.28-2.96-.86-2.56-1.64-3.31-5.04-1.67-7.6l18.74-29.32-26.48-59.8c-1.23-2.77,.03-6.02,2.81-7.25,2.77-1.23,6.02,.02,7.25,2.8l27.67,62.49Z"/>
          <path class="cls-4" d="M125.56,195.04l-20.33,31.81c-1.05,1.65-2.83,2.54-4.64,2.54-1.01,0-2.04-.28-2.96-.86-.26-.17-.51-.36-.73-.56,.99-.42,1.86-1.13,2.48-2.1l20.33-31.81c.99-1.55,1.14-3.5,.39-5.19l-27.67-62.49c-.32-.72-.78-1.34-1.33-1.85,2.75-1.18,5.96,.07,7.18,2.83l27.67,62.49c.75,1.69,.6,3.64-.39,5.19Z"/>
          <path class="cls-1" d="M119.23,94c54.05,0,97.87,43.81,97.87,97.86s-43.82,97.86-97.87,97.86S21.37,245.91,21.37,191.86s43.82-97.86,97.86-97.86Zm7.17,100.79c.99-1.55,1.14-3.5,.39-5.19l-27.67-62.49c-1.23-2.78-4.48-4.03-7.25-2.8-2.78,1.23-4.04,4.48-2.81,7.25l26.48,59.8-18.74,29.32c-1.64,2.56-.89,5.96,1.67,7.6,.92,.58,1.95,.86,2.96,.86,1.81,0,3.59-.89,4.64-2.54l20.33-31.81Z"/>
        </g>
        <g>
          <circle class="cls-7" cx="119.23" cy="191.86" r="115.73"/>
          <path class="cls-7" d="M217.1,191.86c0,54.05-43.82,97.86-97.87,97.86S21.37,245.91,21.37,191.86s43.82-97.86,97.86-97.86,97.87,43.81,97.87,97.86Z"/>
          <path class="cls-7" d="M101.43,229.14c-1.01,0-2.04-.28-2.96-.86-2.56-1.64-3.31-5.04-1.67-7.6l18.74-29.32-26.48-59.8c-1.23-2.77,.03-6.02,2.81-7.25,2.77-1.23,6.02,.02,7.25,2.8l27.67,62.49c.75,1.69,.6,3.64-.39,5.19l-20.33,31.81c-1.05,1.65-2.83,2.54-4.64,2.54Z"/>
        </g>
      </g>
      <g>
        <path class="cls-5" d="M307.53,170.75c2.33,0,4.64-.09,6.92-.28-16.5,17.57-39.94,28.55-65.94,28.55-49.94,0-90.42-40.48-90.42-90.42S198.57,18.18,248.51,18.18c3.81,0,7.57,.24,11.26,.7-21.72,15.28-35.89,40.66-35.89,68.95,0,45.8,37.45,82.92,83.65,82.92Z"/>
        <g class="cls-6">
          <path class="cls-1" d="M311.91,170.09c-13.22,14.08-30.89,23.92-50.77,27.28,6.77-2.27,13.55-6.61,18.82-10.56,4.18-3.14,2.92-9.69-2.11-11.12-23.42-6.69-72.73-27.61-70.06-84.85,1.31-28.26,14.17-53.67,35.89-68.95-3.69-.46-7.45-.7-11.26-.7-5.17,0-10.24,.43-15.18,1.27,9.02-3.02,18.69-4.66,28.73-4.66,3.81,0,7.57,.24,11.26,.7-21.72,15.28-35.89,40.66-35.89,68.95,0,45.8,37.45,82.92,83.65,82.92,2.33,0,4.64-.09,6.92-.28Z"/>
        </g>
        <g>
          <path class="cls-7" d="M259.77,18.88c-3.69-.46-7.45-.7-11.26-.7-49.94,0-90.42,40.49-90.42,90.42s40.48,90.42,90.42,90.42c26,0,49.44-10.98,65.94-28.55"/>
          <path class="cls-7" d="M259.77,18.88c-21.72,15.28-35.89,40.66-35.89,68.95,0,45.8,37.45,82.92,83.65,82.92,2.33,0,4.64-.09,6.92-.28"/>
        </g>
      </g>
      <g>
        <polyline class="cls-7" points="295.6 3.5 331.17 3.5 297.67 36.06 340.21 36.06"/>
        <polyline class="cls-7" points="322.89 63.55 343.79 63.55 316.87 84.82 344.91 84.82"/>
        <polyline class="cls-7" points="284.49 105.34 300.87 105.34 279.41 122.18 304.44 122.18"/>
      </g>
    </g>
  </g>
</svg>