<?xml version="1.0" encoding="UTF-8"?>
<svg id="Layer_2" data-name="Layer 2" xmlns="http://www.w3.org/2000/svg" viewBox="0 0 252.88 314.86">
  <defs>
    <style>
      .cls-1, .cls-2 {
        fill: #fff;
      }

      .cls-3, .cls-4, .cls-5 {
        fill: #192a43;
      }

      .cls-6 {
        fill: #567458;
      }

      .cls-4 {
        opacity: .2;
      }

      .cls-7, .cls-2 {
        opacity: .35;
      }

      .cls-8 {
        fill: none;
        stroke: #192a43;
        stroke-linecap: round;
        stroke-linejoin: round;
        stroke-width: 7px;
      }

      .cls-5 {
        opacity: .66;
      }
    </style>
  </defs>
  <g id="Layer_1-2" data-name="Layer 1">
    <g>
      <g>
        <g>
          <path class="cls-1" d="M68.93,8.61v14.34H34.57V8.66c0-.89,.45-1.74,1.24-2.19,6.23-3.56,25.1-4.33,31.91-.04,.75,.48,1.21,1.29,1.21,2.18Z"/>
          <path class="cls-1" d="M99.95,285.57v12.06c0,1.63-1.34,2.95-2.99,2.93-14.33-.15-75.86-.76-90.35-.24-1.67,.06-3.06-1.27-3.06-2.93v-11.82H99.95Z"/>
          <path class="cls-1" d="M68.93,22.95v18.11c0,7.08,1.4,14.09,4.13,20.63l23.5,43.52c1.55,3.63,2.51,7.47,2.85,11.39l-.4,.03H4.73l-.64-.05c.34-3.91,1.29-7.75,2.85-11.37L30.44,61.69c2.72-6.54,4.13-13.55,4.13-20.63V22.95h34.36Z"/>
          <path class="cls-1" d="M99.95,270.17v15.4H3.55v-15.4c0-2.34,.36-4.66,1.06-6.89l7.04-22.38c1.29-4.11,1.58-8.46,.85-12.7l-7.96-47c-.23-1.35-.39-2.7-.47-4.06l.66-.04H99.01l.42,.03c-.08,1.36-.24,2.72-.47,4.07l-7.96,47c-.73,4.24-.44,8.59,.85,12.7l7.04,22.38c.7,2.23,1.06,4.55,1.06,6.89Z"/>
          <path class="cls-6" d="M99.55,119.78v54.35c0,1-.04,2-.12,3l-.42-.03H4.73l-.66,.04c-.09-1-.12-2.01-.12-3.01v-54.35c0-1.07,.05-2.14,.14-3.2l.64,.05H99.01l.4-.03c.09,1.05,.14,2.11,.14,3.18Z"/>
        </g>
        <g class="cls-7">
          <path class="cls-5" d="M68.37,8.62v14.34h-12.8V8.62c0-.89-.46-1.7-1.21-2.18-2.08-1.32-5.3-2.15-8.93-2.58,7.83-.86,17.31-.2,21.73,2.58,.75,.48,1.21,1.29,1.21,2.18Z"/>
          <path class="cls-1" d="M99.39,285.58v12.06c0,1.63-1.34,2.95-2.99,2.93-2.6-.03-6.76-.07-11.91-.12,1.21-.36,2.1-1.48,2.1-2.81v-12.06h12.8Z"/>
          <path class="cls-5" d="M98.85,116.61l-.4,.03h-12.8l.4-.03c-.34-3.92-1.3-7.76-2.85-11.39l-23.5-43.52c-2.73-6.54-4.13-13.55-4.13-20.63V22.96h12.8v18.11c0,7.08,1.4,14.09,4.13,20.63l23.5,43.52c1.55,3.63,2.51,7.47,2.85,11.39Z"/>
          <path class="cls-5" d="M99.39,270.18v15.4h-12.8v-15.4c0-2.34-.36-4.66-1.06-6.89l-7.04-22.38c-1.29-4.11-1.58-8.46-.85-12.7l7.96-47c.23-1.35,.39-2.71,.47-4.07l-.42-.03h12.8l.42,.03c-.08,1.36-.24,2.72-.47,4.07l-7.96,47c-.73,4.24-.44,8.59,.85,12.7l7.04,22.38c.7,2.23,1.06,4.55,1.06,6.89Z"/>
          <path class="cls-1" d="M98.99,119.79v54.35c0,1-.04,2-.12,3l-.42-.03h-12.38c.08-.99,.12-1.98,.12-2.97v-54.35c0-1.06-.05-2.11-.14-3.15h12.4l.4-.03c.09,1.05,.14,2.11,.14,3.18Z"/>
        </g>
        <g class="cls-7">
          <polygon class="cls-1" points="86.05 116.64 85.65 116.64 86.05 116.61 86.05 116.64"/>
          <polygon class="cls-1" points="86.07 177.11 86.07 177.14 85.65 177.11 86.07 177.11"/>
        </g>
        <g>
          <path class="cls-8" d="M68.93,22.95V8.61c0-.89-.46-1.7-1.21-2.18-6.81-4.29-25.68-3.52-31.91,.04-.79,.45-1.24,1.3-1.24,2.19V41.06c0,7.08-1.41,14.09-4.13,20.63L6.94,105.21c-1.56,3.62-2.51,7.46-2.85,11.37-.09,1.06-.14,2.13-.14,3.2v54.35c0,1,.03,2.01,.12,3.01,.08,1.36,.24,2.71,.47,4.06l7.96,47c.73,4.24,.44,8.59-.85,12.7l-7.04,22.38c-.7,2.23-1.06,4.55-1.06,6.89v27.22c0,1.66,1.39,2.99,3.06,2.93,14.49-.52,76.02,.09,90.35,.24,1.65,.02,2.99-1.3,2.99-2.93v-27.46c0-2.34-.36-4.66-1.06-6.89l-7.04-22.38c-1.29-4.11-1.58-8.46-.85-12.7l7.96-47c.23-1.35,.39-2.71,.47-4.07,.08-1,.12-2,.12-3v-54.35c0-1.07-.05-2.13-.14-3.18-.34-3.92-1.3-7.76-2.85-11.39l-23.5-43.52c-2.73-6.54-4.13-13.55-4.13-20.63V22.95Z"/>
          <polyline class="cls-8" points="99.5 285.57 3.55 285.57 3.5 285.57"/>
          <line class="cls-8" x1="69.72" y1="235.14" x2="76.62" y2="264.7"/>
          <line class="cls-8" x1="99.01" y1="177.1" x2="4.73" y2="177.1"/>
          <line class="cls-8" x1="99.01" y1="116.63" x2="4.73" y2="116.63"/>
          <line class="cls-8" x1="35.11" y1="22.95" x2="68.74" y2="22.95"/>
          <line class="cls-8" x1="62.38" y1="33.78" x2="68.88" y2="33.78"/>
          <line class="cls-8" x1="34.86" y1="33.78" x2="53.35" y2="33.78"/>
        </g>
      </g>
      <g>
        <g>
          <path class="cls-6" d="M133.69,135.17c26.19-3.46,26.08,20.65,25.58,27.22h-.24c-31.74-1.74-25.34-27.22-25.34-27.22Z"/>
          <path class="cls-1" d="M249.05,260.05l.33,35.1c.02,1.86-1.41,3.41-3.27,3.54l-175.52,12.66c-.61,.04-1.13-.44-1.13-1.05v-37.47h.39l179.03-12.79h.17Z"/>
          <path class="cls-6" d="M249.18,270.26l-.13-10.21h-.17l-179.03,12.79h-.39v10.78h.39l178.53-12.75c.24-.25,.5-.46,.8-.6Z"/>
          <path class="cls-3" d="M180.46,179.04c.87,2.4,1.34,4.98,1.34,7.68,0,12.54-10.16,22.7-22.7,22.7-7.91,0-14.88-4.05-18.94-10.2-2.37-3.58-3.75-7.88-3.75-12.5,0-12.53,10.16-22.7,22.69-22.7,9.84,0,18.22,6.27,21.36,15.02Z"/>
          <path class="cls-2" d="M175.84,203.36c-1.08,.86-2.16,1.62-3.25,2.3,4.55-7.73,5.03-15.3,2.74-21.63-4.54-12.65-20.04-20.12-35.07-10.93,.54-.85,1.13-1.7,1.78-2.55,15.88-12.09,33.12-4.5,37.95,8.96,2.51,6.93,1.69,15.36-4.15,23.85Z"/>
          <path class="cls-1" d="M198.02,170.25c51.21,4.09,50.68,51.57,50.68,51.57l-179.24,12.8,70.7-35.4c4.06,6.15,11.03,10.2,18.94,10.2,12.54,0,22.7-10.16,22.7-22.7,0-2.7-.47-5.28-1.34-7.68l17.56-8.79Z"/>
          <polygon class="cls-1" points="248.7 221.82 249.05 260.05 248.88 260.05 69.85 272.84 69.46 272.84 69.46 234.62 248.7 221.82"/>
          <path class="cls-4" d="M246.12,298.04l-9.88,.71-.36-38.04v-.39l13.01-.93h.17l.33,35.1c.02,1.86-1.41,3.41-3.27,3.54Z"/>
          <path class="cls-4" d="M248.71,221.16l-13.19,.94c-.07-4.23-1.91-42.27-42.37-50.07l4.88-2.44c51.21,4.09,50.68,51.57,50.68,51.57Z"/>
          <path class="cls-4" d="M249.06,259.39h-.17l-13.01,.93-.35-37.84s0-.13-.01-.38l13.19-.94,.35,38.23Z"/>
        </g>
        <g>
          <path class="cls-8" d="M180.46,179.04l17.56-8.79c51.21,4.09,50.68,51.57,50.68,51.57l-179.24,12.8,70.7-35.4"/>
          <path class="cls-8" d="M69.46,234.62v75.69c0,.61,.52,1.09,1.13,1.05l175.52-12.66c1.85-.13,3.28-1.69,3.27-3.54l-.33-35.1-.35-38.23"/>
          <line class="cls-8" x1="69.85" y1="272.84" x2="248.88" y2="260.05"/>
          <path class="cls-8" d="M180.46,179.04c.87,2.4,1.34,4.98,1.34,7.68,0,12.54-10.16,22.7-22.7,22.7-7.91,0-14.88-4.05-18.94-10.2-2.37-3.58-3.75-7.88-3.75-12.5,0-12.53,10.16-22.7,22.69-22.7,9.84,0,18.22,6.27,21.36,15.02Z"/>
          <path class="cls-8" d="M178.64,131.84l-19.54,32.18s.09-.6,.17-1.63c.5-6.57,.61-30.68-25.58-27.22,0,0-6.4,25.48,25.34,27.21"/>
          <line class="cls-8" x1="134.01" y1="215.41" x2="143.34" y2="215.24"/>
          <line class="cls-8" x1="198.11" y1="205.28" x2="191.8" y2="211.59"/>
          <line class="cls-8" x1="204.07" y1="182.96" x2="198.29" y2="189.28"/>
          <line class="cls-8" x1="222.98" y1="202.19" x2="229.85" y2="209.06"/>
        </g>
      </g>
    </g>
  </g>
</svg>