<?xml version="1.0" encoding="utf-8"?>
<!-- Generator: Adobe Illustrator 28.0.0, SVG Export Plug-In . SVG Version: 6.00 Build 0)  -->
<svg version="1.1" id="Capa_1" xmlns="http://www.w3.org/2000/svg" xmlns:xlink="http://www.w3.org/1999/xlink" x="0px" y="0px"
	 viewBox="0 0 1080.4 754.7" style="enable-background:new 0 0 1080.4 754.7;" xml:space="preserve">
<style type="text/css">
	.st0{fill:#216E42;}
	.st1{opacity:0.3;fill:#C3C3C3;enable-background:new    ;}
	.st2{fill:#C3C3C3;}
</style>
<g id="SVGRepo_bgCarrier">
</g>
<g id="SVGRepo_tracerCarrier">
</g>
<g id="SVGRepo_iconCarrier">
	<g>
		<g>
			<path class="st0" d="M310.1,260.3c0.4-3.4-0.8-6.8-3.4-9.7L202.9,132.9c-2.1-2.5-5.5-4.2-8.9-4.2c-3.4-0.4-6.8,0.8-9.7,3.4
				C136.7,173.8,97,223.6,66.7,278.9c-1.7,3-2.1,6.8-1.3,10.1s3.4,6.3,6.3,8l138,75.5c2.1,1.3,4.2,1.7,6.3,1.7
				c4.6,0,9.3-2.5,11.4-6.8c20.2-36.7,46.4-69.6,78-97C308.4,267,309.7,264.1,310.1,260.3z"/>
			<path class="st1" d="M356.5,216.8c2.5,4.6,6.8,7.2,11.4,7.2c2.1,0,4.2-0.4,6.3-1.7c37.1-19.8,76.8-32.5,118.1-38
				c7.2-0.8,12.2-7.6,11.4-14.8L482.6,13.9c-0.8-7.2-7.6-12.2-14.8-11.4C405,11,344.2,30.4,288.1,60.3c-6.3,3.4-8.9,11.4-5.5,17.7
				L356.5,216.8z"/>
			<path class="st0" d="M187.3,427.8L35.4,386.4c-3.4-0.8-6.8-0.4-10.1,1.3c-3,1.7-5.1,4.6-6.3,8c-12.7,46-19,93.7-19,141.8
				c0,8,0,16.5,0.4,25.3c0.4,7.2,6.3,12.7,13.1,12.7h0.4l156.9-7.2c3.4,0,6.7-1.7,9.3-4.2c2.5-2.5,3.4-5.9,3.4-9.3
				c-0.4-5.9-0.4-11.4-0.4-16.9c0-31.6,4.2-63.3,12.2-93.7C198.7,436.6,194.5,429.5,187.3,427.8z"/>
			<path class="st1" d="M775,50.6C717.6,23.2,656.9,5.9,593.2,0c-3.4-0.4-6.8,0.8-9.7,3c-2.5,2.1-4.2,5.5-4.6,8.9l-15.2,156.5
				c-0.8,7.2,4.6,13.5,11.8,14.3c41.8,4.2,81.8,15.2,119.8,33.3c1.7,0.8,3.8,1.3,5.5,1.3c1.3,0,3-0.4,4.2-0.8
				c3.4-1.3,5.9-3.4,7.6-6.8l68.8-141.3C784.3,61.6,781.7,54,775,50.6z"/>
			<path class="st1" d="M1006.2,270.4c0.8-3.4,0.4-6.8-1.3-10.1c-32.5-54.4-73.8-102.5-123.2-142.6c-2.5-2.1-6.3-3.4-9.7-3
				c-3.4,0.4-6.8,2.1-8.9,4.6L764,241.3c-2.1,2.5-3.4,6.3-3,9.7c0.4,3.4,2.1,6.8,4.6,8.9c32.5,26.6,59.9,58.2,81.4,94.1
				c2.5,4.2,6.8,6.3,11.4,6.3c2.1,0,4.6-0.4,6.8-1.7l135-80.6C1003.2,276.8,1005.3,273.8,1006.2,270.4z"/>
			<path class="st1" d="M1056.4,375.9c-2.1-6.8-9.7-10.5-16.5-8.4l-150.2,46.8c-6.8,2.1-10.5,9.7-8.4,16.5c11,34.6,16,70.5,16,106.7
				c0,5.5,0,11-0.4,16.9c0,3.4,1.3,6.8,3.4,9.3c2.5,2.5,5.5,4.2,9.3,4.2l156.9,7.2h0.4c6.8,0,12.7-5.5,13.1-12.7
				c0.4-8.9,0.4-16.9,0.4-25.3C1080.8,482.2,1072.4,427.8,1056.4,375.9z"/>
			<path class="st2" d="M540.4,509.6c-2.1,0-4.6,0-6.8,0l-213-125.7c-5.1-3-11.8-2.1-16,1.7c-4.2,4.2-5.5,11-2.5,16l116,217.7
				c-0.4,4.2-0.8,8.4-0.8,12.7c0,32.9,12.7,63.7,35.9,86.9s54,35.9,86.9,35.9s63.7-12.7,86.9-35.9s35.9-54,35.9-86.9
				s-12.7-63.7-35.9-86.9C604.1,522.3,573.3,509.6,540.4,509.6z"/>
		</g>
	</g>
</g>
</svg>
