<?xml version="1.0" encoding="utf-8"?>
<!-- Generator: Adobe Illustrator 27.0.0, SVG Export Plug-In . SVG Version: 6.00 Build 0)  -->
<svg version="1.1" id="Layer_1" xmlns="http://www.w3.org/2000/svg" xmlns:xlink="http://www.w3.org/1999/xlink" x="0px" y="0px"
	 viewBox="0 0 24 24" style="enable-background:new 0 0 24 24;" xml:space="preserve">
<style type="text/css">
	.st0{fill-rule:evenodd;clip-rule:evenodd;fill:#133F26;}
</style>
<path class="st0" d="M18.8,8.1l-6.2,5.5c-1-0.2-2.1,0.1-2.8,0.9c-1.1,1.3-1,3.2,0.2,4.3c1.2,1.1,3.1,1,4.2-0.2c0.7-0.8,0.9-2,0.6-3
	l4.7-6.9C19.5,8.7,18.8,8.1,18.8,8.1z M4.5,18H0C0,11.2,5.4,5.8,12,5.8c1.7,0,3.4,0.4,4.9,1.1l-4.2,3.5l-0.7,0
	C7.9,10.3,4.5,13.8,4.5,18z M24,18h-4.5c0-1.3-0.3-2.6-0.9-3.6l2.6-4.2C22.9,12.2,24,15,24,18z"/>
</svg>
