<?xml version="1.0" encoding="utf-8"?>
<!-- Generator: Adobe Illustrator 27.0.0, SVG Export Plug-In . SVG Version: 6.00 Build 0)  -->
<svg version="1.1" id="Ebene_2" xmlns="http://www.w3.org/2000/svg" xmlns:xlink="http://www.w3.org/1999/xlink" x="0px" y="0px"
	 viewBox="0 0 980 980" style="enable-background:new 0 0 980 980;" xml:space="preserve">
<style type="text/css">
	.st0{fill:#214228;}
	.st1{fill:#5D8D66;}
</style>
<g id="Ebene_1-2">
	<g>
		<path class="st0" d="M490,980C219.8,980,0,760.2,0,490S219.8,0,490,0s490,219.8,490,490S760.2,980,490,980 M490,34.4
			C238.8,34.4,34.4,238.8,34.4,490S238.8,945.6,490,945.6S945.6,741.2,945.6,490S741.2,34.4,490,34.4"/>
		<g>
			<path class="st1" d="M390.2,227.7V335l-81.7-58.9C332.6,255.7,360.1,239.2,390.2,227.7"/>
			<path class="st0" d="M770.5,490c0,23.2-2.8,45.8-8.2,67.4h-205v205c-21.6,5.3-44.2,8.2-67.4,8.2s-45.8-2.8-67.4-8.2v-205h-205
				c-5.3-21.6-8.1-44.2-8.1-67.4s2.8-45.8,8.2-67.4h205v-205c21.6-5.3,44.2-8.2,67.4-8.2s45.8,2.8,67.4,8.2v205h205
				C767.7,444.2,770.5,466.8,770.5,490"/>
			<path class="st1" d="M390.2,645v107.3c-30.1-11.4-57.6-27.9-81.7-48.4L390.2,645z"/>
			<path class="st1" d="M671.5,276.1L589.8,335V227.8C619.9,239.2,647.4,255.7,671.5,276.1"/>
			<path class="st1" d="M671.5,703.9c-24.1,20.5-51.7,37-81.7,48.4V645L671.5,703.9z"/>
			<path class="st0" d="M390.2,593.2v31.2l-94.4,68.1c-6.1-5.9-12-12.1-17.6-18.5L390.2,593.2L390.2,593.2z"/>
			<path class="st1" d="M308.1,589.8l-59.6,43c-4.3-7.3-8.3-14.8-12-22.5c-2.5-5.1-4.7-10.4-6.9-15.7c-0.6-1.6-1.2-3.2-1.9-4.8
				H308.1L308.1,589.8z"/>
			<path class="st1" d="M752.2,390.2h-80.3l59.6-43c4.3,7.3,8.3,14.8,12,22.5c2.4,5.1,4.7,10.4,6.9,15.7
				C751,387,751.6,388.6,752.2,390.2"/>
			<path class="st0" d="M701.8,306.1l-112,80.7v-31.2l94.4-68.1C690.4,293.5,696.2,299.6,701.8,306.1"/>
			<path class="st0" d="M390.2,386.8v3.4h-57.1l-76.8-55.4c4-6,8.2-11.8,12.6-17.5c3-3.9,6.1-7.6,9.3-11.3L390.2,386.8L390.2,386.8z
				"/>
			<path class="st1" d="M308.1,390.2h-80.3c0.6-1.6,1.2-3.2,1.9-4.8c2.1-5.3,4.4-10.5,6.9-15.7c3.6-7.7,7.6-15.2,12-22.5
				L308.1,390.2L308.1,390.2z"/>
			<path class="st1" d="M752.2,589.8c-0.6,1.6-1.2,3.2-1.9,4.7c-2.1,5.3-4.4,10.5-6.9,15.7c-3.7,7.7-7.7,15.2-12,22.5l-59.6-43
				H752.2L752.2,589.8z"/>
			<path class="st0" d="M723.8,645.2c-4,6-8.2,11.8-12.6,17.5c-3,3.9-6.1,7.6-9.3,11.3l-112-80.7v-3.4h57.1L723.8,645.2L723.8,645.2
				z"/>
		</g>
	</g>
	<g>
		<path d="M412.6,144.2c-2-0.7-3.7-1.8-5.1-3.3c-1.4-1.6-2.3-3.4-2.7-5.5c-0.4-2.2-0.3-4.2,0.3-6.2c0.7-2,1.8-3.7,3.3-5.1
			c1.6-1.4,3.4-2.3,5.5-2.7c2.2-0.4,4.2-0.3,6.3,0.3c2,0.7,3.7,1.8,5.1,3.3c1.4,1.6,2.3,3.4,2.8,5.6c0.4,2.1,0.3,4.2-0.4,6.1
			c-0.7,2-1.8,3.7-3.4,5.1c-1.6,1.4-3.5,2.3-5.6,2.8C416.7,145,414.6,144.9,412.6,144.2L412.6,144.2z"/>
		<path d="M581.9,103.9l-8.9,58.7l-11.8-1.8l5.8-38.2l-21.5,35.8l-8.9-1.4l-10-40.6l-5.8,38.1l-11.8-1.8l8.9-58.7l13.4,2l12,46.5
			l25.3-40.8L581.9,103.9L581.9,103.9z"/>
		<path d="M627.4,170.5l-22-8.6l-7.8,9.1l-11.6-4.6l41.5-47.6l12.9,5l-1.8,63.1l-11.7-4.6L627.4,170.5L627.4,170.5z M627.9,160.5
			l1-26.2l-17,20L627.9,160.5L627.9,160.5z"/>
		<path d="M712.1,166.9c2.7,4.6,3.9,9.5,3.6,14.7c-0.3,5.2-2,10.3-5.2,15.3c-3.2,5-7.1,8.7-11.7,11c-4.6,2.4-9.5,3.3-14.8,2.8
			c-5.3-0.5-10.6-2.4-15.8-5.8l-17.5-11.2l32.1-49.9l17.5,11.2C705.5,158.3,709.5,162.3,712.1,166.9L712.1,166.9z M688.2,199.6
			c4.7-1,8.7-4.1,12.1-9.3s4.5-10.2,3.5-14.9c-1-4.8-4.1-8.8-9.3-12.2l-7.1-4.6l-21.2,33l7.1,4.6
			C678.6,199.5,683.5,200.7,688.2,199.6L688.2,199.6z"/>
		<path d="M748.3,203.2l-10.1,10.9l14.7,13.6l-6.4,6.9l-14.7-13.6l-10.7,11.6l16.5,15.3l-6.6,7.1l-25.3-23.4l40.3-43.6l25.3,23.4
			l-6.6,7.1L748.3,203.2L748.3,203.2z"/>
		<path d="M815.2,264.8L767,299.3l-6.9-9.7l48.2-34.5L815.2,264.8z"/>
		<path d="M800.8,359.2l-5.4-10.6l23.9-42.6l-36.2,18.6l-5.4-10.6l52.8-27.1l5.4,10.6l-24,42.6l36.3-18.6l5.4,10.6L800.8,359.2
			L800.8,359.2z"/>
		<path d="M875.9,402l-36,7c-4,0.8-6.8,2.4-8.5,4.9c-1.7,2.5-2.2,5.6-1.4,9.3c0.7,3.8,2.3,6.5,4.8,8.1c2.5,1.6,5.7,2.1,9.7,1.3l36-7
			l2.3,11.8l-36,7c-5,1-9.3,0.7-13.2-0.8c-3.8-1.5-7-3.8-9.4-7.1c-2.4-3.2-4.1-7.1-4.9-11.5c-0.8-4.3-0.8-8.4,0.3-12.3
			s3.1-7.2,6.1-9.9c3-2.7,7-4.6,12-5.5l36-7L875.9,402L875.9,402z"/>
		<path d="M826.3,499.4l26.1-22l-26.4,0.4l-0.2-11.9l59.3-1l0.2,11.9l-26.6,0.4l27,21.2l0.2,14.4l-29.8-24l-29.5,25.6L826.3,499.4
			L826.3,499.4z"/>
		<path d="M828,596.4c1.6-1.4,3.4-2.3,5.4-2.7c2-0.4,4.1-0.3,6.1,0.4c2.1,0.7,3.8,1.8,5.2,3.4c1.4,1.6,2.3,3.4,2.7,5.4
			c0.4,2,0.3,4.1-0.4,6.1c-0.7,2.1-1.8,3.8-3.4,5.3c-1.6,1.4-3.4,2.3-5.4,2.8c-2,0.4-4.1,0.3-6.2-0.4c-2-0.7-3.8-1.8-5.2-3.4
			c-1.4-1.6-2.3-3.4-2.7-5.5c-0.4-2.1-0.3-4.2,0.4-6.3C825.3,599.5,826.5,597.8,828,596.4L828,596.4z"/>
		<path d="M778,763l-46.2-37.2l7.5-9.3l30.1,24.2l-20.1-36.6l5.7-7l40.1,11.8l-30.1-24.2l7.5-9.3l46.2,37.2l-8.5,10.5l-46.2-13
			l22.5,42.4L778,763L778,763z"/>
		<path d="M697.5,769l18.5-14.8l-4-11.3l9.8-7.8l20.4,59.7l-10.8,8.7l-53.8-33.1l9.8-7.8L697.5,769L697.5,769z M706,774.4l22.2,14
			l-8.8-24.8L706,774.4L706,774.4z"/>
		<path d="M658.3,844.2c-5.3,0-10.2-1.4-14.5-4.2c-4.4-2.8-7.9-6.9-10.6-12.2c-2.7-5.3-4-10.5-3.7-15.6c0.2-5.1,1.9-9.9,5-14.2
			s7.4-7.9,12.9-10.8l18.4-9.5l27.2,52.7l-18.4,9.5C669.1,842.7,663.7,844.2,658.3,844.2L658.3,844.2z M641.9,807.1
			c-1.5,4.6-0.8,9.6,2.1,15.1c2.8,5.5,6.6,9,11.2,10.5s9.7,0.9,15.2-2l7.5-3.9l-18-34.8l-7.5,3.9
			C646.9,798.8,643.4,802.5,641.9,807.1L641.9,807.1z"/>
		<path d="M608.7,857.3l-4.4-14.2l-19.1,5.9l-2.8-9l19.1-5.9l-4.6-15l-21.5,6.7l-2.9-9.3l32.9-10.2l17.5,56.8L590,873.2l-2.9-9.3
			L608.7,857.3L608.7,857.3z"/>
		<path d="M521.8,884.3l-5.6-59.1l11.8-1.1l5.6,59.1L521.8,884.3z"/>
		<path d="M447.4,824.5l11.9,0.6l24.9,42l2.1-40.7l11.9,0.6l-3,59.3l-11.9-0.6l-24.9-42.1l-2.1,40.8l-11.9-0.6L447.4,824.5
			L447.4,824.5z"/>
		<path d="M372.8,868l11.9-34.7c1.3-3.8,1.3-7,0-9.7c-1.3-2.7-3.7-4.7-7.3-5.9c-3.6-1.2-6.8-1.2-9.5,0.1c-2.7,1.3-4.7,3.9-6,7.7
			L350,860.2l-11.3-3.9l11.9-34.7c1.6-4.8,4.1-8.5,7.2-11c3.2-2.6,6.8-4.1,10.8-4.6c4-0.5,8.2,0,12.4,1.5c4.2,1.4,7.7,3.6,10.5,6.4
			s4.7,6.2,5.5,10.2c0.9,4,0.5,8.3-1.2,13.1L384,871.9L372.8,868L372.8,868z"/>
		<path d="M313.2,776.2l5.6,33.7l13.2-22.9l10.3,5.9l-29.5,51.5l-10.3-5.9l13.2-23.1l-32,12.3l-12.5-7.2l35.9-13.3l-6.9-38.5
			L313.2,776.2L313.2,776.2z"/>
		<path d="M228.6,729.2c0.4,2,0.3,4.1-0.4,6.1c-0.7,2-1.8,3.7-3.4,5.1c-1.7,1.5-3.5,2.4-5.6,2.8s-4.1,0.3-6.1-0.4
			c-2-0.7-3.7-1.8-5.1-3.4c-1.5-1.7-2.4-3.5-2.9-5.6c-0.4-2.1-0.3-4.1,0.3-6.1c0.7-2,1.8-3.7,3.5-5.2c1.6-1.4,3.4-2.3,5.5-2.8
			c2.1-0.4,4.1-0.3,6.1,0.4c2,0.7,3.7,1.8,5.2,3.5C227.3,725.3,228.2,727.1,228.6,729.2L228.6,729.2z"/>
		<path d="M109.3,602.4l55.3-21.4l4.3,11.1L133,606l41.7,0.9l3.2,8.4l-30.2,28.8l36-13.9l4.3,11.1l-55.3,21.4l-4.9-12.6l34.3-33.5
			l-47.9-1.7L109.3,602.4L109.3,602.4z"/>
		<path d="M144.6,529.8l3.5,23.4l11.8,2.2l1.8,12.4l-61.9-12.4l-2-13.7l55.6-29.8l1.9,12.4L144.6,529.8L144.6,529.8z M135.6,534.4
			l-23.3,12.1l25.8,4.8L135.6,534.4L135.6,534.4z"/>
		<path d="M99.2,458.2c2.7-4.6,6.3-8.1,10.9-10.5c4.6-2.4,9.9-3.4,15.8-3.1s11.1,1.8,15.4,4.6s7.6,6.6,9.8,11.5
			c2.2,4.8,3.2,10.4,2.9,16.6l-1,20.7l-59.3-2.9l1-20.7C95.1,468.2,96.6,462.8,99.2,458.2L99.2,458.2z M139.5,462.6
			c-3.2-3.6-7.9-5.5-14.1-5.8c-6.2-0.3-11.1,1.2-14.7,4.4c-3.7,3.2-5.6,8-5.9,14.2l-0.4,8.4l39.1,1.9l0.4-8.4
			C144.2,471,142.8,466.1,139.5,462.6L139.5,462.6z"/>
		<path d="M112.7,408.7l14.5,3.3l4.4-19.5l9.2,2.1l-4.4,19.5l15.3,3.5l5-22l9.4,2.1l-7.6,33.6l-57.9-13.2l7.7-33.6l9.4,2.1
			L112.7,408.7L112.7,408.7z"/>
		<path d="M132.8,319.9l53.9,24.7l-5,10.8l-53.9-24.7L132.8,319.9z"/>
		<path d="M221.9,285.5l-6.5,10l-48.8,0.4l34.1,22.2l-6.5,10l-49.8-32.4l6.5-10l48.9-0.3l-34.2-22.3l6.5-10L221.9,285.5L221.9,285.5
			z"/>
		<path d="M221.7,199.2l24.1,27.7c2.6,3,5.4,4.7,8.4,4.9c3,0.2,5.9-0.9,8.8-3.4c2.9-2.5,4.5-5.3,4.6-8.3s-1-6-3.7-9l-24.1-27.7
			l9.1-7.9l24,27.7c3.3,3.8,5.3,7.7,5.9,11.8s0.1,7.9-1.5,11.7c-1.6,3.7-4.1,7.1-7.5,10c-3.3,2.9-6.9,4.9-10.8,5.9
			c-3.9,1-7.7,0.9-11.6-0.3c-3.9-1.3-7.5-3.8-10.8-7.6l-24-27.7L221.7,199.2L221.7,199.2z"/>
		<path d="M331,193.5l-32-12l13.3,22.9l-10.3,6l-29.8-51.3l10.3-6l13.4,23l5.3-33.8l12.4-7.2l-6.4,37.7L344,186L331,193.5L331,193.5
			z"/>
	</g>
</g>
</svg>
