<svg width="223" height="75" viewBox="0 0 223 75" fill="none" xmlns="http://www.w3.org/2000/svg">
<rect x="0.5" y="2.73438" width="222" height="69.5387" rx="8.5" fill="black" stroke="#A6A6A6"/>
<g clip-path="url(#clip0)">
<path d="M46.1576 38.0494C46.1776 36.5249 46.5908 35.0302 47.3586 33.7043C48.1264 32.3783 49.224 31.2643 50.5491 30.4658C49.7073 29.2875 48.5967 28.3177 47.3056 27.6336C46.0145 26.9495 44.5784 26.5699 43.1114 26.5249C39.9821 26.203 36.9483 28.3602 35.3536 28.3602C33.7281 28.3602 31.2729 26.5569 28.629 26.6102C26.9189 26.6644 25.2522 27.1518 23.7914 28.0249C22.3306 28.8981 21.1255 30.1272 20.2935 31.5925C16.6894 37.7083 19.3777 46.6963 22.8302 51.6398C24.5575 54.0605 26.5762 56.7644 29.2177 56.6686C31.8026 56.5635 32.768 55.0531 35.8881 55.0531C38.9793 55.0531 39.885 56.6686 42.5801 56.6076C45.3538 56.5635 47.1013 54.1761 48.7681 51.7325C50.0091 50.0077 50.9642 48.1014 51.5977 46.0842C49.9863 45.4162 48.6111 44.2981 47.6437 42.8693C46.6763 41.4405 46.1594 39.7642 46.1576 38.0494Z" fill="white"/>
<path d="M41.0677 23.27C42.58 21.4906 43.3251 19.2036 43.1447 16.8945C40.8342 17.1324 38.6999 18.2147 37.1672 19.9257C36.4178 20.7616 35.8438 21.7341 35.4781 22.7875C35.1124 23.841 34.9621 24.9547 35.0358 26.0651C36.1915 26.0768 37.3348 25.8313 38.3796 25.3471C39.4244 24.863 40.3435 24.1527 41.0677 23.27Z" fill="white"/>
<path d="M78.8317 50.5387H70.0108L67.8925 56.6691H64.1562L72.5113 33.9883H76.3931L84.7482 56.6691H80.9482L78.8317 50.5387ZM70.9244 47.7099H77.9164L74.4696 37.7607H74.3731L70.9244 47.7099Z" fill="white"/>
<path d="M102.791 48.4021C102.791 53.5407 99.9852 56.8422 95.7504 56.8422C94.6776 56.8972 93.6107 56.655 92.6719 56.1434C91.733 55.6317 90.9602 54.8713 90.4418 53.9492H90.3617V62.1396H86.8984V40.1331H90.2507V42.8835H90.3144C90.8566 41.9657 91.6425 41.2092 92.5885 40.6945C93.5345 40.1797 94.6052 39.9259 95.6867 39.9601C99.9688 39.9601 102.791 43.2777 102.791 48.4021ZM99.2318 48.4021C99.2318 45.0542 97.4665 42.8532 94.7731 42.8532C92.127 42.8532 90.3471 45.1005 90.3471 48.4021C90.3471 51.7339 92.127 53.9652 94.7731 53.9652C97.4665 53.9652 99.2318 51.7803 99.2318 48.4021Z" fill="white"/>
<path d="M121.362 48.4021C121.362 53.5407 118.556 56.8422 114.321 56.8422C113.248 56.8972 112.181 56.655 111.242 56.1434C110.303 55.6317 109.53 54.8713 109.012 53.9491H108.932V62.1396H105.469V40.1331H108.821V42.8835H108.885C109.427 41.9657 110.213 41.2092 111.159 40.6945C112.105 40.1797 113.175 39.9259 114.257 39.9601C118.539 39.9601 121.362 43.2776 121.362 48.4021ZM117.802 48.4021C117.802 45.0542 116.037 42.8531 113.343 42.8531C110.697 42.8531 108.917 45.1005 108.917 48.4021C108.917 51.7339 110.697 53.9652 113.343 53.9652C116.037 53.9652 117.802 51.7803 117.802 48.4021H117.802Z" fill="white"/>
<path d="M133.635 50.349C133.892 52.5981 136.121 54.0749 139.167 54.0749C142.086 54.0749 144.187 52.5981 144.187 50.57C144.187 48.8096 142.92 47.7555 139.921 47.0331L136.922 46.325C132.672 45.319 130.7 43.3713 130.7 40.2106C130.7 36.2973 134.179 33.6094 139.12 33.6094C144.01 33.6094 147.362 36.2973 147.475 40.2106H143.979C143.77 37.9472 141.861 36.5809 139.071 36.5809C136.281 36.5809 134.372 37.9633 134.372 39.9752C134.372 41.5787 135.591 42.5223 138.574 43.2446L141.124 43.8581C145.872 44.9586 147.845 46.8279 147.845 50.1455C147.845 54.3888 144.396 57.0464 138.911 57.0464C133.779 57.0464 130.314 54.4512 130.09 50.3488L133.635 50.349Z" fill="white"/>
<path d="M155.319 36.2148V40.1282H158.528V42.8161H155.319V51.9323C155.319 53.3485 155.962 54.0084 157.372 54.0084C157.753 54.0019 158.133 53.9757 158.512 53.9299V56.6018C157.877 56.7179 157.233 56.7705 156.588 56.7588C153.172 56.7588 151.84 55.5013 151.84 52.2943V42.8161H149.387V40.1282H151.84V36.2148H155.319Z" fill="white"/>
<path d="M160.387 48.3981C160.387 43.1952 163.513 39.9258 168.389 39.9258C173.281 39.9258 176.392 43.1951 176.392 48.3981C176.392 53.6152 173.297 56.8704 168.389 56.8704C163.482 56.8704 160.387 53.6152 160.387 48.3981ZM172.864 48.3981C172.864 44.829 171.195 42.7225 168.389 42.7225C165.582 42.7225 163.915 44.8451 163.915 48.3981C163.915 51.9814 165.582 54.0718 168.389 54.0718C171.195 54.0718 172.864 51.9814 172.864 48.3981H172.864Z" fill="white"/>
<path d="M179.246 40.1329H182.549V42.9475H182.629C182.853 42.0685 183.378 41.2916 184.117 40.7475C184.856 40.2035 185.764 39.9253 186.688 39.9599C187.087 39.9585 187.485 40.001 187.874 40.0866V43.2614C187.37 43.1105 186.845 43.0413 186.318 43.0563C185.815 43.0363 185.313 43.1233 184.848 43.3112C184.382 43.4991 183.964 43.7835 183.621 44.145C183.278 44.5064 183.019 44.9363 182.862 45.4051C182.704 45.8739 182.652 46.3705 182.709 46.8608V56.6691H179.246L179.246 40.1329Z" fill="white"/>
<path d="M203.843 51.8084C203.377 54.8103 200.394 56.8704 196.578 56.8704C191.67 56.8704 188.623 53.6473 188.623 48.4766C188.623 43.2897 191.686 39.9258 196.432 39.9258C201.1 39.9258 204.036 43.0685 204.036 48.0824V49.2453H192.119V49.4504C192.064 50.059 192.142 50.6721 192.347 51.2489C192.552 51.8258 192.881 52.3533 193.31 52.7963C193.739 53.2393 194.26 53.5877 194.837 53.8184C195.414 54.0491 196.035 54.1567 196.658 54.1343C197.476 54.2094 198.297 54.0236 199 53.6046C199.702 53.1855 200.247 52.5556 200.554 51.8084L203.843 51.8084ZM192.135 46.8731H200.571C200.602 46.3259 200.517 45.7783 200.322 45.2647C200.127 44.751 199.826 44.2825 199.437 43.8884C199.048 43.4943 198.581 43.1832 198.064 42.9746C197.547 42.766 196.991 42.6644 196.432 42.6762C195.868 42.6729 195.309 42.7791 194.787 42.9886C194.265 43.1982 193.791 43.507 193.392 43.8972C192.992 44.2874 192.675 44.7512 192.46 45.262C192.244 45.7728 192.134 46.3203 192.135 46.8731V46.8731Z" fill="white"/>
<path d="M70.491 16.9108C71.2171 16.8597 71.9457 16.9672 72.6242 17.2256C73.3028 17.4839 73.9144 17.8866 74.4149 18.4046C74.9154 18.9226 75.2924 19.5431 75.5186 20.2212C75.7448 20.8993 75.8147 21.6182 75.7232 22.3259C75.7232 25.8076 73.8032 27.8089 70.491 27.8089H66.4746V16.9108H70.491ZM68.2016 26.2677H70.2981C70.817 26.2981 71.3362 26.2147 71.818 26.0237C72.2998 25.8326 72.732 25.5386 73.0833 25.1632C73.4346 24.7877 73.696 24.3402 73.8485 23.8532C74.0011 23.3663 74.0409 22.8521 73.9652 22.3481C74.0354 21.8462 73.9915 21.3352 73.8367 20.8518C73.6818 20.3684 73.4197 19.9246 73.0692 19.5521C72.7188 19.1796 72.2886 18.8877 71.8095 18.6974C71.3304 18.507 70.8143 18.4228 70.2981 18.4509H68.2016V26.2677Z" fill="white"/>
<path d="M77.673 23.697C77.6203 23.1565 77.6833 22.6112 77.8582 22.096C78.0331 21.5808 78.3159 21.1071 78.6885 20.7053C79.0611 20.3035 79.5153 19.9825 80.0219 19.7628C80.5285 19.5432 81.0764 19.4297 81.6303 19.4297C82.1843 19.4297 82.7322 19.5432 83.2388 19.7628C83.7454 19.9825 84.1996 20.3035 84.5722 20.7053C84.9448 21.1071 85.2276 21.5808 85.4025 22.096C85.5773 22.6112 85.6404 23.1565 85.5877 23.697C85.6414 24.238 85.5791 24.7841 85.4047 25.3001C85.2303 25.8161 84.9476 26.2906 84.5749 26.6932C84.2022 27.0958 83.7477 27.4175 83.2406 27.6376C82.7335 27.8578 82.185 27.9715 81.6303 27.9715C81.0757 27.9715 80.5272 27.8578 80.0201 27.6376C79.513 27.4175 79.0585 27.0958 78.6858 26.6932C78.3131 26.2906 78.0304 25.8161 77.856 25.3001C77.6816 24.7841 77.6193 24.238 77.673 23.697ZM83.8842 23.697C83.8842 21.9142 83.0671 20.8717 81.6331 20.8717C80.1935 20.8717 79.3838 21.9142 79.3838 23.697C79.3838 25.494 80.1936 26.5285 81.6331 26.5285C83.0672 26.5285 83.8843 25.4868 83.8843 23.697H83.8842Z" fill="white"/>
<path d="M96.1102 27.8142H94.3922L92.6579 21.757H92.5269L90.7998 27.8142H89.0982L86.7852 19.5898H88.4649L89.9681 25.8655H90.0919L91.8171 19.5898H93.4059L95.1311 25.8655H95.2621L96.7581 19.5898H98.4141L96.1102 27.8142Z" fill="white"/>
<path d="M100.359 19.5887H101.954V20.8952H102.077C102.287 20.426 102.641 20.0326 103.09 19.77C103.539 19.5073 104.06 19.3885 104.581 19.43C104.99 19.3999 105.4 19.4602 105.781 19.6065C106.162 19.7528 106.505 19.9813 106.784 20.2751C107.063 20.5688 107.271 20.9204 107.392 21.3036C107.514 21.6868 107.546 22.0919 107.486 22.4889V27.813H105.83V22.8965C105.83 21.5748 105.244 20.9175 104.019 20.9175C103.742 20.9049 103.465 20.9511 103.208 21.0531C102.951 21.1551 102.719 21.3104 102.529 21.5083C102.338 21.7063 102.194 21.9422 102.105 22.2C102.017 22.4578 101.986 22.7313 102.015 23.0017V27.8131H100.359L100.359 19.5887Z" fill="white"/>
<path d="M110.123 16.3789H111.779V27.8138H110.123V16.3789Z" fill="white"/>
<path d="M114.083 23.6971C114.03 23.1566 114.094 22.6113 114.268 22.096C114.443 21.5808 114.726 21.1072 115.099 20.7054C115.472 20.3036 115.926 19.9825 116.432 19.7628C116.939 19.5432 117.487 19.4297 118.041 19.4297C118.595 19.4297 119.143 19.5432 119.649 19.7628C120.156 19.9825 120.61 20.3036 120.983 20.7054C121.356 21.1072 121.638 21.5808 121.813 22.096C121.988 22.6113 122.051 23.1566 121.999 23.6971C122.052 24.2382 121.99 24.7843 121.816 25.3003C121.641 25.8163 121.358 26.2908 120.986 26.6934C120.613 27.0959 120.158 27.4176 119.651 27.6378C119.144 27.8579 118.596 27.9716 118.041 27.9716C117.486 27.9716 116.938 27.8579 116.431 27.6378C115.923 27.4176 115.469 27.0959 115.096 26.6934C114.723 26.2908 114.441 25.8163 114.266 25.3003C114.092 24.7843 114.029 24.2382 114.083 23.6971ZM120.294 23.6971C120.294 21.9144 119.477 20.8718 118.043 20.8718C116.604 20.8718 115.794 21.9144 115.794 23.6971C115.794 25.4942 116.604 26.5287 118.043 26.5287C119.477 26.5286 120.294 25.487 120.294 23.6971H120.294Z" fill="white"/>
<path d="M123.742 25.4869C123.742 24.0065 124.867 23.153 126.863 23.0317L129.136 22.9033V22.1934C129.136 21.3248 128.55 20.8343 127.418 20.8343C126.494 20.8343 125.853 21.167 125.669 21.7484H124.066C124.235 20.3358 125.591 19.4297 127.495 19.4297C129.599 19.4297 130.785 20.4562 130.785 22.1934V27.8128H129.191V26.657H129.06C128.794 27.0716 128.42 27.4096 127.978 27.6364C127.535 27.8633 127.038 27.9709 126.539 27.9483C126.187 27.9842 125.831 27.9474 125.494 27.8402C125.157 27.733 124.847 27.5577 124.584 27.3258C124.32 27.0939 124.109 26.8105 123.964 26.4938C123.819 26.177 123.744 25.834 123.742 25.4869ZM129.136 24.7842V24.0966L127.087 24.225C125.931 24.3008 125.407 24.6861 125.407 25.4111C125.407 26.1513 126.063 26.5821 126.963 26.5821C127.227 26.6082 127.494 26.5821 127.747 26.5052C128.001 26.4284 128.236 26.3023 128.439 26.1346C128.641 25.9668 128.808 25.7608 128.928 25.5288C129.047 25.2968 129.118 25.0436 129.136 24.7842Z" fill="white"/>
<path d="M132.961 23.6981C132.961 21.0993 134.324 19.453 136.444 19.453C136.969 19.4294 137.489 19.5525 137.945 19.808C138.4 20.0635 138.773 20.4408 139.017 20.8959H139.141V16.3789H140.797V27.8138H139.21V26.5144H139.079C138.815 26.9665 138.43 27.3391 137.966 27.5921C137.501 27.845 136.975 27.9686 136.444 27.9494C134.309 27.9495 132.961 26.3031 132.961 23.6981ZM134.672 23.6981C134.672 25.4425 135.511 26.4922 136.914 26.4922C138.31 26.4922 139.172 25.4274 139.172 23.7052C139.172 21.9912 138.301 20.9112 136.914 20.9112C135.52 20.9112 134.672 21.968 134.672 23.6981H134.672Z" fill="white"/>
<path d="M147.65 23.697C147.597 23.1565 147.66 22.6112 147.835 22.096C148.01 21.5808 148.292 21.1071 148.665 20.7053C149.038 20.3035 149.492 19.9825 149.998 19.7628C150.505 19.5432 151.053 19.4297 151.607 19.4297C152.161 19.4297 152.709 19.5432 153.215 19.7628C153.722 19.9825 154.176 20.3035 154.549 20.7053C154.921 21.1071 155.204 21.5808 155.379 22.096C155.554 22.6112 155.617 23.1565 155.564 23.697C155.618 24.238 155.556 24.7841 155.381 25.3001C155.207 25.8161 154.924 26.2906 154.551 26.6932C154.179 27.0958 153.724 27.4175 153.217 27.6376C152.71 27.8578 152.162 27.9715 151.607 27.9715C151.052 27.9715 150.504 27.8578 149.997 27.6376C149.49 27.4175 149.035 27.0958 148.662 26.6932C148.29 26.2906 148.007 25.8161 147.833 25.3001C147.658 24.7841 147.596 24.238 147.65 23.697ZM153.861 23.697C153.861 21.9142 153.044 20.8717 151.61 20.8717C150.17 20.8717 149.36 21.9142 149.36 23.697C149.36 25.494 150.17 26.5285 151.61 26.5285C153.044 26.5285 153.861 25.4868 153.861 23.697Z" fill="white"/>
<path d="M157.785 19.5887H159.379V20.8952H159.503C159.713 20.426 160.067 20.0326 160.516 19.77C160.965 19.5073 161.486 19.3885 162.007 19.43C162.416 19.3999 162.826 19.4602 163.207 19.6065C163.588 19.7528 163.931 19.9813 164.21 20.2751C164.489 20.5688 164.697 20.9204 164.818 21.3036C164.94 21.6868 164.972 22.0919 164.912 22.4889V27.813H163.256V22.8965C163.256 21.5748 162.67 20.9175 161.445 20.9175C161.168 20.9049 160.891 20.9511 160.634 21.0531C160.376 21.1551 160.145 21.3104 159.954 21.5083C159.764 21.7063 159.62 21.9422 159.531 22.2C159.443 22.4578 159.412 22.7313 159.441 23.0017V27.8131H157.785V19.5887Z" fill="white"/>
<path d="M174.271 17.543V19.628H176.089V20.9952H174.271V25.2242C174.271 26.0857 174.633 26.463 175.458 26.463C175.669 26.4623 175.88 26.4498 176.089 26.4255V27.7775C175.792 27.8296 175.491 27.8574 175.188 27.8604C173.347 27.8604 172.613 27.2254 172.613 25.6398V20.9951H171.281V19.628H172.613V17.543H174.271Z" fill="white"/>
<path d="M178.352 16.3789H179.993V20.9111H180.124C180.344 20.4375 180.708 20.0419 181.166 19.7783C181.624 19.5146 182.153 19.3958 182.683 19.4379C183.089 19.4162 183.495 19.4827 183.872 19.6325C184.249 19.7824 184.587 20.0119 184.863 20.3047C185.14 20.5976 185.346 20.9465 185.469 21.3267C185.591 21.7068 185.627 22.1088 185.573 22.5039V27.8138H183.915V22.9044C183.915 21.5907 183.291 20.9254 182.121 20.9254C181.836 20.9025 181.55 20.9409 181.282 21.0378C181.014 21.1347 180.771 21.2878 180.569 21.4864C180.368 21.685 180.214 21.9243 180.117 22.1875C180.02 22.4508 179.982 22.7317 180.008 23.0105V27.8138H178.352L178.352 16.3789Z" fill="white"/>
<path d="M195.228 25.5923C195.003 26.344 194.515 26.9941 193.851 27.4291C193.186 27.8641 192.386 28.0561 191.592 27.9717C191.039 27.986 190.49 27.8822 189.982 27.6675C189.474 27.4529 189.02 27.1325 188.651 26.7286C188.282 26.3247 188.007 25.847 187.846 25.3286C187.684 24.8102 187.64 24.2636 187.715 23.7266C187.642 23.188 187.687 22.6402 187.848 22.1203C188.009 21.6003 188.283 21.1204 188.65 20.713C189.017 20.3055 189.468 19.9801 189.975 19.7587C190.481 19.5374 191.03 19.4252 191.585 19.4298C193.919 19.4298 195.328 20.9933 195.328 23.5759V24.1422H189.402V24.2332C189.377 24.535 189.415 24.8388 189.516 25.1251C189.617 25.4114 189.778 25.6739 189.988 25.8957C190.199 26.1175 190.454 26.2938 190.738 26.4133C191.022 26.5327 191.328 26.5927 191.637 26.5893C192.033 26.6359 192.435 26.566 192.79 26.3885C193.146 26.2109 193.439 25.9338 193.634 25.5922L195.228 25.5923ZM189.402 22.9418H193.641C193.662 22.6658 193.624 22.3885 193.529 22.1279C193.434 21.8672 193.284 21.6289 193.09 21.4282C192.895 21.2276 192.66 21.069 192.399 20.9628C192.138 20.8565 191.858 20.8049 191.575 20.8113C191.289 20.8077 191.005 20.8604 190.739 20.9663C190.474 21.0721 190.233 21.2289 190.031 21.4275C189.828 21.626 189.668 21.8623 189.56 22.1224C189.452 22.3825 189.399 22.6611 189.402 22.9418H189.402Z" fill="white"/>
</g>
<defs>
<clipPath id="clip0">
<rect width="223" height="73.058" fill="white" transform="translate(0 0.96875)"/>
</clipPath>
</defs>
</svg>
