<?xml version="1.0" encoding="utf-8"?>
<!-- Generator: Adobe Illustrator 28.0.0, SVG Export Plug-In . SVG Version: 6.00 Build 0)  -->
<svg version="1.1" id="Layer_1" xmlns="http://www.w3.org/2000/svg" xmlns:xlink="http://www.w3.org/1999/xlink" x="0px" y="0px"
	 viewBox="0 0 413.6 1080" style="enable-background:new 0 0 413.6 1080;" xml:space="preserve">
<style type="text/css">
	.st0{fill:#FFFFFF;stroke:#000000;stroke-width:135.2254;stroke-linecap:round;stroke-linejoin:round;stroke-miterlimit:270.4508;}
</style>
<path class="st0" d="M70.7,269.2v540.9c0,63,0,94.5,7,119.3c9.2,33.1,26.9,59.5,49.1,73.2c16.6,10.2,37.8,10.2,80,10.2
	s63.4,0,80-10.2c22.2-13.7,39.9-40.1,49.1-73.2c6.9-24.8,6.9-56.3,6.9-119.3V269.2c0-63,0-94.5-6.9-119.3
	c-9.2-33.2-26.8-59.5-49-73.3c-16.6-10.4-37.8-10.4-80-10.4s-63.4,0-80,10.4c-22.4,13.8-40,40.1-49.2,73.2
	C70.7,174.7,70.7,206.1,70.7,269.2z"/>
</svg>
