<?xml version="1.0" encoding="utf-8"?>
<!-- Generator: Adobe Illustrator 27.0.0, SVG Export Plug-In . SVG Version: 6.00 Build 0)  -->
<svg version="1.1" id="Layer_1" xmlns="http://www.w3.org/2000/svg" xmlns:xlink="http://www.w3.org/1999/xlink" x="0px" y="0px"
	 viewBox="0 0 23 32" style="enable-background:new 0 0 23 32;" xml:space="preserve">
<style type="text/css">
	.st0{fill:#FFE91D;}
	.st1{fill:#EA1B1B;}
</style>
<g>
	<path class="st0" d="M2.5,4v28h18V4H2.5z M15.9,2.7v-1c0-0.9-0.8-1.7-1.9-1.7H8.9C7.9,0,7.1,0.7,7.1,1.7v1H15.9z"/>
	<g>
		<path class="st1" d="M17.6,26.3H5.4v-1.7h12.2V26.3z M17.6,28.9H5.4v-1.7h12.2V28.9z"/>
		<path class="st1" d="M9.3,7.9c0.4,4.3-3.6,5.7-3.6,9.5c0,2.6,2.2,4.4,4.8,4.8c-0.8-1.2,0-2.9,1.1-3.9c1.1,1,1.8,2.8,0.9,3.9
			c2.8-0.5,4.9-2.6,4.9-5.3c0-2.5-1.3-4.8-3.9-6.2c0.6,1.5-0.2,3-0.9,3.5C12.6,12.1,11.7,9.1,9.3,7.9z"/>
	</g>
</g>
</svg>
