<svg width="224" height="68" viewBox="0 0 224 68" fill="none" xmlns="http://www.w3.org/2000/svg">
<g clip-path="url(#clip0)">
<path d="M214.96 67.833H9.03017C4.41734 67.833 0.792969 64.1286 0.792969 59.414V8.89954C0.792969 4.18486 4.41734 0.480469 9.03017 0.480469H214.96C219.573 0.480469 223.197 4.18486 223.197 8.89954V59.414C223.197 63.9603 219.573 67.833 214.96 67.833Z" fill="black"/>
<path d="M214.96 1.82752C218.749 1.82752 221.879 5.02677 221.879 8.89954V59.414C221.879 63.2867 218.749 66.486 214.96 66.486H9.03017C5.24106 66.486 2.11092 63.2867 2.11092 59.414V8.89954C2.11092 5.02677 5.24106 1.82752 9.03017 1.82752H214.96ZM214.96 0.480469H9.03017C4.41734 0.480469 0.792969 4.18486 0.792969 8.89954V59.414C0.792969 64.1286 4.41734 67.833 9.03017 67.833H214.96C219.573 67.833 223.197 64.1286 223.197 59.414V8.89954C223.197 4.35324 219.573 0.480469 214.96 0.480469Z" fill="#A6A6A6"/>
<path d="M78.8827 17.6582C78.8827 19.0052 78.5532 20.1839 77.7295 21.0258C76.741 22.0361 75.5878 22.5412 74.1051 22.5412C72.6224 22.5412 71.4692 22.0361 70.4807 21.0258C69.4923 20.0155 68.998 18.8368 68.998 17.3214C68.998 15.806 69.4923 14.6273 70.4807 13.617C71.4692 12.6067 72.6224 12.1016 74.1051 12.1016C74.7641 12.1016 75.4231 12.2699 76.0821 12.6067C76.741 12.9435 77.2353 13.2802 77.5648 13.7854L76.741 14.6273C76.0821 13.7854 75.2583 13.4486 74.1051 13.4486C73.1167 13.4486 72.1282 13.7854 71.4692 14.6273C70.6455 15.3008 70.316 16.3111 70.316 17.4898C70.316 18.6684 70.6455 19.6787 71.4692 20.3523C72.2929 21.0258 73.1167 21.5309 74.1051 21.5309C75.2583 21.5309 76.0821 21.1942 76.9058 20.3523C77.4 19.8471 77.7295 19.1736 77.7295 18.3317H74.1051V17.153H78.8827C78.8827 17.153 78.8827 17.4898 78.8827 17.6582Z" fill="white" stroke="white" stroke-width="0.2" stroke-miterlimit="10"/>
<path d="M86.4613 13.4443H82.0133V16.6435H86.1319V17.8222H82.0133V21.0215H86.4613V22.3685H80.6953V12.2656H86.4613V13.4443Z" fill="white" stroke="white" stroke-width="0.2" stroke-miterlimit="10"/>
<path d="M91.8959 22.3685H90.578V13.4443H87.7773V12.2656H94.6966V13.4443H91.8959V22.3685Z" fill="white" stroke="white" stroke-width="0.2" stroke-miterlimit="10"/>
<path d="M99.4766 22.3685V12.2656H100.795V22.3685H99.4766Z" fill="white" stroke="white" stroke-width="0.2" stroke-miterlimit="10"/>
<path d="M106.394 22.3685H105.076V13.4443H102.275V12.2656H109.03V13.4443H106.229V22.3685H106.394Z" fill="white" stroke="white" stroke-width="0.2" stroke-miterlimit="10"/>
<path d="M122.046 21.0258C121.057 22.0361 119.904 22.5412 118.422 22.5412C116.939 22.5412 115.786 22.0361 114.797 21.0258C113.809 20.0155 113.314 18.8368 113.314 17.3214C113.314 15.806 113.809 14.6273 114.797 13.617C115.786 12.6067 116.939 12.1016 118.422 12.1016C119.904 12.1016 121.057 12.6067 122.046 13.617C123.034 14.6273 123.529 15.806 123.529 17.3214C123.529 18.8368 123.034 20.0155 122.046 21.0258ZM115.786 20.1839C116.445 20.8574 117.433 21.3625 118.422 21.3625C119.41 21.3625 120.398 21.0258 121.057 20.1839C121.716 19.5103 122.211 18.5001 122.211 17.3214C122.211 16.1427 121.881 15.1324 121.057 14.4589C120.398 13.7854 119.41 13.2802 118.422 13.2802C117.433 13.2802 116.445 13.617 115.786 14.4589C115.127 15.1324 114.632 16.1427 114.632 17.3214C114.632 18.5001 114.962 19.5103 115.786 20.1839Z" fill="white" stroke="white" stroke-width="0.2" stroke-miterlimit="10"/>
<path d="M125.34 22.3685V12.2656H126.823L131.6 20.1796V18.159V12.2656H132.918V22.3685H131.6L126.493 14.1178V16.1384V22.3685H125.34Z" fill="white" stroke="white" stroke-width="0.2" stroke-miterlimit="10"/>
<path d="M113.059 37.1595C109.121 37.1595 106.004 40.2559 106.004 44.5566C106.004 48.6852 109.121 51.9537 113.059 51.9537C116.996 51.9537 120.114 48.8573 120.114 44.5566C120.114 40.0839 116.996 37.1595 113.059 37.1595ZM113.059 48.8573C110.926 48.8573 109.121 46.965 109.121 44.3846C109.121 41.8042 110.926 39.9119 113.059 39.9119C115.192 39.9119 116.996 41.6321 116.996 44.3846C116.996 46.965 115.192 48.8573 113.059 48.8573ZM97.8002 37.1595C93.8625 37.1595 90.7452 40.2559 90.7452 44.5566C90.7452 48.6852 93.8625 51.9537 97.8002 51.9537C101.738 51.9537 104.855 48.8573 104.855 44.5566C104.855 40.0839 101.738 37.1595 97.8002 37.1595ZM97.8002 48.8573C95.6673 48.8573 93.8625 46.965 93.8625 44.3846C93.8625 41.8042 95.6673 39.9119 97.8002 39.9119C99.9331 39.9119 101.738 41.6321 101.738 44.3846C101.738 46.965 99.9331 48.8573 97.8002 48.8573ZM79.5884 39.3958V42.4923H86.6434C86.4793 44.2125 85.8231 45.5888 85.0027 46.4489C84.0183 47.481 82.3776 48.6852 79.5884 48.6852C75.1585 48.6852 71.8771 45.0727 71.8771 40.428C71.8771 35.7833 75.3226 32.1707 79.5884 32.1707C81.8854 32.1707 83.6902 33.2029 85.0027 34.407L87.1356 32.1707C85.3309 30.4504 83.0339 29.0742 79.7525 29.0742C73.8459 29.0742 68.7598 34.235 68.7598 40.428C68.7598 46.6209 73.8459 51.7817 79.7525 51.7817C83.0339 51.7817 85.3309 50.7496 87.2997 48.5132C89.2685 46.4489 89.9248 43.5244 89.9248 41.2881C89.9248 40.6 89.9248 39.9119 89.7608 39.3958H79.5884ZM154.076 41.8042C153.42 40.0839 151.779 37.1595 148.17 37.1595C144.56 37.1595 141.607 40.0839 141.607 44.5566C141.607 48.6852 144.56 51.9537 148.498 51.9537C151.615 51.9537 153.584 49.8894 154.24 48.6852L151.943 46.965C151.123 48.1692 150.139 49.0293 148.498 49.0293C146.857 49.0293 145.873 48.3412 145.052 46.7929L154.404 42.6643L154.076 41.8042ZM144.56 44.2125C144.56 41.4601 146.693 39.9119 148.17 39.9119C149.318 39.9119 150.467 40.6 150.795 41.4601L144.56 44.2125ZM136.849 51.2656H139.966V29.7623H136.849V51.2656ZM131.927 38.7077C131.106 37.8476 129.794 36.9874 128.153 36.9874C124.708 36.9874 121.426 40.2559 121.426 44.3846C121.426 48.5132 124.544 51.6097 128.153 51.6097C129.794 51.6097 131.106 50.7495 131.763 49.8894H131.927V50.9216C131.927 53.674 130.45 55.2222 128.153 55.2222C126.348 55.2222 125.036 53.846 124.708 52.6418L122.083 53.846C122.903 55.7383 124.872 58.1467 128.317 58.1467C131.927 58.1467 134.88 55.9103 134.88 50.5775V37.5035H131.927V38.7077ZM128.317 48.8573C126.184 48.8573 124.38 46.965 124.38 44.3846C124.38 41.8042 126.184 39.9119 128.317 39.9119C130.45 39.9119 132.091 41.8042 132.091 44.3846C132.091 46.965 130.45 48.8573 128.317 48.8573ZM168.35 29.7623H160.967V51.2656H164.085V43.1804H168.35C171.796 43.1804 175.077 40.6 175.077 36.4714C175.077 32.3427 171.796 29.7623 168.35 29.7623ZM168.514 40.0839H164.085V32.6868H168.514C170.811 32.6868 172.124 34.7511 172.124 36.2993C171.96 38.1916 170.647 40.0839 168.514 40.0839ZM187.383 36.9874C185.086 36.9874 182.789 38.0196 181.968 40.2559L184.757 41.4601C185.414 40.2559 186.398 39.9119 187.547 39.9119C189.187 39.9119 190.664 40.944 190.828 42.6643V42.8363C190.336 42.4923 189.023 41.9762 187.711 41.9762C184.757 41.9762 181.804 43.6965 181.804 46.7929C181.804 49.7174 184.265 51.6097 186.89 51.6097C189.023 51.6097 190.008 50.5775 190.828 49.5454H190.992V51.2656H193.945V43.0084C193.617 39.2238 190.828 36.9874 187.383 36.9874ZM187.054 48.8573C186.07 48.8573 184.593 48.3412 184.593 46.965C184.593 45.2447 186.398 44.7286 187.875 44.7286C189.187 44.7286 189.844 45.0727 190.664 45.4167C190.336 47.481 188.695 48.8573 187.054 48.8573ZM204.282 37.5035L200.836 46.7929H200.672L197.063 37.5035H193.781L199.196 50.5775L196.078 57.8026H199.196L207.563 37.5035H204.282ZM176.718 51.2656H179.835V29.7623H176.718V51.2656Z" fill="white"/>
<path d="M17.9292 13.1133C17.435 13.6184 17.1055 14.4603 17.1055 15.4706V52.6829C17.1055 53.6932 17.435 54.5351 17.9292 55.0403L18.0939 55.2086L38.5222 34.3293V34.161V33.9926L17.9292 13.1133Z" fill="url(#paint0_linear)"/>
<path d="M45.2779 41.4062L38.5234 34.5025V34.1658V33.9974L45.2779 27.0938L45.4427 27.2621L53.5152 31.9768C55.8216 33.3239 55.8216 35.5128 53.5152 36.8599L45.2779 41.4062Z" fill="url(#paint1_linear)"/>
<path d="M45.44 41.2322L38.5207 34.1602L17.9277 55.2078C18.7515 56.0497 19.9047 56.0497 21.3874 55.3762L45.44 41.2322Z" fill="url(#paint2_linear)"/>
<path d="M45.44 27.0878L21.3874 13.1121C19.9047 12.2702 18.7515 12.4386 17.9277 13.2805L38.5207 34.1598L45.44 27.0878Z" fill="url(#paint3_linear)"/>
<path opacity="0.2" d="M45.2753 41.0664L21.3874 54.8737C20.0694 55.7156 18.9162 55.5472 18.0925 54.8737L17.9277 55.0421L18.0925 55.2105C18.9162 55.884 20.0694 56.0524 21.3874 55.2105L45.2753 41.0664Z" fill="black"/>
<path opacity="0.12" d="M17.9305 54.873C17.4362 54.3678 17.2715 53.5259 17.2715 52.5156V52.684C17.2715 53.6943 17.601 54.5362 18.0952 55.0414V54.873H17.9305Z" fill="black"/>
<path opacity="0.12" d="M53.5126 36.3491L45.2754 41.0638L45.4401 41.2322L53.5126 36.5175C54.6658 35.844 55.16 35.0021 55.16 34.1602C55.16 35.0021 54.501 35.6756 53.5126 36.3491Z" fill="black"/>
<path opacity="0.25" d="M21.3901 13.2828L53.5152 31.9731C54.5037 32.6466 55.1626 33.3202 55.1626 34.1621C55.1626 33.3202 54.6684 32.4782 53.5152 31.8047L21.3901 13.1144C19.0837 11.7673 17.2715 12.946 17.2715 15.6401V15.8085C17.2715 13.1144 19.0837 11.9357 21.3901 13.2828Z" fill="white"/>
</g>
<defs>
<linearGradient id="paint0_linear" x1="36.7095" y1="15.1502" x2="8.4578" y2="42.7916" gradientUnits="userSpaceOnUse">
<stop stop-color="#00A0FF"/>
<stop offset="0.00657445" stop-color="#00A1FF"/>
<stop offset="0.2601" stop-color="#00BEFF"/>
<stop offset="0.5122" stop-color="#00D2FF"/>
<stop offset="0.7604" stop-color="#00DFFF"/>
<stop offset="1" stop-color="#00E3FF"/>
</linearGradient>
<linearGradient id="paint1_linear" x1="56.5372" y1="34.1681" x2="16.6742" y2="34.1681" gradientUnits="userSpaceOnUse">
<stop stop-color="#FFE000"/>
<stop offset="0.4087" stop-color="#FFBD00"/>
<stop offset="0.7754" stop-color="#FFA500"/>
<stop offset="1" stop-color="#FF9C00"/>
</linearGradient>
<linearGradient id="paint2_linear" x1="41.6954" y1="38.0264" x2="3.38374" y2="75.5104" gradientUnits="userSpaceOnUse">
<stop stop-color="#FF3A44"/>
<stop offset="1" stop-color="#C31162"/>
</linearGradient>
<linearGradient id="paint3_linear" x1="12.8162" y1="0.780189" x2="29.9241" y2="17.5183" gradientUnits="userSpaceOnUse">
<stop stop-color="#32A071"/>
<stop offset="0.0685" stop-color="#2DA771"/>
<stop offset="0.4762" stop-color="#15CF74"/>
<stop offset="0.8009" stop-color="#06E775"/>
<stop offset="1" stop-color="#00F076"/>
</linearGradient>
<clipPath id="clip0">
<rect width="224" height="68" fill="white"/>
</clipPath>
</defs>
</svg>
