<?xml version="1.0" encoding="utf-8"?>
<!-- Generator: Adobe Illustrator 28.0.0, SVG Export Plug-In . SVG Version: 6.00 Build 0)  -->
<svg version="1.1" id="Layer_1" xmlns="http://www.w3.org/2000/svg" xmlns:xlink="http://www.w3.org/1999/xlink" x="0px" y="0px"
	 viewBox="0 0 656 383" style="enable-background:new 0 0 656 383;" xml:space="preserve">
<style type="text/css">
	.st0{clip-path:url(#SVGID_00000058556267881932315830000007003427743342645414_);}
	.st1{fill-opacity:0;stroke:#C4C7CC;stroke-width:2;}
	.st2{fill-opacity:0;stroke:#C4C7CC;stroke-width:0.97;stroke-dasharray:2.91,3.88;}
	.st3{fill-opacity:0;stroke:url(#SVGID_00000054970394655281572700000013484372087169169037_);stroke-width:16;}
	.st4{fill:#FFFFFF;}
	.st5{fill-opacity:0;stroke:#C63D23;stroke-width:2;}
	.st6{fill:#C63D23;}
	.st7{fill-opacity:0;stroke:#7ABF4C;stroke-width:2;}
	.st8{fill:#7ABF4C;}
	.st9{fill:#40444D;}
</style>
<g>
	<g>
		<defs>
			<rect id="SVGID_1_" width="656" height="383"/>
		</defs>
		<clipPath id="SVGID_00000132779678178859362330000004452563593944348846_">
			<use xlink:href="#SVGID_1_"  style="overflow:visible;"/>
		</clipPath>
		<g style="clip-path:url(#SVGID_00000132779678178859362330000004452563593944348846_);">
			<g transform="matrix(1,0,0,1,0,0)">
				<g transform="matrix(1,0,0,1,0,0)">
					<path class="st1" d="M619.5,41.9v326.6"/>
				</g>
			</g>
			<g transform="matrix(1,0,0,1,0,0)">
				<g transform="matrix(1,0,0,1,0,0)">
					<path class="st2" d="M12.3,80h637.2"/>
				</g>
				<g transform="matrix(1,0,0,1,0,0)">
					<path class="st2" d="M12.3,176.2h637.2"/>
				</g>
				<g transform="matrix(1,0,0,1,0,0)">
					<path class="st2" d="M12.3,272.4h637.2"/>
				</g>
				<g transform="matrix(1,0,0,1,0,0)">
					<path class="st2" d="M12.3,368.6h637.2"/>
				</g>
			</g>
			<g transform="matrix(1,0,0,1,0,0)">
				<g transform="matrix(1,0,0,1,333.42999267578125,187.6909942626953)">
					
						<linearGradient id="SVGID_00000082327753901602082490000008378952810497982357_" gradientUnits="userSpaceOnUse" x1="-290.8067" y1="131.2534" x2="293.922" y2="-163.7006">
						<stop  offset="0" style="stop-color:#FF0200"/>
						<stop  offset="0.24" style="stop-color:#FF6F00"/>
						<stop  offset="0.48" style="stop-color:#FFDC00"/>
						<stop  offset="0.74" style="stop-color:#8ACA00"/>
						<stop  offset="1" style="stop-color:#14B933"/>
					</linearGradient>
					<path style="fill-opacity:0;stroke:url(#SVGID_00000082327753901602082490000008378952810497982357_);stroke-width:16;" d="
						M-287,130.8c0,0,41.1,0,71.1-15c77.8-38.9,95.2-143.3,181.3-159.3C58-60.8,268-24.5,287-162.8"/>
				</g>
			</g>
			<g transform="matrix(1,0,0,1,0,0)">
				<g transform="matrix(1,0,0,1,0,0)">
					<path class="st1" d="M42.4,334.5v34.1"/>
				</g>
			</g>
			<g transform="matrix(1,0,0,1,0,0)">
				<g transform="matrix(1,0,0,1,42.38399887084961,334.46600341796875)">
					<path class="st4" d="M0-38c12.2,0,22,9.9,22,22S12.2,6,0,6s-22-9.9-22-22S-12.2-38,0-38z"/>
					<path class="st5" d="M0-38c12.2,0,22,9.9,22,22S12.2,6,0,6s-22-9.9-22-22S-12.2-38,0-38z"/>
				</g>
				<g transform="matrix(1,0,0,1,42.38399887084961,334.46600341796875)">
					<path class="st6" d="M0-28c6.6,0,12,5.4,12,12S6.6-4,0-4s-12-5.4-12-12S-6.6-28,0-28z"/>
				</g>
			</g>
			<g transform="matrix(1,0,0,1,0,0)">
				<g transform="matrix(1,0,0,1,619.4660034179688,45.92499923706055)">
					<path class="st4" d="M0-38c12.2,0,22,9.9,22,22S12.2,6,0,6s-22-9.9-22-22S-12.2-38,0-38z"/>
					<path class="st7" d="M0-38c12.2,0,22,9.9,22,22S12.2,6,0,6s-22-9.9-22-22S-12.2-38,0-38z"/>
				</g>
				<g transform="matrix(1,0,0,1,619.4660034179688,45.92499923706055)">
					<path class="st8" d="M0-28c6.6,0,12,5.4,12,12S6.6-4,0-4s-12-5.4-12-12S-6.6-28,0-28z"/>
				</g>
			</g>
			<g transform="matrix(1,0,0,1,1.8779983520507812,0.149017333984375)">
				<g transform="matrix(1,0,0,1,42.3849983215332,267.3399963378906)">
					<path class="st9" d="M-34.1-47.1H34c4.4,0,8,3.6,8,8V-7c0,4.4-3.6,8-8,8H14L0,15L-14,1h-20c-4.4,0-8-3.6-8-8v-32
						C-42.1-43.5-38.5-47.1-34.1-47.1z"/>
				</g>
				<g transform="matrix(1,0,0,1,42.992000579833984,259.7300109863281)">
					<path class="st4" d="M-10.5-24.9v17.5h-2.4l-8.9-12.8H-22v12.8h-2.6v-17.5h2.4l8.9,12.9h0.2v-12.9H-10.5z M-1.4-7.1
						c-1.2,0-2.3-0.3-3.2-0.8c-0.9-0.6-1.6-1.4-2.1-2.4s-0.8-2.2-0.8-3.6s0.3-2.6,0.8-3.6s1.2-1.8,2.1-2.4s2-0.8,3.2-0.8
						s2.3,0.3,3.2,0.8c1,0.6,1.7,1.4,2.2,2.4s0.8,2.2,0.8,3.6S4.5-11.4,4-10.3C3.5-9.3,2.8-8.5,1.9-8C1-7.4-0.1-7.1-1.4-7.1z
						 M-1.3-9.3c0.8,0,1.5-0.3,2-0.7s0.9-0.9,1.2-1.6s0.4-1.5,0.4-2.3s-0.1-1.6-0.4-2.3c-0.3-0.7-0.7-1.3-1.3-1.7
						c-0.5-0.4-1.2-0.6-2-0.6s-1.5,0.2-2,0.6s-0.9,1-1.2,1.7C-4.8-15.5-5-14.7-5-13.9s0.1,1.6,0.4,2.3c0.3,0.7,0.7,1.2,1.3,1.6
						C-2.8-9.6-2.1-9.3-1.3-9.3z M10.1-7.4L6.2-20.5h2.6l2.6,9.6h0.1l2.6-9.6h2.6l2.6,9.6h0.1l2.6-9.6h2.6L20.8-7.4h-2.6l-2.7-9.5
						h-0.2l-2.7,9.5H10.1z"/>
				</g>
			</g>
		</g>
	</g>
</g>
</svg>
