<?xml version="1.0" encoding="utf-8"?>
<!-- Generator: Adobe Illustrator 28.0.0, SVG Export Plug-In . SVG Version: 6.00 Build 0)  -->
<svg version="1.1" id="Layer_1" xmlns="http://www.w3.org/2000/svg" xmlns:xlink="http://www.w3.org/1999/xlink" x="0px" y="0px"
	 viewBox="0 0 656 383" style="enable-background:new 0 0 656 383;" xml:space="preserve">
<style type="text/css">
	.st0{clip-path:url(#SVGID_00000071531129391397205910000011495889665356040383_);}
	.st1{fill-opacity:0;stroke:#C4C7CC;stroke-width:2;}
	.st2{fill-opacity:0;stroke:#C4C7CC;stroke-width:0.97;stroke-dasharray:2.91,3.88;}
	.st3{fill-opacity:0;stroke:url(#SVGID_00000124119832166154466980000005734565366848024238_);stroke-width:16;}
	.st4{fill:#FFFFFF;}
	.st5{fill-opacity:0;stroke:#C63D23;stroke-width:2;}
	.st6{fill:#C63D23;}
	.st7{fill-opacity:0;stroke:#7ABF4C;stroke-width:2;}
	.st8{fill:#7ABF4C;}
	.st9{fill:#40444D;}
</style>
<g>
	<g>
		<g>
			<g>
				<defs>
					<rect id="SVGID_1_" width="656" height="383"/>
				</defs>
				<clipPath id="SVGID_00000054248718868129294050000002454113117486006971_">
					<use xlink:href="#SVGID_1_"  style="overflow:visible;"/>
				</clipPath>
				<g style="clip-path:url(#SVGID_00000054248718868129294050000002454113117486006971_);">
					<g transform="matrix(1,0,0,1,0,0)">
						<g transform="matrix(1,0,0,1,0,0)">
							<path class="st1" d="M43.9,41.9v326.6"/>
						</g>
					</g>
					<g transform="matrix(1,0,0,1,0,0)">
						<g transform="matrix(1,0,0,1,0,0)">
							<path class="st2" d="M12.3,80h637.2"/>
						</g>
						<g transform="matrix(1,0,0,1,0,0)">
							<path class="st2" d="M12.3,176.2h637.2"/>
						</g>
						<g transform="matrix(1,0,0,1,0,0)">
							<path class="st2" d="M12.3,272.4h637.2"/>
						</g>
						<g transform="matrix(1,0,0,1,0,0)">
							<path class="st2" d="M12.3,368.6h637.2"/>
						</g>
					</g>
					<g transform="matrix(1,0,0,1,0,0)">
						<g transform="matrix(1,0,0,1,333.42999267578125,187.6909942626953)">
							
								<linearGradient id="SVGID_00000114794978510454464880000017303441257946849960_" gradientUnits="userSpaceOnUse" x1="-957.6667" y1="131.2534" x2="-372.938" y2="-163.7006" gradientTransform="matrix(1 0 0 -1 666.86 -32)">
								<stop  offset="0" style="stop-color:#FF0200"/>
								<stop  offset="0.24" style="stop-color:#FF6F00"/>
								<stop  offset="0.48" style="stop-color:#FFDC00"/>
								<stop  offset="0.74" style="stop-color:#8ACA00"/>
								<stop  offset="1" style="stop-color:#14B933"/>
							</linearGradient>
							<path style="fill-opacity:0;stroke:url(#SVGID_00000114794978510454464880000017303441257946849960_);stroke-width:16;" d="
								M-287-162.8c0,0,41.1,0,71.1,15c77.8,38.9,95.2,143.3,181.3,159.3C58,28.8,268-7.5,287,130.8"/>
						</g>
					</g>
					<g transform="matrix(1,0,0,1,0,0)">
						<g transform="matrix(1,0,0,1,0,0)">
							<path class="st1" d="M619.4,334.5v34.1"/>
						</g>
					</g>
					<g transform="matrix(1,0,0,1,0,0)">
						<g transform="matrix(1,0,0,1,42.38399887084961,334.46600341796875)">
							<path class="st4" d="M2-330c12.2,0,22,9.9,22,22s-9.8,22-22,22s-22-9.9-22-22S-10.2-330,2-330z"/>
							<path class="st5" d="M2-330c12.2,0,22,9.9,22,22s-9.8,22-22,22s-22-9.9-22-22S-10.2-330,2-330z"/>
						</g>
						<g transform="matrix(1,0,0,1,42.38399887084961,334.46600341796875)">
							<path class="st6" d="M2-320c6.6,0,12,5.4,12,12s-5.4,12-12,12s-12-5.4-12-12S-4.6-320,2-320z"/>
						</g>
					</g>
					<g transform="matrix(1,0,0,1,0,0)">
						<g transform="matrix(1,0,0,1,619.4660034179688,45.92499923706055)">
							<path class="st4" d="M0,252c12.2,0,22,9.9,22,22s-9.8,22-22,22s-22-9.9-22-22S-12.2,252,0,252z"/>
							<path class="st7" d="M0,252c12.2,0,22,9.9,22,22s-9.8,22-22,22s-22-9.9-22-22S-12.2,252,0,252z"/>
						</g>
						<g transform="matrix(1,0,0,1,619.4660034179688,45.92499923706055)">
							<path class="st8" d="M0,262c6.6,0,12,5.4,12,12s-5.4,12-12,12s-12-5.4-12-12S-6.6,262,0,262z"/>
						</g>
					</g>
					<g transform="matrix(1,0,0,1,1.8779983520507812,0.149017333984375)">
						<g transform="matrix(1,0,0,1,42.3849983215332,267.3399963378906)">
							<path class="st9" d="M-34.5-149h68.1c4.4,0,8-3.6,8-8v-32.1c0-4.4-3.6-8-8-8h-20l-14-14l-14,14h-20c-4.4,0-8,3.6-8,8v32
								C-42.5-152.6-38.9-149-34.5-149z"/>
						</g>
						<g transform="matrix(1,0,0,1,42.992000579833984,259.7300109863281)">
							<path class="st4" d="M-10.9-174.9v17.5h-2.4l-8.9-12.8h-0.2v12.8H-25v-17.5h2.4l8.9,12.9h0.2v-12.9
								C-13.5-174.9-10.9-174.9-10.9-174.9z M-1.8-157.1c-1.2,0-2.3-0.3-3.2-0.8c-0.9-0.6-1.6-1.4-2.1-2.4s-0.8-2.2-0.8-3.6
								c0-1.4,0.3-2.6,0.8-3.6s1.2-1.8,2.1-2.4c0.9-0.6,2-0.8,3.2-0.8s2.3,0.3,3.2,0.8c1,0.6,1.7,1.4,2.2,2.4s0.8,2.2,0.8,3.6
								c0,1.4-0.3,2.5-0.8,3.6c-0.5,1-1.2,1.8-2.1,2.3C0.6-157.4-0.5-157.1-1.8-157.1z M-1.7-159.3c0.8,0,1.5-0.3,2-0.7
								s0.9-0.9,1.2-1.6c0.3-0.7,0.4-1.5,0.4-2.3s-0.1-1.6-0.4-2.3s-0.7-1.3-1.3-1.7c-0.5-0.4-1.2-0.6-2-0.6s-1.5,0.2-2,0.6
								c-0.5,0.4-0.9,1-1.2,1.7c-0.2,0.7-0.4,1.5-0.4,2.3s0.1,1.6,0.4,2.3s0.7,1.2,1.3,1.6C-3.2-159.6-2.5-159.3-1.7-159.3z
								 M9.7-157.4l-3.9-13.1h2.6l2.6,9.6h0.1l2.6-9.6h2.6l2.6,9.6H19l2.6-9.6h2.6l-3.8,13.1h-2.6l-2.7-9.5h-0.2l-2.7,9.5
								C12.2-157.4,9.7-157.4,9.7-157.4z"/>
						</g>
					</g>
				</g>
			</g>
		</g>
	</g>
</g>
</svg>
