<?xml version="1.0" encoding="utf-8"?>
<!-- Generator: Adobe Illustrator 27.0.0, SVG Export Plug-In . SVG Version: 6.00 Build 0)  -->
<svg version="1.1" id="Layer_1" xmlns="http://www.w3.org/2000/svg" xmlns:xlink="http://www.w3.org/1999/xlink" x="0px" y="0px"
	 viewBox="0 0 348.5 416.7" style="enable-background:new 0 0 348.5 416.7;" xml:space="preserve">
<style type="text/css">
	.st0{fill:#133F26;}
</style>
<path class="st0" d="M116.7,0c23,0,41.7,18.7,41.7,41.7c0,20.2-14.3,37-33.3,40.8l4.2,67.5H225v33.3h-93.7l2.1,33.3H250L301.8,333
	l33.7-14.3l13,30.7l-63.6,27.7l-0.3-0.6l-0.8,0.3L228.4,250H91.7V75C81.5,67.4,75,55.3,75,41.7C75,18.7,93.7,0,116.7,0z M125,416.7
	c-69,0-125-56-125-125c0-51.3,30.9-95.3,75-114.6v37.8c-25.1,16.4-41.7,44.7-41.7,76.8c0,50.6,41,91.7,91.7,91.7s91.7-41,91.7-91.7
	l0-1l21.1,55C217.6,387.7,174.7,416.7,125,416.7z"/>
</svg>
