<svg width="19" height="21" viewBox="0 0 19 21" fill="none" xmlns="http://www.w3.org/2000/svg">
<path fill-rule="evenodd" clip-rule="evenodd" d="M9.5 0C6.51766 0 4.1 2.41766 4.1 5.4V7.9011C2.87285 7.90732 2.18373 7.94893 1.63803 8.22698C1.07354 8.5146 0.614601 8.97354 0.32698 9.53803C0 10.1798 0 11.0198 0 12.7V16.1C0 17.7802 0 18.6202 0.32698 19.262C0.614601 19.8265 1.07354 20.2854 1.63803 20.573C2.27976 20.9 3.11984 20.9 4.8 20.9H14.2C15.8802 20.9 16.7202 20.9 17.362 20.573C17.9265 20.2854 18.3854 19.8265 18.673 19.262C19 18.6202 19 17.7802 19 16.1V12.7C19 11.0198 19 10.1798 18.673 9.53803C18.3854 8.97354 17.9265 8.5146 17.362 8.22698C16.8163 7.94893 16.1271 7.90732 14.9 7.9011V5.4C14.9 2.41766 12.4823 0 9.5 0ZM13.1 7.9V5.4C13.1 3.41178 11.4882 1.8 9.5 1.8C7.51178 1.8 5.9 3.41178 5.9 5.4V7.9H13.1ZM10.5 15.1324C11.0978 14.7866 11.5 14.1403 11.5 13.4C11.5 12.2954 10.6046 11.4 9.5 11.4C8.39543 11.4 7.5 12.2954 7.5 13.4C7.5 14.1403 7.9022 14.7866 8.5 15.1324V16.9C8.5 17.4523 8.94771 17.9 9.5 17.9C10.0523 17.9 10.5 17.4523 10.5 16.9V15.1324Z" fill="white"/>
</svg>
