<?xml version="1.0" encoding="UTF-8"?>
<svg id="Layer_2" data-name="Layer 2" xmlns="http://www.w3.org/2000/svg" viewBox="0 0 1744.46 289.63">
  <defs>
    <style>
      .cls-1 {
        fill: #fff;
      }

      .cls-2 {
        fill: #153f27;
      }
    </style>
  </defs>
  <g id="Layer_1-2" data-name="Layer 1">
    <g>
      <rect class="cls-2" x="723.68" y="0" width="790.04" height="289.16"/>
      <path class="cls-1" d="M798.84,193.75l17.05-17.71c4.02,4.46,8.84,8.05,14.46,10.78,5.62,2.73,11.41,4.1,17.38,4.1s10.5-1.62,14.18-4.85c3.67-3.23,5.51-7.3,5.51-12.2,0-3.26-.88-6.15-2.64-8.67-1.76-2.51-4.25-4.65-7.49-6.41-3.23-1.76-6.55-3.31-9.94-4.66-3.39-1.35-7.33-2.97-11.82-4.85-4.49-1.88-8.27-3.7-11.35-5.46-12.75-7.47-19.12-17.71-19.12-30.71,0-5.84,1.27-11.19,3.81-16.06,2.54-4.87,5.9-8.87,10.08-12.01,4.18-3.14,8.92-5.57,14.22-7.3,5.31-1.73,10.78-2.59,16.44-2.59,14.69,0,27.75,4.24,39.18,12.72l-13.56,19.31c-2.76-2.57-6.26-4.69-10.5-6.36-4.24-1.66-8.49-2.5-12.76-2.5-2.58,0-5.06,.28-7.44,.85-2.39,.57-4.6,1.4-6.64,2.5-2.04,1.1-3.69,2.62-4.94,4.57-1.26,1.95-1.88,4.18-1.88,6.69s.89,4.91,2.68,7.02c1.79,2.11,4.14,3.85,7.06,5.23,2.92,1.38,6.25,2.87,9.98,4.47,3.74,1.6,7.55,3.16,11.44,4.66,3.89,1.51,7.71,3.44,11.44,5.79,3.74,2.36,7.06,4.95,9.98,7.77,2.92,2.83,5.27,6.44,7.06,10.83,1.79,4.4,2.68,9.32,2.68,14.79,0,7.72-2.12,14.73-6.36,21-4.24,6.28-9.83,11.1-16.77,14.46-6.94,3.36-14.46,5.04-22.56,5.04-17.9,0-34.19-6.75-48.88-20.25Z"/>
      <path class="cls-1" d="M995.35,183.01l14.22,14.22c-4.46,5.34-10.11,9.47-16.95,12.39-6.84,2.92-13.97,4.38-21.38,4.38-14.19,0-25.9-4.49-35.13-13.47-9.23-8.98-13.85-20.69-13.85-35.13,0-6.47,1.08-12.65,3.25-18.56,2.17-5.9,5.18-11.1,9.04-15.59,3.86-4.49,8.67-8.05,14.41-10.69,5.75-2.64,12.01-3.96,18.79-3.96,8.41,0,16.01,2.18,22.79,6.55,6.78,4.37,12.04,10.19,15.78,17.47,3.73,7.28,5.6,15.23,5.6,23.83,0,2.64-.19,5.02-.57,7.16h-64.8c.63,6.53,3.33,11.85,8.1,15.97,4.77,4.11,10.49,6.17,17.14,6.17,4.83,0,9.31-1.07,13.42-3.2,4.11-2.13,7.49-4.65,10.13-7.54Zm-47.66-29.76h38.62c-.38-4.33-2.32-8.15-5.84-11.44-3.52-3.3-7.76-4.94-12.72-4.94s-9.56,1.63-13.42,4.9c-3.86,3.27-6.08,7.1-6.64,11.49Z"/>
      <path class="cls-1" d="M1114.06,178.58l19.31,14.41c-10.49,14-24.65,21-42.48,21-14.32,0-26.25-4.69-35.79-14.08-9.55-9.39-14.32-20.89-14.32-34.52,0-8.98,2.18-17.19,6.55-24.63,4.36-7.44,10.41-13.33,18.13-17.66,7.72-4.33,16.26-6.5,25.62-6.5,7.91,0,15.34,1.7,22.28,5.09,6.94,3.39,12.64,7.94,17.1,13.66l-17.71,15.64c-2.58-3.45-5.73-6.18-9.47-8.19-3.74-2.01-7.8-3.01-12.2-3.01-7.22,0-13.23,2.47-18.04,7.39-4.8,4.93-7.21,11.01-7.21,18.23s2.4,13.52,7.21,18.32c4.8,4.8,11,7.21,18.6,7.21,4.77,0,9.14-1.19,13.09-3.58,3.96-2.39,7.06-5.31,9.32-8.76Z"/>
      <path class="cls-1" d="M1217.33,116.6c2.01,0,4.83,.26,8.48,.77l-2.83,23.82c-1.88-.64-4.9-.96-9.04-.96-5.02,0-9.61,1.44-13.75,4.32-4.14,2.88-7.16,6.02-9.04,9.41v60.03h-25.05V118.62h24.11v14.69c0-4.23,2.53-8.07,7.58-11.53,5.05-3.46,11.57-5.19,19.54-5.19Z"/>
      <path class="cls-1" d="M1321.07,183.01l14.22,14.22c-4.46,5.34-10.11,9.47-16.95,12.39-6.84,2.92-13.97,4.38-21.38,4.38-14.19,0-25.9-4.49-35.13-13.47-9.23-8.98-13.85-20.69-13.85-35.13,0-6.47,1.08-12.65,3.25-18.56,2.17-5.9,5.18-11.1,9.04-15.59,3.86-4.49,8.67-8.05,14.41-10.69,5.75-2.64,12.01-3.96,18.79-3.96,8.41,0,16.01,2.18,22.79,6.55,6.78,4.37,12.04,10.19,15.78,17.47,3.73,7.28,5.6,15.23,5.6,23.83,0,2.64-.19,5.02-.57,7.16h-64.8c.63,6.53,3.33,11.85,8.1,15.97,4.77,4.11,10.49,6.17,17.14,6.17,4.83,0,9.31-1.07,13.42-3.2,4.11-2.13,7.49-4.65,10.13-7.54Zm-47.66-29.76h38.62c-.38-4.33-2.32-8.15-5.84-11.44-3.52-3.3-7.76-4.94-12.72-4.94s-9.56,1.63-13.42,4.9c-3.86,3.27-6.08,7.1-6.64,11.49Z"/>
      <path class="cls-1" d="M1435.37,190.73l5.44,21.38c-3.64,1.26-8.85,1.88-15.64,1.88-14.82,0-25.62-4.49-32.4-13.47-4.65-6.22-6.97-15.54-6.97-27.97v-32.78l-25.01-.03v-21.16h25.01v-26.09h25.15v26.09h25.07v21.16l-25.07,.03v35.7c0,5.46,1,9.39,3.01,11.77,2.7,3.08,6.97,4.62,12.81,4.62,3.96,0,5.77-.5,8.59-1.13Z"/>
    </g>
    <g>
      <g>
        <path class="cls-2" d="M1675,88.49l48.77-81.97c1.59-2.67-.34-6.05-3.44-6.05h-97.54c-3.1,0-5.02,3.38-3.44,6.05l48.77,81.97c1.55,2.61,5.32,2.61,6.88,0Z"/>
        <path class="cls-2" d="M1675,201.53l48.82,82.05c1.59,2.67-.34,6.05-3.44,6.05h-97.64c-3.1,0-5.02-3.38-3.44-6.05l48.82-82.05c1.55-2.61,5.32-2.61,6.88,0Z"/>
      </g>
      <rect class="cls-2" x="1598.66" y="123.81" width="145.8" height="42.47"/>
    </g>
    <g>
      <path class="cls-2" d="M0,75.63H45.87c7.22,0,13.19,.82,17.9,2.47,4.71,1.65,8.85,4.08,12.43,7.31,3.89,3.48,6.95,7.65,9.18,12.49,2.23,4.84,3.34,10.01,3.34,15.49,0,4.32-.85,8.63-2.54,12.92-1.7,4.29-3.74,7.7-6.12,10.21,6.03,3.1,10.91,7.88,14.65,14.33,3.74,6.45,5.6,13.52,5.6,21.2,0,5.75-1.1,11.2-3.3,16.36-2.2,5.16-5.21,9.68-9.04,13.55-8.1,8.33-19.87,12.49-35.32,12.49H0V75.63Zm26,23.82v29.72h18.37c6.59,0,11.4-1.65,14.41-4.94,2.57-2.84,3.86-6.13,3.86-9.88s-1.29-7.13-3.86-9.97c-3.01-3.29-7.82-4.94-14.41-4.94H26Zm0,91.2h26.09c7.97,0,13.75-2.03,17.33-6.1,3.2-3.49,4.8-7.71,4.8-12.68s-1.6-9.2-4.8-12.68c-3.58-4.13-9.36-6.2-17.33-6.2H26v37.66Z"/>
      <g>
        <path class="cls-2" d="M158.19,119.05v95.42h-25.06V119.05h25.06Z"/>
        <path class="cls-2" d="M136.8,101.68c-2.45-2.35-3.67-5.26-3.67-8.71s1.22-6.36,3.67-8.71c2.45-2.35,5.4-3.53,8.86-3.53s6.41,1.18,8.86,3.53c2.45,2.35,3.67,5.26,3.67,8.71s-1.22,6.36-3.67,8.71c-2.45,2.35-5.4,3.53-8.86,3.53s-6.41-1.18-8.86-3.53Z"/>
      </g>
      <path class="cls-2" d="M199.34,190.35c-4.3-7.41-6.45-15.57-6.45-24.49s2.15-17.1,6.45-24.54c4.3-7.44,10.27-13.34,17.9-17.71,7.63-4.36,16.09-6.55,25.39-6.55s17.76,2.18,25.39,6.55c7.63,4.37,13.6,10.27,17.9,17.71,4.3,7.44,6.45,15.62,6.45,24.54s-2.15,17.08-6.45,24.49c-4.3,7.41-10.27,13.28-17.9,17.61-7.63,4.33-16.09,6.5-25.39,6.5s-17.76-2.17-25.39-6.5c-7.63-4.33-13.6-10.2-17.9-17.61Zm25.53-42.72c-4.62,4.93-6.92,11.01-6.92,18.23s2.31,13.28,6.92,18.18c4.62,4.9,10.53,7.35,17.76,7.35s13.14-2.45,17.76-7.35c4.62-4.9,6.92-10.96,6.92-18.18s-2.31-13.3-6.92-18.23c-4.62-4.93-10.54-7.39-17.76-7.39s-13.14,2.47-17.76,7.39Z"/>
      <path class="cls-2" d="M327.15,119.09h24.11v14.7c.19-4.23,2.65-8.07,7.39-11.53,4.74-3.46,10.69-5.19,17.85-5.19,6.22,0,12.07,1.34,17.57,4.03,5.49,2.69,10.13,6.34,13.89,10.95,4.08-4.42,9-8.02,14.74-10.81,5.75-2.79,11.88-4.18,18.42-4.18s12.53,1.38,18.37,4.13c5.84,2.75,10.64,6.5,14.41,11.24,6.28,7.94,9.42,18.44,9.42,31.51v50.52h-25.06v-51.58c0-7.36-1.54-12.81-4.62-16.33-3.52-3.91-8.19-5.86-14.03-5.86-4.84,0-9.29,1.33-13.38,3.99-4.08,2.66-7.16,5.52-9.23,8.6,.5,4.23,.75,7.78,.75,10.66v50.52h-25.06v-51.58c0-7.36-1.54-12.81-4.62-16.33-3.52-3.91-8.23-5.86-14.13-5.86-4.71,0-8.93,1.22-12.67,3.65-3.74,2.43-6.77,5.16-9.09,8.16v61.95h-25.06V119.09Z"/>
      <path class="cls-2" d="M589.23,183.48l14.22,14.22c-4.46,5.34-10.11,9.47-16.96,12.39-6.85,2.92-13.97,4.38-21.38,4.38-14.19,0-25.9-4.49-35.14-13.47-9.23-8.98-13.85-20.69-13.85-35.13,0-6.47,1.08-12.65,3.25-18.56,2.17-5.9,5.18-11.1,9.04-15.59,3.86-4.49,8.67-8.05,14.41-10.69,5.75-2.64,12.01-3.96,18.79-3.96,8.41,0,16.01,2.18,22.79,6.55,6.78,4.37,12.04,10.19,15.78,17.47,3.74,7.29,5.6,15.23,5.6,23.83,0,2.64-.19,5.02-.57,7.16h-64.81c.63,6.53,3.33,11.85,8.1,15.97,4.77,4.11,10.49,6.17,17.14,6.17,4.83,0,9.31-1.07,13.42-3.2,4.11-2.13,7.49-4.65,10.13-7.54Zm-47.66-29.77h38.62c-.38-4.33-2.32-8.15-5.84-11.44-3.52-3.3-7.76-4.94-12.72-4.94s-9.56,1.63-13.42,4.9c-3.86,3.27-6.08,7.1-6.64,11.49Z"/>
      <rect class="cls-2" x="0" y=".47" width="681.2" height="42.47"/>
      <rect class="cls-2" x="0" y="247.16" width="680.97" height="42.47"/>
    </g>
  </g>
</svg>