<?xml version="1.0" encoding="UTF-8"?>
<svg id="Layer_2" data-name="Layer 2" xmlns="http://www.w3.org/2000/svg" viewBox="0 0 791.69 217.2">
  <defs>
    <style>
      .cls-1 {
        fill: #fff;
      }

      .cls-2 {
        fill: #ffc90d;
      }
    </style>
  </defs>
  <g id="Layer_1-2" data-name="Layer 1">
    <g>
      <polygon class="cls-2" points="303.94 78.78 303.94 144.28 317.85 144.28 317.85 46.87 308.14 46.87 270.54 106.33 233.03 46.87 223.24 46.87 223.24 144.28 237.14 144.28 237.14 78.78 265.64 123.38 275.44 123.38 303.94 78.78"/>
      <path id="_1" data-name="1" class="cls-2" d="M389.98,144.28h12.77V78.87h-12.77v6.03c-5.77-4.98-12.59-7.43-20.46-7.43-5.95,0-11.28,1.4-16,4.2-5.16,2.97-9.18,7.08-12.24,12.42-3.06,5.25-4.63,11.1-4.63,17.49s1.49,12.24,4.55,17.49c2.97,5.25,7.08,9.36,12.15,12.33,4.81,2.89,10.32,4.28,16.44,4.28,7.96,0,14.69-2.45,20.2-7.34v5.95Zm-.44-20.46c-4.63,6.21-10.67,9.36-17.93,9.36-6.3,0-11.45-2.1-15.56-6.38-4.11-4.2-6.21-9.27-6.21-15.21s2.01-11.02,5.95-15.21c3.93-4.2,9.01-6.38,15.13-6.38,7.69,0,13.9,3.15,18.62,9.36v24.48Z"/>
      <path id="_2" data-name="2" class="cls-2" d="M473.75,138.59v3.59c0,7.52-1.22,13.12-3.67,16.88-3.24,4.98-8.48,7.52-15.83,7.52-8.57,0-15.74-3.93-21.6-11.72l-9.71,9.01c2.45,4.02,6.47,7.52,11.98,10.58,5.6,3.06,12.15,4.63,19.85,4.63,6.38,0,12.07-1.4,16.96-4.28,4.81-2.8,8.57-6.73,11.28-11.89,2.62-5.07,3.93-12.24,3.93-21.42v-62.61h-12.85v6.03c-5.68-4.98-12.5-7.43-20.46-7.43-5.86,0-11.19,1.4-16,4.2-5.07,2.97-9.18,7.08-12.24,12.42-3.06,5.25-4.55,11.1-4.55,17.49s1.49,12.24,4.55,17.49c2.97,5.25,7.08,9.36,12.15,12.33,4.81,2.89,10.32,4.28,16.44,4.28,7.69,0,14.25-2.36,19.76-7.08Zm0-14.78c-4.63,6.21-10.67,9.36-18.01,9.36-6.21,0-11.37-2.1-15.48-6.38-4.11-4.2-6.21-9.27-6.21-15.21s2.01-11.02,5.95-15.21,8.92-6.38,15.04-6.38c7.69,0,13.99,3.15,18.71,9.36v24.48Z"/>
      <path id="_3" data-name="3" class="cls-2" d="M510.56,144.28h13.29V78.87h-13.29v65.41Zm-2.1-88.66c0,2.45,.87,4.46,2.54,6.12,1.66,1.66,3.76,2.54,6.12,2.54s4.46-.87,6.21-2.54c1.75-1.66,2.54-3.67,2.54-6.12s-.79-4.46-2.54-6.12c-1.75-1.75-3.76-2.62-6.21-2.62s-4.46,.87-6.12,2.62c-1.66,1.66-2.54,3.76-2.54,6.12Z"/>
      <path id="_4" data-name="4" class="cls-2" d="M595.73,123.03c-5.07,6.73-11.37,10.14-18.89,10.14-6.3,0-11.54-2.01-15.56-6.03-4.11-3.93-6.12-9.18-6.12-15.56s1.92-11.37,5.95-15.48c4.02-4.02,8.92-6.12,14.86-6.12,7.34,0,13.38,3.32,18.1,9.88l9.79-8.13c-3.15-4.37-7.26-7.87-12.15-10.41-4.9-2.54-10.14-3.85-15.74-3.85-9.71,0-17.84,3.24-24.31,9.79-6.47,6.47-9.79,14.6-9.79,24.31s3.32,17.84,9.97,24.4c6.65,6.47,14.95,9.71,25.01,9.71,5.95,0,11.54-1.4,16.96-4.28,5.42-2.8,9.44-6.47,12.07-11.02l-10.14-7.34Z"/>
      <path id="_5" data-name="5" class="cls-2" d="M635.87,87.97v-27.89h22.21c5.86,0,10.14,1.49,12.85,4.37,2.54,2.71,3.85,5.95,3.85,9.53s-1.31,6.82-3.85,9.62c-2.71,2.89-7,4.37-12.85,4.37h-22.21Zm22.91,13.2c8.57,0,15.3-2.19,20.37-6.38,6.38-5.51,9.53-12.42,9.53-20.81s-3.15-15.21-9.53-20.72c-5.07-4.2-11.8-6.38-20.37-6.38h-36.9v97.41h13.99v-43.11h22.91Z"/>
      <path id="_6" data-name="6" class="cls-2" d="M704.68,144.28h13.29V78.87h-13.29v65.41Zm-2.1-88.66c0,2.45,.87,4.46,2.54,6.12,1.66,1.66,3.76,2.54,6.12,2.54s4.46-.87,6.21-2.54c1.75-1.66,2.54-3.67,2.54-6.12s-.79-4.46-2.54-6.12c-1.75-1.75-3.76-2.62-6.21-2.62s-4.46,.87-6.12,2.62c-1.66,1.66-2.54,3.76-2.54,6.12Z"/>
      <polygon id="_7" data-name="7" class="cls-2" points="741.58 144.28 754.79 144.28 754.79 45.47 741.58 45.47 741.58 144.28"/>
      <polygon id="_8" data-name="8" class="cls-2" points="778.48 144.28 791.69 144.28 791.69 45.47 778.48 45.47 778.48 144.28"/>
      <path class="cls-2" d="M96.62,27.72c0,17.44,0,44.15,0,61.59,0,25.41,0,50.81,0,76.22v51.68h-5.77l1.66-51.94c-13.12-2.01-23.17-13.38-23.17-27.02V55c0-8.83,25.11-17.02,27.28-27.28"/>
      <path class="cls-2" d="M75.02,177.33c3.5,.87,5.6,4.46,4.63,7.96s-4.55,5.6-8.04,4.63c-21.07-5.6-39-18.01-51.59-34.45C7.34,138.94,0,118.48,0,96.62,0,69.95,10.84,45.82,28.33,28.33,45.82,10.84,69.95,0,96.62,0s50.89,10.84,68.38,28.33c17.49,17.49,28.33,41.62,28.33,68.29,0,21.86-7.34,42.32-20.02,58.85-12.59,16.44-30.52,28.86-51.68,34.45-3.5,.96-7.08-1.14-7.96-4.63-.96-3.5,1.14-7.08,4.63-7.96,18.28-4.9,33.66-15.65,44.59-29.82,10.93-14.25,17.31-32,17.31-50.89,0-23.08-9.36-43.9-24.48-59.02-15.13-15.13-36.03-24.48-59.11-24.48s-43.9,9.36-59.02,24.48c-15.13,15.13-24.48,35.94-24.48,59.02,0,18.89,6.38,36.64,17.31,50.89,10.84,14.17,26.32,24.92,44.59,29.82Z"/>
      <g>
        <rect class="cls-1" x="69.34" y="126.9" width="6.74" height="2.43"/>
        <rect class="cls-1" x="69.34" y="118.63" width="16.36" height="2.43"/>
        <rect class="cls-1" x="69.34" y="110.35" width="6.74" height="2.43"/>
        <rect class="cls-1" x="69.34" y="102.08" width="16.36" height="2.43"/>
        <rect class="cls-1" x="69.34" y="85.54" width="16.36" height="2.43"/>
        <rect class="cls-1" x="69.34" y="93.81" width="6.74" height="2.43"/>
        <rect class="cls-1" x="69.34" y="77.26" width="6.74" height="2.43"/>
        <rect class="cls-1" x="69.34" y="68.99" width="16.36" height="2.43"/>
      </g>
      <g>
        <rect class="cls-2" x="117.13" y="126.9" width="6.74" height="2.43" transform="translate(241.01 256.23) rotate(180)"/>
        <rect class="cls-2" x="107.51" y="118.63" width="16.36" height="2.43" transform="translate(231.38 239.68) rotate(180)"/>
        <rect class="cls-2" x="117.13" y="110.35" width="6.74" height="2.43" transform="translate(241.01 223.14) rotate(180)"/>
        <rect class="cls-2" x="107.51" y="102.08" width="16.36" height="2.43" transform="translate(231.38 206.59) rotate(180)"/>
        <rect class="cls-2" x="107.51" y="85.54" width="16.36" height="2.43" transform="translate(231.38 173.5) rotate(180)"/>
        <rect class="cls-2" x="117.13" y="93.81" width="6.74" height="2.43" transform="translate(241.01 190.05) rotate(180)"/>
        <rect class="cls-2" x="117.13" y="77.26" width="6.74" height="2.43" transform="translate(241.01 156.96) rotate(180)"/>
        <rect class="cls-2" x="107.51" y="68.99" width="16.36" height="2.43" transform="translate(231.38 140.41) rotate(180)"/>
      </g>
    </g>
  </g>
</svg>