<svg width="47px" height="47px" viewBox="0 0 47 47" version="1.1" xmlns="http://www.w3.org/2000/svg" xmlns:xlink="http://www.w3.org/1999/xlink">
    <title>Primary Plus Black</title>
    <desc>Created with Sketch.</desc>
    <g id="Icons" stroke="none" stroke-width="1" fill="none" fill-rule="evenodd">
        <g id="Primary-Plus-Black" fill="#0B0B0B">
            <path d="M23.5,44.10574 C12.137985,44.10574 2.89426,34.862015 2.89426,23.5 C2.89426,12.13822 12.137985,2.894495 23.5,2.894495 C34.862015,2.894495 44.10574,12.13822 44.10574,23.5 C44.10574,34.862015 34.862015,44.10574 23.5,44.10574 M23.5,0 C10.5421,0 0,10.542335 0,23.5 C0,36.4579 10.5421,47 23.5,47 C36.4579,47 47,36.4579 47,23.5 C47,10.542335 36.4579,0 23.5,0" id="Fill-1"></path>
            <rect id="Rectangle1" x="10" y="22" width="27" height="3" rx="1.5"></rect>
            <rect id="Rectangle2" x="22" y="10" width="3" height="27" rx="1.5"></rect>
        </g>
    </g>
</svg>